<svg width="96.0000" height="96.0000" version="1.1" xmlns="http://www.w3.org/2000/svg" xmlns:xlink="http://www.w3.org/1999/xlink">
<path stroke-width="10.0" stroke="rgb(255, 0, 0)" fill="none" d="M42.31 34.31 L42.31 34.11 L42.3 33.92 L42.29 33.72 L42.27 33.53 L42.25 33.33 L42.22 33.14 L42.19 32.94 L42.16 32.75 L42.12 32.56 L42.07 32.37 L42.02 32.18 L41.97 31.99 L41.91 31.8 L41.84 31.62 L41.77 31.43 L41.7 31.25 L41.62 31.07 L41.54 30.89 L41.46 30.71 L41.37 30.54 L41.27 30.37 L41.17 30.2 L41.07 30.03 L40.96 29.87 L40.85 29.7 L40.74 29.54 L40.62 29.39 L40.49 29.24 L40.37 29.09 L40.24 28.94 L40.1 28.79 L39.97 28.65 L39.83 28.52 L39.68 28.38 L39.54 28.25 L39.39 28.13 L39.23 28 L39.08 27.88 L38.92 27.77 L38.76 27.66 L38.59 27.55 L38.42 27.45 L38.25 27.35 L38.08 27.26 L37.91 27.16 L37.73 27.08 L37.55 27 L37.37 26.92 L37.19 26.85 L37.01 26.78 L36.82 26.71 L36.63 26.66 L36.44 26.6 L36.25 26.55 L36.06 26.5 L35.87 26.46 L35.68 26.43 L35.48 26.4 L35.29 26.37 L35.09 26.35 L34.9 26.33 L34.7 26.32 L34.51 26.31 L34.31 26.31 L34.11 26.31 L33.92 26.32 L33.72 26.33 L33.53 26.35 L33.33 26.37 L33.14 26.4 L32.94 26.43 L32.75 26.46 L32.56 26.5 L32.37 26.55 L32.18 26.6 L31.99 26.66 L31.8 26.71 L31.62 26.78 L31.43 26.85 L31.25 26.92 L31.07 27 L30.89 27.08 L30.71 27.16 L30.54 27.26 L30.37 27.35 L30.2 27.45 L30.03 27.55 L29.87 27.66 L29.7 27.77 L29.54 27.88 L29.39 28 L29.24 28.13 L29.09 28.25 L28.94 28.38 L28.79 28.52 L28.65 28.65 L28.52 28.79 L28.38 28.94 L28.25 29.09 L28.13 29.24 L28 29.39 L27.88 29.54 L27.77 29.7 L27.66 29.87 L27.55 30.03 L27.45 30.2 L27.35 30.37 L27.26 30.54 L27.16 30.71 L27.08 30.89 L27 31.07 L26.92 31.25 L26.85 31.43 L26.78 31.62 L26.71 31.8 L26.66 31.99 L26.6 32.18 L26.55 32.37 L26.5 32.56 L26.46 32.75 L26.43 32.94 L26.4 33.14 L26.37 33.33 L26.35 33.53 L26.33 33.72 L26.32 33.92 L26.31 34.11 L26.31 34.31 L26.31 34.51 L26.32 34.7 L26.33 34.9 L26.35 35.09 L26.37 35.29 L26.4 35.48 L26.43 35.68 L26.46 35.87 L26.5 36.06 L26.55 36.25 L26.6 36.44 L26.66 36.63 L26.71 36.82 L26.78 37.01 L26.85 37.19 L26.92 37.37 L27 37.55 L27.08 37.73 L27.16 37.91 L27.26 38.08 L27.35 38.25 L27.45 38.42 L27.55 38.59 L27.66 38.76 L27.77 38.92 L27.88 39.08 L28 39.23 L28.13 39.39 L28.25 39.54 L28.38 39.68 L28.52 39.83 L28.65 39.97 L28.79 40.1 L28.94 40.24 L29.09 40.37 L29.24 40.49 L29.39 40.62 L29.54 40.74 L29.7 40.85 L29.87 40.96 L30.03 41.07 L30.2 41.17 L30.37 41.27 L30.54 41.37 L30.71 41.46 L30.89 41.54 L31.07 41.62 L31.25 41.7 L31.43 41.77 L31.62 41.84 L31.8 41.91 L31.99 41.97 L32.18 42.02 L32.37 42.07 L32.56 42.12 L32.75 42.16 L32.94 42.19 L33.14 42.22 L33.33 42.25 L33.53 42.27 L33.72 42.29 L33.92 42.3 L34.11 42.31 L34.31 42.31 L34.51 42.31 L34.7 42.3 L34.9 42.29 L35.09 42.27 L35.29 42.25 L35.48 42.22 L35.68 42.19 L35.87 42.16 L36.06 42.12 L36.25 42.07 L36.44 42.02 L36.63 41.97 L36.82 41.91 L37.01 41.84 L37.19 41.77 L37.37 41.7 L37.55 41.62 L37.73 41.54 L37.91 41.46 L38.08 41.37 L38.25 41.27 L38.42 41.17 L38.59 41.07 L38.76 40.96 L38.92 40.85 L39.08 40.74 L39.23 40.62 L39.39 40.49 L39.54 40.37 L39.68 40.24 L39.83 40.1 L39.97 39.97 L40.1 39.83 L40.24 39.68 L40.37 39.54 L40.49 39.39 L40.62 39.23 L40.74 39.08 L40.85 38.92 L40.96 38.76 L41.07 38.59 L41.17 38.42 L41.27 38.25 L41.37 38.08 L41.46 37.91 L41.54 37.73 L41.62 37.55 L41.7 37.37 L41.77 37.19 L41.84 37.01 L41.91 36.82 L41.97 36.63 L42.02 36.44 L42.07 36.25 L42.12 36.06 L42.16 35.87 L42.19 35.68 L42.22 35.48 L42.25 35.29 L42.27 35.09 L42.29 34.9 L42.3 34.7 L42.31 34.51 L42.31 34.31 "/>
<path stroke-width="10.0" stroke="rgb(255, 255, 0)" fill="none" d="M84 84 L39.97 39.97 "/>
<path stroke-width="10.0" stroke="rgb(255, 255, 0)" fill="none" d="M28.65 28.65 L12 12 "/>
<path fill="rgb(255, 255, 0)" stroke="none" d="M18.06 59.65 L18.25 59.65 L18.45 59.64 L18.64 59.63 L18.84 59.61 L19.03 59.59 L19.23 59.57 L19.42 59.53 L19.62 59.5 L19.81 59.46 L20 59.41 L20.19 59.36 L20.38 59.31 L20.56 59.25 L20.75 59.18 L20.93 59.12 L21.12 59.04 L21.3 58.97 L21.48 58.88 L21.65 58.8 L21.83 58.71 L22 58.61 L22.17 58.51 L22.34 58.41 L22.5 58.3 L22.66 58.19 L22.82 58.08 L22.98 57.96 L23.13 57.84 L23.28 57.71 L23.43 57.58 L23.57 57.45 L23.71 57.31 L23.85 57.17 L23.98 57.02 L24.11 56.88 L24.24 56.73 L24.36 56.57 L24.48 56.42 L24.6 56.26 L24.71 56.1 L24.81 55.93 L24.92 55.76 L25.02 55.6 L25.11 55.42 L25.2 55.25 L25.29 55.07 L25.37 54.89 L25.45 54.71 L25.52 54.53 L25.59 54.35 L25.65 54.16 L25.71 53.97 L25.77 53.79 L25.82 53.6 L25.86 53.4 L25.9 53.21 L25.94 53.02 L25.97 52.83 L25.99 52.63 L26.02 52.44 L26.03 52.24 L26.05 52.04 L26.05 51.85 L26.06 51.65 L26.05 51.46 L26.05 51.26 L26.03 51.06 L26.02 50.87 L25.99 50.67 L25.97 50.48 L25.94 50.28 L25.9 50.09 L25.86 49.9 L25.82 49.71 L25.77 49.52 L25.71 49.33 L25.65 49.14 L25.59 48.96 L25.52 48.77 L25.45 48.59 L25.37 48.41 L25.29 48.23 L25.2 48.06 L25.11 47.88 L25.02 47.71 L24.92 47.54 L24.81 47.37 L24.71 47.21 L24.6 47.05 L24.48 46.89 L24.36 46.73 L24.24 46.58 L24.11 46.43 L23.98 46.28 L23.85 46.14 L23.71 46 L23.57 45.86 L23.43 45.72 L23.28 45.59 L23.13 45.47 L22.98 45.35 L22.82 45.23 L22.66 45.11 L22.5 45 L22.34 44.89 L22.17 44.79 L22 44.69 L21.83 44.6 L21.65 44.51 L21.48 44.42 L21.3 44.34 L21.12 44.26 L20.93 44.19 L20.75 44.12 L20.56 44.06 L20.38 44 L20.19 43.94 L20 43.89 L19.81 43.85 L19.62 43.81 L19.42 43.77 L19.23 43.74 L19.03 43.71 L18.84 43.69 L18.64 43.67 L18.45 43.66 L18.25 43.65 L18.06 43.65 L17.86 43.65 L17.66 43.66 L17.47 43.67 L17.27 43.69 L17.08 43.71 L16.88 43.74 L16.69 43.77 L16.49 43.81 L16.3 43.85 L16.11 43.89 L15.92 43.94 L15.73 44 L15.55 44.06 L15.36 44.12 L15.18 44.19 L14.99 44.26 L14.81 44.34 L14.63 44.42 L14.46 44.51 L14.28 44.6 L14.11 44.69 L13.94 44.79 L13.78 44.89 L13.61 45 L13.45 45.11 L13.29 45.23 L13.13 45.35 L12.98 45.47 L12.83 45.59 L12.68 45.72 L12.54 45.86 L12.4 46 L12.26 46.14 L12.13 46.28 L12 46.43 L11.87 46.58 L11.75 46.73 L11.63 46.89 L11.51 47.05 L11.4 47.21 L11.3 47.37 L11.19 47.54 L11.09 47.71 L11 47.88 L10.91 48.06 L10.82 48.23 L10.74 48.41 L10.66 48.59 L10.59 48.77 L10.52 48.96 L10.46 49.14 L10.4 49.33 L10.34 49.52 L10.29 49.71 L10.25 49.9 L10.21 50.09 L10.17 50.28 L10.14 50.48 L10.12 50.67 L10.09 50.87 L10.08 51.06 L10.06 51.26 L10.06 51.46 L10.06 51.65 L10.06 51.85 L10.06 52.04 L10.08 52.24 L10.09 52.44 L10.12 52.63 L10.14 52.83 L10.17 53.02 L10.21 53.21 L10.25 53.4 L10.29 53.6 L10.34 53.79 L10.4 53.97 L10.46 54.16 L10.52 54.35 L10.59 54.53 L10.66 54.71 L10.74 54.89 L10.82 55.07 L10.91 55.25 L11 55.42 L11.09 55.6 L11.19 55.76 L11.3 55.93 L11.4 56.1 L11.51 56.26 L11.63 56.42 L11.75 56.57 L11.87 56.73 L12 56.88 L12.13 57.02 L12.26 57.17 L12.4 57.31 L12.54 57.45 L12.68 57.58 L12.83 57.71 L12.98 57.84 L13.13 57.96 L13.29 58.08 L13.45 58.19 L13.61 58.3 L13.78 58.41 L13.94 58.51 L14.11 58.61 L14.28 58.71 L14.46 58.8 L14.63 58.88 L14.81 58.97 L14.99 59.04 L15.18 59.12 L15.36 59.18 L15.55 59.25 L15.73 59.31 L15.92 59.36 L16.11 59.41 L16.3 59.46 L16.49 59.5 L16.69 59.53 L16.88 59.57 L17.08 59.59 L17.27 59.61 L17.47 59.63 L17.66 59.64 L17.86 59.65 L18.06 59.65 "/>
</svg>