<svg width="96.0000" height="96.0000" version="1.1" xmlns="http://www.w3.org/2000/svg" xmlns:xlink="http://www.w3.org/1999/xlink">
<path fill="rgb(255, 255, 0)" stroke="none" d="M29.64 70.69 L29.63 70.49 L29.62 70.29 L29.6 70.09 L29.58 69.89 L29.55 69.69 L29.52 69.49 L29.48 69.29 L29.44 69.09 L29.4 68.9 L29.34 68.7 L29.29 68.51 L29.23 68.32 L29.16 68.13 L29.09 67.94 L29.02 67.75 L28.94 67.57 L28.85 67.38 L28.77 67.2 L28.67 67.03 L28.58 66.85 L28.47 66.67 L28.37 66.5 L28.26 66.33 L28.15 66.17 L28.03 66.01 L27.91 65.85 L27.78 65.69 L27.65 65.53 L27.52 65.38 L27.38 65.24 L27.24 65.09 L27.1 64.95 L26.95 64.81 L26.8 64.68 L26.64 64.55 L26.49 64.43 L26.33 64.3 L26.16 64.19 L26 64.07 L25.83 63.96 L25.66 63.86 L25.48 63.75 L25.31 63.66 L25.13 63.56 L24.95 63.48 L24.76 63.39 L24.58 63.31 L24.39 63.24 L24.2 63.17 L24.01 63.1 L23.82 63.04 L23.63 62.99 L23.43 62.93 L23.24 62.89 L23.04 62.85 L22.84 62.81 L22.64 62.78 L22.44 62.75 L22.24 62.73 L22.04 62.71 L21.84 62.7 L21.64 62.69 L22.32 62.21 L22.99 61.71 L23.64 61.19 L24.28 60.66 L24.91 60.11 L25.53 59.55 L26.13 58.97 L26.72 58.38 L27.29 57.78 L27.84 57.16 L28.39 56.52 L28.91 55.88 L29.42 55.22 L29.92 54.54 L30.39 53.86 L30.85 53.17 L31.3 52.46 L31.72 51.74 L32.13 51.02 L32.52 50.28 L32.89 49.53 L33.24 48.78 L33.58 48.01 L33.89 47.24 L34.19 46.46 L34.47 45.68 L34.73 44.88 L34.97 44.09 L35.18 43.28 L35.38 42.47 L35.56 41.66 L35.72 40.84 L35.86 40.02 L35.98 39.19 L36.08 38.36 L36.16 37.53 L36.21 36.7 L36.25 35.87 L36.27 35.04 L36.26 34.2 L36.24 33.37 L36.2 32.54 L36.13 31.71 L36.05 30.88 L35.94 30.05 L35.81 29.23 L35.67 28.41 L35.5 27.59 L35.32 26.78 L35.11 25.97 L34.88 25.17 L34.64 24.37 L34.37 23.58 L34.09 22.8 L33.79 22.02 L33.46 21.25 L33.12 20.49 L32.76 19.74 L32.38 18.99 L31.99 18.26 L31.57 17.54 L31.14 16.81 L71.04 16.81 L82.61 35.86 L82.61 70.69 L29.64 70.69 "/>
<path stroke-width="10.0" stroke="rgb(255, 0, 0)" fill="none" d="M29.64 70.69 L29.64 70.49 L29.63 70.3 L29.62 70.1 L29.6 69.91 L29.58 69.71 L29.55 69.52 L29.52 69.32 L29.49 69.13 L29.44 68.94 L29.4 68.75 L29.35 68.56 L29.29 68.37 L29.24 68.18 L29.17 68 L29.1 67.81 L29.03 67.63 L28.95 67.45 L28.87 67.27 L28.78 67.09 L28.69 66.92 L28.6 66.75 L28.5 66.58 L28.4 66.41 L28.29 66.25 L28.18 66.08 L28.06 65.93 L27.95 65.77 L27.82 65.62 L27.7 65.47 L27.57 65.32 L27.43 65.17 L27.3 65.03 L27.16 64.9 L27.01 64.76 L26.86 64.63 L26.71 64.51 L26.56 64.38 L26.4 64.26 L26.25 64.15 L26.08 64.04 L25.92 63.93 L25.75 63.83 L25.58 63.73 L25.41 63.64 L25.24 63.54 L25.06 63.46 L24.88 63.38 L24.7 63.3 L24.52 63.23 L24.33 63.16 L24.15 63.09 L23.96 63.04 L23.77 62.98 L23.58 62.93 L23.39 62.89 L23.2 62.84 L23.01 62.81 L22.81 62.78 L22.62 62.75 L22.42 62.73 L22.23 62.71 L22.03 62.7 L21.84 62.69 L21.64 62.69 L21.44 62.69 L21.25 62.7 L21.05 62.71 L20.85 62.73 L20.66 62.75 L20.46 62.78 L20.27 62.81 L20.08 62.84 L19.89 62.89 L19.69 62.93 L19.51 62.98 L19.32 63.04 L19.13 63.09 L18.94 63.16 L18.76 63.23 L18.58 63.3 L18.4 63.38 L18.22 63.46 L18.04 63.54 L17.87 63.64 L17.7 63.73 L17.53 63.83 L17.36 63.93 L17.19 64.04 L17.03 64.15 L16.87 64.26 L16.72 64.38 L16.56 64.51 L16.41 64.63 L16.27 64.76 L16.12 64.9 L15.98 65.03 L15.84 65.17 L15.71 65.32 L15.58 65.47 L15.45 65.62 L15.33 65.77 L15.21 65.93 L15.1 66.08 L14.99 66.25 L14.88 66.41 L14.78 66.58 L14.68 66.75 L14.58 66.92 L14.49 67.09 L14.41 67.27 L14.33 67.45 L14.25 67.63 L14.17 67.81 L14.11 68 L14.04 68.18 L13.98 68.37 L13.93 68.56 L13.88 68.75 L13.83 68.94 L13.79 69.13 L13.76 69.32 L13.73 69.52 L13.7 69.71 L13.68 69.91 L13.66 70.1 L13.65 70.3 L13.64 70.49 L13.64 70.69 L13.64 70.89 L13.65 71.08 L13.66 71.28 L13.68 71.47 L13.7 71.67 L13.73 71.86 L13.76 72.06 L13.79 72.25 L13.83 72.44 L13.88 72.63 L13.93 72.82 L13.98 73.01 L14.04 73.2 L14.11 73.39 L14.17 73.57 L14.25 73.75 L14.33 73.93 L14.41 74.11 L14.49 74.29 L14.58 74.46 L14.68 74.63 L14.78 74.8 L14.88 74.97 L14.99 75.14 L15.1 75.3 L15.21 75.46 L15.33 75.61 L15.45 75.77 L15.58 75.92 L15.71 76.06 L15.84 76.21 L15.98 76.35 L16.12 76.48 L16.27 76.62 L16.41 76.75 L16.56 76.87 L16.72 77 L16.87 77.12 L17.03 77.23 L17.19 77.34 L17.36 77.45 L17.53 77.55 L17.7 77.65 L17.87 77.75 L18.04 77.84 L18.22 77.92 L18.4 78 L18.58 78.08 L18.76 78.15 L18.94 78.22 L19.13 78.29 L19.32 78.35 L19.51 78.4 L19.69 78.45 L19.89 78.5 L20.08 78.54 L20.27 78.57 L20.46 78.6 L20.66 78.63 L20.85 78.65 L21.05 78.67 L21.25 78.68 L21.44 78.69 L21.64 78.69 L21.84 78.69 L22.03 78.68 L22.23 78.67 L22.42 78.65 L22.62 78.63 L22.81 78.6 L23.01 78.57 L23.2 78.54 L23.39 78.5 L23.58 78.45 L23.77 78.4 L23.96 78.35 L24.15 78.29 L24.33 78.22 L24.52 78.15 L24.7 78.08 L24.88 78 L25.06 77.92 L25.24 77.84 L25.41 77.75 L25.58 77.65 L25.75 77.55 L25.92 77.45 L26.08 77.34 L26.25 77.23 L26.4 77.12 L26.56 77 L26.71 76.87 L26.86 76.75 L27.01 76.62 L27.16 76.48 L27.3 76.35 L27.43 76.21 L27.57 76.06 L27.7 75.92 L27.82 75.77 L27.95 75.61 L28.06 75.46 L28.18 75.3 L28.29 75.14 L28.4 74.97 L28.5 74.8 L28.6 74.63 L28.69 74.46 L28.78 74.29 L28.87 74.11 L28.95 73.93 L29.03 73.75 L29.1 73.57 L29.17 73.39 L29.24 73.2 L29.29 73.01 L29.35 72.82 L29.4 72.63 L29.44 72.44 L29.49 72.25 L29.52 72.06 L29.55 71.86 L29.58 71.67 L29.6 71.47 L29.62 71.28 L29.63 71.08 L29.64 70.89 L29.64 70.69 "/>
</svg>