<svg width="96.0000" height="96.0000" version="1.1" xmlns="http://www.w3.org/2000/svg" xmlns:xlink="http://www.w3.org/1999/xlink">
<path stroke-width="10.0" stroke="rgb(255, 0, 0)" fill="none" d="M42.09 21.3 L42.09 21.11 L42.08 20.91 L42.07 20.72 L42.05 20.52 L42.03 20.33 L42 20.13 L41.97 19.94 L41.94 19.74 L41.9 19.55 L41.85 19.36 L41.8 19.17 L41.74 18.98 L41.69 18.8 L41.62 18.61 L41.55 18.43 L41.48 18.24 L41.4 18.06 L41.32 17.88 L41.24 17.71 L41.14 17.53 L41.05 17.36 L40.95 17.19 L40.85 17.02 L40.74 16.86 L40.63 16.7 L40.52 16.54 L40.4 16.38 L40.27 16.23 L40.15 16.08 L40.02 15.93 L39.88 15.79 L39.75 15.65 L39.61 15.51 L39.46 15.38 L39.31 15.25 L39.16 15.12 L39.01 15 L38.85 14.88 L38.7 14.76 L38.53 14.65 L38.37 14.55 L38.2 14.44 L38.03 14.34 L37.86 14.25 L37.69 14.16 L37.51 14.07 L37.33 13.99 L37.15 13.91 L36.97 13.84 L36.78 13.77 L36.6 13.71 L36.41 13.65 L36.22 13.59 L36.03 13.54 L35.84 13.5 L35.65 13.46 L35.46 13.42 L35.26 13.39 L35.07 13.36 L34.87 13.34 L34.68 13.33 L34.48 13.31 L34.29 13.31 L34.09 13.3 L33.89 13.31 L33.7 13.31 L33.5 13.33 L33.31 13.34 L33.11 13.36 L32.92 13.39 L32.72 13.42 L32.53 13.46 L32.34 13.5 L32.15 13.54 L31.96 13.59 L31.77 13.65 L31.58 13.71 L31.39 13.77 L31.21 13.84 L31.03 13.91 L30.85 13.99 L30.67 14.07 L30.49 14.16 L30.32 14.25 L30.15 14.34 L29.98 14.44 L29.81 14.55 L29.64 14.65 L29.48 14.76 L29.32 14.88 L29.17 15 L29.01 15.12 L28.86 15.25 L28.72 15.38 L28.57 15.51 L28.43 15.65 L28.3 15.79 L28.16 15.93 L28.03 16.08 L27.91 16.23 L27.78 16.38 L27.66 16.54 L27.55 16.7 L27.44 16.86 L27.33 17.02 L27.23 17.19 L27.13 17.36 L27.03 17.53 L26.94 17.71 L26.86 17.88 L26.78 18.06 L26.7 18.24 L26.63 18.43 L26.56 18.61 L26.49 18.8 L26.43 18.98 L26.38 19.17 L26.33 19.36 L26.28 19.55 L26.24 19.74 L26.21 19.94 L26.18 20.13 L26.15 20.33 L26.13 20.52 L26.11 20.72 L26.1 20.91 L26.09 21.11 L26.09 21.3 L26.09 21.5 L26.1 21.7 L26.11 21.89 L26.13 22.09 L26.15 22.28 L26.18 22.48 L26.21 22.67 L26.24 22.87 L26.28 23.06 L26.33 23.25 L26.38 23.44 L26.43 23.63 L26.49 23.81 L26.56 24 L26.63 24.18 L26.7 24.37 L26.78 24.55 L26.86 24.73 L26.94 24.9 L27.03 25.08 L27.13 25.25 L27.23 25.42 L27.33 25.58 L27.44 25.75 L27.55 25.91 L27.66 26.07 L27.78 26.23 L27.91 26.38 L28.03 26.53 L28.16 26.68 L28.3 26.82 L28.43 26.96 L28.57 27.1 L28.72 27.23 L28.86 27.36 L29.01 27.49 L29.17 27.61 L29.32 27.73 L29.48 27.85 L29.64 27.96 L29.81 28.06 L29.98 28.17 L30.15 28.27 L30.32 28.36 L30.49 28.45 L30.67 28.54 L30.85 28.62 L31.03 28.7 L31.21 28.77 L31.39 28.84 L31.58 28.9 L31.77 28.96 L31.96 29.01 L32.15 29.06 L32.34 29.11 L32.53 29.15 L32.72 29.19 L32.92 29.22 L33.11 29.24 L33.31 29.27 L33.5 29.28 L33.7 29.3 L33.89 29.3 L34.09 29.3 L34.29 29.3 L34.48 29.3 L34.68 29.28 L34.87 29.27 L35.07 29.24 L35.26 29.22 L35.46 29.19 L35.65 29.15 L35.84 29.11 L36.03 29.06 L36.22 29.01 L36.41 28.96 L36.6 28.9 L36.78 28.84 L36.97 28.77 L37.15 28.7 L37.33 28.62 L37.51 28.54 L37.69 28.45 L37.86 28.36 L38.03 28.27 L38.2 28.17 L38.37 28.06 L38.53 27.96 L38.7 27.85 L38.85 27.73 L39.01 27.61 L39.16 27.49 L39.31 27.36 L39.46 27.23 L39.61 27.1 L39.75 26.96 L39.88 26.82 L40.02 26.68 L40.15 26.53 L40.27 26.38 L40.4 26.23 L40.52 26.07 L40.63 25.91 L40.74 25.75 L40.85 25.58 L40.95 25.42 L41.05 25.25 L41.14 25.08 L41.24 24.9 L41.32 24.73 L41.4 24.55 L41.48 24.37 L41.55 24.18 L41.62 24 L41.69 23.81 L41.74 23.63 L41.8 23.44 L41.85 23.25 L41.9 23.06 L41.94 22.87 L41.97 22.67 L42 22.48 L42.03 22.28 L42.05 22.09 L42.07 21.89 L42.08 21.7 L42.09 21.5 L42.09 21.3 "/>
<path stroke-width="10.0" stroke="rgb(255, 255, 0)" fill="none" d="M13.38 79.28 L14.7 75.77 L16.08 72.49 L17.5 69.43 L18.98 66.6 L20.51 64 L22.09 61.62 L23.73 59.47 L25.42 57.54 L27.16 55.84 L28.95 54.37 L30.8 53.12 L32.7 52.11 L34.65 51.31 L36.65 50.75 L38.71 50.41 L40.82 50.29 L42.98 50.41 L45.19 50.75 L47.46 51.31 L49.78 52.11 L52.15 53.12 L54.58 54.37 L57.05 55.84 L59.58 57.54 L62.17 59.47 L64.8 61.62 L67.49 64 L70.23 66.6 L73.02 69.43 L75.87 72.49 L78.76 75.77 L81.71 79.28 "/>
<path stroke-dasharray="10,5" stroke="rgb(255, 255, 0)" fill="none" d="M13.38 79.28 L31.4 28.84 "/>
<path stroke-dasharray="10,5" stroke="rgb(255, 255, 0)" fill="none" d="M81.71 79.28 L39.17 27.49 "/>
</svg>