<svg width="96.0000" height="96.0000" version="1.1" xmlns="http://www.w3.org/2000/svg" xmlns:xlink="http://www.w3.org/1999/xlink">
<path stroke-width="10.0" stroke="rgb(255, 0, 0)" fill="none" d="M45.56 58.78 L45.55 58.59 L45.55 58.39 L45.54 58.19 L45.52 58 L45.5 57.8 L45.47 57.61 L45.44 57.41 L45.4 57.22 L45.36 57.03 L45.32 56.84 L45.27 56.65 L45.21 56.46 L45.15 56.27 L45.09 56.09 L45.02 55.9 L44.95 55.72 L44.87 55.54 L44.79 55.36 L44.7 55.19 L44.61 55.01 L44.52 54.84 L44.42 54.67 L44.32 54.5 L44.21 54.34 L44.1 54.18 L43.98 54.02 L43.86 53.86 L43.74 53.71 L43.61 53.56 L43.48 53.41 L43.35 53.27 L43.21 53.13 L43.07 52.99 L42.93 52.85 L42.78 52.72 L42.63 52.6 L42.48 52.48 L42.32 52.36 L42.16 52.24 L42 52.13 L41.84 52.02 L41.67 51.92 L41.5 51.82 L41.33 51.73 L41.15 51.64 L40.98 51.55 L40.8 51.47 L40.62 51.39 L40.44 51.32 L40.25 51.25 L40.07 51.19 L39.88 51.13 L39.69 51.07 L39.5 51.02 L39.31 50.98 L39.12 50.94 L38.92 50.9 L38.73 50.87 L38.54 50.84 L38.34 50.82 L38.15 50.8 L37.95 50.79 L37.75 50.78 L37.56 50.78 L37.36 50.78 L37.16 50.79 L36.97 50.8 L36.77 50.82 L36.58 50.84 L36.38 50.87 L36.19 50.9 L36 50.94 L35.8 50.98 L35.61 51.02 L35.42 51.07 L35.23 51.13 L35.05 51.19 L34.86 51.25 L34.68 51.32 L34.5 51.39 L34.31 51.47 L34.14 51.55 L33.96 51.64 L33.79 51.73 L33.61 51.82 L33.44 51.92 L33.28 52.02 L33.11 52.13 L32.95 52.24 L32.79 52.36 L32.63 52.48 L32.48 52.6 L32.33 52.72 L32.18 52.85 L32.04 52.99 L31.9 53.13 L31.76 53.27 L31.63 53.41 L31.5 53.56 L31.37 53.71 L31.25 53.86 L31.13 54.02 L31.02 54.18 L30.91 54.34 L30.8 54.5 L30.69 54.67 L30.6 54.84 L30.5 55.01 L30.41 55.19 L30.32 55.36 L30.24 55.54 L30.17 55.72 L30.09 55.9 L30.02 56.09 L29.96 56.27 L29.9 56.46 L29.85 56.65 L29.8 56.84 L29.75 57.03 L29.71 57.22 L29.67 57.41 L29.64 57.61 L29.62 57.8 L29.6 58 L29.58 58.19 L29.57 58.39 L29.56 58.59 L29.56 58.78 L29.56 58.98 L29.57 59.18 L29.58 59.37 L29.6 59.57 L29.62 59.76 L29.64 59.96 L29.67 60.15 L29.71 60.34 L29.75 60.54 L29.8 60.73 L29.85 60.92 L29.9 61.1 L29.96 61.29 L30.02 61.48 L30.09 61.66 L30.17 61.84 L30.24 62.02 L30.32 62.2 L30.41 62.38 L30.5 62.55 L30.6 62.73 L30.69 62.9 L30.8 63.06 L30.91 63.23 L31.02 63.39 L31.13 63.55 L31.25 63.7 L31.37 63.86 L31.5 64.01 L31.63 64.16 L31.76 64.3 L31.9 64.44 L32.04 64.58 L32.18 64.71 L32.33 64.84 L32.48 64.97 L32.63 65.09 L32.79 65.21 L32.95 65.32 L33.11 65.43 L33.28 65.54 L33.44 65.64 L33.61 65.74 L33.79 65.84 L33.96 65.93 L34.14 66.01 L34.31 66.1 L34.5 66.17 L34.68 66.25 L34.86 66.31 L35.05 66.38 L35.23 66.44 L35.42 66.49 L35.61 66.54 L35.8 66.59 L36 66.63 L36.19 66.66 L36.38 66.7 L36.58 66.72 L36.77 66.74 L36.97 66.76 L37.16 66.77 L37.36 66.78 L37.56 66.78 L37.75 66.78 L37.95 66.77 L38.15 66.76 L38.34 66.74 L38.54 66.72 L38.73 66.7 L38.92 66.66 L39.12 66.63 L39.31 66.59 L39.5 66.54 L39.69 66.49 L39.88 66.44 L40.07 66.38 L40.25 66.31 L40.44 66.25 L40.62 66.17 L40.8 66.1 L40.98 66.01 L41.15 65.93 L41.33 65.84 L41.5 65.74 L41.67 65.64 L41.84 65.54 L42 65.43 L42.16 65.32 L42.32 65.21 L42.48 65.09 L42.63 64.97 L42.78 64.84 L42.93 64.71 L43.07 64.58 L43.21 64.44 L43.35 64.3 L43.48 64.16 L43.61 64.01 L43.74 63.86 L43.86 63.7 L43.98 63.55 L44.1 63.39 L44.21 63.23 L44.32 63.06 L44.42 62.9 L44.52 62.73 L44.61 62.55 L44.7 62.38 L44.79 62.2 L44.87 62.02 L44.95 61.84 L45.02 61.66 L45.09 61.48 L45.15 61.29 L45.21 61.1 L45.27 60.92 L45.32 60.73 L45.36 60.54 L45.4 60.34 L45.44 60.15 L45.47 59.96 L45.5 59.76 L45.52 59.57 L45.54 59.37 L45.55 59.18 L45.55 58.98 L45.56 58.78 "/>
<path stroke-width="10.0" stroke="rgb(255, 255, 0)" fill="none" d="M13.56 34.78 L31.9 53.13 "/>
<path stroke-width="10.0" stroke="rgb(255, 255, 0)" fill="none" d="M82.78 13.56 L43.21 53.13 "/>
<path stroke-width="10.0" stroke="rgb(255, 255, 0)" fill="none" d="M61.56 82.78 L43.21 64.44 "/>
</svg>