<svg width="96.0000" height="96.0000" version="1.1" xmlns="http://www.w3.org/2000/svg" xmlns:xlink="http://www.w3.org/1999/xlink">
<path stroke-width="10.0" stroke="rgb(255, 0, 0)" fill="none" d="M56 12 L56 11.8 L55.99 11.61 L55.98 11.41 L55.96 11.22 L55.94 11.02 L55.91 10.83 L55.88 10.63 L55.85 10.44 L55.81 10.25 L55.76 10.06 L55.71 9.866 L55.66 9.678 L55.6 9.491 L55.53 9.305 L55.46 9.121 L55.39 8.939 L55.31 8.758 L55.23 8.58 L55.15 8.403 L55.06 8.229 L54.96 8.057 L54.86 7.887 L54.76 7.72 L54.65 7.555 L54.54 7.394 L54.43 7.234 L54.31 7.078 L54.18 6.925 L54.06 6.775 L53.93 6.628 L53.79 6.484 L53.66 6.343 L53.52 6.206 L53.37 6.072 L53.23 5.942 L53.08 5.816 L52.92 5.693 L52.77 5.574 L52.61 5.459 L52.44 5.348 L52.28 5.241 L52.11 5.138 L51.94 5.039 L51.77 4.945 L51.6 4.854 L51.42 4.768 L51.24 4.686 L51.06 4.609 L50.88 4.536 L50.7 4.468 L50.51 4.404 L50.32 4.344 L50.13 4.29 L49.94 4.24 L49.75 4.194 L49.56 4.154 L49.37 4.118 L49.17 4.087 L48.98 4.06 L48.78 4.039 L48.59 4.022 L48.39 4.01 L48.2 4.002 L48 4 L47.8 4.002 L47.61 4.01 L47.41 4.022 L47.22 4.039 L47.02 4.06 L46.83 4.087 L46.63 4.118 L46.44 4.154 L46.25 4.194 L46.06 4.24 L45.87 4.29 L45.68 4.344 L45.49 4.404 L45.3 4.468 L45.12 4.536 L44.94 4.609 L44.76 4.686 L44.58 4.768 L44.4 4.854 L44.23 4.945 L44.06 5.039 L43.89 5.138 L43.72 5.241 L43.56 5.348 L43.39 5.459 L43.23 5.574 L43.08 5.693 L42.92 5.816 L42.77 5.942 L42.63 6.072 L42.48 6.206 L42.34 6.343 L42.21 6.484 L42.07 6.628 L41.94 6.775 L41.82 6.925 L41.69 7.078 L41.57 7.234 L41.46 7.394 L41.35 7.555 L41.24 7.72 L41.14 7.887 L41.04 8.057 L40.94 8.229 L40.85 8.403 L40.77 8.58 L40.69 8.758 L40.61 8.939 L40.54 9.121 L40.47 9.305 L40.4 9.491 L40.34 9.678 L40.29 9.866 L40.24 10.06 L40.19 10.25 L40.15 10.44 L40.12 10.63 L40.09 10.83 L40.06 11.02 L40.04 11.22 L40.02 11.41 L40.01 11.61 L40 11.8 L40 12 L40 12.2 L40.01 12.39 L40.02 12.59 L40.04 12.78 L40.06 12.98 L40.09 13.17 L40.12 13.37 L40.15 13.56 L40.19 13.75 L40.24 13.94 L40.29 14.13 L40.34 14.32 L40.4 14.51 L40.47 14.7 L40.54 14.88 L40.61 15.06 L40.69 15.24 L40.77 15.42 L40.85 15.6 L40.94 15.77 L41.04 15.94 L41.14 16.11 L41.24 16.28 L41.35 16.44 L41.46 16.61 L41.57 16.77 L41.69 16.92 L41.82 17.08 L41.94 17.23 L42.07 17.37 L42.21 17.52 L42.34 17.66 L42.48 17.79 L42.63 17.93 L42.77 18.06 L42.92 18.18 L43.08 18.31 L43.23 18.43 L43.39 18.54 L43.56 18.65 L43.72 18.76 L43.89 18.86 L44.06 18.96 L44.23 19.06 L44.4 19.15 L44.58 19.23 L44.76 19.31 L44.94 19.39 L45.12 19.46 L45.3 19.53 L45.49 19.6 L45.68 19.66 L45.87 19.71 L46.06 19.76 L46.25 19.81 L46.44 19.85 L46.63 19.88 L46.83 19.91 L47.02 19.94 L47.22 19.96 L47.41 19.98 L47.61 19.99 L47.8 20 L48 20 L48.2 20 L48.39 19.99 L48.59 19.98 L48.78 19.96 L48.98 19.94 L49.17 19.91 L49.37 19.88 L49.56 19.85 L49.75 19.81 L49.94 19.76 L50.13 19.71 L50.32 19.66 L50.51 19.6 L50.7 19.53 L50.88 19.46 L51.06 19.39 L51.24 19.31 L51.42 19.23 L51.6 19.15 L51.77 19.06 L51.94 18.96 L52.11 18.86 L52.28 18.76 L52.44 18.65 L52.61 18.54 L52.77 18.43 L52.92 18.31 L53.08 18.18 L53.23 18.06 L53.37 17.93 L53.52 17.79 L53.66 17.66 L53.79 17.52 L53.93 17.37 L54.06 17.23 L54.18 17.08 L54.31 16.92 L54.43 16.77 L54.54 16.61 L54.65 16.44 L54.76 16.28 L54.86 16.11 L54.96 15.94 L55.06 15.77 L55.15 15.6 L55.23 15.42 L55.31 15.24 L55.39 15.06 L55.46 14.88 L55.53 14.7 L55.6 14.51 L55.66 14.32 L55.71 14.13 L55.76 13.94 L55.81 13.75 L55.85 13.56 L55.88 13.37 L55.91 13.17 L55.94 12.98 L55.96 12.78 L55.98 12.59 L55.99 12.39 L56 12.2 L56 12 "/>
<path stroke-width="10.0" stroke="rgb(255, 0, 0)" fill="none" d="M92 48 L92 47.8 L91.99 47.61 L91.98 47.41 L91.96 47.22 L91.94 47.02 L91.91 46.83 L91.88 46.63 L91.85 46.44 L91.81 46.25 L91.76 46.06 L91.71 45.87 L91.66 45.68 L91.6 45.49 L91.53 45.3 L91.46 45.12 L91.39 44.94 L91.31 44.76 L91.23 44.58 L91.15 44.4 L91.06 44.23 L90.96 44.06 L90.86 43.89 L90.76 43.72 L90.65 43.56 L90.54 43.39 L90.43 43.23 L90.31 43.08 L90.18 42.92 L90.06 42.77 L89.93 42.63 L89.79 42.48 L89.66 42.34 L89.52 42.21 L89.37 42.07 L89.23 41.94 L89.08 41.82 L88.92 41.69 L88.77 41.57 L88.61 41.46 L88.44 41.35 L88.28 41.24 L88.11 41.14 L87.94 41.04 L87.77 40.94 L87.6 40.85 L87.42 40.77 L87.24 40.69 L87.06 40.61 L86.88 40.54 L86.7 40.47 L86.51 40.4 L86.32 40.34 L86.13 40.29 L85.94 40.24 L85.75 40.19 L85.56 40.15 L85.37 40.12 L85.17 40.09 L84.98 40.06 L84.78 40.04 L84.59 40.02 L84.39 40.01 L84.2 40 L84 40 L83.8 40 L83.61 40.01 L83.41 40.02 L83.22 40.04 L83.02 40.06 L82.83 40.09 L82.63 40.12 L82.44 40.15 L82.25 40.19 L82.06 40.24 L81.87 40.29 L81.68 40.34 L81.49 40.4 L81.3 40.47 L81.12 40.54 L80.94 40.61 L80.76 40.69 L80.58 40.77 L80.4 40.85 L80.23 40.94 L80.06 41.04 L79.89 41.14 L79.72 41.24 L79.56 41.35 L79.39 41.46 L79.23 41.57 L79.08 41.69 L78.92 41.82 L78.77 41.94 L78.63 42.07 L78.48 42.21 L78.34 42.34 L78.21 42.48 L78.07 42.63 L77.94 42.77 L77.82 42.92 L77.69 43.08 L77.57 43.23 L77.46 43.39 L77.35 43.56 L77.24 43.72 L77.14 43.89 L77.04 44.06 L76.94 44.23 L76.85 44.4 L76.77 44.58 L76.69 44.76 L76.61 44.94 L76.54 45.12 L76.47 45.3 L76.4 45.49 L76.34 45.68 L76.29 45.87 L76.24 46.06 L76.19 46.25 L76.15 46.44 L76.12 46.63 L76.09 46.83 L76.06 47.02 L76.04 47.22 L76.02 47.41 L76.01 47.61 L76 47.8 L76 48 L76 48.2 L76.01 48.39 L76.02 48.59 L76.04 48.78 L76.06 48.98 L76.09 49.17 L76.12 49.37 L76.15 49.56 L76.19 49.75 L76.24 49.94 L76.29 50.13 L76.34 50.32 L76.4 50.51 L76.47 50.7 L76.54 50.88 L76.61 51.06 L76.69 51.24 L76.77 51.42 L76.85 51.6 L76.94 51.77 L77.04 51.94 L77.14 52.11 L77.24 52.28 L77.35 52.44 L77.46 52.61 L77.57 52.77 L77.69 52.92 L77.82 53.08 L77.94 53.23 L78.07 53.37 L78.21 53.52 L78.34 53.66 L78.48 53.79 L78.63 53.93 L78.77 54.06 L78.92 54.18 L79.08 54.31 L79.23 54.43 L79.39 54.54 L79.56 54.65 L79.72 54.76 L79.89 54.86 L80.06 54.96 L80.23 55.06 L80.4 55.15 L80.58 55.23 L80.76 55.31 L80.94 55.39 L81.12 55.46 L81.3 55.53 L81.49 55.6 L81.68 55.66 L81.87 55.71 L82.06 55.76 L82.25 55.81 L82.44 55.85 L82.63 55.88 L82.83 55.91 L83.02 55.94 L83.22 55.96 L83.41 55.98 L83.61 55.99 L83.8 56 L84 56 L84.2 56 L84.39 55.99 L84.59 55.98 L84.78 55.96 L84.98 55.94 L85.17 55.91 L85.37 55.88 L85.56 55.85 L85.75 55.81 L85.94 55.76 L86.13 55.71 L86.32 55.66 L86.51 55.6 L86.7 55.53 L86.88 55.46 L87.06 55.39 L87.24 55.31 L87.42 55.23 L87.6 55.15 L87.77 55.06 L87.94 54.96 L88.11 54.86 L88.28 54.76 L88.44 54.65 L88.61 54.54 L88.77 54.43 L88.92 54.31 L89.08 54.18 L89.23 54.06 L89.37 53.93 L89.52 53.79 L89.66 53.66 L89.79 53.52 L89.93 53.37 L90.06 53.23 L90.18 53.08 L90.31 52.92 L90.43 52.77 L90.54 52.61 L90.65 52.44 L90.76 52.28 L90.86 52.11 L90.96 51.94 L91.06 51.77 L91.15 51.6 L91.23 51.42 L91.31 51.24 L91.39 51.06 L91.46 50.88 L91.53 50.7 L91.6 50.51 L91.66 50.32 L91.71 50.13 L91.76 49.94 L91.81 49.75 L91.85 49.56 L91.88 49.37 L91.91 49.17 L91.94 48.98 L91.96 48.78 L91.98 48.59 L91.99 48.39 L92 48.2 L92 48 "/>
<path stroke-width="10.0" stroke="rgb(255, 0, 0)" fill="none" d="M56 84 L56 83.8 L55.99 83.61 L55.98 83.41 L55.96 83.22 L55.94 83.02 L55.91 82.83 L55.88 82.63 L55.85 82.44 L55.81 82.25 L55.76 82.06 L55.71 81.87 L55.66 81.68 L55.6 81.49 L55.53 81.3 L55.46 81.12 L55.39 80.94 L55.31 80.76 L55.23 80.58 L55.15 80.4 L55.06 80.23 L54.96 80.06 L54.86 79.89 L54.76 79.72 L54.65 79.56 L54.54 79.39 L54.43 79.23 L54.31 79.08 L54.18 78.92 L54.06 78.77 L53.93 78.63 L53.79 78.48 L53.66 78.34 L53.52 78.21 L53.37 78.07 L53.23 77.94 L53.08 77.82 L52.92 77.69 L52.77 77.57 L52.61 77.46 L52.44 77.35 L52.28 77.24 L52.11 77.14 L51.94 77.04 L51.77 76.94 L51.6 76.85 L51.42 76.77 L51.24 76.69 L51.06 76.61 L50.88 76.54 L50.7 76.47 L50.51 76.4 L50.32 76.34 L50.13 76.29 L49.94 76.24 L49.75 76.19 L49.56 76.15 L49.37 76.12 L49.17 76.09 L48.98 76.06 L48.78 76.04 L48.59 76.02 L48.39 76.01 L48.2 76 L48 76 L47.8 76 L47.61 76.01 L47.41 76.02 L47.22 76.04 L47.02 76.06 L46.83 76.09 L46.63 76.12 L46.44 76.15 L46.25 76.19 L46.06 76.24 L45.87 76.29 L45.68 76.34 L45.49 76.4 L45.3 76.47 L45.12 76.54 L44.94 76.61 L44.76 76.69 L44.58 76.77 L44.4 76.85 L44.23 76.94 L44.06 77.04 L43.89 77.14 L43.72 77.24 L43.56 77.35 L43.39 77.46 L43.23 77.57 L43.08 77.69 L42.92 77.82 L42.77 77.94 L42.63 78.07 L42.48 78.21 L42.34 78.34 L42.21 78.48 L42.07 78.63 L41.94 78.77 L41.82 78.92 L41.69 79.08 L41.57 79.23 L41.46 79.39 L41.35 79.56 L41.24 79.72 L41.14 79.89 L41.04 80.06 L40.94 80.23 L40.85 80.4 L40.77 80.58 L40.69 80.76 L40.61 80.94 L40.54 81.12 L40.47 81.3 L40.4 81.49 L40.34 81.68 L40.29 81.87 L40.24 82.06 L40.19 82.25 L40.15 82.44 L40.12 82.63 L40.09 82.83 L40.06 83.02 L40.04 83.22 L40.02 83.41 L40.01 83.61 L40 83.8 L40 84 L40 84.2 L40.01 84.39 L40.02 84.59 L40.04 84.78 L40.06 84.98 L40.09 85.17 L40.12 85.37 L40.15 85.56 L40.19 85.75 L40.24 85.94 L40.29 86.13 L40.34 86.32 L40.4 86.51 L40.47 86.7 L40.54 86.88 L40.61 87.06 L40.69 87.24 L40.77 87.42 L40.85 87.6 L40.94 87.77 L41.04 87.94 L41.14 88.11 L41.24 88.28 L41.35 88.44 L41.46 88.61 L41.57 88.77 L41.69 88.92 L41.82 89.08 L41.94 89.23 L42.07 89.37 L42.21 89.52 L42.34 89.66 L42.48 89.79 L42.63 89.93 L42.77 90.06 L42.92 90.18 L43.08 90.31 L43.23 90.43 L43.39 90.54 L43.56 90.65 L43.72 90.76 L43.89 90.86 L44.06 90.96 L44.23 91.06 L44.4 91.15 L44.58 91.23 L44.76 91.31 L44.94 91.39 L45.12 91.46 L45.3 91.53 L45.49 91.6 L45.68 91.66 L45.87 91.71 L46.06 91.76 L46.25 91.81 L46.44 91.85 L46.63 91.88 L46.83 91.91 L47.02 91.94 L47.22 91.96 L47.41 91.98 L47.61 91.99 L47.8 92 L48 92 L48.2 92 L48.39 91.99 L48.59 91.98 L48.78 91.96 L48.98 91.94 L49.17 91.91 L49.37 91.88 L49.56 91.85 L49.75 91.81 L49.94 91.76 L50.13 91.71 L50.32 91.66 L50.51 91.6 L50.7 91.53 L50.88 91.46 L51.06 91.39 L51.24 91.31 L51.42 91.23 L51.6 91.15 L51.77 91.06 L51.94 90.96 L52.11 90.86 L52.28 90.76 L52.44 90.65 L52.61 90.54 L52.77 90.43 L52.92 90.31 L53.08 90.18 L53.23 90.06 L53.37 89.93 L53.52 89.79 L53.66 89.66 L53.79 89.52 L53.93 89.37 L54.06 89.23 L54.18 89.08 L54.31 88.92 L54.43 88.77 L54.54 88.61 L54.65 88.44 L54.76 88.28 L54.86 88.11 L54.96 87.94 L55.06 87.77 L55.15 87.6 L55.23 87.42 L55.31 87.24 L55.39 87.06 L55.46 86.88 L55.53 86.7 L55.6 86.51 L55.66 86.32 L55.71 86.13 L55.76 85.94 L55.81 85.75 L55.85 85.56 L55.88 85.37 L55.91 85.17 L55.94 84.98 L55.96 84.78 L55.98 84.59 L55.99 84.39 L56 84.2 L56 84 "/>
<path stroke-width="10.0" stroke="rgb(255, 0, 0)" fill="none" d="M20 48 L20 47.8 L19.99 47.61 L19.98 47.41 L19.96 47.22 L19.94 47.02 L19.91 46.83 L19.88 46.63 L19.85 46.44 L19.81 46.25 L19.76 46.06 L19.71 45.87 L19.66 45.68 L19.6 45.49 L19.53 45.3 L19.46 45.12 L19.39 44.94 L19.31 44.76 L19.23 44.58 L19.15 44.4 L19.06 44.23 L18.96 44.06 L18.86 43.89 L18.76 43.72 L18.65 43.56 L18.54 43.39 L18.43 43.23 L18.31 43.08 L18.18 42.92 L18.06 42.77 L17.93 42.63 L17.79 42.48 L17.66 42.34 L17.52 42.21 L17.37 42.07 L17.23 41.94 L17.08 41.82 L16.92 41.69 L16.77 41.57 L16.61 41.46 L16.44 41.35 L16.28 41.24 L16.11 41.14 L15.94 41.04 L15.77 40.94 L15.6 40.85 L15.42 40.77 L15.24 40.69 L15.06 40.61 L14.88 40.54 L14.7 40.47 L14.51 40.4 L14.32 40.34 L14.13 40.29 L13.94 40.24 L13.75 40.19 L13.56 40.15 L13.37 40.12 L13.17 40.09 L12.98 40.06 L12.78 40.04 L12.59 40.02 L12.39 40.01 L12.2 40 L12 40 L11.8 40 L11.61 40.01 L11.41 40.02 L11.22 40.04 L11.02 40.06 L10.83 40.09 L10.63 40.12 L10.44 40.15 L10.25 40.19 L10.06 40.24 L9.866 40.29 L9.678 40.34 L9.491 40.4 L9.305 40.47 L9.121 40.54 L8.939 40.61 L8.758 40.69 L8.58 40.77 L8.403 40.85 L8.229 40.94 L8.057 41.04 L7.887 41.14 L7.72 41.24 L7.555 41.35 L7.394 41.46 L7.234 41.57 L7.078 41.69 L6.925 41.82 L6.775 41.94 L6.628 42.07 L6.484 42.21 L6.343 42.34 L6.206 42.48 L6.072 42.63 L5.942 42.77 L5.816 42.92 L5.693 43.08 L5.574 43.23 L5.459 43.39 L5.348 43.56 L5.241 43.72 L5.138 43.89 L5.039 44.06 L4.945 44.23 L4.854 44.4 L4.768 44.58 L4.686 44.76 L4.609 44.94 L4.536 45.12 L4.468 45.3 L4.404 45.49 L4.344 45.68 L4.29 45.87 L4.24 46.06 L4.194 46.25 L4.154 46.44 L4.118 46.63 L4.087 46.83 L4.06 47.02 L4.039 47.22 L4.022 47.41 L4.01 47.61 L4.002 47.8 L4 48 L4.002 48.2 L4.01 48.39 L4.022 48.59 L4.039 48.78 L4.06 48.98 L4.087 49.17 L4.118 49.37 L4.154 49.56 L4.194 49.75 L4.24 49.94 L4.29 50.13 L4.344 50.32 L4.404 50.51 L4.468 50.7 L4.536 50.88 L4.609 51.06 L4.686 51.24 L4.768 51.42 L4.854 51.6 L4.945 51.77 L5.039 51.94 L5.138 52.11 L5.241 52.28 L5.348 52.44 L5.459 52.61 L5.574 52.77 L5.693 52.92 L5.816 53.08 L5.942 53.23 L6.072 53.37 L6.206 53.52 L6.343 53.66 L6.484 53.79 L6.628 53.93 L6.775 54.06 L6.925 54.18 L7.078 54.31 L7.234 54.43 L7.394 54.54 L7.555 54.65 L7.72 54.76 L7.887 54.86 L8.057 54.96 L8.229 55.06 L8.403 55.15 L8.58 55.23 L8.758 55.31 L8.939 55.39 L9.121 55.46 L9.305 55.53 L9.491 55.6 L9.678 55.66 L9.866 55.71 L10.06 55.76 L10.25 55.81 L10.44 55.85 L10.63 55.88 L10.83 55.91 L11.02 55.94 L11.22 55.96 L11.41 55.98 L11.61 55.99 L11.8 56 L12 56 L12.2 56 L12.39 55.99 L12.59 55.98 L12.78 55.96 L12.98 55.94 L13.17 55.91 L13.37 55.88 L13.56 55.85 L13.75 55.81 L13.94 55.76 L14.13 55.71 L14.32 55.66 L14.51 55.6 L14.7 55.53 L14.88 55.46 L15.06 55.39 L15.24 55.31 L15.42 55.23 L15.6 55.15 L15.77 55.06 L15.94 54.96 L16.11 54.86 L16.28 54.76 L16.44 54.65 L16.61 54.54 L16.77 54.43 L16.92 54.31 L17.08 54.18 L17.23 54.06 L17.37 53.93 L17.52 53.79 L17.66 53.66 L17.79 53.52 L17.93 53.37 L18.06 53.23 L18.18 53.08 L18.31 52.92 L18.43 52.77 L18.54 52.61 L18.65 52.44 L18.76 52.28 L18.86 52.11 L18.96 51.94 L19.06 51.77 L19.15 51.6 L19.23 51.42 L19.31 51.24 L19.39 51.06 L19.46 50.88 L19.53 50.7 L19.6 50.51 L19.66 50.32 L19.71 50.13 L19.76 49.94 L19.81 49.75 L19.85 49.56 L19.88 49.37 L19.91 49.17 L19.94 48.98 L19.96 48.78 L19.98 48.59 L19.99 48.39 L20 48.2 L20 48 "/>
<path stroke-width="10.0" stroke="rgb(255, 255, 0)" fill="none" d="M83.11 40.05 L82.91 39.19 L82.68 38.34 L82.43 37.49 L82.16 36.65 L81.87 35.81 L81.56 34.98 L81.23 34.16 L80.89 33.35 L80.52 32.55 L80.13 31.76 L79.72 30.97 L79.29 30.2 L78.85 29.44 L78.38 28.69 L77.9 27.95 L77.4 27.22 L76.88 26.5 L76.34 25.8 L75.79 25.11 L75.22 24.44 L74.63 23.78 L74.03 23.13 L73.41 22.5 L72.78 21.88 L72.13 21.28 L71.47 20.7 L70.79 20.13 L70.1 19.58 L69.39 19.05 L68.68 18.53 L67.95 18.03 L67.21 17.55 L66.45 17.09 L65.69 16.65 L64.91 16.22 L64.13 15.82 L63.33 15.43 L62.53 15.06 L61.72 14.72 L60.9 14.39 L60.07 14.08 L59.23 13.8 L58.39 13.53 L57.54 13.29 L55.95 12.89 "/>
<path stroke-width="10.0" stroke="rgb(255, 255, 0)" fill="none" d="M40.05 12.89 L39.19 13.09 L38.34 13.32 L37.49 13.57 L36.65 13.84 L35.81 14.13 L34.98 14.44 L34.16 14.77 L33.35 15.11 L32.55 15.48 L31.76 15.87 L30.97 16.28 L30.2 16.71 L29.44 17.15 L28.69 17.62 L27.95 18.1 L27.22 18.6 L26.5 19.12 L25.8 19.66 L25.11 20.21 L24.44 20.78 L23.78 21.37 L23.13 21.97 L22.5 22.59 L21.88 23.22 L21.28 23.87 L20.7 24.53 L20.13 25.21 L19.58 25.9 L19.05 26.61 L18.53 27.32 L18.03 28.05 L17.55 28.79 L17.09 29.55 L16.65 30.31 L16.22 31.09 L15.82 31.87 L15.43 32.67 L15.06 33.47 L14.72 34.28 L14.39 35.1 L14.08 35.93 L13.8 36.77 L13.53 37.61 L13.29 38.46 L12.89 40.05 "/>
<path stroke-width="10.0" stroke="rgb(255, 255, 0)" fill="none" d="M55.95 83.11 L56.81 82.91 L57.66 82.68 L58.51 82.43 L59.35 82.16 L60.19 81.87 L61.02 81.56 L61.84 81.23 L62.65 80.89 L63.45 80.52 L64.24 80.13 L65.03 79.72 L65.8 79.29 L66.56 78.85 L67.31 78.38 L68.05 77.9 L68.78 77.4 L69.5 76.88 L70.2 76.34 L70.89 75.79 L71.56 75.22 L72.22 74.63 L72.87 74.03 L73.5 73.41 L74.12 72.78 L74.72 72.13 L75.3 71.47 L75.87 70.79 L76.42 70.1 L76.95 69.39 L77.47 68.68 L77.97 67.95 L78.45 67.21 L78.91 66.45 L79.35 65.69 L79.78 64.91 L80.18 64.13 L80.57 63.33 L80.94 62.53 L81.28 61.72 L81.61 60.9 L81.92 60.07 L82.2 59.23 L82.47 58.39 L82.71 57.54 L83.11 55.95 "/>
<path stroke-width="10.0" stroke="rgb(255, 255, 0)" fill="none" d="M12.89 55.95 L13.09 56.81 L13.32 57.66 L13.57 58.51 L13.84 59.35 L14.13 60.19 L14.44 61.02 L14.77 61.84 L15.11 62.65 L15.48 63.45 L15.87 64.24 L16.28 65.03 L16.71 65.8 L17.15 66.56 L17.62 67.31 L18.1 68.05 L18.6 68.78 L19.12 69.5 L19.66 70.2 L20.21 70.89 L20.78 71.56 L21.37 72.22 L21.97 72.87 L22.59 73.5 L23.22 74.12 L23.87 74.72 L24.53 75.3 L25.21 75.87 L25.9 76.42 L26.61 76.95 L27.32 77.47 L28.05 77.97 L28.79 78.45 L29.55 78.91 L30.31 79.35 L31.09 79.78 L31.87 80.18 L32.67 80.57 L33.47 80.94 L34.28 81.28 L35.1 81.61 L35.93 81.92 L36.77 82.2 L37.61 82.47 L38.46 82.71 L40.05 83.11 "/>
</svg>