<svg width="96.0000" height="96.0000" version="1.1" xmlns="http://www.w3.org/2000/svg" xmlns:xlink="http://www.w3.org/1999/xlink">
<path stroke-width="10.0" stroke="rgb(255, 0, 0)" fill="none" d="M56 48 L56 47.8 L55.99 47.61 L55.98 47.41 L55.96 47.22 L55.94 47.02 L55.91 46.83 L55.88 46.63 L55.85 46.44 L55.81 46.25 L55.76 46.06 L55.71 45.87 L55.66 45.68 L55.6 45.49 L55.53 45.3 L55.46 45.12 L55.39 44.94 L55.31 44.76 L55.23 44.58 L55.15 44.4 L55.06 44.23 L54.96 44.06 L54.86 43.89 L54.76 43.72 L54.65 43.56 L54.54 43.39 L54.43 43.23 L54.31 43.08 L54.18 42.92 L54.06 42.77 L53.93 42.63 L53.79 42.48 L53.66 42.34 L53.52 42.21 L53.37 42.07 L53.23 41.94 L53.08 41.82 L52.92 41.69 L52.77 41.57 L52.61 41.46 L52.44 41.35 L52.28 41.24 L52.11 41.14 L51.94 41.04 L51.77 40.94 L51.6 40.85 L51.42 40.77 L51.24 40.69 L51.06 40.61 L50.88 40.54 L50.7 40.47 L50.51 40.4 L50.32 40.34 L50.13 40.29 L49.94 40.24 L49.75 40.19 L49.56 40.15 L49.37 40.12 L49.17 40.09 L48.98 40.06 L48.78 40.04 L48.59 40.02 L48.39 40.01 L48.2 40 L48 40 L47.8 40 L47.61 40.01 L47.41 40.02 L47.22 40.04 L47.02 40.06 L46.83 40.09 L46.63 40.12 L46.44 40.15 L46.25 40.19 L46.06 40.24 L45.87 40.29 L45.68 40.34 L45.49 40.4 L45.3 40.47 L45.12 40.54 L44.94 40.61 L44.76 40.69 L44.58 40.77 L44.4 40.85 L44.23 40.94 L44.06 41.04 L43.89 41.14 L43.72 41.24 L43.56 41.35 L43.39 41.46 L43.23 41.57 L43.08 41.69 L42.92 41.82 L42.77 41.94 L42.63 42.07 L42.48 42.21 L42.34 42.34 L42.21 42.48 L42.07 42.63 L41.94 42.77 L41.82 42.92 L41.69 43.08 L41.57 43.23 L41.46 43.39 L41.35 43.56 L41.24 43.72 L41.14 43.89 L41.04 44.06 L40.94 44.23 L40.85 44.4 L40.77 44.58 L40.69 44.76 L40.61 44.94 L40.54 45.12 L40.47 45.3 L40.4 45.49 L40.34 45.68 L40.29 45.87 L40.24 46.06 L40.19 46.25 L40.15 46.44 L40.12 46.63 L40.09 46.83 L40.06 47.02 L40.04 47.22 L40.02 47.41 L40.01 47.61 L40 47.8 L40 48 L40 48.2 L40.01 48.39 L40.02 48.59 L40.04 48.78 L40.06 48.98 L40.09 49.17 L40.12 49.37 L40.15 49.56 L40.19 49.75 L40.24 49.94 L40.29 50.13 L40.34 50.32 L40.4 50.51 L40.47 50.7 L40.54 50.88 L40.61 51.06 L40.69 51.24 L40.77 51.42 L40.85 51.6 L40.94 51.77 L41.04 51.94 L41.14 52.11 L41.24 52.28 L41.35 52.44 L41.46 52.61 L41.57 52.77 L41.69 52.92 L41.82 53.08 L41.94 53.23 L42.07 53.37 L42.21 53.52 L42.34 53.66 L42.48 53.79 L42.63 53.93 L42.77 54.06 L42.92 54.18 L43.08 54.31 L43.23 54.43 L43.39 54.54 L43.56 54.65 L43.72 54.76 L43.89 54.86 L44.06 54.96 L44.23 55.06 L44.4 55.15 L44.58 55.23 L44.76 55.31 L44.94 55.39 L45.12 55.46 L45.3 55.53 L45.49 55.6 L45.68 55.66 L45.87 55.71 L46.06 55.76 L46.25 55.81 L46.44 55.85 L46.63 55.88 L46.83 55.91 L47.02 55.94 L47.22 55.96 L47.41 55.98 L47.61 55.99 L47.8 56 L48 56 L48.2 56 L48.39 55.99 L48.59 55.98 L48.78 55.96 L48.98 55.94 L49.17 55.91 L49.37 55.88 L49.56 55.85 L49.75 55.81 L49.94 55.76 L50.13 55.71 L50.32 55.66 L50.51 55.6 L50.7 55.53 L50.88 55.46 L51.06 55.39 L51.24 55.31 L51.42 55.23 L51.6 55.15 L51.77 55.06 L51.94 54.96 L52.11 54.86 L52.28 54.76 L52.44 54.65 L52.61 54.54 L52.77 54.43 L52.92 54.31 L53.08 54.18 L53.23 54.06 L53.37 53.93 L53.52 53.79 L53.66 53.66 L53.79 53.52 L53.93 53.37 L54.06 53.23 L54.18 53.08 L54.31 52.92 L54.43 52.77 L54.54 52.61 L54.65 52.44 L54.76 52.28 L54.86 52.11 L54.96 51.94 L55.06 51.77 L55.15 51.6 L55.23 51.42 L55.31 51.24 L55.39 51.06 L55.46 50.88 L55.53 50.7 L55.6 50.51 L55.66 50.32 L55.71 50.13 L55.76 49.94 L55.81 49.75 L55.85 49.56 L55.88 49.37 L55.91 49.17 L55.94 48.98 L55.96 48.78 L55.98 48.59 L55.99 48.39 L56 48.2 L56 48 "/>
<path stroke-width="10.0" stroke="rgb(255, 255, 0)" fill="none" d="M84 48 L83.99 47.12 L83.96 46.23 L83.9 45.35 L83.83 44.47 L83.73 43.59 L83.61 42.72 L83.47 41.85 L83.31 40.98 L83.13 40.11 L82.92 39.25 L82.7 38.4 L82.45 37.55 L82.18 36.71 L81.9 35.87 L81.59 35.04 L81.26 34.22 L80.91 33.41 L80.54 32.61 L80.16 31.81 L79.75 31.03 L79.32 30.26 L78.88 29.49 L78.41 28.74 L77.93 28 L77.43 27.27 L76.92 26.55 L76.38 25.85 L75.83 25.16 L75.26 24.49 L74.67 23.82 L74.07 23.18 L73.46 22.54 L72.82 21.93 L72.18 21.33 L71.51 20.74 L70.84 20.17 L70.15 19.62 L69.45 19.08 L68.73 18.57 L68 18.07 L67.26 17.59 L66.51 17.12 L65.74 16.68 L64.97 16.25 L64.19 15.84 L63.39 15.46 L62.59 15.09 L61.78 14.74 L60.96 14.41 L60.13 14.1 L59.29 13.82 L58.45 13.55 L57.6 13.3 L56.75 13.08 L55.89 12.87 L55.02 12.69 L54.15 12.53 L53.28 12.39 L52.41 12.27 L51.53 12.17 L50.65 12.1 L49.77 12.04 L48.88 12.01 L48 12 L47.12 12.01 L46.23 12.04 L45.35 12.1 L44.47 12.17 L43.59 12.27 L42.72 12.39 L41.85 12.53 L40.98 12.69 L40.11 12.87 L39.25 13.08 L38.4 13.3 L37.55 13.55 L36.71 13.82 L35.87 14.1 L35.04 14.41 L34.22 14.74 L33.41 15.09 L32.61 15.46 L31.81 15.84 L31.03 16.25 L30.26 16.68 L29.49 17.12 L28.74 17.59 L28 18.07 L27.27 18.57 L26.55 19.08 L25.85 19.62 L25.16 20.17 L24.49 20.74 L23.82 21.33 L23.18 21.93 L22.54 22.54 L21.93 23.18 L21.33 23.82 L20.74 24.49 L20.17 25.16 L19.62 25.85 L19.08 26.55 L18.57 27.27 L18.07 28 L17.59 28.74 L17.12 29.49 L16.68 30.26 L16.25 31.03 L15.84 31.81 L15.46 32.61 L15.09 33.41 L14.74 34.22 L14.41 35.04 L14.1 35.87 L13.82 36.71 L13.55 37.55 L13.3 38.4 L13.08 39.25 L12.87 40.11 L12.69 40.98 L12.53 41.85 L12.39 42.72 L12.27 43.59 L12.17 44.47 L12.1 45.35 L12.04 46.23 L12.01 47.12 L12 48 L12.01 48.88 L12.04 49.77 L12.1 50.65 L12.17 51.53 L12.27 52.41 L12.39 53.28 L12.53 54.15 L12.69 55.02 L12.87 55.89 L13.08 56.75 L13.3 57.6 L13.55 58.45 L13.82 59.29 L14.1 60.13 L14.41 60.96 L14.74 61.78 L15.09 62.59 L15.46 63.39 L15.84 64.19 L16.25 64.97 L16.68 65.74 L17.12 66.51 L17.59 67.26 L18.07 68 L18.57 68.73 L19.08 69.45 L19.62 70.15 L20.17 70.84 L20.74 71.51 L21.33 72.18 L21.93 72.82 L22.54 73.46 L23.18 74.07 L23.82 74.67 L24.49 75.26 L25.16 75.83 L25.85 76.38 L26.55 76.92 L27.27 77.43 L28 77.93 L28.74 78.41 L29.49 78.88 L30.26 79.32 L31.03 79.75 L31.81 80.16 L32.61 80.54 L33.41 80.91 L34.22 81.26 L35.04 81.59 L35.87 81.9 L36.71 82.18 L37.55 82.45 L38.4 82.7 L39.25 82.92 L40.11 83.13 L40.98 83.31 L41.85 83.47 L42.72 83.61 L43.59 83.73 L44.47 83.83 L45.35 83.9 L46.23 83.96 L47.12 83.99 L48 84 L48.88 83.99 L49.77 83.96 L50.65 83.9 L51.53 83.83 L52.41 83.73 L53.28 83.61 L54.15 83.47 L55.02 83.31 L55.89 83.13 L56.75 82.92 L57.6 82.7 L58.45 82.45 L59.29 82.18 L60.13 81.9 L60.96 81.59 L61.78 81.26 L62.59 80.91 L63.39 80.54 L64.19 80.16 L64.97 79.75 L65.74 79.32 L66.51 78.88 L67.26 78.41 L68 77.93 L68.73 77.43 L69.45 76.92 L70.15 76.38 L70.84 75.83 L71.51 75.26 L72.18 74.67 L72.82 74.07 L73.46 73.46 L74.07 72.82 L74.67 72.18 L75.26 71.51 L75.83 70.84 L76.38 70.15 L76.92 69.45 L77.43 68.73 L77.93 68 L78.41 67.26 L78.88 66.51 L79.32 65.74 L79.75 64.97 L80.16 64.19 L80.54 63.39 L80.91 62.59 L81.26 61.78 L81.59 60.96 L81.9 60.13 L82.18 59.29 L82.45 58.45 L82.7 57.6 L82.92 56.75 L83.13 55.89 L83.31 55.02 L83.47 54.15 L83.61 53.28 L83.73 52.41 L83.83 51.53 L83.9 50.65 L83.96 49.77 L83.99 48.88 L84 48 "/>
</svg>