<svg width="96.0000" height="96.0000" version="1.1" xmlns="http://www.w3.org/2000/svg" xmlns:xlink="http://www.w3.org/1999/xlink">
<path stroke-width="10.0" stroke="rgb(255, 0, 0)" fill="none" d="M56 48 L56 47.8 L55.99 47.61 L55.98 47.41 L55.96 47.22 L55.94 47.02 L55.91 46.83 L55.88 46.63 L55.85 46.44 L55.81 46.25 L55.76 46.06 L55.71 45.87 L55.66 45.68 L55.6 45.49 L55.53 45.3 L55.46 45.12 L55.39 44.94 L55.31 44.76 L55.23 44.58 L55.15 44.4 L55.06 44.23 L54.96 44.06 L54.86 43.89 L54.76 43.72 L54.65 43.56 L54.54 43.39 L54.43 43.23 L54.31 43.08 L54.18 42.92 L54.06 42.77 L53.93 42.63 L53.79 42.48 L53.66 42.34 L53.52 42.21 L53.37 42.07 L53.23 41.94 L53.08 41.82 L52.92 41.69 L52.77 41.57 L52.61 41.46 L52.44 41.35 L52.28 41.24 L52.11 41.14 L51.94 41.04 L51.77 40.94 L51.6 40.85 L51.42 40.77 L51.24 40.69 L51.06 40.61 L50.88 40.54 L50.7 40.47 L50.51 40.4 L50.32 40.34 L50.13 40.29 L49.94 40.24 L49.75 40.19 L49.56 40.15 L49.37 40.12 L49.17 40.09 L48.98 40.06 L48.78 40.04 L48.59 40.02 L48.39 40.01 L48.2 40 L48 40 L47.8 40 L47.61 40.01 L47.41 40.02 L47.22 40.04 L47.02 40.06 L46.83 40.09 L46.63 40.12 L46.44 40.15 L46.25 40.19 L46.06 40.24 L45.87 40.29 L45.68 40.34 L45.49 40.4 L45.3 40.47 L45.12 40.54 L44.94 40.61 L44.76 40.69 L44.58 40.77 L44.4 40.85 L44.23 40.94 L44.06 41.04 L43.89 41.14 L43.72 41.24 L43.56 41.35 L43.39 41.46 L43.23 41.57 L43.08 41.69 L42.92 41.82 L42.77 41.94 L42.63 42.07 L42.48 42.21 L42.34 42.34 L42.21 42.48 L42.07 42.63 L41.94 42.77 L41.82 42.92 L41.69 43.08 L41.57 43.23 L41.46 43.39 L41.35 43.56 L41.24 43.72 L41.14 43.89 L41.04 44.06 L40.94 44.23 L40.85 44.4 L40.77 44.58 L40.69 44.76 L40.61 44.94 L40.54 45.12 L40.47 45.3 L40.4 45.49 L40.34 45.68 L40.29 45.87 L40.24 46.06 L40.19 46.25 L40.15 46.44 L40.12 46.63 L40.09 46.83 L40.06 47.02 L40.04 47.22 L40.02 47.41 L40.01 47.61 L40 47.8 L40 48 L40 48.2 L40.01 48.39 L40.02 48.59 L40.04 48.78 L40.06 48.98 L40.09 49.17 L40.12 49.37 L40.15 49.56 L40.19 49.75 L40.24 49.94 L40.29 50.13 L40.34 50.32 L40.4 50.51 L40.47 50.7 L40.54 50.88 L40.61 51.06 L40.69 51.24 L40.77 51.42 L40.85 51.6 L40.94 51.77 L41.04 51.94 L41.14 52.11 L41.24 52.28 L41.35 52.44 L41.46 52.61 L41.57 52.77 L41.69 52.92 L41.82 53.08 L41.94 53.23 L42.07 53.37 L42.21 53.52 L42.34 53.66 L42.48 53.79 L42.63 53.93 L42.77 54.06 L42.92 54.18 L43.08 54.31 L43.23 54.43 L43.39 54.54 L43.56 54.65 L43.72 54.76 L43.89 54.86 L44.06 54.96 L44.23 55.06 L44.4 55.15 L44.58 55.23 L44.76 55.31 L44.94 55.39 L45.12 55.46 L45.3 55.53 L45.49 55.6 L45.68 55.66 L45.87 55.71 L46.06 55.76 L46.25 55.81 L46.44 55.85 L46.63 55.88 L46.83 55.91 L47.02 55.94 L47.22 55.96 L47.41 55.98 L47.61 55.99 L47.8 56 L48 56 L48.2 56 L48.39 55.99 L48.59 55.98 L48.78 55.96 L48.98 55.94 L49.17 55.91 L49.37 55.88 L49.56 55.85 L49.75 55.81 L49.94 55.76 L50.13 55.71 L50.32 55.66 L50.51 55.6 L50.7 55.53 L50.88 55.46 L51.06 55.39 L51.24 55.31 L51.42 55.23 L51.6 55.15 L51.77 55.06 L51.94 54.96 L52.11 54.86 L52.28 54.76 L52.44 54.65 L52.61 54.54 L52.77 54.43 L52.92 54.31 L53.08 54.18 L53.23 54.06 L53.37 53.93 L53.52 53.79 L53.66 53.66 L53.79 53.52 L53.93 53.37 L54.06 53.23 L54.18 53.08 L54.31 52.92 L54.43 52.77 L54.54 52.61 L54.65 52.44 L54.76 52.28 L54.86 52.11 L54.96 51.94 L55.06 51.77 L55.15 51.6 L55.23 51.42 L55.31 51.24 L55.39 51.06 L55.46 50.88 L55.53 50.7 L55.6 50.51 L55.66 50.32 L55.71 50.13 L55.76 49.94 L55.81 49.75 L55.85 49.56 L55.88 49.37 L55.91 49.17 L55.94 48.98 L55.96 48.78 L55.98 48.59 L55.99 48.39 L56 48.2 L56 48 "/>
<path stroke-width="10.0" stroke="rgb(255, 255, 0)" fill="none" d="M48 40 L48 5.936 "/>
<path stroke-width="10.0" stroke="rgb(255, 255, 0)" fill="none" d="M48 56 L48 88.79 "/>
<path stroke-dasharray="10,5" stroke-width="10.0" stroke="rgb(255, 255, 0)" fill="none" d="M12 12 L42.34 42.34 "/>
<path stroke-dasharray="10,5" stroke-width="10.0" stroke="rgb(255, 255, 0)" fill="none" d="M84 84 L53.66 53.66 "/>
</svg>