<svg width="96.0000" height="96.0000" version="1.1" xmlns="http://www.w3.org/2000/svg" xmlns:xlink="http://www.w3.org/1999/xlink">
<path stroke-width="10.0" stroke="rgb(255, 0, 0)" fill="none" d="M75.18 33.58 L75.18 33.38 L75.17 33.19 L75.16 32.99 L75.15 32.79 L75.12 32.6 L75.1 32.4 L75.07 32.21 L75.03 32.02 L74.99 31.83 L74.94 31.63 L74.89 31.44 L74.84 31.26 L74.78 31.07 L74.72 30.88 L74.65 30.7 L74.57 30.52 L74.5 30.34 L74.42 30.16 L74.33 29.98 L74.24 29.81 L74.14 29.63 L74.05 29.47 L73.94 29.3 L73.84 29.13 L73.72 28.97 L73.61 28.81 L73.49 28.66 L73.37 28.5 L73.24 28.35 L73.11 28.21 L72.98 28.06 L72.84 27.92 L72.7 27.78 L72.56 27.65 L72.41 27.52 L72.26 27.39 L72.11 27.27 L71.95 27.15 L71.79 27.04 L71.63 26.93 L71.46 26.82 L71.3 26.72 L71.13 26.62 L70.95 26.52 L70.78 26.43 L70.6 26.35 L70.43 26.26 L70.25 26.19 L70.06 26.11 L69.88 26.05 L69.69 25.98 L69.51 25.92 L69.32 25.87 L69.13 25.82 L68.94 25.77 L68.74 25.73 L68.55 25.7 L68.36 25.66 L68.16 25.64 L67.97 25.62 L67.77 25.6 L67.58 25.59 L67.38 25.58 L67.18 25.58 L66.99 25.58 L66.79 25.59 L66.6 25.6 L66.4 25.62 L66.2 25.64 L66.01 25.66 L65.82 25.7 L65.62 25.73 L65.43 25.77 L65.24 25.82 L65.05 25.87 L64.86 25.92 L64.67 25.98 L64.49 26.05 L64.3 26.11 L64.12 26.19 L63.94 26.26 L63.76 26.35 L63.59 26.43 L63.41 26.52 L63.24 26.62 L63.07 26.72 L62.9 26.82 L62.74 26.93 L62.58 27.04 L62.42 27.15 L62.26 27.27 L62.11 27.39 L61.96 27.52 L61.81 27.65 L61.67 27.78 L61.53 27.92 L61.39 28.06 L61.26 28.21 L61.13 28.35 L61 28.5 L60.88 28.66 L60.76 28.81 L60.64 28.97 L60.53 29.13 L60.42 29.3 L60.32 29.47 L60.22 29.63 L60.13 29.81 L60.04 29.98 L59.95 30.16 L59.87 30.34 L59.79 30.52 L59.72 30.7 L59.65 30.88 L59.59 31.07 L59.53 31.26 L59.47 31.44 L59.42 31.63 L59.38 31.83 L59.34 32.02 L59.3 32.21 L59.27 32.4 L59.24 32.6 L59.22 32.79 L59.21 32.99 L59.19 33.19 L59.19 33.38 L59.18 33.58 L59.19 33.77 L59.19 33.97 L59.21 34.17 L59.22 34.36 L59.24 34.56 L59.27 34.75 L59.3 34.95 L59.34 35.14 L59.38 35.33 L59.42 35.52 L59.47 35.71 L59.53 35.9 L59.59 36.09 L59.65 36.27 L59.72 36.46 L59.79 36.64 L59.87 36.82 L59.95 37 L60.04 37.18 L60.13 37.35 L60.22 37.52 L60.32 37.69 L60.42 37.86 L60.53 38.02 L60.64 38.18 L60.76 38.34 L60.88 38.5 L61 38.65 L61.13 38.8 L61.26 38.95 L61.39 39.09 L61.53 39.23 L61.67 39.37 L61.81 39.51 L61.96 39.64 L62.11 39.76 L62.26 39.88 L62.42 40 L62.58 40.12 L62.74 40.23 L62.9 40.34 L63.07 40.44 L63.24 40.54 L63.41 40.63 L63.59 40.72 L63.76 40.81 L63.94 40.89 L64.12 40.97 L64.3 41.04 L64.49 41.11 L64.67 41.17 L64.86 41.23 L65.05 41.29 L65.24 41.34 L65.43 41.38 L65.62 41.42 L65.82 41.46 L66.01 41.49 L66.2 41.52 L66.4 41.54 L66.6 41.56 L66.79 41.57 L66.99 41.58 L67.18 41.58 L67.38 41.58 L67.58 41.57 L67.77 41.56 L67.97 41.54 L68.16 41.52 L68.36 41.49 L68.55 41.46 L68.74 41.42 L68.94 41.38 L69.13 41.34 L69.32 41.29 L69.51 41.23 L69.69 41.17 L69.88 41.11 L70.06 41.04 L70.25 40.97 L70.43 40.89 L70.6 40.81 L70.78 40.72 L70.95 40.63 L71.13 40.54 L71.3 40.44 L71.46 40.34 L71.63 40.23 L71.79 40.12 L71.95 40 L72.11 39.88 L72.26 39.76 L72.41 39.64 L72.56 39.51 L72.7 39.37 L72.84 39.23 L72.98 39.09 L73.11 38.95 L73.24 38.8 L73.37 38.65 L73.49 38.5 L73.61 38.34 L73.72 38.18 L73.84 38.02 L73.94 37.86 L74.05 37.69 L74.14 37.52 L74.24 37.35 L74.33 37.18 L74.42 37 L74.5 36.82 L74.57 36.64 L74.65 36.46 L74.72 36.27 L74.78 36.09 L74.84 35.9 L74.89 35.71 L74.94 35.52 L74.99 35.33 L75.03 35.14 L75.07 34.95 L75.1 34.75 L75.12 34.56 L75.15 34.36 L75.16 34.17 L75.17 33.97 L75.18 33.77 L75.18 33.58 "/>
<path stroke-width="10.0" stroke="rgb(255, 255, 0)" fill="none" d="M62.38 27.18 L47.95 8 "/>
<path stroke-width="10.0" stroke="rgb(255, 255, 0)" fill="none" d="M71.99 39.97 L86.41 59.16 "/>
<path stroke-width="10.0" stroke="rgb(255, 255, 0)" fill="none" d="M61.38 28.07 L60.88 27.75 L60.38 27.44 L59.88 27.14 L59.36 26.86 L58.84 26.59 L58.31 26.33 L57.77 26.08 L57.23 25.85 L56.69 25.63 L56.14 25.42 L55.58 25.23 L55.02 25.05 L54.45 24.88 L53.88 24.73 L53.31 24.59 L52.73 24.47 L52.16 24.36 L51.57 24.27 L50.99 24.19 L50.41 24.12 L49.82 24.07 L49.23 24.03 L48.64 24.01 L48.05 24 L47.46 24.01 L46.88 24.03 L46.29 24.06 L45.7 24.11 L45.11 24.17 L44.53 24.25 L43.95 24.34 L43.37 24.45 L42.79 24.57 L42.22 24.71 L41.65 24.86 L41.08 25.02 L40.52 25.19 L39.96 25.39 L39.41 25.59 L38.86 25.81 L38.32 26.04 L37.79 26.28 L37.26 26.54 L36.73 26.81 L36.22 27.09 L35.71 27.39 L35.2 27.7 L34.71 28.02 L34.22 28.35 L33.75 28.69 L33.28 29.05 L32.82 29.41 L32.36 29.79 L31.92 30.18 L31.49 30.58 L31.07 30.99 L30.65 31.41 L30.25 31.84 L29.86 32.28 L29.48 32.73 L29.11 33.19 L28.75 33.66 L28.41 34.14 L28.07 34.62 L27.75 35.12 L27.44 35.62 L27.14 36.12 L26.86 36.64 L26.59 37.16 L26.33 37.69 L26.08 38.23 L25.85 38.77 L25.63 39.31 L25.42 39.86 L25.23 40.42 L25.05 40.98 L24.88 41.55 L24.73 42.12 L24.59 42.69 L24.47 43.27 L24.36 43.84 L24.27 44.43 L24.19 45.01 L24.12 45.59 L24.07 46.18 L24.03 46.77 L24.01 47.36 L24 47.95 L24.01 48.54 L24.03 49.12 L24.06 49.71 L24.11 50.3 L24.17 50.89 L24.25 51.47 L24.34 52.05 L24.45 52.63 L24.57 53.21 L24.71 53.78 L24.86 54.35 L25.02 54.92 L25.19 55.48 L25.39 56.04 L25.59 56.59 L25.81 57.14 L26.04 57.68 L26.28 58.21 L26.54 58.74 L26.81 59.27 L27.09 59.78 L27.39 60.29 L27.7 60.8 L28.02 61.29 L28.35 61.78 L28.69 62.25 L29.05 62.72 L29.41 63.18 L29.79 63.64 L30.18 64.08 L30.58 64.51 L30.99 64.93 L31.41 65.35 L31.84 65.75 L32.28 66.14 L32.73 66.52 L33.19 66.89 L33.66 67.25 L34.14 67.59 L34.62 67.93 L35.12 68.25 L35.62 68.56 L36.12 68.86 L36.64 69.14 L37.16 69.41 L37.69 69.67 L38.23 69.92 L38.77 70.15 L39.31 70.37 L39.86 70.58 L40.42 70.77 L40.98 70.95 L41.55 71.12 L42.12 71.27 L42.69 71.41 L43.27 71.53 L43.84 71.64 L44.43 71.73 L45.01 71.81 L45.59 71.88 L46.18 71.93 L46.77 71.97 L47.36 71.99 L47.95 72 L48.54 71.99 L49.12 71.97 L49.71 71.94 L50.3 71.89 L50.89 71.83 L51.47 71.75 L52.05 71.66 L52.63 71.55 L53.21 71.43 L53.78 71.29 L54.35 71.14 L54.92 70.98 L55.48 70.81 L56.04 70.61 L56.59 70.41 L57.14 70.19 L57.68 69.96 L58.21 69.72 L58.74 69.46 L59.27 69.19 L59.78 68.91 L60.29 68.61 L60.8 68.3 L61.29 67.98 L61.78 67.65 L62.25 67.31 L62.72 66.95 L63.18 66.59 L63.64 66.21 L64.08 65.82 L64.51 65.42 L64.93 65.01 L65.35 64.59 L65.75 64.16 L66.14 63.72 L66.52 63.27 L66.89 62.81 L67.25 62.34 L67.59 61.86 L67.93 61.38 L68.25 60.88 L68.56 60.38 L68.86 59.88 L69.14 59.36 L69.41 58.84 L69.67 58.31 L69.92 57.77 L70.15 57.23 L70.37 56.69 L70.58 56.14 L70.77 55.58 L70.95 55.02 L71.12 54.45 L71.27 53.88 L71.41 53.31 L71.53 52.73 L71.64 52.16 L71.73 51.57 L71.81 50.99 L71.88 50.41 L71.93 49.82 L71.97 49.23 L71.99 48.64 L72 48.05 L71.99 47.46 L71.97 46.88 L71.94 46.29 L71.89 45.7 L71.83 45.11 L71.75 44.53 L71.66 43.95 L71.55 43.37 L71.43 42.79 L71.29 42.22 L71.14 41.65 L70.86 40.68 "/>
</svg>