<svg width="96.0000" height="96.0000" version="1.1" xmlns="http://www.w3.org/2000/svg" xmlns:xlink="http://www.w3.org/1999/xlink">
<path stroke-width="10.0" stroke="rgb(255, 0, 0)" fill="none" d="M20 12 L20 11.8 L19.99 11.61 L19.98 11.41 L19.96 11.22 L19.94 11.02 L19.91 10.83 L19.88 10.63 L19.85 10.44 L19.81 10.25 L19.76 10.06 L19.71 9.866 L19.66 9.678 L19.6 9.491 L19.53 9.305 L19.46 9.121 L19.39 8.939 L19.31 8.758 L19.23 8.58 L19.15 8.403 L19.06 8.229 L18.96 8.057 L18.86 7.887 L18.76 7.72 L18.65 7.555 L18.54 7.394 L18.43 7.234 L18.31 7.078 L18.18 6.925 L18.06 6.775 L17.93 6.628 L17.79 6.484 L17.66 6.343 L17.52 6.206 L17.37 6.072 L17.23 5.942 L17.08 5.816 L16.92 5.693 L16.77 5.574 L16.61 5.459 L16.44 5.348 L16.28 5.241 L16.11 5.138 L15.94 5.039 L15.77 4.945 L15.6 4.854 L15.42 4.768 L15.24 4.686 L15.06 4.609 L14.88 4.536 L14.7 4.468 L14.51 4.404 L14.32 4.344 L14.13 4.29 L13.94 4.24 L13.75 4.194 L13.56 4.154 L13.37 4.118 L13.17 4.087 L12.98 4.06 L12.78 4.039 L12.59 4.022 L12.39 4.01 L12.2 4.002 L12 4 L11.8 4.002 L11.61 4.01 L11.41 4.022 L11.22 4.039 L11.02 4.06 L10.83 4.087 L10.63 4.118 L10.44 4.154 L10.25 4.194 L10.06 4.24 L9.866 4.29 L9.678 4.344 L9.491 4.404 L9.305 4.468 L9.121 4.536 L8.939 4.609 L8.758 4.686 L8.58 4.768 L8.403 4.854 L8.229 4.945 L8.057 5.039 L7.887 5.138 L7.72 5.241 L7.555 5.348 L7.394 5.459 L7.234 5.574 L7.078 5.693 L6.925 5.816 L6.775 5.942 L6.628 6.072 L6.484 6.206 L6.343 6.343 L6.206 6.484 L6.072 6.628 L5.942 6.775 L5.816 6.925 L5.693 7.078 L5.574 7.234 L5.459 7.394 L5.348 7.555 L5.241 7.72 L5.138 7.887 L5.039 8.057 L4.945 8.229 L4.854 8.403 L4.768 8.58 L4.686 8.758 L4.609 8.939 L4.536 9.121 L4.468 9.305 L4.404 9.491 L4.344 9.678 L4.29 9.866 L4.24 10.06 L4.194 10.25 L4.154 10.44 L4.118 10.63 L4.087 10.83 L4.06 11.02 L4.039 11.22 L4.022 11.41 L4.01 11.61 L4.002 11.8 L4 12 L4.002 12.2 L4.01 12.39 L4.022 12.59 L4.039 12.78 L4.06 12.98 L4.087 13.17 L4.118 13.37 L4.154 13.56 L4.194 13.75 L4.24 13.94 L4.29 14.13 L4.344 14.32 L4.404 14.51 L4.468 14.7 L4.536 14.88 L4.609 15.06 L4.686 15.24 L4.768 15.42 L4.854 15.6 L4.945 15.77 L5.039 15.94 L5.138 16.11 L5.241 16.28 L5.348 16.44 L5.459 16.61 L5.574 16.77 L5.693 16.92 L5.816 17.08 L5.942 17.23 L6.072 17.37 L6.206 17.52 L6.343 17.66 L6.484 17.79 L6.628 17.93 L6.775 18.06 L6.925 18.18 L7.078 18.31 L7.234 18.43 L7.394 18.54 L7.555 18.65 L7.72 18.76 L7.887 18.86 L8.057 18.96 L8.229 19.06 L8.403 19.15 L8.58 19.23 L8.758 19.31 L8.939 19.39 L9.121 19.46 L9.305 19.53 L9.491 19.6 L9.678 19.66 L9.866 19.71 L10.06 19.76 L10.25 19.81 L10.44 19.85 L10.63 19.88 L10.83 19.91 L11.02 19.94 L11.22 19.96 L11.41 19.98 L11.61 19.99 L11.8 20 L12 20 L12.2 20 L12.39 19.99 L12.59 19.98 L12.78 19.96 L12.98 19.94 L13.17 19.91 L13.37 19.88 L13.56 19.85 L13.75 19.81 L13.94 19.76 L14.13 19.71 L14.32 19.66 L14.51 19.6 L14.7 19.53 L14.88 19.46 L15.06 19.39 L15.24 19.31 L15.42 19.23 L15.6 19.15 L15.77 19.06 L15.94 18.96 L16.11 18.86 L16.28 18.76 L16.44 18.65 L16.61 18.54 L16.77 18.43 L16.92 18.31 L17.08 18.18 L17.23 18.06 L17.37 17.93 L17.52 17.79 L17.66 17.66 L17.79 17.52 L17.93 17.37 L18.06 17.23 L18.18 17.08 L18.31 16.92 L18.43 16.77 L18.54 16.61 L18.65 16.44 L18.76 16.28 L18.86 16.11 L18.96 15.94 L19.06 15.77 L19.15 15.6 L19.23 15.42 L19.31 15.24 L19.39 15.06 L19.46 14.88 L19.53 14.7 L19.6 14.51 L19.66 14.32 L19.71 14.13 L19.76 13.94 L19.81 13.75 L19.85 13.56 L19.88 13.37 L19.91 13.17 L19.94 12.98 L19.96 12.78 L19.98 12.59 L19.99 12.39 L20 12.2 L20 12 "/>
<path stroke-width="10.0" stroke="rgb(255, 0, 0)" fill="none" d="M92 84 L92 83.8 L91.99 83.61 L91.98 83.41 L91.96 83.22 L91.94 83.02 L91.91 82.83 L91.88 82.63 L91.85 82.44 L91.81 82.25 L91.76 82.06 L91.71 81.87 L91.66 81.68 L91.6 81.49 L91.53 81.3 L91.46 81.12 L91.39 80.94 L91.31 80.76 L91.23 80.58 L91.15 80.4 L91.06 80.23 L90.96 80.06 L90.86 79.89 L90.76 79.72 L90.65 79.56 L90.54 79.39 L90.43 79.23 L90.31 79.08 L90.18 78.92 L90.06 78.77 L89.93 78.63 L89.79 78.48 L89.66 78.34 L89.52 78.21 L89.37 78.07 L89.23 77.94 L89.08 77.82 L88.92 77.69 L88.77 77.57 L88.61 77.46 L88.44 77.35 L88.28 77.24 L88.11 77.14 L87.94 77.04 L87.77 76.94 L87.6 76.85 L87.42 76.77 L87.24 76.69 L87.06 76.61 L86.88 76.54 L86.7 76.47 L86.51 76.4 L86.32 76.34 L86.13 76.29 L85.94 76.24 L85.75 76.19 L85.56 76.15 L85.37 76.12 L85.17 76.09 L84.98 76.06 L84.78 76.04 L84.59 76.02 L84.39 76.01 L84.2 76 L84 76 L83.8 76 L83.61 76.01 L83.41 76.02 L83.22 76.04 L83.02 76.06 L82.83 76.09 L82.63 76.12 L82.44 76.15 L82.25 76.19 L82.06 76.24 L81.87 76.29 L81.68 76.34 L81.49 76.4 L81.3 76.47 L81.12 76.54 L80.94 76.61 L80.76 76.69 L80.58 76.77 L80.4 76.85 L80.23 76.94 L80.06 77.04 L79.89 77.14 L79.72 77.24 L79.56 77.35 L79.39 77.46 L79.23 77.57 L79.08 77.69 L78.92 77.82 L78.77 77.94 L78.63 78.07 L78.48 78.21 L78.34 78.34 L78.21 78.48 L78.07 78.63 L77.94 78.77 L77.82 78.92 L77.69 79.08 L77.57 79.23 L77.46 79.39 L77.35 79.56 L77.24 79.72 L77.14 79.89 L77.04 80.06 L76.94 80.23 L76.85 80.4 L76.77 80.58 L76.69 80.76 L76.61 80.94 L76.54 81.12 L76.47 81.3 L76.4 81.49 L76.34 81.68 L76.29 81.87 L76.24 82.06 L76.19 82.25 L76.15 82.44 L76.12 82.63 L76.09 82.83 L76.06 83.02 L76.04 83.22 L76.02 83.41 L76.01 83.61 L76 83.8 L76 84 L76 84.2 L76.01 84.39 L76.02 84.59 L76.04 84.78 L76.06 84.98 L76.09 85.17 L76.12 85.37 L76.15 85.56 L76.19 85.75 L76.24 85.94 L76.29 86.13 L76.34 86.32 L76.4 86.51 L76.47 86.7 L76.54 86.88 L76.61 87.06 L76.69 87.24 L76.77 87.42 L76.85 87.6 L76.94 87.77 L77.04 87.94 L77.14 88.11 L77.24 88.28 L77.35 88.44 L77.46 88.61 L77.57 88.77 L77.69 88.92 L77.82 89.08 L77.94 89.23 L78.07 89.37 L78.21 89.52 L78.34 89.66 L78.48 89.79 L78.63 89.93 L78.77 90.06 L78.92 90.18 L79.08 90.31 L79.23 90.43 L79.39 90.54 L79.56 90.65 L79.72 90.76 L79.89 90.86 L80.06 90.96 L80.23 91.06 L80.4 91.15 L80.58 91.23 L80.76 91.31 L80.94 91.39 L81.12 91.46 L81.3 91.53 L81.49 91.6 L81.68 91.66 L81.87 91.71 L82.06 91.76 L82.25 91.81 L82.44 91.85 L82.63 91.88 L82.83 91.91 L83.02 91.94 L83.22 91.96 L83.41 91.98 L83.61 91.99 L83.8 92 L84 92 L84.2 92 L84.39 91.99 L84.59 91.98 L84.78 91.96 L84.98 91.94 L85.17 91.91 L85.37 91.88 L85.56 91.85 L85.75 91.81 L85.94 91.76 L86.13 91.71 L86.32 91.66 L86.51 91.6 L86.7 91.53 L86.88 91.46 L87.06 91.39 L87.24 91.31 L87.42 91.23 L87.6 91.15 L87.77 91.06 L87.94 90.96 L88.11 90.86 L88.28 90.76 L88.44 90.65 L88.61 90.54 L88.77 90.43 L88.92 90.31 L89.08 90.18 L89.23 90.06 L89.37 89.93 L89.52 89.79 L89.66 89.66 L89.79 89.52 L89.93 89.37 L90.06 89.23 L90.18 89.08 L90.31 88.92 L90.43 88.77 L90.54 88.61 L90.65 88.44 L90.76 88.28 L90.86 88.11 L90.96 87.94 L91.06 87.77 L91.15 87.6 L91.23 87.42 L91.31 87.24 L91.39 87.06 L91.46 86.88 L91.53 86.7 L91.6 86.51 L91.66 86.32 L91.71 86.13 L91.76 85.94 L91.81 85.75 L91.85 85.56 L91.88 85.37 L91.91 85.17 L91.94 84.98 L91.96 84.78 L91.98 84.59 L91.99 84.39 L92 84.2 L92 84 "/>
<path stroke-width="10.0" stroke="rgb(255, 255, 0)" fill="none" d="M17.66 17.66 L78.34 78.34 "/>
</svg>