999
CadZinho - Minimalist CAD by Zecruel
0
SECTION
2
HEADER
9
$ACADVER
1
AC1021
9
$HANDSEED
5
9F
9
$INSUNITS
70
4
9
$LWDISPLAY
290
1
9
$LTSCALE
40
10.000000
0
ENDSEC
0
SECTION
2
CLASSES
0
ENDSEC
0
SECTION
2
TABLES
0
TABLE
2
VPORT
5
1
100
AcDbSymbolTable
70
1000
0
VPORT
5
25
100
AcDbSymbolTableRecord
100
AcDbViewportTableRecord
2
*ACTIVE
70
0
10
0.000000
20
0.000000
11
1.000000
21
1.000000
12
20.000000
22
320.000000
13
0.000000
23
0.000000
14
100.000000
24
100.000000
15
100.000000
25
100.000000
16
0.000000
26
0.000000
36
1.000000
17
0.000000
27
0.000000
37
0.000000
40
25.000000
41
1.800000
42
50.000000
43
0.000000
44
0.000000
50
0.000000
51
0.000000
0
ENDTAB
0
TABLE
2
LTYPE
5
4
100
AcDbSymbolTable
70
1000
0
LTYPE
5
5
100
AcDbSymbolTableRecord
100
AcDbLinetypeTableRecord
2
ByBlock
70
0
3

72
65
73
0
40
0.000000
0
LTYPE
5
6
100
AcDbSymbolTableRecord
100
AcDbLinetypeTableRecord
2
ByLayer
70
0
3

72
65
73
0
40
0.000000
0
LTYPE
5
7
100
AcDbSymbolTableRecord
100
AcDbLinetypeTableRecord
2
Continuous
70
0
3
___________________________________
72
65
73
0
40
0.000000
0
LTYPE
5
8
100
AcDbSymbolTableRecord
100
AcDbLinetypeTableRecord
2
Border
70
0
3
____ . ____ ____ . ____ ____ . ____
72
65
73
6
40
1.750000
49
0.500000
74
0
49
-0.250000
74
0
49
0.500000
74
0
49
-0.250000
74
0
49
0.000000
74
0
49
-0.250000
74
0
0
LTYPE
5
9
100
AcDbSymbolTableRecord
100
AcDbLinetypeTableRecord
2
Center
70
0
3
____ _ ____ _ ____ _ ____ _ ____ _
72
65
73
4
40
2.000000
49
1.250000
74
0
49
-0.250000
74
0
49
0.250000
74
0
49
-0.250000
74
0
0
LTYPE
5
A
100
AcDbSymbolTableRecord
100
AcDbLinetypeTableRecord
2
Dashdot
70
0
3
____ . ____ . ____ . ____ . ____ .
72
65
73
4
40
1.000000
49
0.500000
74
0
49
-0.250000
74
0
49
0.000000
74
0
49
-0.250000
74
0
0
LTYPE
5
B
100
AcDbSymbolTableRecord
100
AcDbLinetypeTableRecord
2
Dashed
70
0
3
____ ____ ____ ____ ____ ____ ____
72
65
73
2
40
0.750000
49
0.500000
74
0
49
-0.250000
74
0
0
LTYPE
5
C
100
AcDbSymbolTableRecord
100
AcDbLinetypeTableRecord
2
Divide
70
0
3
____ . . ____ . . ____ . . ____ . .
72
65
73
6
40
1.250000
49
0.500000
74
0
49
-0.250000
74
0
49
0.000000
74
0
49
-0.250000
74
0
49
0.000000
74
0
49
-0.250000
74
0
0
LTYPE
5
D
100
AcDbSymbolTableRecord
100
AcDbLinetypeTableRecord
2
Dot
70
0
3
. . . . . . . . . . . . . . . . . .
72
65
73
2
40
0.250000
49
0.000000
74
0
49
-0.250000
74
0
0
LTYPE
5
E
100
AcDbSymbolTableRecord
100
AcDbLinetypeTableRecord
2
Hidden
70
0
3
__ __ __ __ __ __ __ __ __ __ __ __
72
65
73
2
40
0.375000
49
0.250000
74
0
49
-0.125000
74
0
0
LTYPE
5
F
100
AcDbSymbolTableRecord
100
AcDbLinetypeTableRecord
2
Phantom
70
0
3
_____ _ _ _____ _ _ _____ _ _ _____
72
65
73
6
40
2.500000
49
1.250000
74
0
49
-0.250000
74
0
49
0.250000
74
0
49
-0.250000
74
0
49
0.250000
74
0
49
-0.250000
74
0
0
ENDTAB
0
TABLE
2
LAYER
5
10
100
AcDbSymbolTable
70
1000
0
LAYER
5
11
100
AcDbSymbolTableRecord
100
AcDbLayerTableRecord
2
0
70
0
62
7
6
Continuous
370
0
390
2B
0
ENDTAB
0
TABLE
2
STYLE
5
12
100
AcDbSymbolTable
70
1000
0
STYLE
5
13
100
AcDbSymbolTableRecord
100
AcDbTextStyleTableRecord
2
Standard
70
0
40
0.000000
41
1.000000
50
0.000000
71
0
42
1.000000
3
TXT.SHX
4

0
STYLE
5
24
100
AcDbSymbolTableRecord
100
AcDbTextStyleTableRecord
2

70
1
40
0.000000
41
1.000000
50
0.000000
71
0
42
1.000000
3
LTYPESHP.SHX
4

0
ENDTAB
0
TABLE
2
VIEW
5
14
100
AcDbSymbolTable
70
0
0
ENDTAB
0
TABLE
2
UCS
5
15
100
AcDbSymbolTable
70
0
0
ENDTAB
0
TABLE
2
APPID
5
16
100
AcDbSymbolTable
70
10
0
APPID
5
17
100
AcDbSymbolTableRecord
100
AcDbRegAppTableRecord
2
ACAD
70
0
0
APPID
5
18
100
AcDbSymbolTableRecord
100
AcDbRegAppTableRecord
2
CADZINHO
70
0
0
ENDTAB
0
TABLE
2
DIMSTYLE
5
19
100
AcDbSymbolTable
70
1
100
AcDbDimStyleTable
71
1
0
DIMSTYLE
105
1A
100
AcDbSymbolTableRecord
100
AcDbDimStyleTableRecord
2
Standard
70
0
340
C
0
ENDTAB
0
TABLE
2
BLOCK_RECORD
5
1B
100
AcDbSymbolTable
70
9999
0
BLOCK_RECORD
5
1C
100
AcDbSymbolTableRecord
100
AcDbBlockTableRecord
2
*Model_Space
70
0
0
BLOCK_RECORD
5
1D
100
AcDbSymbolTableRecord
100
AcDbBlockTableRecord
2
*Paper_Space
70
0
0
ENDTAB
0
ENDSEC
0
SECTION
2
BLOCKS
0
BLOCK
5
1E
100
AcDbEntity
8
0
100
AcDbBlockBegin
2
*Model_Space
70
0
10
0.000000
20
0.000000
30
0.000000
3
*Model_Space
1

0
ENDBLK
5
1F
100
AcDbEntity
8
0
100
AcDbBlockEnd
0
BLOCK
5
20
100
AcDbEntity
8
0
100
AcDbBlockBegin
2
*Paper_Space
70
0
10
0.000000
20
0.000000
30
0.000000
3
*Paper_Space
1

0
ENDBLK
5
21
100
AcDbEntity
8
0
100
AcDbBlockEnd
0
ENDSEC
0
SECTION
2
ENTITIES
0
LWPOLYLINE
5
34
100
AcDbEntity
67
0
8
0
6
ByLayer
62
256
370
-1
100
AcDbPolyline
90
4
70
1
10
26.000000
20
1.050000
30
0.000000
42
0.000000
10
50.000000
20
1.050000
30
0.000000
42
0.000000
10
50.000000
20
25.050000
30
0.000000
42
0.000000
10
26.000000
20
25.050000
30
0.000000
0
CIRCLE
5
38
100
AcDbEntity
67
0
8
0
6
ByLayer
62
1
370
0
100
AcDbCircle
10
29.000000
20
22.050000
30
0.000000
40
2.000000
0
CIRCLE
5
39
100
AcDbEntity
67
0
8
0
6
ByLayer
62
1
370
0
100
AcDbCircle
10
47.000000
20
4.050000
30
0.000000
40
2.000000
0
LINE
5
3B
100
AcDbEntity
67
0
8
0
6
ByLayer
62
2
370
50
100
AcDbLine
10
30.414214
20
20.635786
30
0.000000
11
45.585786
21
5.464214
31
0.000000
0
LWPOLYLINE
5
3C
100
AcDbEntity
67
0
8
0
6
ByLayer
62
256
370
-1
100
AcDbPolyline
90
4
70
1
10
50.000000
20
1.050000
30
0.000000
42
0.000000
10
74.000000
20
1.050000
30
0.000000
42
0.000000
10
74.000000
20
25.050000
30
0.000000
42
0.000000
10
50.000000
20
25.050000
30
0.000000
0
CIRCLE
5
40
100
AcDbEntity
67
0
8
0
6
ByLayer
62
1
370
0
100
AcDbCircle
10
62.000000
20
13.050000
30
0.000000
40
2.000000
0
LINE
5
41
100
AcDbEntity
67
0
8
0
6
ByLayer
62
2
370
50
100
AcDbLine
10
53.000000
20
22.050000
30
0.000000
11
60.585786
21
14.464214
31
0.000000
0
LINE
5
42
100
AcDbEntity
67
0
8
0
6
ByLayer
62
2
370
50
100
AcDbLine
10
63.414214
20
11.635786
30
0.000000
11
71.000000
21
4.050000
31
0.000000
0
LWPOLYLINE
5
43
100
AcDbEntity
67
0
8
0
6
ByLayer
62
256
370
-1
100
AcDbPolyline
90
4
70
1
10
74.000000
20
1.050000
30
0.000000
42
0.000000
10
98.000000
20
1.050000
30
0.000000
42
0.000000
10
98.000000
20
25.050000
30
0.000000
42
0.000000
10
74.000000
20
25.050000
30
0.000000
0
CIRCLE
5
44
100
AcDbEntity
67
0
8
0
6
ByLayer
62
1
370
0
100
AcDbCircle
10
86.000000
20
13.050000
30
0.000000
40
2.000000
0
CIRCLE
5
4B
100
AcDbEntity
67
0
8
0
6
ByLayer
62
2
370
50
100
AcDbCircle
10
86.000000
20
13.050000
30
0.000000
40
9.000000
0
LWPOLYLINE
5
4C
100
AcDbEntity
67
0
8
0
6
ByLayer
62
256
370
-1
100
AcDbPolyline
90
4
70
1
10
98.000000
20
1.050000
30
0.000000
42
0.000000
10
122.000000
20
1.050000
30
0.000000
42
0.000000
10
122.000000
20
25.050000
30
0.000000
42
0.000000
10
98.000000
20
25.050000
30
0.000000
0
CIRCLE
5
4F
100
AcDbEntity
67
0
8
0
6
ByLayer
62
1
370
0
100
AcDbCircle
10
110.000000
20
22.050000
30
0.000000
40
2.000000
0
CIRCLE
5
50
100
AcDbEntity
67
0
8
0
6
ByLayer
62
1
370
0
100
AcDbCircle
10
119.000000
20
13.050000
30
0.000000
40
2.000000
0
CIRCLE
5
51
100
AcDbEntity
67
0
8
0
6
ByLayer
62
1
370
0
100
AcDbCircle
10
110.000000
20
4.050000
30
0.000000
40
2.000000
0
CIRCLE
5
52
100
AcDbEntity
67
0
8
0
6
ByLayer
62
1
370
0
100
AcDbCircle
10
101.000000
20
13.050000
30
0.000000
40
2.000000
0
ARC
5
53
100
AcDbEntity
67
0
8
0
6
ByLayer
62
2
370
50
100
AcDbCircle
10
110.000000
20
13.050000
30
0.000000
40
9.000000
100
AcDbArc
50
12.758740
51
77.241260
0
ARC
5
54
100
AcDbEntity
67
0
8
0
6
ByLayer
62
2
370
50
100
AcDbCircle
10
110.000000
20
13.050000
30
0.000000
40
9.000000
100
AcDbArc
50
102.758740
51
167.241260
0
ARC
5
55
100
AcDbEntity
67
0
8
0
6
ByLayer
62
2
370
50
100
AcDbCircle
10
110.000000
20
13.050000
30
0.000000
40
9.000000
100
AcDbArc
50
282.758740
51
347.241260
0
ARC
5
56
100
AcDbEntity
67
0
8
0
6
ByLayer
62
2
370
50
100
AcDbCircle
10
110.000000
20
13.050000
30
0.000000
40
9.000000
100
AcDbArc
50
192.758740
51
257.241260
0
LWPOLYLINE
5
57
100
AcDbEntity
67
0
8
0
6
ByLayer
62
256
370
-1
100
AcDbPolyline
90
4
70
1
10
122.000000
20
1.050000
30
0.000000
42
0.000000
10
146.000000
20
1.050000
30
0.000000
42
0.000000
10
146.000000
20
25.050000
30
0.000000
42
0.000000
10
122.000000
20
25.050000
30
0.000000
0
CIRCLE
5
58
100
AcDbEntity
67
0
8
0
6
ByLayer
62
1
370
0
100
AcDbCircle
10
134.000000
20
13.050000
30
0.000000
40
2.000000
0
LINE
5
59
100
AcDbEntity
67
0
8
0
6
ByLayer
62
2
370
50
100
AcDbLine
10
125.000000
20
22.050000
30
0.000000
11
132.585786
21
14.464214
31
0.000000
0
LINE
5
5A
100
AcDbEntity
67
0
8
0
6
ByLayer
62
2
370
50
100
AcDbLine
10
135.414214
20
11.635786
30
0.000000
11
143.000000
21
4.050000
31
0.000000
0
LINE
5
5B
100
AcDbEntity
67
0
8
0
6
ByLayer
62
2
370
50
100
AcDbLine
10
134.000000
20
15.050000
30
0.000000
11
134.000000
21
23.565905
31
0.000000
0
LINE
5
5C
100
AcDbEntity
67
0
8
0
6
ByLayer
62
2
370
50
100
AcDbLine
10
134.000000
20
11.050000
30
0.000000
11
134.000000
21
2.853376
31
0.000000
0
LWPOLYLINE
5
5D
100
AcDbEntity
67
0
8
0
6
ByLayer
62
256
370
-1
100
AcDbPolyline
90
4
70
1
10
362.000000
20
1.050000
30
0.000000
42
0.000000
10
386.000000
20
1.050000
30
0.000000
42
0.000000
10
386.000000
20
25.050000
30
0.000000
42
0.000000
10
362.000000
20
25.050000
30
0.000000
0
CIRCLE
5
62
100
AcDbEntity
67
0
8
0
6
ByLayer
62
1
370
0
100
AcDbCircle
10
370.577644
20
16.472356
30
0.000000
40
2.000000
0
LINE
5
64
100
AcDbEntity
67
0
8
0
6
ByLayer
62
2
370
50
100
AcDbLine
10
383.000000
20
4.050000
30
0.000000
11
371.991858
21
15.058142
31
0.000000
0
LINE
5
65
100
AcDbEntity
67
0
8
0
6
ByLayer
62
2
370
50
100
AcDbLine
10
369.163431
20
17.886569
30
0.000000
11
365.000000
21
22.050000
31
0.000000
0
HATCH
5
67
100
AcDbEntity
67
0
8
0
6
ByLayer
62
2
370
0
100
AcDbHatch
10
0.000000
20
0.000000
30
0.000000
210
0.000000
220
0.000000
230
1.000000
2
SOLID
70
1
71
0
91
1
92
2
72
1
73
1
93
2
10
366.513789
20
10.137009
42
1.000000
10
366.513789
20
14.137009
42
1.000000
97
0
75
0
76
0
98
0
0
LWPOLYLINE
5
68
100
AcDbEntity
67
0
8
0
6
ByLayer
62
256
370
-1
100
AcDbPolyline
90
4
70
1
10
290.000000
20
1.050000
30
0.000000
42
0.000000
10
314.000000
20
1.050000
30
0.000000
42
0.000000
10
314.000000
20
25.050000
30
0.000000
42
0.000000
10
290.000000
20
25.050000
30
0.000000
0
LWPOLYLINE
5
6E
100
AcDbEntity
67
0
8
0
6
ByLayer
62
256
370
-1
100
AcDbPolyline
90
4
70
1
10
266.000000
20
1.050000
30
0.000000
42
0.000000
10
290.000000
20
1.050000
30
0.000000
42
0.000000
10
290.000000
20
25.050000
30
0.000000
42
0.000000
10
266.000000
20
25.050000
30
0.000000
0
LINE
5
6F
100
AcDbEntity
67
0
8
0
6
ByLayer
62
2
370
50
100
AcDbLine
10
281.389202
20
4.354361
30
0.000000
11
269.389202
21
16.354361
31
0.000000
0
LINE
5
70
100
AcDbEntity
67
0
8
0
6
ByLayer
62
2
370
50
100
AcDbLine
10
286.695639
20
9.660798
30
0.000000
11
274.695639
21
21.660798
31
0.000000
0
CIRCLE
5
71
100
AcDbEntity
67
0
8
0
6
ByLayer
62
1
370
0
100
AcDbCircle
10
299.389202
20
10.354361
30
0.000000
40
2.000000
0
LINE
5
72
100
AcDbEntity
67
0
8
0
6
ByLayer
62
2
370
50
100
AcDbLine
10
293.389202
20
16.354361
30
0.000000
11
297.974989
21
11.768575
31
0.000000
0
LINE
5
73
100
AcDbEntity
67
0
8
0
6
ByLayer
62
2
370
50
100
AcDbLine
10
310.695639
20
21.660798
30
0.000000
11
300.803416
21
11.768575
31
0.000000
0
LINE
5
74
100
AcDbEntity
67
0
8
0
6
ByLayer
62
2
370
50
100
AcDbLine
10
305.389202
20
4.354361
30
0.000000
11
300.803416
21
8.940148
31
0.000000
0
LWPOLYLINE
5
75
100
AcDbEntity
67
0
8
0
6
ByLayer
62
256
370
-1
100
AcDbPolyline
90
4
70
1
10
218.000000
20
1.050000
30
0.000000
42
0.000000
10
242.000000
20
1.050000
30
0.000000
42
0.000000
10
242.000000
20
25.050000
30
0.000000
42
0.000000
10
218.000000
20
25.050000
30
0.000000
0
CIRCLE
5
76
100
AcDbEntity
67
0
8
0
6
ByLayer
62
1
370
0
100
AcDbCircle
10
230.000000
20
13.050000
30
0.000000
40
2.000000
0
LWPOLYLINE
5
79
100
AcDbEntity
67
0
8
0
6
ByLayer
62
256
370
-1
100
AcDbPolyline
90
4
70
1
10
242.000000
20
1.050000
30
0.000000
42
0.000000
10
266.000000
20
1.050000
30
0.000000
42
0.000000
10
266.000000
20
25.050000
30
0.000000
42
0.000000
10
242.000000
20
25.050000
30
0.000000
0
CIRCLE
5
7A
100
AcDbEntity
67
0
8
0
6
ByLayer
62
1
370
0
100
AcDbCircle
10
254.000000
20
13.050000
30
0.000000
40
2.000000
0
LWPOLYLINE
5
7C
100
AcDbEntity
67
0
8
0
6
ByLayer
62
2
370
50
100
AcDbPolyline
90
4
70
1
10
245.881817
20
17.627923
30
0.000000
42
0.000000
10
262.118183
20
17.627923
30
0.000000
42
0.000000
10
262.118183
20
8.472077
30
0.000000
42
0.000000
10
245.881817
20
8.472077
30
0.000000
0
LWPOLYLINE
5
7D
100
AcDbEntity
67
0
8
0
6
ByLayer
62
256
370
-1
100
AcDbPolyline
90
4
70
1
10
194.000000
20
1.050000
30
0.000000
42
0.000000
10
218.000000
20
1.050000
30
0.000000
42
0.000000
10
218.000000
20
25.050000
30
0.000000
42
0.000000
10
194.000000
20
25.050000
30
0.000000
0
HATCH
5
80
100
AcDbEntity
67
0
8
0
6
ByLayer
62
2
370
0
100
AcDbHatch
10
0.000000
20
0.000000
30
0.000000
210
0.000000
220
0.000000
230
1.000000
2
SOLID
70
1
71
0
91
1
92
2
72
1
73
1
93
6
10
201.409704
20
7.377340
42
0.400000
10
199.409704
20
9.377340
42
0.400000
10
201.784328
20
20.846295
42
0.000000
10
211.760782
20
20.846295
42
0.000000
10
214.652508
20
16.084326
42
0.000000
10
214.652508
20
7.377340
42
0.000000
97
0
75
0
76
0
98
0
0
CIRCLE
5
81
100
AcDbEntity
67
0
8
0
6
ByLayer
62
1
370
0
100
AcDbCircle
10
199.409704
20
7.377340
30
0.000000
40
2.000000
0
LWPOLYLINE
5
82
100
AcDbEntity
67
0
8
0
6
ByLayer
62
256
370
-1
100
AcDbPolyline
90
4
70
1
10
170.000000
20
1.050000
30
0.000000
42
0.000000
10
194.000000
20
1.050000
30
0.000000
42
0.000000
10
194.000000
20
25.050000
30
0.000000
42
0.000000
10
170.000000
20
25.050000
30
0.000000
0
LINE
5
84
100
AcDbEntity
67
0
8
0
6
ByLayer
62
2
370
50
100
AcDbLine
10
173.000000
20
22.050000
30
0.000000
11
180.585786
21
14.464214
31
0.000000
0
LINE
5
86
100
AcDbEntity
67
0
8
0
6
Hidden
62
2
370
50
100
AcDbLine
10
191.000000
20
4.050000
30
0.000000
11
180.585786
21
14.464214
31
0.000000
0
LWPOLYLINE
5
87
100
AcDbEntity
67
0
8
0
6
ByLayer
62
256
370
-1
100
AcDbPolyline
90
4
70
1
10
146.000000
20
1.050000
30
0.000000
42
0.000000
10
170.000000
20
1.050000
30
0.000000
42
0.000000
10
170.000000
20
25.050000
30
0.000000
42
0.000000
10
146.000000
20
25.050000
30
0.000000
0
CIRCLE
5
88
100
AcDbEntity
67
0
8
0
6
ByLayer
62
1
370
0
100
AcDbCircle
10
158.000000
20
13.050000
30
0.000000
40
2.000000
0
LINE
5
8B
100
AcDbEntity
67
0
8
0
6
ByLayer
62
2
370
50
100
AcDbLine
10
158.000000
20
15.050000
30
0.000000
11
158.000000
21
23.565905
31
0.000000
0
LINE
5
8C
100
AcDbEntity
67
0
8
0
6
ByLayer
62
2
370
50
100
AcDbLine
10
158.000000
20
11.050000
30
0.000000
11
158.000000
21
2.853376
31
0.000000
0
LINE
5
8D
100
AcDbEntity
67
0
8
0
6
Hidden
62
2
370
50
100
AcDbLine
10
149.000000
20
22.050000
30
0.000000
11
156.585786
21
14.464214
31
0.000000
0
LINE
5
8E
100
AcDbEntity
67
0
8
0
6
Hidden
62
2
370
50
100
AcDbLine
10
167.000000
20
4.050000
30
0.000000
11
159.414214
21
11.635786
31
0.000000
0
LWPOLYLINE
5
8F
100
AcDbEntity
67
0
8
0
6
ByLayer
62
256
370
-1
100
AcDbPolyline
90
4
70
1
10
314.000000
20
1.050000
30
0.000000
42
0.000000
10
338.000000
20
1.050000
30
0.000000
42
0.000000
10
338.000000
20
25.050000
30
0.000000
42
0.000000
10
314.000000
20
25.050000
30
0.000000
0
CIRCLE
5
92
100
AcDbEntity
67
0
8
0
6
ByLayer
62
1
370
0
100
AcDbCircle
10
330.795897
20
16.655464
30
0.000000
40
2.000000
0
LINE
5
93
100
AcDbEntity
67
0
8
0
6
Continuous
62
2
370
50
100
AcDbLine
10
329.594075
20
18.254097
30
0.000000
11
325.988611
21
23.049994
31
0.000000
0
LINE
5
94
100
AcDbEntity
67
0
8
0
6
Continuous
62
2
370
50
100
AcDbLine
10
331.997718
20
15.056832
30
0.000000
11
335.603183
21
10.260935
31
0.000000
0
ARC
5
95
100
AcDbEntity
67
0
8
0
6
Continuous
62
2
370
50
100
AcDbCircle
10
326.000000
20
13.050000
30
0.000000
40
6.000000
100
AcDbArc
50
416.123288
51
377.747015
0
LWPOLYLINE
5
96
100
AcDbEntity
67
0
8
0
6
ByLayer
62
256
370
-1
100
AcDbPolyline
90
4
70
1
10
338.000000
20
1.050000
30
0.000000
42
0.000000
10
362.000000
20
1.050000
30
0.000000
42
0.000000
10
362.000000
20
25.050000
30
0.000000
42
0.000000
10
338.000000
20
25.050000
30
0.000000
0
CIRCLE
5
97
100
AcDbEntity
67
0
8
0
6
ByLayer
62
1
370
0
100
AcDbCircle
10
346.522351
20
19.723819
30
0.000000
40
2.000000
0
SPLINE
5
9A
100
AcDbEntity
67
0
8
0
6
Continuous
62
2
370
50
100
AcDbSpline
70
0
71
2
72
6
73
3
74
0
40
0.000000
40
0.000000
40
0.000000
40
1.000000
40
1.000000
40
1.000000
10
341.345736
20
5.229296
30
0.000000
10
346.522351
20
19.723819
30
0.000000
10
358.428567
20
5.229296
30
0.000000
0
LINE
5
9D
100
AcDbEntity
67
0
8
0
6
Hidden
62
2
370
0
100
AcDbLine
10
341.345736
20
5.229296
30
0.000000
11
345.849678
21
17.840335
31
0.000000
0
LINE
5
9E
100
AcDbEntity
67
0
8
0
6
Hidden
62
2
370
0
100
AcDbLine
10
358.428567
20
5.229296
30
0.000000
11
347.791830
21
18.178366
31
0.000000
0
ENDSEC
0
SECTION
2
OBJECTS
0
DICTIONARY
5
22
100
AcDbDictionary
281
1
3
ACAD_COLOR
350
23
3
ACAD_GROUP
350
26
3
ACAD_LAYOUT
350
27
3
ACAD_MATERIAL
350
28
3
ACAD_MLINESTYLE
350
29
3
ACAD_PLOTSETTINGS
350
2A
3
ACAD_PLOTSTYLENAME
350
2B
3
ACAD_TABLESTYLE
350
2C
3
AcadDim
350
2D
0
DICTIONARY
5
23
100
AcDbDictionary
0
DICTIONARY
5
26
100
AcDbDictionary
0
DICTIONARY
5
27
100
AcDbDictionary
0
DICTIONARY
5
28
100
AcDbDictionary
0
DICTIONARY
5
29
100
AcDbDictionary
0
DICTIONARY
5
2A
100
AcDbDictionary
0
DICTIONARY
5
2B
100
AcDbDictionary
0
DICTIONARY
5
2C
100
AcDbDictionary
0
DICTIONARY
5
2D
100
AcDbDictionary
0
ENDSEC
0
EOF
