<svg width="200.0000" height="200.0000" version="1.1" xmlns="http://www.w3.org/2000/svg" xmlns:xlink="http://www.w3.org/1999/xlink">
<path fill="rgb(0, 114, 29)" stroke="none" d="M2.269 169.9 L2.278 170.7 L2.305 171.4 L2.35 172.1 L2.414 172.9 L2.495 173.6 L2.594 174.3 L2.712 175.1 L2.847 175.8 L3 176.5 L3.17 177.2 L3.358 177.9 L3.564 178.7 L3.787 179.4 L4.027 180.1 L4.284 180.8 L4.558 181.4 L4.849 182.1 L5.156 182.8 L5.48 183.4 L5.82 184.1 L6.175 184.8 L6.547 185.4 L6.934 186 L7.337 186.6 L7.754 187.2 L8.187 187.8 L8.634 188.4 L9.095 189 L9.57 189.6 L10.06 190.1 L10.56 190.7 L11.08 191.2 L11.6 191.7 L12.15 192.2 L12.7 192.7 L13.26 193.2 L13.84 193.6 L14.43 194.1 L15.02 194.5 L15.63 194.9 L16.25 195.3 L16.88 195.7 L17.52 196.1 L18.16 196.4 L18.82 196.8 L19.48 197.1 L20.15 197.4 L20.83 197.7 L21.52 198 L22.21 198.2 L22.91 198.5 L23.61 198.7 L24.32 198.9 L25.03 199.1 L25.75 199.3 L26.47 199.4 L27.2 199.6 L27.93 199.7 L28.66 199.8 L29.39 199.9 L30.13 199.9 L30.86 200 L31.6 200 L32.34 200 L167.7 200 L168.4 200 L169.1 200 L169.9 199.9 L170.6 199.9 L171.3 199.8 L172.1 199.7 L172.8 199.6 L173.5 199.4 L174.2 199.3 L175 199.1 L175.7 198.9 L176.4 198.7 L177.1 198.5 L177.8 198.2 L178.5 198 L179.2 197.7 L179.8 197.4 L180.5 197.1 L181.2 196.8 L181.8 196.4 L182.5 196.1 L183.1 195.7 L183.7 195.3 L184.4 194.9 L185 194.5 L185.6 194.1 L186.2 193.6 L186.7 193.2 L187.3 192.7 L187.9 192.2 L188.4 191.7 L188.9 191.2 L189.4 190.7 L189.9 190.1 L190.4 189.6 L190.9 189 L191.4 188.4 L191.8 187.8 L192.2 187.2 L192.7 186.6 L193.1 186 L193.5 185.4 L193.8 184.8 L194.2 184.1 L194.5 183.4 L194.8 182.8 L195.2 182.1 L195.4 181.4 L195.7 180.8 L196 180.1 L196.2 179.4 L196.4 178.7 L196.6 177.9 L196.8 177.2 L197 176.5 L197.2 175.8 L197.3 175.1 L197.4 174.3 L197.5 173.6 L197.6 172.9 L197.6 172.1 L197.7 171.4 L197.7 170.7 L197.7 169.9 L197.7 30.07 L197.7 29.33 L197.7 28.6 L197.6 27.86 L197.6 27.12 L197.5 26.39 L197.4 25.66 L197.3 24.93 L197.2 24.2 L197 23.48 L196.8 22.76 L196.6 22.05 L196.4 21.34 L196.2 20.64 L196 19.94 L195.7 19.25 L195.4 18.56 L195.2 17.89 L194.8 17.21 L194.5 16.55 L194.2 15.9 L193.8 15.25 L193.5 14.61 L193.1 13.98 L192.7 13.36 L192.2 12.76 L191.8 12.16 L191.4 11.57 L190.9 10.99 L190.4 10.43 L189.9 9.877 L189.4 9.336 L188.9 8.808 L188.4 8.292 L187.9 7.79 L187.3 7.301 L186.7 6.826 L186.2 6.365 L185.6 5.918 L185 5.485 L184.4 5.068 L183.7 4.665 L183.1 4.278 L182.5 3.907 L181.8 3.551 L181.2 3.211 L180.5 2.887 L179.8 2.58 L179.2 2.289 L178.5 2.015 L177.8 1.758 L177.1 1.518 L176.4 1.295 L175.7 1.089 L175 0.9012 L174.2 0.7307 L173.5 0.5778 L172.8 0.4427 L172.1 0.3255 L171.3 0.2262 L170.6 0.1448 L169.9 0.08148 L169.1 0.03622 L168.4 0.009057 L167.7 0 L32.34 2.842e-014 L31.6 0.009056 L30.86 0.03622 L30.13 0.08148 L29.39 0.1448 L28.66 0.2261 L27.93 0.3255 L27.2 0.4427 L26.47 0.5778 L25.75 0.7307 L25.03 0.9012 L24.32 1.089 L23.61 1.295 L22.91 1.518 L22.21 1.758 L21.52 2.015 L20.83 2.289 L20.15 2.58 L19.48 2.887 L18.82 3.211 L18.16 3.551 L17.52 3.907 L16.88 4.278 L16.25 4.665 L15.63 5.068 L15.02 5.485 L14.43 5.918 L13.84 6.365 L13.26 6.826 L12.7 7.301 L12.15 7.79 L11.6 8.292 L11.08 8.808 L10.56 9.336 L10.06 9.877 L9.57 10.43 L9.095 10.99 L8.634 11.57 L8.187 12.16 L7.754 12.76 L7.337 13.36 L6.934 13.98 L6.547 14.61 L6.176 15.25 L5.82 15.9 L5.48 16.55 L5.156 17.21 L4.849 17.89 L4.558 18.56 L4.284 19.25 L4.027 19.94 L3.787 20.64 L3.564 21.34 L3.358 22.05 L3.17 22.76 L3 23.48 L2.847 24.2 L2.712 24.93 L2.594 25.66 L2.495 26.39 L2.414 27.12 L2.35 27.86 L2.305 28.6 L2.278 29.33 L2.269 30.07 L2.269 169.9 M99.25 34.22 L98.77 33.41 L98.28 32.62 L97.77 31.84 L97.23 31.07 L96.68 30.31 L96.11 29.57 L95.53 28.84 L94.92 28.13 L94.3 27.43 L93.66 26.75 L93 26.08 L92.33 25.43 L91.64 24.8 L90.94 24.18 L90.22 23.58 L89.49 23 L88.74 22.44 L87.98 21.89 L87.21 21.37 L86.42 20.86 L85.62 20.37 L84.81 19.91 L83.99 19.46 L83.16 19.03 L82.32 18.63 L81.46 18.24 L80.6 17.87 L79.73 17.53 L78.86 17.21 L77.97 16.91 L77.08 16.63 L76.18 16.37 L75.27 16.14 L74.36 15.93 L73.44 15.74 L72.52 15.57 L71.6 15.42 L70.67 15.3 L69.74 15.2 L68.81 15.13 L67.88 15.07 L66.94 15.04 L66.01 15.04 L65.07 15.05 L64.14 15.09 L63.2 15.15 L62.27 15.24 L61.34 15.34 L60.42 15.47 L59.49 15.62 L58.58 15.8 L57.66 16 L56.75 16.22 L55.85 16.46 L54.95 16.72 L54.06 17.01 L53.18 17.32 L52.3 17.65 L51.44 18 L50.58 18.37 L49.73 18.76 L48.88 19.18 L47.6 19.89 L46.33 20.62 L45.08 21.39 L43.86 22.19 L42.65 23.02 L41.46 23.87 L40.3 24.76 L39.15 25.67 L38.03 26.61 L36.93 27.58 L35.86 28.58 L34.81 29.6 L33.79 30.64 L32.79 31.72 L31.82 32.81 L30.88 33.93 L29.96 35.07 L29.07 36.24 L28.22 37.42 L27.39 38.63 L26.59 39.85 L25.82 41.1 L25.08 42.36 L24.37 43.65 L23.7 44.94 L23.05 46.26 L22.44 47.59 L21.87 48.93 L21.32 50.29 L20.81 51.66 L20.33 53.05 L19.89 54.44 L19.48 55.85 L19.11 57.26 L18.77 58.69 L18.46 60.12 L18.19 61.56 L17.96 63 L17.76 64.45 L17.6 65.91 L17.47 67.37 L17.38 68.83 L17.32 70.29 L17.3 71.75 L17.32 73.22 L17.37 74.68 L17.46 76.14 L17.59 77.6 L17.75 79.05 L17.94 80.51 L18.17 81.95 L18.44 83.39 L18.74 84.82 L19.08 86.25 L19.45 87.66 L19.86 89.07 L20.3 90.46 L20.77 91.85 L21.28 93.22 L21.82 94.58 L22.4 95.93 L23.01 97.26 L23.65 98.57 L24.32 99.87 L25.03 101.2 L25.76 102.4 L26.53 103.7 L27.33 104.9 L28.15 106.1 L29.01 107.3 L29.89 108.5 L30.81 109.6 L31.75 110.7 L32.72 111.8 L33.71 112.9 L34.73 113.9 L35.78 115 L36.85 116 L37.95 116.9 L39.07 117.9 L40.21 118.8 L41.37 119.7 L42.56 120.5 L43.77 121.4 L44.99 122.2 L46.24 122.9 L47.5 123.7 L48.88 124.4 L49.72 124.8 L50.57 125.2 L51.42 125.6 L52.29 126 L53.17 126.3 L54.05 126.6 L54.94 126.9 L55.84 127.2 L56.74 127.4 L57.65 127.6 L58.56 127.8 L59.48 128 L60.4 128.1 L61.33 128.3 L62.26 128.4 L63.19 128.5 L64.13 128.5 L65.06 128.6 L65.99 128.6 L66.93 128.6 L67.87 128.5 L68.8 128.5 L69.73 128.4 L70.66 128.3 L71.59 128.2 L72.51 128 L73.43 127.9 L74.35 127.7 L75.26 127.5 L76.17 127.2 L77.06 127 L77.96 126.7 L78.84 126.4 L79.72 126.1 L80.59 125.7 L81.45 125.4 L82.31 125 L83.15 124.6 L83.98 124.2 L84.8 123.7 L85.61 123.2 L86.41 122.8 L87.2 122.3 L87.97 121.7 L88.73 121.2 L89.48 120.6 L90.21 120 L90.93 119.4 L91.63 118.8 L92.32 118.2 L92.99 117.5 L93.65 116.9 L94.29 116.2 L94.91 115.5 L95.52 114.8 L96.11 114.1 L96.68 113.3 L97.23 112.6 L97.76 111.8 L98.27 111 L98.77 110.2 L99.25 109.4 L87.22 94.36 L86.94 94.85 L86.64 95.32 L86.33 95.79 L86.01 96.25 L85.68 96.71 L85.34 97.15 L84.99 97.59 L84.62 98.02 L84.25 98.43 L83.87 98.84 L83.47 99.24 L83.07 99.63 L82.66 100 L82.23 100.4 L81.8 100.7 L81.36 101.1 L80.92 101.4 L80.46 101.8 L79.99 102.1 L79.52 102.4 L79.04 102.7 L78.56 102.9 L78.07 103.2 L77.57 103.5 L77.06 103.7 L76.55 103.9 L76.03 104.2 L75.51 104.4 L74.98 104.6 L74.45 104.7 L73.92 104.9 L73.38 105.1 L72.83 105.2 L72.29 105.3 L71.74 105.5 L71.19 105.6 L70.63 105.6 L70.07 105.7 L69.52 105.8 L68.96 105.8 L68.4 105.8 L67.84 105.9 L67.27 105.9 L66.71 105.9 L66.15 105.8 L65.59 105.8 L65.03 105.8 L64.48 105.7 L63.92 105.6 L63.37 105.5 L62.82 105.4 L62.27 105.3 L61.72 105.2 L61.18 105 L60.64 104.9 L60.11 104.7 L59.58 104.5 L59.05 104.3 L58.53 104.1 L58.02 103.9 L57.51 103.6 L57 103.4 L56.23 103 L55.47 102.5 L54.72 102.1 L53.98 101.6 L53.26 101.1 L52.55 100.6 L51.85 100 L51.16 99.49 L50.49 98.93 L49.83 98.35 L49.19 97.75 L48.56 97.14 L47.94 96.51 L47.35 95.86 L46.76 95.21 L46.2 94.54 L45.65 93.85 L45.12 93.15 L44.6 92.44 L44.1 91.72 L43.62 90.98 L43.16 90.23 L42.72 89.48 L42.29 88.71 L41.89 87.93 L41.5 87.14 L41.14 86.34 L40.79 85.53 L40.46 84.72 L40.16 83.89 L39.87 83.06 L39.6 82.23 L39.36 81.38 L39.13 80.54 L38.93 79.68 L38.75 78.82 L38.59 77.96 L38.45 77.09 L38.33 76.22 L38.23 75.35 L38.15 74.47 L38.1 73.6 L38.07 72.72 L38.05 71.84 L38.06 70.96 L38.1 70.09 L38.15 69.21 L38.22 68.33 L38.32 67.46 L38.44 66.59 L38.57 65.72 L38.73 64.86 L38.92 64 L39.12 63.15 L39.34 62.3 L39.58 61.45 L39.85 60.61 L40.13 59.78 L40.44 58.96 L40.76 58.14 L41.11 57.34 L41.48 56.54 L41.86 55.75 L42.26 54.97 L42.69 54.2 L43.13 53.44 L43.59 52.69 L44.07 51.95 L44.56 51.23 L45.08 50.52 L45.61 49.82 L46.16 49.13 L46.72 48.46 L47.3 47.8 L47.9 47.16 L48.51 46.53 L49.14 45.91 L49.78 45.32 L50.44 44.73 L51.11 44.17 L51.8 43.62 L52.49 43.09 L53.21 42.57 L53.93 42.07 L54.67 41.59 L55.41 41.13 L56.17 40.69 L57 40.23 L57.5 39.99 L58.01 39.75 L58.53 39.53 L59.05 39.31 L59.57 39.12 L60.1 38.93 L60.63 38.76 L61.17 38.6 L61.71 38.46 L62.26 38.32 L62.81 38.2 L63.36 38.1 L63.91 38.01 L64.47 37.93 L65.03 37.87 L65.59 37.81 L66.15 37.78 L66.71 37.75 L67.27 37.74 L67.83 37.75 L68.39 37.77 L68.95 37.8 L69.51 37.84 L70.07 37.9 L70.62 37.98 L71.18 38.06 L71.73 38.16 L72.28 38.28 L72.83 38.4 L73.37 38.55 L73.91 38.7 L74.45 38.87 L74.98 39.05 L75.5 39.24 L76.03 39.45 L76.54 39.66 L77.05 39.9 L77.56 40.14 L78.06 40.4 L78.55 40.66 L79.04 40.94 L79.52 41.24 L79.99 41.54 L80.45 41.86 L80.91 42.18 L81.36 42.52 L81.8 42.87 L82.23 43.23 L82.65 43.6 L83.06 43.98 L83.47 44.37 L83.86 44.77 L84.24 45.18 L84.62 45.6 L84.98 46.02 L85.33 46.46 L85.68 46.91 L86.01 47.36 L86.33 47.82 L86.63 48.29 L86.93 48.77 L87.22 49.25 L99.25 34.22 M107.5 71.42 L182.7 71.42 L182.7 101.5 L128.2 164.3 L182.7 164.3 L182.7 185 L107.5 185 L107.5 154.9 L162 92.09 L107.5 92.09 L107.5 71.42 "/>
<path fill="rgb(254, 254, 254)" stroke="none" d="M99.25 34.22 L98.77 33.41 L98.28 32.62 L97.77 31.84 L97.23 31.07 L96.68 30.31 L96.11 29.57 L95.53 28.84 L94.92 28.13 L94.3 27.43 L93.66 26.75 L93 26.08 L92.33 25.43 L91.64 24.8 L90.94 24.18 L90.22 23.58 L89.49 23 L88.74 22.44 L87.98 21.89 L87.21 21.37 L86.42 20.86 L85.62 20.37 L84.81 19.91 L83.99 19.46 L83.16 19.03 L82.32 18.63 L81.46 18.24 L80.6 17.87 L79.73 17.53 L78.86 17.21 L77.97 16.91 L77.08 16.63 L76.18 16.37 L75.27 16.14 L74.36 15.93 L73.44 15.74 L72.52 15.57 L71.6 15.42 L70.67 15.3 L69.74 15.2 L68.81 15.13 L67.88 15.07 L66.94 15.04 L66.01 15.04 L65.07 15.05 L64.14 15.09 L63.2 15.15 L62.27 15.24 L61.34 15.34 L60.42 15.47 L59.49 15.62 L58.58 15.8 L57.66 16 L56.75 16.22 L55.85 16.46 L54.95 16.72 L54.06 17.01 L53.18 17.32 L52.3 17.65 L51.44 18 L50.58 18.37 L49.73 18.76 L48.88 19.18 L47.6 19.89 L46.33 20.62 L45.08 21.39 L43.86 22.19 L42.65 23.02 L41.46 23.87 L40.3 24.76 L39.15 25.67 L38.03 26.61 L36.93 27.58 L35.86 28.58 L34.81 29.6 L33.79 30.64 L32.79 31.72 L31.82 32.81 L30.88 33.93 L29.96 35.07 L29.07 36.24 L28.22 37.42 L27.39 38.63 L26.59 39.85 L25.82 41.1 L25.08 42.36 L24.37 43.65 L23.7 44.94 L23.05 46.26 L22.44 47.59 L21.87 48.93 L21.32 50.29 L20.81 51.66 L20.33 53.05 L19.89 54.44 L19.48 55.85 L19.11 57.26 L18.77 58.69 L18.46 60.12 L18.19 61.56 L17.96 63 L17.76 64.45 L17.6 65.91 L17.47 67.37 L17.38 68.83 L17.32 70.29 L17.3 71.75 L17.32 73.22 L17.37 74.68 L17.46 76.14 L17.59 77.6 L17.75 79.05 L17.94 80.51 L18.17 81.95 L18.44 83.39 L18.74 84.82 L19.08 86.25 L19.45 87.66 L19.86 89.07 L20.3 90.46 L20.77 91.85 L21.28 93.22 L21.82 94.58 L22.4 95.93 L23.01 97.26 L23.65 98.57 L24.32 99.87 L25.03 101.2 L25.76 102.4 L26.53 103.7 L27.33 104.9 L28.15 106.1 L29.01 107.3 L29.89 108.5 L30.81 109.6 L31.75 110.7 L32.72 111.8 L33.71 112.9 L34.73 113.9 L35.78 115 L36.85 116 L37.95 116.9 L39.07 117.9 L40.21 118.8 L41.37 119.7 L42.56 120.5 L43.77 121.4 L44.99 122.2 L46.24 122.9 L47.5 123.7 L48.88 124.4 L49.72 124.8 L50.57 125.2 L51.42 125.6 L52.29 126 L53.17 126.3 L54.05 126.6 L54.94 126.9 L55.84 127.2 L56.74 127.4 L57.65 127.6 L58.56 127.8 L59.48 128 L60.4 128.1 L61.33 128.3 L62.26 128.4 L63.19 128.5 L64.13 128.5 L65.06 128.6 L65.99 128.6 L66.93 128.6 L67.87 128.5 L68.8 128.5 L69.73 128.4 L70.66 128.3 L71.59 128.2 L72.51 128 L73.43 127.9 L74.35 127.7 L75.26 127.5 L76.17 127.2 L77.06 127 L77.96 126.7 L78.84 126.4 L79.72 126.1 L80.59 125.7 L81.45 125.4 L82.31 125 L83.15 124.6 L83.98 124.2 L84.8 123.7 L85.61 123.2 L86.41 122.8 L87.2 122.3 L87.97 121.7 L88.73 121.2 L89.48 120.6 L90.21 120 L90.93 119.4 L91.63 118.8 L92.32 118.2 L92.99 117.5 L93.65 116.9 L94.29 116.2 L94.91 115.5 L95.52 114.8 L96.11 114.1 L96.68 113.3 L97.23 112.6 L97.76 111.8 L98.27 111 L98.77 110.2 L99.25 109.4 L87.22 94.36 L86.94 94.85 L86.64 95.32 L86.33 95.79 L86.01 96.25 L85.68 96.71 L85.34 97.15 L84.99 97.59 L84.62 98.02 L84.25 98.43 L83.87 98.84 L83.47 99.24 L83.07 99.63 L82.66 100 L82.23 100.4 L81.8 100.7 L81.36 101.1 L80.92 101.4 L80.46 101.8 L79.99 102.1 L79.52 102.4 L79.04 102.7 L78.56 102.9 L78.07 103.2 L77.57 103.5 L77.06 103.7 L76.55 103.9 L76.03 104.2 L75.51 104.4 L74.98 104.6 L74.45 104.7 L73.92 104.9 L73.38 105.1 L72.83 105.2 L72.29 105.3 L71.74 105.5 L71.19 105.6 L70.63 105.6 L70.07 105.7 L69.52 105.8 L68.96 105.8 L68.4 105.8 L67.84 105.9 L67.27 105.9 L66.71 105.9 L66.15 105.8 L65.59 105.8 L65.03 105.8 L64.48 105.7 L63.92 105.6 L63.37 105.5 L62.82 105.4 L62.27 105.3 L61.72 105.2 L61.18 105 L60.64 104.9 L60.11 104.7 L59.58 104.5 L59.05 104.3 L58.53 104.1 L58.02 103.9 L57.51 103.6 L57 103.4 L56.23 103 L55.47 102.5 L54.72 102.1 L53.98 101.6 L53.26 101.1 L52.55 100.6 L51.85 100 L51.16 99.49 L50.49 98.93 L49.83 98.35 L49.19 97.75 L48.56 97.14 L47.94 96.51 L47.35 95.86 L46.76 95.21 L46.2 94.54 L45.65 93.85 L45.12 93.15 L44.6 92.44 L44.1 91.72 L43.62 90.98 L43.16 90.23 L42.72 89.48 L42.29 88.71 L41.89 87.93 L41.5 87.14 L41.14 86.34 L40.79 85.53 L40.46 84.72 L40.16 83.89 L39.87 83.06 L39.6 82.23 L39.36 81.38 L39.13 80.54 L38.93 79.68 L38.75 78.82 L38.59 77.96 L38.45 77.09 L38.33 76.22 L38.23 75.35 L38.15 74.47 L38.1 73.6 L38.07 72.72 L38.05 71.84 L38.06 70.96 L38.1 70.09 L38.15 69.21 L38.22 68.33 L38.32 67.46 L38.44 66.59 L38.57 65.72 L38.73 64.86 L38.92 64 L39.12 63.15 L39.34 62.3 L39.58 61.45 L39.85 60.61 L40.13 59.78 L40.44 58.96 L40.76 58.14 L41.11 57.34 L41.48 56.54 L41.86 55.75 L42.26 54.97 L42.69 54.2 L43.13 53.44 L43.59 52.69 L44.07 51.95 L44.56 51.23 L45.08 50.52 L45.61 49.82 L46.16 49.13 L46.72 48.46 L47.3 47.8 L47.9 47.16 L48.51 46.53 L49.14 45.91 L49.78 45.32 L50.44 44.73 L51.11 44.17 L51.8 43.62 L52.49 43.09 L53.21 42.57 L53.93 42.07 L54.67 41.59 L55.41 41.13 L56.17 40.69 L57 40.23 L57.5 39.99 L58.01 39.75 L58.53 39.53 L59.05 39.31 L59.57 39.12 L60.1 38.93 L60.63 38.76 L61.17 38.6 L61.71 38.46 L62.26 38.32 L62.81 38.2 L63.36 38.1 L63.91 38.01 L64.47 37.93 L65.03 37.87 L65.59 37.81 L66.15 37.78 L66.71 37.75 L67.27 37.74 L67.83 37.75 L68.39 37.77 L68.95 37.8 L69.51 37.84 L70.07 37.9 L70.62 37.98 L71.18 38.06 L71.73 38.16 L72.28 38.28 L72.83 38.4 L73.37 38.55 L73.91 38.7 L74.45 38.87 L74.98 39.05 L75.5 39.24 L76.03 39.45 L76.54 39.66 L77.05 39.9 L77.56 40.14 L78.06 40.4 L78.55 40.66 L79.04 40.94 L79.52 41.24 L79.99 41.54 L80.45 41.86 L80.91 42.18 L81.36 42.52 L81.8 42.87 L82.23 43.23 L82.65 43.6 L83.06 43.98 L83.47 44.37 L83.86 44.77 L84.24 45.18 L84.62 45.6 L84.98 46.02 L85.33 46.46 L85.68 46.91 L86.01 47.36 L86.33 47.82 L86.63 48.29 L86.93 48.77 L87.22 49.25 L99.25 34.22 "/>
<path fill="rgb(254, 254, 254)" stroke="none" d="M107.5 71.42 L182.7 71.42 L182.7 101.5 L128.2 164.3 L182.7 164.3 L182.7 185 L107.5 185 L107.5 154.9 L162 92.09 L107.5 92.09 L107.5 71.42 "/>
</svg>