<svg width="24" height="24" xmlns="http://www.w3.org/2000/svg" xmlns:svg="http://www.w3.org/2000/svg">
  <path id="i_sel1" fill="#000000" d="m1.56831,4.1134l13.06335,10.02531l-5.67521,0.95526l3.53119,7.19872l-2.93599,1.41574l-3.5516,-7.24935l-4.43174,3.83899l0,-16.18468l0,0.00001z"/>
  <path id="i_sel2" fill="#000000" d="m23.89928,4.62123c0,2.85756 -2.57345,4.79005 -2.57345,7.04508l-4.46065,0c0,-2.25503 -2.57345,-4.1882 -2.57345,-7.04508c0,-2.9804 2.40051,-4.62123 4.80103,-4.62123c2.40326,0 4.80652,1.64289 4.80652,4.62123zm-3.08814,7.73133l-3.43127,0c-0.18941,0 -0.34313,0.15372 -0.34313,0.34313s0.15372,0.34313 0.34313,0.34313l3.43127,0c0.18941,0 0.34313,-0.15372 0.34313,-0.34313s-0.15372,-0.34313 -0.34313,-0.34313zm0,1.37251l-3.43127,0c-0.18941,0 -0.34313,0.15372 -0.34313,0.34313s0.15372,0.34313 0.34313,0.34313l3.43127,0c0.18941,0 0.34313,-0.15372 0.34313,-0.34313s-0.15372,-0.34313 -0.34313,-0.34313zm0.17156,1.37251l-3.77439,0l0.99575,1.13849c0.13039,0.14823 0.31911,0.23401 0.51675,0.23401l0.75007,0c0.19764,0 0.38567,-0.08578 0.51606,-0.23401l0.99575,-1.13849l0.00001,0z"/>
</svg>