<svg width="24" height="24" xmlns="http://www.w3.org/2000/svg" xmlns:svg="http://www.w3.org/2000/svg">
  <path fill="#000000" stroke-dasharray="null" stroke-linejoin="null" stroke-linecap="null" stroke="#000000" stroke-width="0" d="m0.49638,22.29413c0,0 6.65615,-20.50484 6.61312,-20.54891c-0.04303,-0.04407 3.84655,0.04407 3.84655,0.04407c0,0 6.60333,20.50484 6.60333,20.50484c0,0 -3.01112,0 -3.05415,-0.04407c-0.04303,-0.04407 -1.33046,-4.33823 -1.37349,-4.3823c-0.04303,-0.04407 -8.3564,0.04407 -8.3564,0.04407c0,0 -1.42631,4.49051 -1.42631,4.49051c0,0 -2.85264,-0.10821 -2.85264,-0.10821l-0.00001,0zm8.50169,-17.78115c0,0 -3.48655,10.9828 -3.48655,10.9828c0,0 6.86746,0 6.86746,0c0,0 -3.38091,-10.9828 -3.38091,-10.9828z" id="itext7"/>
  <path stroke="#000000" fill="#000000" stroke-dasharray="null" stroke-linejoin="null" stroke-linecap="null" stroke-width="0" d="m23.80542,5.00806c0,2.97294 -2.67736,4.98347 -2.67736,7.32955l-4.64076,0c0,-2.34608 -2.67736,-4.35732 -2.67736,-7.32955c0,-3.10074 2.49744,-4.80783 4.99488,-4.80783c2.5003,0 5.0006,1.70923 5.0006,4.80783zm-3.21284,8.04351l-3.56982,0c-0.19706,0 -0.35698,0.15992 -0.35698,0.35698s0.15992,0.35698 0.35698,0.35698l3.56982,0c0.19706,0 0.35698,-0.15992 0.35698,-0.35698s-0.15992,-0.35698 -0.35698,-0.35698zm0,1.42792l-3.56982,0c-0.19706,0 -0.35698,0.15992 -0.35698,0.35698s0.15992,0.35698 0.35698,0.35698l3.56982,0c0.19706,0 0.35698,-0.15992 0.35698,-0.35698s-0.15992,-0.35698 -0.35698,-0.35698zm0.17849,1.42792l-3.9268,0l1.03596,1.18446c0.13565,0.15422 0.332,0.24346 0.53761,0.24346l0.78036,0c0.20562,0 0.40124,-0.08925 0.5369,-0.24346l1.03596,-1.18446l0.00002,0z" id="itext8"/>
</svg>