<svg width="24" height="24" xmlns="http://www.w3.org/2000/svg" xmlns:svg="http://www.w3.org/2000/svg">
  <path d="m0.05995,13.01825c0,0 4.16833,-12.84091 4.14139,-12.8685c-0.02695,-0.0276 2.40886,0.0276 2.40886,0.0276c0,0 4.13526,12.84091 4.13526,12.84091c0,0 -1.88568,0 -1.91263,-0.0276c-0.02695,-0.0276 -0.83318,-2.71677 -0.86014,-2.74436c-0.02695,-0.0276 -5.2331,0.0276 -5.2331,0.0276c0,0 -0.89321,2.81212 -0.89321,2.81212c0,0 -1.78642,-0.06777 -1.78642,-0.06777l0,0l-0.00001,0.00001l0,-0.00001zm5.32407,-11.13522c0,0 -2.1834,6.87784 -2.1834,6.87784c0,0 4.30066,0 4.30066,0c0,0 -2.11725,-6.87784 -2.11725,-6.87784l-0.00001,0z" fill="#000000" id="text_sty1" stroke="#000000" stroke-width="0"/>
  <path d="m3.86111,14.12894c1.00308,4.01937 3.87068,6.12674 7.83461,5.59615l-2.03119,-2.47885" fill="none" id="text_sty2" stroke="#000000" stroke-width="2"/>
  <path d="m22.63332,23.39738c0,0.13464 -0.06727,0.45433 -0.13457,0.47115a5.91418,5.91418 0 0 1 -0.69,0.06729a1.78994,1.78994 0 0 1 -0.62256,-0.10094c-0.25233,-1.0096 -1.04326,-2.47349 -1.85086,-3.5504c-0.30294,0.05047 -0.62258,0.10094 -0.9255,0.13458a5.46259,5.46259 0 0 1 -2.18747,-0.55527l0,0.16828l-0.03363,3.51676c-0.08412,0.31969 -0.40388,0.33652 -0.70668,0.33652l-0.6227,0c-0.16823,0 -0.26915,-0.18511 -0.26915,-0.35334a0.32916,0.32916 0 0 1 0.01681,-0.11781c0.01682,-1.11056 0.05047,-2.20427 0.05047,-3.31483c0,-0.55527 0.01682,-1.11056 0.06729,-1.63218a1.77792,1.77792 0 0 1 -0.38704,-0.97597c0,-0.35334 0.21882,-0.60574 0.62269,-0.7235c0.67303,-3.399 2.35568,-5.65374 4.55995,-5.65374c2.70909,0 3.11295,3.98791 3.1466,7.1681c0.52164,-0.33652 0.7235,-0.50482 0.7235,-0.74032a0.3706,0.3706 0 0 0 -0.01682,-0.13466c0.38706,0 0.53846,0.20195 0.53846,0.43752a1.02931,1.02931 0 0 1 -0.43752,0.75715a7.70497,7.70497 0 0 1 -0.80762,0.55534c-0.01682,0.60574 -0.03365,1.14418 -0.03365,1.59846l0,2.6418l0,0.00001zm-6.36048,-4.56002a4.16174,4.16174 0 0 0 2.45674,0.70675c-0.77409,-0.87498 -1.61536,-1.56489 -2.33898,-1.78366c-0.05047,0.35341 -0.10094,0.70675 -0.11776,1.07691zm0.28612,-2.03599a2.61102,2.61102 0 0 1 0.35327,0.06729c0.9255,0.40388 2.03606,1.32931 3.04567,2.52396a8.79805,8.79805 0 0 0 1.29559,-0.38698c0.01682,-0.48798 0.05047,-1.06007 0.05047,-1.649c0,-2.33891 -0.31962,-5.03117 -1.90133,-5.03117c-1.19467,0 -2.30521,1.9014 -2.84367,4.47591l0,-0.00001zm4.64407,3.02878c-0.23551,0.08412 -0.47115,0.15146 -0.7235,0.21875c0.23552,0.30287 0.45435,0.62256 0.67303,0.95908l0,-0.40381c0,-0.11774 0.01682,-0.40386 0.05047,-0.77402z" fill="#000000" id="text_sty3"/>
</svg>