999
DXF generated by OpenJsCad
  0
SECTION
  2
HEADER
9
$ACADVER
1
AC1018
  0
ENDSEC
  0
SECTION
  2
TABLES
  0
TABLE
  2
LTYPE
  70
1
  0
LTYPE
  2
CONTINUOUS
  3
Solid Line
  72
65
  73
0
  40
0.0
  0
ENDTAB
  0
TABLE
  2
LAYER
  70
1
  0
LAYER
  2
OpenJsCad
  62
7
  6
continuous
  0
ENDTAB
  0
TABLE
  2
STYLE
  70
0
  0
ENDTAB
  0
TABLE
  2
VIEW
  70
0
  0
ENDTAB
  0
ENDSEC
  0
SECTION
  2
BLOCKS
  0
ENDSEC
  0
SECTION
  2
ENTITIES
  0
LWPOLYLINE
  8
OpenJsCad
  90
489
  70
1
 10
-3.1057749073643905
 20
-163.09731947943803
 30
0.0
 10
2.0371832715762603
 20
-160.923811433649
 30
0.0
 10
2.0371832715762603
 20
-159.076188566351
 30
0.0
 10
-3.1057749073643905
 20
-156.90268052056197
 30
0.0
 10
-3.1057749073643905
 20
-155.09731947943803
 30
0.0
 10
2.0371832715762603
 20
-152.923811433649
 30
0.0
 10
2.0371832715762603
 20
-151.076188566351
 30
0.0
 10
-3.1057749073643905
 20
-148.90268052056197
 30
0.0
 10
-3.1057749073643905
 20
-147.09731947943803
 30
0.0
 10
2.0371832715762603
 20
-144.923811433649
 30
0.0
 10
2.0371832715762603
 20
-143.076188566351
 30
0.0
 10
-3.1057749073643905
 20
-140.90268052056197
 30
0.0
 10
-3.1057749073643905
 20
-139.09731947943803
 30
0.0
 10
2.0371832715762603
 20
-136.923811433649
 30
0.0
 10
2.0371832715762603
 20
-135.076188566351
 30
0.0
 10
-3.1057749073643905
 20
-132.90268052056197
 30
0.0
 10
-3.1057749073643905
 20
-131.09731947943803
 30
0.0
 10
2.0371832715762603
 20
-128.923811433649
 30
0.0
 10
2.0371832715762603
 20
-127.076188566351
 30
0.0
 10
-3.1057749073643905
 20
-124.90268052056197
 30
0.0
 10
-3.1057749073643905
 20
-123.09731947943803
 30
0.0
 10
2.0371832715762603
 20
-120.923811433649
 30
0.0
 10
2.0371832715762603
 20
-119.076188566351
 30
0.0
 10
-3.1057749073643905
 20
-116.90268052056197
 30
0.0
 10
-3.1057749073643905
 20
-115.09731947943803
 30
0.0
 10
2.0371832715762603
 20
-112.923811433649
 30
0.0
 10
2.0371832715762603
 20
-111.076188566351
 30
0.0
 10
-3.1057749073643905
 20
-108.90268052056197
 30
0.0
 10
-3.1057749073643905
 20
-107.09731947943803
 30
0.0
 10
2.0371832715762603
 20
-104.923811433649
 30
0.0
 10
2.0371832715762603
 20
-103.076188566351
 30
0.0
 10
-3.1057749073643905
 20
-100.90268052056197
 30
0.0
 10
-3.1057749073643905
 20
-99.09731947943803
 30
0.0
 10
2.0371832715762603
 20
-96.923811433649
 30
0.0
 10
2.0371832715762603
 20
-95.076188566351
 30
0.0
 10
-3.1057749073643905
 20
-92.90268052056197
 30
0.0
 10
-3.1057749073643905
 20
-91.09731947943803
 30
0.0
 10
2.0371832715762603
 20
-88.923811433649
 30
0.0
 10
2.0371832715762603
 20
-87.076188566351
 30
0.0
 10
-3.1057749073643905
 20
-84.90268052056197
 30
0.0
 10
-3.1057749073643905
 20
-83.09731947943803
 30
0.0
 10
2.0371832715762603
 20
-80.923811433649
 30
0.0
 10
2.0371832715762603
 20
-79.076188566351
 30
0.0
 10
-3.1057749073643905
 20
-76.90268052056197
 30
0.0
 10
-3.1057749073643905
 20
-75.09731947943803
 30
0.0
 10
2.0371832715762603
 20
-72.923811433649
 30
0.0
 10
2.0371832715762603
 20
-71.076188566351
 30
0.0
 10
-3.1057749073643905
 20
-68.90268052056197
 30
0.0
 10
-3.1057749073643905
 20
-67.09731947943803
 30
0.0
 10
2.0371832715762603
 20
-64.923811433649
 30
0.0
 10
2.0371832715762603
 20
-63.076188566350986
 30
0.0
 10
-3.1057749073643905
 20
-60.90268052056198
 30
0.0
 10
-3.1057749073643905
 20
-59.09731947943802
 30
0.0
 10
2.0371832715762603
 20
-56.923811433649014
 30
0.0
 10
2.0371832715762603
 20
-55.076188566350986
 30
0.0
 10
-3.1057749073643905
 20
-52.90268052056198
 30
0.0
 10
-3.1057749073643905
 20
-51.09731947943802
 30
0.0
 10
2.0371832715762603
 20
-48.923811433649014
 30
0.0
 10
2.0371832715762603
 20
-47.076188566350986
 30
0.0
 10
-3.1057749073643905
 20
-44.90268052056198
 30
0.0
 10
-3.1057749073643905
 20
-43.09731947943802
 30
0.0
 10
2.0371832715762603
 20
-40.923811433649014
 30
0.0
 10
2.0371832715762603
 20
-39.076188566350986
 30
0.0
 10
-3.1057749073643905
 20
-36.90268052056198
 30
0.0
 10
-3.1057749073643905
 20
-35.09731947943802
 30
0.0
 10
2.0371832715762603
 20
-32.923811433649014
 30
0.0
 10
2.0371832715762603
 20
-31.07618856635099
 30
0.0
 10
-3.1057749073643905
 20
-28.902680520561976
 30
0.0
 10
-3.1057749073643905
 20
-27.097319479438024
 30
0.0
 10
2.0371832715762603
 20
-24.92381143364901
 30
0.0
 10
2.0371832715762603
 20
-23.07618856635099
 30
0.0
 10
-3.1057749073643905
 20
-20.902680520561976
 30
0.0
 10
-3.1057749073643905
 20
-19.097319479438024
 30
0.0
 10
2.0371832715762603
 20
-16.92381143364901
 30
0.0
 10
2.0371832715762603
 20
-15.076188566350988
 30
0.0
 10
-3.1057749073643905
 20
-12.902680520561976
 30
0.0
 10
-3.1057749073643905
 20
-11.097319479438024
 30
0.0
 10
2.0371832715762603
 20
-8.923811433649012
 30
0.0
 10
2.0371832715762603
 20
-7.076188566350988
 30
0.0
 10
-3.1057749073643905
 20
-4.902680520561977
 30
0.0
 10
-3.10577490736439
 20
-3.0973194794380228
 30
0.0
 10
0.5470723526844922
 20
-1.5535595199918872
 30
0.0
 10
0.33374329840160044
 20
-1.6641851286689215
 30
0.0
 10
0.08059667090940259
 20
-1.821815151157399
 30
0.0
 10
-0.20600387099269213
 20
-2.0331910251596534
 30
0.0
 10
-0.5188980432510437
 20
-2.30432221684892
 30
0.0
 10
-0.8502063329812017
 20
-2.64040408516313
 30
0.0
 10
-1.1914152648550598
 20
-3.0457435136988993
 30
0.0
 10
-1.5334697843932616
 20
-3.523693029015972
 30
0.0
 10
-1.866871943005295
 20
-4.076594054266045
 30
0.0
 10
-2.1666733730417196
 20
-4.675539718617987
 30
0.0
 10
-2.0478111779126795
 20
-5.067375863703047
 30
0.0
 10
-1.8547894468114947
 20
-5.428494123209162
 30
0.0
 10
-1.219279281797835
 20
-5.640021039846502
 30
0.0
 10
-0.5925682903016671
 20
-5.795230176909031
 30
0.0
 10
-0.012737876654039582
 20
-5.891322449953778
 30
0.0
 10
0.5151515314745314
 20
-5.936669559024215
 30
0.0
 10
0.9870676379239924
 20
-5.940044988811416
 30
0.0
 10
1.4000359331571524
 20
-5.910514102048393
 30
0.0
 10
1.7521584337793819
 20
-5.85732222925408
 30
0.0
 10
2.042621388473565
 20
-5.789781790165323
 30
0.0
 10
2.271691927444201
 20
-5.717159487310871
 30
0.0
 10
2.440703727646542
 20
-5.648564608690547
 30
0.0
 10
2.5520318603867853
 20
-5.592839464682815
 30
0.0
 10
2.6090570807504054
 20
-5.558452963851771
 30
0.0
 10
2.6161199079930633
 20
-5.553398302375326
 30
0.0
 10
2.8536533698547935
 20
-5.353446041989702
 30
0.0
 10
3.138341806444907
 20
-5.179659171915228
 30
0.0
 10
3.400889414876044
 20
-5.0809739985477
 30
0.0
 10
3.631481535687068
 20
-5.052522411619854
 30
0.0
 10
3.82095575620081
 20
-5.088377567011887
 30
0.0
 10
3.9609057415757585
 20
-5.181627516473231
 30
0.0
 10
4.234245832413843
 20
-5.5016676432245335
 30
0.0
 10
4.684248714656971
 20
-5.9516705254672395
 30
0.0
 10
5.004288841419649
 20
-6.225010616309223
 30
0.0
 10
5.097538790869523
 20
-6.364960601680531
 30
0.0
 10
5.133393946261399
 20
-6.554434822194195
 30
0.0
 10
5.104942359339829
 20
-6.785026943008996
 30
0.0
 10
5.006257079823194
 20
-7.047574475472979
 30
0.0
 10
4.832470320124949
 20
-7.332262991590078
 30
0.0
 10
4.632518054025479
 20
-7.569796448964965
 30
0.0
 10
4.627463394030529
 20
-7.576859277130323
 30
0.0
 10
4.593076893198552
 20
-7.63388449749454
 30
0.0
 10
4.537351749190847
 20
-7.7452126302347875
 30
0.0
 10
4.468756870570523
 20
-7.914224430437129
 30
0.0
 10
4.3961345677313926
 20
-8.143294969413114
 30
0.0
 10
4.328594128617343
 20
-8.433757924167542
 30
0.0
 10
4.275402255832861
 20
-8.785880424724478
 30
0.0
 10
4.2458713690698975
 20
-9.198848719956782
 30
0.0
 10
4.249246798857207
 20
-9.670764826407115
 30
0.0
 10
4.294593907927705
 20
-10.198654234536463
 30
0.0
 10
4.3906861809722635
 20
-10.778484648182957
 30
0.0
 10
4.545895318034782
 20
-11.405195639679079
 30
0.0
 10
4.757422234672143
 20
-12.0407058046928
 30
0.0
 10
5.118540494178249
 20
-12.23372753579398
 30
0.0
 10
5.510376639263321
 20
-12.352589730923022
 30
0.0
 10
6.1093223036152065
 20
-12.052788300886625
 30
0.0
 10
6.662223328865316
 20
-11.719386142274569
 30
0.0
 10
7.140172844183324
 20
-11.3773316227357
 30
0.0
 10
7.5455122727185024
 20
-11.036122690862344
 30
0.0
 10
7.881594141032018
 20
-10.70481440113273
 30
0.0
 10
8.152725332721849
 20
-10.391920228873726
 30
0.0
 10
8.36410120676332
 20
-10.105319686918515
 30
0.0
 10
8.52173122922708
 20
-9.852173059486798
 30
0.0
 10
8.63235683788951
 20
-9.638844005196837
 30
0.0
 10
8.703362324086031
 20
-9.470830711346117
 30
0.0
 10
8.742679574473028
 20
-9.352706206538192
 30
0.0
 10
8.758687566571894
 20
-9.28806835860151
 30
0.0
 10
8.760107554202929
 20
-9.279500000157284
 30
0.0
 10
8.786681476611822
 20
-8.970150879283883
 30
0.0
 10
8.865100726339243
 20
-8.64595988093477
 30
0.0
 10
8.98096896535446
 20
-8.390529731338056
 30
0.0
 10
9.123903907615924
 20
-8.207358168972194
 30
0.0
 10
9.283235837319431
 20
-8.098733086305094
 30
0.0
 10
9.448133092614434
 20
-8.06571117422893
 30
0.0
 10
9.867716268293838
 20
-8.09873308630482
 30
0.0
 10
10.504116447468753
 20
-8.098733086304522
 30
0.0
 10
10.92369962315896
 20
-8.065711174223345
 30
0.0
 10
11.088596878443278
 20
-8.098733086305046
 30
0.0
 10
11.24792880814662
 20
-8.2073581689722
 30
0.0
 10
11.39086375041519
 20
-8.390529731336294
 30
0.0
 10
11.506731860654767
 20
-8.645959902274875
 30
0.0
 10
11.585151244664036
 20
-8.970150878810278
 30
0.0
 10
11.611725159859953
 20
-9.279500000551298
 30
0.0
 10
11.613145149191011
 20
-9.288068358600398
 30
0.0
 10
11.629153141289638
 20
-9.352706206538162
 30
0.0
 10
11.668470391676658
 20
-9.470830711346071
 30
0.0
 10
11.739475877873181
 20
-9.638844005196793
 30
0.0
 10
11.850101486550223
 20
-9.852173059479702
 30
0.0
 10
12.0077315090387
 20
-10.1053196869719
 30
0.0
 10
12.219107383040956
 20
-10.391920228873994
 30
0.0
 10
12.490238574730222
 20
-10.704814401132346
 30
0.0
 10
12.82632044304443
 20
-11.036122690862504
 30
0.0
 10
13.2316598715802
 20
-11.377331622736362
 30
0.0
 10
13.709609386897274
 20
-11.719386142274564
 30
0.0
 10
14.262510412147346
 20
-12.052788300886597
 30
0.0
 10
14.861456076499287
 20
-12.352589730923022
 30
0.0
 10
15.25329222158435
 20
-12.233727535793982
 30
0.0
 10
15.614410481090463
 20
-12.040705804692797
 30
0.0
 10
15.825937397727804
 20
-11.405195639679137
 30
0.0
 10
15.981146534790334
 20
-10.77848464818297
 30
0.0
 10
16.07723880783508
 20
-10.198654234535342
 30
0.0
 10
16.122585916905518
 20
-9.67076482640677
 30
0.0
 10
16.12596134669272
 20
-9.19884871995731
 30
0.0
 10
16.096430459929696
 20
-8.78588042472415
 30
0.0
 10
16.04323858713538
 20
-8.43375792410192
 30
0.0
 10
15.975698148046625
 20
-8.143294969407737
 30
0.0
 10
15.903075845192173
 20
-7.914224430437101
 30
0.0
 10
15.83448096657185
 20
-7.74521263023476
 30
0.0
 10
15.778755822564117
 20
-7.633884497494517
 30
0.0
 10
15.744369321733073
 20
-7.576859277130897
 30
0.0
 10
15.739314660256628
 20
-7.569796449888239
 30
0.0
 10
15.539362399871004
 20
-7.332262988026509
 30
0.0
 10
15.36557552979653
 20
-7.047574551436395
 30
0.0
 10
15.266890356429002
 20
-6.785026943005258
 30
0.0
 10
15.238438769501157
 20
-6.554434822194234
 30
0.0
 10
15.27429392489319
 20
-6.364960601680492
 30
0.0
 10
15.367543874354533
 20
-6.225010616305544
 30
0.0
 10
15.687584001105837
 20
-5.951670525467459
 30
0.0
 10
16.13758688334854
 20
-5.501667643224331
 30
0.0
 10
16.410926974190524
 20
-5.181627516461653
 30
0.0
 10
16.550876959561833
 20
-5.088377567011779
 30
0.0
 10
16.740351180075496
 20
-5.052522411619903
 30
0.0
 10
16.970943300890298
 20
-5.080973998541473
 30
0.0
 10
17.23349083335428
 20
-5.179659278058108
 30
0.0
 10
17.51817934947138
 20
-5.3534460377563535
 30
0.0
 10
17.75571280684627
 20
-5.553398303855823
 30
0.0
 10
17.762775635011625
 20
-5.558452963850773
 30
0.0
 10
17.819800855375842
 20
-5.59283946468275
 30
0.0
 10
17.93112898811609
 20
-5.648564608690455
 30
0.0
 10
18.10014078831843
 20
-5.717159487310779
 30
0.0
 10
18.329211327294416
 20
-5.78978179014991
 30
0.0
 10
18.619674282048845
 20
-5.857322229263959
 30
0.0
 10
18.97179678260578
 20
-5.910514102048441
 30
0.0
 10
19.384765077838082
 20
-5.940044988811405
 30
0.0
 10
19.85668118428842
 20
-5.936669559024095
 30
0.0
 10
20.384570592417766
 20
-5.891322449953597
 30
0.0
 10
20.964401006064257
 20
-5.795230176909039
 30
0.0
 10
21.591111997560382
 20
-5.64002103984652
 30
0.0
 10
22.226622162574103
 20
-5.428494123209159
 30
0.0
 10
22.41964389367528
 20
-5.067375863703056
 30
0.0
 10
22.538506088804326
 20
-4.6755397186179835
 30
0.0
 10
22.23870465876793
 20
-4.0765940542660974
 30
0.0
 10
21.90530250015587
 20
-3.5236930290159862
 30
0.0
 10
21.563247980617
 20
-3.045743513697978
 30
0.0
 10
21.222039048743646
 20
-2.6404040851627997
 30
0.0
 10
20.890730759014033
 20
-2.304322216849284
 30
0.0
 10
20.577836586755026
 20
-2.0331910251594536
 30
0.0
 10
20.291236044799817
 20
-1.8218151511179834
 30
0.0
 10
20.0380894173681
 20
-1.6641851286542213
 30
0.0
 10
19.82476036307814
 20
-1.5535595199917922
 30
0.0
 10
19.65674706922742
 20
-1.4825540337952705
 30
0.0
 10
19.538622564419494
 20
-1.4432367834082744
 30
0.0
 10
19.47398471648281
 20
-1.4272287913094086
 30
0.0
 10
19.46541635803859
 20
-1.4258088036783731
 30
0.0
 10
19.156067237165185
 20
-1.39923488126948
 30
0.0
 10
18.831876238816072
 20
-1.32081563154206
 30
0.0
 10
18.576446089219356
 20
-1.2049473925268424
 30
0.0
 10
18.393274526853496
 20
-1.062012450265379
 30
0.0
 10
18.284649444186392
 20
-0.9026805205618729
 30
0.0
 10
18.251627532110234
 20
-0.7377832652668697
 30
0.0
 10
18.284649444186122
 20
-0.31820008958746415
 30
0.0
 10
18.284649444185824
 20
0.3182000895874517
 30
0.0
 10
18.25162753210465
 20
0.7377832652776575
 30
0.0
 10
18.28464944418635
 20
0.9026805205619755
 30
0.0
 10
18.393274526853503
 20
1.0620124502653165
 30
0.0
 10
18.576446089217598
 20
1.2049473925338878
 30
0.0
 10
18.83187626015618
 20
1.3208155027734638
 30
0.0
 10
19.15606723669158
 20
1.3992348867827331
 30
0.0
 10
19.4654163584326
 20
1.4258088019786492
 30
0.0
 10
19.473984716481702
 20
1.4272287913097084
 30
0.0
 10
19.538622564419462
 20
1.4432367834083344
 30
0.0
 10
19.65674706922737
 20
1.4825540337953558
 30
0.0
 10
19.8247603630781
 20
1.553559519991878
 30
0.0
 10
20.038089417361004
 20
1.6641851286689202
 30
0.0
 10
20.291236044853203
 20
1.8218151511573977
 30
0.0
 10
20.577836586755296
 20
2.0331910251596526
 30
0.0
 10
20.89073075901365
 20
2.3043222168489192
 30
0.0
 10
21.222039048743806
 20
2.6404040851631287
 30
0.0
 10
21.563247980617668
 20
3.0457435136988984
 30
0.0
 10
21.905302500155866
 20
3.5236930290159707
 30
0.0
 10
22.2387046587679
 20
4.076594054266044
 30
0.0
 10
22.538506088804326
 20
4.675539718617986
 30
0.0
 10
22.419643893675286
 20
5.067375863703047
 30
0.0
 10
22.2266221625741
 20
5.428494123209161
 30
0.0
 10
21.59111199756044
 20
5.640021039846501
 30
0.0
 10
20.96440100606427
 20
5.79523017690903
 30
0.0
 10
20.384570592416647
 20
5.891322449953776
 30
0.0
 10
19.856681184288075
 20
5.936669559024214
 30
0.0
 10
19.384765077838615
 20
5.940044988811416
 30
0.0
 10
18.971796782605452
 20
5.910514102048393
 30
0.0
 10
18.619674281983222
 20
5.8573222292540805
 30
0.0
 10
18.329211327289038
 20
5.789781790165322
 30
0.0
 10
18.100140788318402
 20
5.71715948731087
 30
0.0
 10
17.93112898811606
 20
5.648564608690546
 30
0.0
 10
17.81980085537582
 20
5.592839464682815
 30
0.0
 10
17.762775635012197
 20
5.558452963851771
 30
0.0
 10
17.75571280776954
 20
5.553398302375327
 30
0.0
 10
17.51817934590781
 20
5.353446041989703
 30
0.0
 10
17.2334909093177
 20
5.179659171915228
 30
0.0
 10
16.97094330088656
 20
5.0809739985477
 30
0.0
 10
16.740351180075535
 20
5.052522411619854
 30
0.0
 10
16.550876959561794
 20
5.088377567011886
 30
0.0
 10
16.410926974186847
 20
5.181627516473231
 30
0.0
 10
16.13758688334876
 20
5.501667643224533
 30
0.0
 10
15.687584001105634
 20
5.9516705254672395
 30
0.0
 10
15.367543874342957
 20
6.225010616309223
 30
0.0
 10
15.274293924893083
 20
6.364960601680531
 30
0.0
 10
15.238438769501206
 20
6.554434822194196
 30
0.0
 10
15.266890356422778
 20
6.785026943008996
 30
0.0
 10
15.365575635939411
 20
7.047574475472979
 30
0.0
 10
15.539362395637657
 20
7.332262991590078
 30
0.0
 10
15.739314661737126
 20
7.569796448964965
 30
0.0
 10
15.744369321732076
 20
7.576859277130323
 30
0.0
 10
15.778755822564053
 20
7.63388449749454
 30
0.0
 10
15.834480966571757
 20
7.7452126302347875
 30
0.0
 10
15.903075845192083
 20
7.91422443043713
 30
0.0
 10
15.975698148031213
 20
8.143294969413114
 30
0.0
 10
16.04323858714526
 20
8.433757924167544
 30
0.0
 10
16.096430459929746
 20
8.78588042472448
 30
0.0
 10
16.12596134669271
 20
9.198848719956782
 30
0.0
 10
16.1225859169054
 20
9.670764826407117
 30
0.0
 10
16.077238807834902
 20
10.198654234536463
 30
0.0
 10
15.98114653479034
 20
10.778484648182957
 30
0.0
 10
15.825937397727824
 20
11.405195639679079
 30
0.0
 10
15.614410481090463
 20
12.0407058046928
 30
0.0
 10
15.253292221584358
 20
12.233727535793978
 30
0.0
 10
14.861456076499286
 20
12.352589730923022
 30
0.0
 10
14.2625104121474
 20
12.052788300886625
 30
0.0
 10
13.70960938689729
 20
11.719386142274567
 30
0.0
 10
13.231659871579282
 20
11.377331622735698
 30
0.0
 10
12.826320443044104
 20
11.036122690862344
 30
0.0
 10
12.490238574730588
 20
10.704814401132728
 30
0.0
 10
12.219107383040757
 20
10.391920228873726
 30
0.0
 10
12.007731508999287
 20
10.105319686918513
 30
0.0
 10
11.850101486535525
 20
9.852173059486798
 30
0.0
 10
11.739475877873096
 20
9.638844005196836
 30
0.0
 10
11.668470391676575
 20
9.470830711346117
 30
0.0
 10
11.629153141289578
 20
9.35270620653819
 30
0.0
 10
11.613145149190713
 20
9.288068358601508
 30
0.0
 10
11.611725161559676
 20
9.279500000157283
 30
0.0
 10
11.585151239150782
 20
8.970150879283883
 30
0.0
 10
11.506731989423363
 20
8.64595988093477
 30
0.0
 10
11.390863750408146
 20
8.390529731338054
 30
0.0
 10
11.247928808146682
 20
8.207358168972194
 30
0.0
 10
11.088596878443175
 20
8.098733086305094
 30
0.0
 10
10.923699623148172
 20
8.06571117422893
 30
0.0
 10
10.504116447468768
 20
8.09873308630482
 30
0.0
 10
9.86771626829385
 20
8.098733086304522
 30
0.0
 10
9.448133092603644
 20
8.065711174223345
 30
0.0
 10
9.283235837319328
 20
8.098733086305046
 30
0.0
 10
9.123903907615986
 20
8.2073581689722
 30
0.0
 10
8.980968965347415
 20
8.390529731336294
 30
0.0
 10
8.865100855107839
 20
8.645959902274875
 30
0.0
 10
8.78668147109857
 20
8.970150878810278
 30
0.0
 10
8.760107555902653
 20
9.279500000551298
 30
0.0
 10
8.758687566571595
 20
9.288068358600398
 30
0.0
 10
8.742679574472968
 20
9.352706206538162
 30
0.0
 10
8.703362324085948
 20
9.470830711346071
 30
0.0
 10
8.632356837889425
 20
9.638844005196795
 30
0.0
 10
8.521731229212381
 20
9.852173059479702
 30
0.0
 10
8.364101206723905
 20
10.105319686971901
 30
0.0
 10
8.152725332721651
 20
10.391920228873994
 30
0.0
 10
7.881594141032384
 20
10.704814401132346
 30
0.0
 10
7.545512272718174
 20
11.036122690862504
 30
0.0
 10
7.140172844182405
 20
11.377331622736364
 30
0.0
 10
6.662223328865332
 20
11.719386142274564
 30
0.0
 10
6.109322303615259
 20
12.052788300886599
 30
0.0
 10
5.510376639263317
 20
12.352589730923023
 30
0.0
 10
5.118540494178245
 20
12.233727535793978
 30
0.0
 10
4.757422234672131
 20
12.040705804692793
 30
0.0
 10
4.545895318034791
 20
11.405195639679132
 30
0.0
 10
4.3906861809722635
 20
10.778484648182964
 30
0.0
 10
4.294593907927517
 20
10.198654234535336
 30
0.0
 10
4.24924679885708
 20
9.670764826406767
 30
0.0
 10
4.24587136906988
 20
9.198848719957304
 30
0.0
 10
4.275402255832902
 20
8.785880424724144
 30
0.0
 10
4.328594128627216
 20
8.433757924101917
 30
0.0
 10
4.396134567715972
 20
8.143294969407732
 30
0.0
 10
4.4687568705704255
 20
7.914224430437095
 30
0.0
 10
4.537351749190748
 20
7.7452126302347555
 30
0.0
 10
4.5930768931984804
 20
7.633884497494513
 30
0.0
 10
4.627463394029526
 20
7.576859277130892
 30
0.0
 10
4.632518055505969
 20
7.569796449888236
 30
0.0
 10
4.832470315891594
 20
7.332262988026504
 30
0.0
 10
5.006257185966069
 20
7.047574551436391
 30
0.0
 10
5.104942359333597
 20
6.785026943005254
 30
0.0
 10
5.133393946261442
 20
6.554434822194231
 30
0.0
 10
5.097538790869411
 20
6.364960601680488
 30
0.0
 10
5.004288841408066
 20
6.22501061630554
 30
0.0
 10
4.684248714656764
 20
5.951670525467454
 30
0.0
 10
4.234245832414059
 20
5.5016676432243266
 30
0.0
 10
3.960905741572075
 20
5.181627516461648
 30
0.0
 10
3.8209557562007674
 20
5.088377567011774
 30
0.0
 10
3.6314815356871035
 20
5.052522411619897
 30
0.0
 10
3.400889414872303
 20
5.080973998541468
 30
0.0
 10
3.1383418824083193
 20
5.179659278058102
 30
0.0
 10
2.853653366291219
 20
5.353446037756347
 30
0.0
 10
2.616119908916332
 20
5.553398303855818
 30
0.0
 10
2.609057080750974
 20
5.558452963850767
 30
0.0
 10
2.5520318603867578
 20
5.5928394646827435
 30
0.0
 10
2.440703727646511
 20
5.648564608690448
 30
0.0
 10
2.2716919274441665
 20
5.717159487310773
 30
0.0
 10
2.0426213884681843
 20
5.789781790149904
 30
0.0
 10
1.7521584337137543
 20
5.8573222292639535
 30
0.0
 10
1.4000359331568184
 20
5.910514102048433
 30
0.0
 10
0.9870676379245147
 20
5.940044988811396
 30
0.0
 10
0.5151515314741815
 20
5.936669559024086
 30
0.0
 10
-0.012737876655165792
 20
5.891322449953588
 30
0.0
 10
-0.5925682903016583
 20
5.795230176909031
 30
0.0
 10
-1.21927928179778
 20
5.64002103984651
 30
0.0
 10
-1.8547894468115
 20
5.42849412320915
 30
0.0
 10
-2.0478111779126777
 20
5.067375863703053
 30
0.0
 10
-2.1666733730417196
 20
4.675539718617981
 30
0.0
 10
-1.8668719430053233
 20
4.076594054266096
 30
0.0
 10
-1.5334697843932652
 20
3.5236930290159845
 30
0.0
 10
-1.1914152648543972
 20
3.045743513697977
 30
0.0
 10
-0.8502063329810419
 20
2.6404040851627997
 30
0.0
 10
-0.5188980432514274
 20
2.304322216849283
 30
0.0
 10
-0.2060038709924239
 20
2.0331910251594527
 30
0.0
 10
0.08059667096278744
 20
1.8218151511179825
 30
0.0
 10
0.3337432983945039
 20
1.6641851286542204
 30
0.0
 10
0.5470723526833405
 20
1.553559519992374
 30
0.0
 10
-3.10577490736439
 20
3.0973194794380228
 30
0.0
 10
-3.1057749073643905
 20
4.902680520561977
 30
0.0
 10
2.0371832715762603
 20
7.076188566350988
 30
0.0
 10
2.0371832715762603
 20
8.923811433649012
 30
0.0
 10
-3.1057749073643905
 20
11.097319479438024
 30
0.0
 10
-3.1057749073643905
 20
12.902680520561976
 30
0.0
 10
2.0371832715762603
 20
15.076188566350988
 30
0.0
 10
2.0371832715762603
 20
16.92381143364901
 30
0.0
 10
-3.1057749073643905
 20
19.097319479438024
 30
0.0
 10
-3.1057749073643905
 20
20.902680520561976
 30
0.0
 10
2.0371832715762603
 20
23.07618856635099
 30
0.0
 10
2.0371832715762603
 20
24.92381143364901
 30
0.0
 10
-3.1057749073643905
 20
27.097319479438024
 30
0.0
 10
-3.1057749073643905
 20
28.902680520561976
 30
0.0
 10
2.0371832715762603
 20
31.07618856635099
 30
0.0
 10
2.0371832715762603
 20
32.923811433649014
 30
0.0
 10
-3.1057749073643905
 20
35.09731947943802
 30
0.0
 10
-3.1057749073643905
 20
36.90268052056198
 30
0.0
 10
2.0371832715762603
 20
39.076188566350986
 30
0.0
 10
2.0371832715762603
 20
40.923811433649014
 30
0.0
 10
-3.1057749073643905
 20
43.09731947943802
 30
0.0
 10
-3.1057749073643905
 20
44.90268052056198
 30
0.0
 10
2.0371832715762603
 20
47.076188566350986
 30
0.0
 10
2.0371832715762603
 20
48.923811433649014
 30
0.0
 10
-3.1057749073643905
 20
51.09731947943802
 30
0.0
 10
-3.1057749073643905
 20
52.90268052056198
 30
0.0
 10
2.0371832715762603
 20
55.076188566350986
 30
0.0
 10
2.0371832715762603
 20
56.923811433649014
 30
0.0
 10
-3.1057749073643905
 20
59.09731947943802
 30
0.0
 10
-3.1057749073643905
 20
60.90268052056198
 30
0.0
 10
2.0371832715762603
 20
63.076188566350986
 30
0.0
 10
2.0371832715762603
 20
64.923811433649
 30
0.0
 10
-3.1057749073643905
 20
67.09731947943803
 30
0.0
 10
-3.1057749073643905
 20
68.90268052056197
 30
0.0
 10
2.0371832715762603
 20
71.076188566351
 30
0.0
 10
2.0371832715762603
 20
72.923811433649
 30
0.0
 10
-3.1057749073643905
 20
75.09731947943803
 30
0.0
 10
-3.1057749073643905
 20
76.90268052056197
 30
0.0
 10
2.0371832715762603
 20
79.076188566351
 30
0.0
 10
2.0371832715762603
 20
80.923811433649
 30
0.0
 10
-3.1057749073643905
 20
83.09731947943803
 30
0.0
 10
-3.1057749073643905
 20
84.90268052056197
 30
0.0
 10
2.0371832715762603
 20
87.076188566351
 30
0.0
 10
2.0371832715762603
 20
88.923811433649
 30
0.0
 10
-3.1057749073643905
 20
91.09731947943803
 30
0.0
 10
-3.1057749073643905
 20
92.90268052056197
 30
0.0
 10
2.0371832715762603
 20
95.076188566351
 30
0.0
 10
2.0371832715762603
 20
96.923811433649
 30
0.0
 10
-3.1057749073643905
 20
99.09731947943803
 30
0.0
 10
-3.1057749073643905
 20
100.90268052056197
 30
0.0
 10
2.0371832715762603
 20
103.076188566351
 30
0.0
 10
2.0371832715762603
 20
104.923811433649
 30
0.0
 10
-3.1057749073643905
 20
107.09731947943803
 30
0.0
 10
-3.1057749073643905
 20
108.90268052056197
 30
0.0
 10
2.0371832715762603
 20
111.076188566351
 30
0.0
 10
2.0371832715762603
 20
112.923811433649
 30
0.0
 10
-3.1057749073643905
 20
115.09731947943803
 30
0.0
 10
-3.1057749073643905
 20
116.90268052056197
 30
0.0
 10
2.0371832715762603
 20
119.076188566351
 30
0.0
 10
2.0371832715762603
 20
120.923811433649
 30
0.0
 10
-3.1057749073643905
 20
123.09731947943803
 30
0.0
 10
-3.1057749073643905
 20
124.90268052056197
 30
0.0
 10
2.0371832715762603
 20
127.076188566351
 30
0.0
 10
2.0371832715762603
 20
128.923811433649
 30
0.0
 10
-3.1057749073643905
 20
131.09731947943803
 30
0.0
 10
-3.1057749073643905
 20
132.90268052056197
 30
0.0
 10
2.0371832715762603
 20
135.076188566351
 30
0.0
 10
2.0371832715762603
 20
136.923811433649
 30
0.0
 10
-3.1057749073643905
 20
139.09731947943803
 30
0.0
 10
-3.1057749073643905
 20
140.90268052056197
 30
0.0
 10
2.0371832715762603
 20
143.076188566351
 30
0.0
 10
2.0371832715762603
 20
144.923811433649
 30
0.0
 10
-3.1057749073643905
 20
147.09731947943803
 30
0.0
 10
-3.1057749073643905
 20
148.90268052056197
 30
0.0
 10
2.0371832715762603
 20
151.076188566351
 30
0.0
 10
2.0371832715762603
 20
152.923811433649
 30
0.0
 10
-3.1057749073643905
 20
155.09731947943803
 30
0.0
 10
-3.1057749073643905
 20
156.90268052056197
 30
0.0
 10
2.0371832715762603
 20
159.076188566351
 30
0.0
 10
2.0371832715762603
 20
160.923811433649
 30
0.0
 10
-3.1057749073643905
 20
163.09731947943803
 30
0.0
 10
-3.1057749073645518
 20
164
 30
0.0
 10
-13.291691265245692
 20
164
 30
0.0
 10
-13.291691265245692
 20
-164
 30
0.0
 10
-3.10577490736439
 20
-164
 30
0.0
 10
-3.1057749073643905
 20
-163.09731947943803
 30
0.0
  0
LWPOLYLINE
  8
OpenJsCad
  90
25
  70
1
 10
2.0371832715762603
 20
-0.923811433649012
 30
0.0
 10
2.0371832715762603
 20
0.923811433649012
 30
0.0
 10
0.7150856465363968
 20
1.482554033794866
 30
0.0
 10
0.8332101513431098
 20
1.4432367834082735
 30
0.0
 10
0.8978479992797919
 20
1.4272287913094077
 30
0.0
 10
0.9064163577240176
 20
1.4258088036783723
 30
0.0
 10
1.2157654785974188
 20
1.399234881269479
 30
0.0
 10
1.5399564769465321
 20
1.3208156315420587
 30
0.0
 10
1.795386626543248
 20
1.204947392526841
 30
0.0
 10
1.9785581889091084
 20
1.0620124502653776
 30
0.0
 10
2.087183271576208
 20
0.9026805205618715
 30
0.0
 10
2.120205183652372
 20
0.7377832652668683
 30
0.0
 10
2.0871832715764818
 20
0.31820008958746326
 30
0.0
 10
2.08718327157678
 20
-0.3182000895874526
 30
0.0
 10
2.1202051836579567
 20
-0.7377832652776584
 30
0.0
 10
2.087183271576256
 20
-0.9026805205619763
 30
0.0
 10
1.978558188909103
 20
-1.0620124502653174
 30
0.0
 10
1.7953866265450085
 20
-1.2049473925338887
 30
0.0
 10
1.5399564556064291
 20
-1.3208155027734647
 30
0.0
 10
1.215765479071024
 20
-1.399234886782734
 30
0.0
 10
0.9064163573300057
 20
-1.4258088019786501
 30
0.0
 10
0.8978479992809039
 20
-1.4272287913097097
 30
0.0
 10
0.83321015134314
 20
-1.4432367834083357
 30
0.0
 10
0.7150856465352499
 20
-1.4825540337953507
 30
0.0
 10
2.0371832715762603
 20
-0.923811433649012
 30
0.0
  0
LWPOLYLINE
  8
OpenJsCad
  90
31
  70
1
 10
9.053103884031636
 20
1.6482523772440314
 30
0.0
 10
9.420549493151123
 20
1.8477590650225737
 30
0.0
 10
9.821445306897006
 20
1.966509815127909
 30
0.0
 10
10.23827025449705
 20
1.9993146499511147
 30
0.0
 10
10.652807085593114
 20
1.9447398407953531
 30
0.0
 10
11.046938551497892
 20
1.8051705686997215
 30
0.0
 10
11.403439215898743
 20
1.5867066805824703
 30
0.0
 10
11.706728289081365
 20
1.2988960966603669
 30
0.0
 10
11.943550583205234
 20
0.9543175205192159
 30
0.0
 10
12.103555827617688
 20
0.5680306894078436
 30
0.0
 10
12.179751025347558
 20
0.15691819145568942
 30
0.0
 10
12.168806080628922
 20
-0.2610523844401045
 30
0.0
 10
12.07119934006566
 20
-0.6676137184675427
 30
0.0
 10
11.891196686589486
 20
-1.044997129431898
 30
0.0
 10
11.636665099905878
 20
-1.376709151387508
 30
0.0
 10
11.318728831730967
 20
-1.6482523772440316
 30
0.0
 10
10.951283222611481
 20
-1.8477590650225741
 30
0.0
 10
10.550387408865596
 20
-1.9665098151279092
 30
0.0
 10
10.133562461265555
 20
-1.9993146499511145
 30
0.0
 10
9.71902563016949
 20
-1.9447398407953533
 30
0.0
 10
9.32489416426471
 20
-1.8051705686997208
 30
0.0
 10
8.968393499863861
 20
-1.5867066805824699
 30
0.0
 10
8.66510442668124
 20
-1.2988960966603673
 30
0.0
 10
8.42828213255737
 20
-0.9543175205192165
 30
0.0
 10
8.268276888144916
 20
-0.5680306894078451
 30
0.0
 10
8.192081690415046
 20
-0.15691819145568964
 30
0.0
 10
8.203026635133682
 20
0.2610523844401037
 30
0.0
 10
8.300633375696945
 20
0.6676137184675422
 30
0.0
 10
8.480636029173118
 20
1.044997129431898
 30
0.0
 10
8.735167615856728
 20
1.376709151387508
 30
0.0
 10
9.053103884031636
 20
1.6482523772440314
 30
0.0
  0
ENDSEC
  0
EOF
