999
CadZinho - Minimalist CAD by Zecruel
0
SECTION
2
HEADER
9
$ACADVER
1
AC1021
9
$HANDSEED
5
1F0
9
$INSUNITS
70
4
9
$LWDISPLAY
290
1
0
ENDSEC
0
SECTION
2
CLASSES
0
ENDSEC
0
SECTION
2
TABLES
0
TABLE
2
VPORT
5
1
100
AcDbSymbolTable
70
1
0
ENDTAB
0
TABLE
2
LTYPE
5
4
100
AcDbSymbolTable
70
100
0
LTYPE
5
5
100
AcDbSymbolTableRecord
100
AcDbLinetypeTableRecord
2
ByBlock
70
0
3

72
65
73
0
40
0.000000
0
LTYPE
5
6
100
AcDbSymbolTableRecord
100
AcDbLinetypeTableRecord
2
ByLayer
70
0
3

72
65
73
0
40
0.000000
0
LTYPE
5
7
100
AcDbSymbolTableRecord
100
AcDbLinetypeTableRecord
2
Continuous
70
0
3
___________________________________
72
65
73
0
40
0.000000
0
LTYPE
5
8
100
AcDbSymbolTableRecord
100
AcDbLinetypeTableRecord
2
Border
70
0
3
____ . ____ ____ . ____ ____ . ____
72
65
73
6
40
1.750000
49
0.500000
74
0
49
-0.250000
74
0
49
0.500000
74
0
49
-0.250000
74
0
49
0.000000
74
0
49
-0.250000
74
0
0
LTYPE
5
9
100
AcDbSymbolTableRecord
100
AcDbLinetypeTableRecord
2
Center
70
0
3
____ _ ____ _ ____ _ ____ _ ____ _
72
65
73
4
40
2.000000
49
1.250000
74
0
49
-0.250000
74
0
49
0.250000
74
0
49
-0.250000
74
0
0
LTYPE
5
A
100
AcDbSymbolTableRecord
100
AcDbLinetypeTableRecord
2
Dashdot
70
0
3
____ . ____ . ____ . ____ . ____ .
72
65
73
4
40
1.000000
49
0.500000
74
0
49
-0.250000
74
0
49
0.000000
74
0
49
-0.250000
74
0
0
LTYPE
5
B
100
AcDbSymbolTableRecord
100
AcDbLinetypeTableRecord
2
Dashed
70
0
3
____ ____ ____ ____ ____ ____ ____
72
65
73
2
40
0.750000
49
0.500000
74
0
49
-0.250000
74
0
0
LTYPE
5
C
100
AcDbSymbolTableRecord
100
AcDbLinetypeTableRecord
2
Divide
70
0
3
____ . . ____ . . ____ . . ____ . .
72
65
73
6
40
1.250000
49
0.500000
74
0
49
-0.250000
74
0
49
0.000000
74
0
49
-0.250000
74
0
49
0.000000
74
0
49
-0.250000
74
0
0
LTYPE
5
D
100
AcDbSymbolTableRecord
100
AcDbLinetypeTableRecord
2
Dot
70
0
3
. . . . . . . . . . . . . . . . . .
72
65
73
2
40
0.250000
49
0.000000
74
0
49
-0.250000
74
0
0
LTYPE
5
E
100
AcDbSymbolTableRecord
100
AcDbLinetypeTableRecord
2
Hidden
70
0
3
__ __ __ __ __ __ __ __ __ __ __ __
72
65
73
2
40
0.375000
49
0.250000
74
0
49
-0.125000
74
0
0
LTYPE
5
F
100
AcDbSymbolTableRecord
100
AcDbLinetypeTableRecord
2
Phantom
70
0
3
_____ _ _ _____ _ _ _____ _ _ _____
72
65
73
6
40
2.500000
49
1.250000
74
0
49
-0.250000
74
0
49
0.250000
74
0
49
-0.250000
74
0
49
0.250000
74
0
49
-0.250000
74
0
0
ENDTAB
0
TABLE
2
LAYER
5
10
100
AcDbSymbolTable
70
1000
0
LAYER
5
11
100
AcDbSymbolTableRecord
100
AcDbLayerTableRecord
2
0
70
0
62
7
6
Continuous
370
0
390
0
0
ENDTAB
0
TABLE
2
STYLE
5
12
100
AcDbSymbolTable
70
3
0
STYLE
5
13
100
AcDbSymbolTableRecord
100
AcDbTextStyleTableRecord
2
Standard
70
0
40
0.000000
41
1.000000
50
0.000000
71
0
42
1.000000
3
TXT.SHX
4

0
STYLE
5
1EF
100
AcDbSymbolTableRecord
100
AcDbTextStyleTableRecord
2
texto
70
0
40
0.000000
41
1.000000
50
0.000000
71
0
42
1.000000
3
TXT.SHX
4

0
ENDTAB
0
TABLE
2
VIEW
5
14
100
AcDbSymbolTable
70
0
0
ENDTAB
0
TABLE
2
UCS
5
15
100
AcDbSymbolTable
70
0
0
ENDTAB
0
TABLE
2
APPID
5
16
100
AcDbSymbolTable
70
10
0
APPID
5
17
100
AcDbSymbolTableRecord
100
AcDbRegAppTableRecord
2
ACAD
70
0
0
APPID
5
18
100
AcDbSymbolTableRecord
100
AcDbRegAppTableRecord
2
CADZINHO
70
0
0
ENDTAB
0
TABLE
2
DIMSTYLE
5
19
100
AcDbSymbolTable
70
1
100
AcDbDimStyleTable
71
1
0
DIMSTYLE
105
1A
100
AcDbSymbolTableRecord
100
AcDbDimStyleTableRecord
2
Standard
70
0
340
C
0
ENDTAB
0
TABLE
2
BLOCK_RECORD
5
1B
100
AcDbSymbolTable
70
9999
0
BLOCK_RECORD
5
1C
100
AcDbSymbolTableRecord
100
AcDbBlockTableRecord
2
*Model_Space
70
0
0
BLOCK_RECORD
5
1D
100
AcDbSymbolTableRecord
100
AcDbBlockTableRecord
2
*Paper_Space
70
0
0
BLOCK_RECORD
5
25
100
AcDbSymbolTableRecord
100
AcDbBlockTableRecord
2
esquematico
70
0
0
BLOCK_RECORD
5
33
100
AcDbSymbolTableRecord
100
AcDbBlockTableRecord
2
terminal
70
0
0
BLOCK_RECORD
5
41
100
AcDbSymbolTableRecord
100
AcDbBlockTableRecord
2
fiacao
70
0
0
BLOCK_RECORD
5
4B
100
AcDbSymbolTableRecord
100
AcDbBlockTableRecord
2
le
70
0
0
BLOCK_RECORD
5
57
100
AcDbSymbolTableRecord
100
AcDbBlockTableRecord
2
borne
70
0
0
BLOCK_RECORD
5
67
100
AcDbSymbolTableRecord
100
AcDbBlockTableRecord
2
sec_e
70
0
0
BLOCK_RECORD
5
77
100
AcDbSymbolTableRecord
100
AcDbBlockTableRecord
2
sec_central
70
0
0
BLOCK_RECORD
5
83
100
AcDbSymbolTableRecord
100
AcDbBlockTableRecord
2
sec_s
70
0
0
BLOCK_RECORD
5
155
100
AcDbSymbolTableRecord
100
AcDbBlockTableRecord
2
cabo
70
0
0
BLOCK_RECORD
5
16E
100
AcDbSymbolTableRecord
100
AcDbBlockTableRecord
2
cond_id
70
0
0
BLOCK_RECORD
5
17E
100
AcDbSymbolTableRecord
100
AcDbBlockTableRecord
2
cond_dest
70
0
0
BLOCK_RECORD
5
18F
100
AcDbSymbolTableRecord
100
AcDbBlockTableRecord
2
cabo_engate
70
0
0
BLOCK_RECORD
5
1A1
100
AcDbSymbolTableRecord
100
AcDbBlockTableRecord
2
i_cond_dest
70
0
0
BLOCK_RECORD
5
1B2
100
AcDbSymbolTableRecord
100
AcDbBlockTableRecord
2
i_cond_id
70
0
0
BLOCK_RECORD
5
1C4
100
AcDbSymbolTableRecord
100
AcDbBlockTableRecord
2
i_cabo
70
0
0
BLOCK_RECORD
5
1DD
100
AcDbSymbolTableRecord
100
AcDbBlockTableRecord
2
i_cabo_engate
70
0
0
ENDTAB
0
ENDSEC
0
SECTION
2
BLOCKS
0
BLOCK
5
1E
100
AcDbEntity
8
0
100
AcDbBlockBegin
2
*Model_Space
70
0
10
0.000000
20
0.000000
30
0.000000
3
*Model_Space
1

0
ENDBLK
5
1F
100
AcDbEntity
8
0
100
AcDbBlockEnd
0
BLOCK
5
20
100
AcDbEntity
8
0
100
AcDbBlockBegin
2
*Paper_Space
70
0
10
0.000000
20
0.000000
30
0.000000
3
*Paper_Space
1

0
ENDBLK
5
21
100
AcDbEntity
8
0
100
AcDbBlockEnd
0
BLOCK
5
26
330
25
100
AcDbEntity
8
0
100
AcDbBlockBegin
2
esquematico
70
0
10
0.000000
20
0.000000
30
0.000000
3
esquematico
1

0
LINE
5
27
330
695
100
AcDbEntity
8
0
100
AcDbLine
10
-9000.000000
20
0.000000
30
0.000000
11
9000.000000
21
0.000000
31
0.000000
0
ATTDEF
5
28
330
695
100
AcDbEntity
8
0
60
1
100
AcDbText
10
-2180.555556
20
21000.000000
30
0.000000
40
3500.000000
1
XA
7
texto
72
1
11
0.000000
21
21000.000000
31
0.000000
100
AcDbAttributeDefinition
3

2
id
70
1
280
0
0
ATTDEF
5
29
330
695
100
AcDbEntity
8
0
100
AcDbText
10
-4541.666667
20
800.000000
30
0.000000
40
3500.000000
1
27CC
7
texto
72
1
11
0.000000
21
800.000000
31
0.000000
100
AcDbAttributeDefinition
3

2
esquematico
70
0
280
0
0
ATTDEF
5
2A
330
695
100
AcDbEntity
8
0
100
AcDbText
10
-958.333333
20
-4300.000000
30
0.000000
40
3500.000000
1
X
7
texto
72
1
11
0.000000
21
-800.000000
31
0.000000
100
AcDbAttributeDefinition
3

2
esq_inf
70
0
74
3
280
0
0
ATTDEF
5
2B
330
695
100
AcDbEntity
8
0
60
1
100
AcDbText
10
-791.666667
20
14000.000000
30
0.000000
40
3500.000000
1
a
7
texto
72
1
11
0.000000
21
14000.000000
31
0.000000
100
AcDbAttributeDefinition
3

2
rev
70
1
280
0
0
ENDBLK
5
2C
330
26
100
AcDbEntity
8
0
100
AcDbBlockEnd
0
BLOCK
5
34
330
33
100
AcDbEntity
8
0
100
AcDbBlockBegin
2
terminal
70
0
10
0.000000
20
0.000000
30
0.000000
3
terminal
1

0
LINE
5
35
330
69F
100
AcDbEntity
8
0
100
AcDbLine
10
0.000000
20
0.000000
30
0.000000
11
1300.000000
21
0.000000
31
0.000000
0
ATTDEF
5
36
330
69F
100
AcDbEntity
8
0
60
1
100
AcDbText
10
-2180.555556
20
10500.000000
30
0.000000
40
3500.000000
1
XA
7
texto
72
1
11
0.000000
21
14000.000000
31
0.000000
100
AcDbAttributeDefinition
3

2
id
70
1
74
3
280
0
0
ATTDEF
5
37
330
69F
100
AcDbEntity
8
0
100
AcDbText
10
-1873.015873
20
-1250.000000
30
0.000000
40
2500.000000
1
1
7
texto
72
2
11
-1000.000000
21
0.000000
31
0.000000
100
AcDbAttributeDefinition
3

2
terminal
70
0
74
2
280
0
0
ATTDEF
5
38
330
69F
100
AcDbEntity
8
0
100
AcDbText
10
2300.000000
20
-1250.000000
30
0.000000
40
2500.000000
1
-
7
texto
11
2300.000000
21
0.000000
31
0.000000
100
AcDbAttributeDefinition
3

2
ligacao
70
0
74
2
280
0
0
ATTDEF
5
39
330
69F
100
AcDbEntity
8
0
60
1
100
AcDbText
10
-791.666667
20
3500.000000
30
0.000000
40
3500.000000
1
a
7
texto
72
1
11
0.000000
21
7000.000000
31
0.000000
100
AcDbAttributeDefinition
3

2
rev
70
1
74
3
280
0
0
ENDBLK
5
3A
330
34
100
AcDbEntity
8
0
100
AcDbBlockEnd
0
BLOCK
5
42
330
41
100
AcDbEntity
8
0
100
AcDbBlockBegin
2
fiacao
70
0
10
0.000000
20
0.000000
30
0.000000
3
fiacao
1

0
LINE
5
43
330
6A8
100
AcDbEntity
8
0
100
AcDbLine
10
-4000.000000
20
0.000000
30
0.000000
11
4000.000000
21
0.000000
31
0.000000
0
ATTDEF
5
44
330
6A8
100
AcDbEntity
8
0
100
AcDbText
10
-2180.555556
20
800.000000
30
0.000000
40
3500.000000
1
XA
7
texto
72
1
11
0.000000
21
800.000000
31
0.000000
100
AcDbAttributeDefinition
3

2
id
70
0
280
0
0
ATTDEF
5
45
330
6A8
100
AcDbEntity
8
0
60
1
100
AcDbText
10
-791.666667
20
3500.000000
30
0.000000
40
3500.000000
1
a
7
texto
72
1
11
0.000000
21
7000.000000
31
0.000000
100
AcDbAttributeDefinition
3

2
rev
70
1
74
3
280
0
0
ENDBLK
5
46
330
42
100
AcDbEntity
8
0
100
AcDbBlockEnd
0
BLOCK
5
4C
330
4B
100
AcDbEntity
8
0
100
AcDbBlockBegin
2
le
70
0
10
0.000000
20
0.000000
30
0.000000
3
le
1

0
LINE
5
4D
330
6AF
100
AcDbEntity
8
0
100
AcDbLine
10
0.000000
20
0.000000
30
0.000000
11
-8000.000000
21
0.000000
31
0.000000
0
ATTDEF
5
4E
330
6AF
100
AcDbEntity
8
0
60
1
100
AcDbText
10
-2180.555556
20
10500.000000
30
0.000000
40
3500.000000
1
XA
7
texto
72
1
11
0.000000
21
14000.000000
31
0.000000
100
AcDbAttributeDefinition
3

2
id
70
1
74
3
280
0
0
ATTDEF
5
4F
330
6AF
100
AcDbEntity
8
0
100
AcDbText
10
-5888.888889
20
-3000.000000
30
0.000000
40
2000.000000
1
(--)
7
texto
72
2
11
-1000.000000
21
-1000.000000
31
0.000000
100
AcDbAttributeDefinition
3

2
le
70
0
74
3
280
0
0
ATTDEF
5
50
330
6AF
100
AcDbEntity
8
0
60
1
100
AcDbText
10
-791.666667
20
3500.000000
30
0.000000
40
3500.000000
1
a
7
texto
72
1
11
0.000000
21
7000.000000
31
0.000000
100
AcDbAttributeDefinition
3

2
rev
70
1
74
3
280
0
0
ENDBLK
5
51
330
4C
100
AcDbEntity
8
0
100
AcDbBlockEnd
0
BLOCK
5
58
330
57
100
AcDbEntity
8
0
100
AcDbBlockBegin
2
borne
70
0
10
0.000000
20
0.000000
30
0.000000
3
borne
1

0
LWPOLYLINE
5
59
330
6B7
100
AcDbEntity
8
0
100
AcDbPolyline
90
5
70
129
43
0.000000
10
0.000000
20
0.000000
10
12000.000000
20
0.000000
10
12000.000000
20
-6000.000000
10
0.000000
20
-6000.000000
10
0.000000
20
0.000000
0
LINE
5
5A
330
6B7
100
AcDbEntity
8
0
100
AcDbLine
10
0.000000
20
-3000.000000
30
0.000000
11
-4000.000000
21
-3000.000000
31
0.000000
0
LINE
5
5B
330
6B7
100
AcDbEntity
8
0
100
AcDbLine
10
12000.000000
20
-3000.000000
30
0.000000
11
16000.000000
21
-3000.000000
31
0.000000
0
ATTDEF
5
5C
330
6B7
100
AcDbEntity
8
0
60
1
100
AcDbText
10
-4000.000000
20
6000.000000
30
0.000000
40
2000.000000
1
A
7
texto
11
-4000.000000
21
7000.000000
31
0.000000
100
AcDbAttributeDefinition
3

2
id
70
1
74
2
280
0
0
ATTDEF
5
5D
330
6B7
100
AcDbEntity
8
0
100
AcDbText
10
5563.492063
20
-4250.000000
30
0.000000
40
2500.000000
1
1
7
texto
72
1
11
6000.000000
21
-3000.000000
31
0.000000
100
AcDbAttributeDefinition
3

2
terminal
70
0
74
2
280
0
0
ATTDEF
5
5E
330
6B7
100
AcDbEntity
8
0
100
AcDbText
10
-6250.000000
20
-4250.000000
30
0.000000
40
2500.000000
1
-
7
texto
72
2
11
-5000.000000
21
-3000.000000
31
0.000000
100
AcDbAttributeDefinition
3

2
ligacao
70
0
74
2
280
0
0
ATTDEF
5
5F
330
6B7
100
AcDbEntity
8
0
60
1
100
AcDbText
10
-4000.000000
20
2000.000000
30
0.000000
40
2000.000000
1
a
7
texto
11
-4000.000000
21
3000.000000
31
0.000000
100
AcDbAttributeDefinition
3

2
rev
70
1
74
2
280
0
0
ENDBLK
5
60
330
58
100
AcDbEntity
8
0
100
AcDbBlockEnd
0
BLOCK
5
68
330
67
100
AcDbEntity
8
0
100
AcDbBlockBegin
2
sec_e
70
0
10
0.000000
20
0.000000
30
0.000000
3
sec_e
1

0
LWPOLYLINE
5
69
330
6C0
100
AcDbEntity
8
0
100
AcDbPolyline
90
5
70
129
43
0.000000
10
-6000.000000
20
0.000000
10
0.000000
20
0.000000
10
0.000000
20
-6000.000000
10
-6000.000000
20
-6000.000000
10
-6000.000000
20
0.000000
0
LINE
5
6A
330
6C0
100
AcDbEntity
8
0
100
AcDbLine
10
-6000.000000
20
-3000.000000
30
0.000000
11
-10000.000000
21
-3000.000000
31
0.000000
0
TEXT
5
6B
330
6C0
100
AcDbEntity
8
0
62
7
100
AcDbText
10
-3562.438965
20
-4250.000000
30
0.000000
40
2500.000000
1
E
7
texto
72
1
11
-2937.438965
21
-3000.000000
31
0.000000
100
AcDbText
73
2
0
ATTDEF
5
6C
330
6C0
100
AcDbEntity
8
0
60
1
100
AcDbText
10
-10000.000000
20
6000.000000
30
0.000000
40
2000.000000
1
K1
7
texto
11
-10000.000000
21
7000.000000
31
0.000000
100
AcDbAttributeDefinition
3

2
id
70
1
74
2
280
0
0
ATTDEF
5
6D
330
6C0
100
AcDbEntity
8
0
60
1
100
AcDbText
10
-10000.000000
20
-2000.000000
30
0.000000
40
2000.000000
1
1E
7
texto
11
-10000.000000
21
-1000.000000
31
0.000000
100
AcDbAttributeDefinition
3

2
terminal
70
1
74
2
280
0
0
ATTDEF
5
6E
330
6C0
100
AcDbEntity
8
0
100
AcDbText
10
-12250.000000
20
-4250.000000
30
0.000000
40
2500.000000
1
-
7
texto
72
2
11
-11000.000000
21
-3000.000000
31
0.000000
100
AcDbAttributeDefinition
3

2
ligacao
70
0
74
2
280
0
0
ATTDEF
5
6F
330
6C0
100
AcDbEntity
8
0
60
1
100
AcDbText
10
-10000.000000
20
2000.000000
30
0.000000
40
2000.000000
1
a
7
texto
11
-10000.000000
21
3000.000000
31
0.000000
100
AcDbAttributeDefinition
3

2
rev
70
1
74
2
280
0
0
ENDBLK
5
70
330
68
100
AcDbEntity
8
0
100
AcDbBlockEnd
0
BLOCK
5
78
330
77
100
AcDbEntity
8
0
100
AcDbBlockBegin
2
sec_central
70
0
10
0.000000
20
0.000000
30
0.000000
3
sec_central
1

0
LWPOLYLINE
5
79
330
6C9
100
AcDbEntity
8
0
100
AcDbPolyline
90
5
70
129
43
0.000000
10
0.000000
20
0.000000
10
12000.000000
20
0.000000
10
12000.000000
20
-6000.000000
10
0.000000
20
-6000.000000
10
0.000000
20
0.000000
0
ATTDEF
5
7A
330
6C9
100
AcDbEntity
8
0
60
1
100
AcDbText
10
6000.000000
20
1000.000000
30
0.000000
40
2000.000000
1
K1
7
texto
11
6000.000000
21
2000.000000
31
0.000000
100
AcDbAttributeDefinition
3

2
id
70
1
74
2
280
0
0
ATTDEF
5
7B
330
6C9
100
AcDbEntity
8
0
100
AcDbText
10
5563.492063
20
-4250.000000
30
0.000000
40
2500.000000
1
1
7
texto
72
1
11
6000.000000
21
-3000.000000
31
0.000000
100
AcDbAttributeDefinition
3

2
num
70
0
74
2
280
0
0
ATTDEF
5
7C
330
6C9
100
AcDbEntity
8
0
60
1
100
AcDbText
10
6000.000000
20
-3000.000000
30
0.000000
40
2000.000000
1
a
7
texto
11
6000.000000
21
-2000.000000
31
0.000000
100
AcDbAttributeDefinition
3

2
rev
70
1
74
2
280
0
0
ENDBLK
5
7D
330
78
100
AcDbEntity
8
0
100
AcDbBlockEnd
0
BLOCK
5
84
330
83
100
AcDbEntity
8
0
100
AcDbBlockBegin
2
sec_s
70
0
10
0.000000
20
0.000000
30
0.000000
3
sec_s
1

0
LWPOLYLINE
5
85
330
6D1
100
AcDbEntity
8
0
100
AcDbPolyline
90
5
70
129
43
0.000000
10
0.000000
20
0.000000
10
6000.000000
20
0.000000
10
6000.000000
20
-6000.000000
10
0.000000
20
-6000.000000
10
0.000000
20
0.000000
0
LINE
5
86
330
6D1
100
AcDbEntity
8
0
100
AcDbLine
10
6000.000000
20
-3000.000000
30
0.000000
11
10000.000000
21
-3000.000000
31
0.000000
0
TEXT
5
87
330
6D1
100
AcDbEntity
8
0
62
7
100
AcDbText
10
2246.031746
20
-4250.000000
30
0.000000
40
2500.000000
1
S
7
texto
72
1
11
3000.000000
21
-3000.000000
31
0.000000
100
AcDbText
73
2
0
ATTDEF
5
88
330
6D1
100
AcDbEntity
8
0
60
1
100
AcDbText
10
10000.000000
20
6000.000000
30
0.000000
40
2000.000000
1
K1
7
texto
11
10000.000000
21
7000.000000
31
0.000000
100
AcDbAttributeDefinition
3

2
id
70
1
74
2
280
0
0
ATTDEF
5
89
330
6D1
100
AcDbEntity
8
0
60
1
100
AcDbText
10
10000.000000
20
-2000.000000
30
0.000000
40
2000.000000
1
1S
7
texto
11
10000.000000
21
-1000.000000
31
0.000000
100
AcDbAttributeDefinition
3

2
terminal
70
1
74
2
280
0
0
ATTDEF
5
8A
330
6D1
100
AcDbEntity
8
0
100
AcDbText
10
11000.000000
20
-4250.000000
30
0.000000
40
2500.000000
1
-
7
texto
11
11000.000000
21
-3000.000000
31
0.000000
100
AcDbAttributeDefinition
3

2
ligacao
70
0
74
2
280
0
0
ATTDEF
5
8B
330
6D1
100
AcDbEntity
8
0
60
1
100
AcDbText
10
10000.000000
20
2000.000000
30
0.000000
40
2000.000000
1
a
7
texto
11
10000.000000
21
3000.000000
31
0.000000
100
AcDbAttributeDefinition
3

2
rev
70
1
74
2
280
0
0
ENDBLK
5
8C
330
84
100
AcDbEntity
8
0
100
AcDbBlockEnd
0
BLOCK
5
156
330
155
100
AcDbEntity
8
0
100
AcDbBlockBegin
2
cabo
70
0
10
0.000000
20
0.000000
30
0.000000
3
cabo
1

0
LWPOLYLINE
5
157
330
71E
100
AcDbEntity
8
0
100
AcDbPolyline
90
5
70
129
43
0.000000
10
4000.000000
20
-3000.000000
10
28000.000000
20
-3000.000000
10
28000.000000
20
3000.000000
10
4000.000000
20
3000.000000
10
4000.000000
20
-3000.000000
0
LINE
5
158
330
71E
100
AcDbEntity
8
0
100
AcDbLine
10
22000.000000
20
3000.000000
30
0.000000
11
22000.000000
21
-3000.000000
31
0.000000
0
LINE
5
159
330
71E
100
AcDbEntity
8
0
100
AcDbLine
10
4000.000000
20
0.000000
30
0.000000
11
0.000000
21
0.000000
31
0.000000
0
CIRCLE
5
15A
330
71E
100
AcDbEntity
8
0
100
AcDbCircle
10
2000.000000
20
0.000000
30
0.000000
40
700.000000
0
LINE
5
15B
330
71E
100
AcDbEntity
8
0
100
AcDbLine
10
2000.000000
20
-700.000000
30
0.000000
11
2000.000000
21
-1400.000000
31
0.000000
0
LINE
5
15C
330
71E
100
AcDbEntity
8
0
100
AcDbLine
10
1339.621631
20
-1900.000000
30
0.000000
11
2660.378369
21
-1900.000000
31
0.000000
0
LINE
5
15D
330
71E
100
AcDbEntity
8
0
100
AcDbLine
10
1000.000000
20
-1400.000000
30
0.000000
11
3000.000000
21
-1400.000000
31
0.000000
0
LINE
5
15E
330
71E
100
AcDbEntity
8
0
100
AcDbLine
10
1665.794171
20
-2400.000000
30
0.000000
11
2334.205829
21
-2400.000000
31
0.000000
0
ATTDEF
5
15F
330
71E
100
AcDbEntity
8
0
100
AcDbText
10
8069.444444
20
-1250.000000
30
0.000000
40
2500.000000
1
00X000
7
texto
72
1
11
13000.000000
21
0.000000
31
0.000000
100
AcDbAttributeDefinition
3

2
cabo
70
0
74
2
280
0
0
ATTDEF
5
160
330
71E
100
AcDbEntity
8
0
100
AcDbText
10
31000.000000
20
1750.000000
30
0.000000
40
2500.000000
1
DESCR
7
texto
11
31000.000000
21
3000.000000
31
0.000000
100
AcDbAttributeDefinition
3

2
descr
70
0
74
2
280
0
0
ATTDEF
5
161
330
71E
100
AcDbEntity
8
0
100
AcDbText
10
31000.000000
20
-1250.000000
30
0.000000
40
2500.000000
1
DESENHO
7
texto
11
31000.000000
21
0.000000
31
0.000000
100
AcDbAttributeDefinition
3

2
des
70
0
74
2
280
0
0
ATTDEF
5
162
330
71E
100
AcDbEntity
8
0
100
AcDbText
10
31000.000000
20
-4250.000000
30
0.000000
40
2500.000000
1
FL. X
7
texto
11
31000.000000
21
-3000.000000
31
0.000000
100
AcDbAttributeDefinition
3

2
fl
70
0
74
2
280
0
0
ATTDEF
5
163
330
71E
100
AcDbEntity
8
0
100
AcDbText
10
23442.460317
20
-1250.000000
30
0.000000
40
2500.000000
1
NN
7
texto
72
1
11
25000.000000
21
0.000000
31
0.000000
100
AcDbAttributeDefinition
3

2
num_cond
70
0
74
2
280
0
0
ATTDEF
5
164
330
71E
100
AcDbEntity
8
0
60
1
100
AcDbText
10
12434.523810
20
-1250.000000
30
0.000000
40
2500.000000
1
a
7
texto
72
1
11
13000.000000
21
0.000000
31
0.000000
100
AcDbAttributeDefinition
3

2
rev
70
1
74
2
280
0
0
ENDBLK
5
165
330
156
100
AcDbEntity
8
0
100
AcDbBlockEnd
0
BLOCK
5
16F
330
16E
100
AcDbEntity
8
0
100
AcDbBlockBegin
2
cond_id
70
0
10
0.000000
20
0.000000
30
0.000000
3
cond_id
1

0
LINE
5
170
330
729
100
AcDbEntity
8
0
100
AcDbLine
10
0.000000
20
0.000000
30
0.000000
11
2000.000000
21
0.000000
31
0.000000
0
ATTDEF
5
171
330
729
100
AcDbEntity
8
0
60
1
100
AcDbText
10
-8861.111111
20
500.000000
30
0.000000
40
2500.000000
1
00X000
7
texto
72
2
11
1000.000000
21
500.000000
31
0.000000
100
AcDbAttributeDefinition
3

2
cabo
70
1
280
0
0
ATTDEF
5
172
330
729
100
AcDbEntity
8
0
60
1
100
AcDbText
10
-9099.206349
20
500.000000
30
0.000000
40
2500.000000
1
OO.XXX
7
texto
72
2
11
1000.000000
21
500.000000
31
0.000000
100
AcDbAttributeDefinition
3

2
orig
70
1
280
0
0
ATTDEF
5
173
330
729
100
AcDbEntity
8
0
60
1
100
AcDbText
10
-9099.206349
20
500.000000
30
0.000000
40
2500.000000
1
DD.XXX
7
texto
72
2
11
1000.000000
21
500.000000
31
0.000000
100
AcDbAttributeDefinition
3

2
dest
70
1
280
0
0
ATTDEF
5
174
330
729
100
AcDbEntity
8
0
100
AcDbText
10
-2115.079365
20
500.000000
30
0.000000
40
2500.000000
1
XX
7
texto
72
2
11
1000.000000
21
500.000000
31
0.000000
100
AcDbAttributeDefinition
3

2
condutor
70
0
280
0
0
ATTDEF
5
175
330
729
100
AcDbEntity
8
0
60
1
100
AcDbText
10
-130.952381
20
500.000000
30
0.000000
40
2500.000000
1
a
7
texto
72
2
11
1000.000000
21
500.000000
31
0.000000
100
AcDbAttributeDefinition
3

2
rev
70
1
280
0
0
ENDBLK
5
176
330
16F
100
AcDbEntity
8
0
100
AcDbBlockEnd
0
BLOCK
5
17F
330
17E
100
AcDbEntity
8
0
100
AcDbBlockBegin
2
cond_dest
70
0
10
0.000000
20
0.000000
30
0.000000
3
cond_dest
1

0
LINE
5
180
330
733
100
AcDbEntity
8
0
100
AcDbLine
10
0.000000
20
0.000000
30
0.000000
11
2000.000000
21
0.000000
31
0.000000
0
LINE
5
181
330
733
100
AcDbEntity
8
0
100
AcDbLine
10
18000.000000
20
0.000000
30
0.000000
11
20000.000000
21
0.000000
31
0.000000
0
ATTDEF
5
182
330
733
100
AcDbEntity
8
0
60
1
100
AcDbText
10
5069.444444
20
-1250.000000
30
0.000000
40
2500.000000
1
00X000
7
texto
72
1
11
10000.000000
21
0.000000
31
0.000000
100
AcDbAttributeDefinition
3

2
cabo
70
1
74
2
280
0
0
ATTDEF
5
183
330
733
100
AcDbEntity
8
0
60
1
100
AcDbText
10
4950.396825
20
-1250.000000
30
0.000000
40
2500.000000
1
OO.XXX
7
texto
72
1
11
10000.000000
21
0.000000
31
0.000000
100
AcDbAttributeDefinition
3

2
orig
70
1
74
2
280
0
0
ATTDEF
5
184
330
733
100
AcDbEntity
8
0
100
AcDbText
10
4950.396825
20
-1250.000000
30
0.000000
40
2500.000000
1
DD.XXX
7
texto
72
1
11
10000.000000
21
0.000000
31
0.000000
100
AcDbAttributeDefinition
3

2
dest
70
0
74
2
280
0
0
ATTDEF
5
185
330
733
100
AcDbEntity
8
0
60
1
100
AcDbText
10
8442.460317
20
-1250.000000
30
0.000000
40
2500.000000
1
XX
7
texto
72
1
11
10000.000000
21
0.000000
31
0.000000
100
AcDbAttributeDefinition
3

2
condutor
70
1
74
2
280
0
0
ATTDEF
5
186
330
733
100
AcDbEntity
8
0
60
1
100
AcDbText
10
9434.523810
20
-1250.000000
30
0.000000
40
2500.000000
1
a
7
texto
72
1
11
10000.000000
21
0.000000
31
0.000000
100
AcDbAttributeDefinition
3

2
rev
70
1
74
2
280
0
0
ENDBLK
5
187
330
17F
100
AcDbEntity
8
0
100
AcDbBlockEnd
0
BLOCK
5
190
330
18F
100
AcDbEntity
8
0
100
AcDbBlockBegin
2
cabo_engate
70
0
10
0.000000
20
0.000000
30
0.000000
3
cabo_engate
1

0
ARC
5
191
330
73D
100
AcDbEntity
8
0
100
AcDbCircle
10
0.000000
20
-5000.000000
30
0.000000
40
2000.000000
210
0.000000
220
0.000000
230
-1.000000
100
AcDbArc
50
270.000000
51
0.000000
0
LINE
5
192
330
73D
100
AcDbEntity
8
0
100
AcDbLine
10
0.000000
20
-7000.000000
30
0.000000
11
3000.000000
21
-7000.000000
31
0.000000
0
CIRCLE
5
193
330
73D
100
AcDbEntity
8
0
100
AcDbCircle
10
6000.000000
20
-7000.000000
30
0.000000
40
3000.000000
0
LINE
5
194
330
73D
100
AcDbEntity
8
0
100
AcDbLine
10
-2000.000000
20
-5000.000000
30
0.000000
11
-2000.000000
21
-2000.000000
31
0.000000
0
ARC
5
195
330
73D
100
AcDbEntity
8
0
100
AcDbCircle
10
0.000000
20
-2000.000000
30
0.000000
40
2000.000000
100
AcDbArc
50
90.000000
51
180.000000
0
ATTDEF
5
196
330
73D
100
AcDbEntity
8
0
60
1
100
AcDbText
10
11000.000000
20
-8250.000000
30
0.000000
40
2500.000000
1
00X000
7
texto
11
11000.000000
21
-7000.000000
31
0.000000
100
AcDbAttributeDefinition
3

2
cabo
70
1
74
2
280
0
0
ATTDEF
5
197
330
73D
100
AcDbEntity
8
0
100
AcDbText
10
11000.000000
20
-8250.000000
30
0.000000
40
2500.000000
1
FL. X
7
texto
11
11000.000000
21
-7000.000000
31
0.000000
100
AcDbAttributeDefinition
3

2
fl
70
0
74
2
280
0
0
ATTDEF
5
198
330
73D
100
AcDbEntity
8
0
60
1
100
AcDbText
10
11000.000000
20
-8250.000000
30
0.000000
40
2500.000000
1
a
7
texto
11
11000.000000
21
-7000.000000
31
0.000000
100
AcDbAttributeDefinition
3

2
rev
70
1
74
2
280
0
0
ATTDEF
5
199
330
73D
100
AcDbEntity
8
0
100
AcDbText
10
3569.444444
20
-8250.000000
30
0.000000
40
2500.000000
1
EXX
7
texto
72
1
11
6000.000000
21
-7000.000000
31
0.000000
100
AcDbAttributeDefinition
3

2
engate
70
0
74
2
280
0
0
ENDBLK
5
19A
330
190
100
AcDbEntity
8
0
100
AcDbBlockEnd
0
BLOCK
5
1A2
330
1A1
100
AcDbEntity
8
0
100
AcDbBlockBegin
2
i_cond_dest
70
0
10
0.000000
20
0.000000
30
0.000000
3
i_cond_dest
1

0
LINE
5
1A3
330
746
100
AcDbEntity
8
0
100
AcDbLine
10
0.000000
20
0.000000
30
0.000000
11
-2000.000000
21
0.000000
31
0.000000
0
LINE
5
1A4
330
746
100
AcDbEntity
8
0
100
AcDbLine
10
-18000.000000
20
0.000000
30
0.000000
11
-20000.000000
21
0.000000
31
0.000000
0
ATTDEF
5
1A5
330
746
100
AcDbEntity
8
0
60
1
100
AcDbText
10
-14930.555556
20
-1250.000000
30
0.000000
40
2500.000000
1
00X000
7
texto
72
1
11
-10000.000000
21
0.000000
31
0.000000
100
AcDbAttributeDefinition
3

2
cabo
70
1
74
2
280
0
0
ATTDEF
5
1A6
330
746
100
AcDbEntity
8
0
60
1
100
AcDbText
10
-15049.603175
20
-1250.000000
30
0.000000
40
2500.000000
1
OO.XXX
7
texto
72
1
11
-10000.000000
21
0.000000
31
0.000000
100
AcDbAttributeDefinition
3

2
orig
70
1
74
2
280
0
0
ATTDEF
5
1A7
330
746
100
AcDbEntity
8
0
100
AcDbText
10
-15049.603175
20
-1250.000000
30
0.000000
40
2500.000000
1
DD.XXX
7
texto
72
1
11
-10000.000000
21
0.000000
31
0.000000
100
AcDbAttributeDefinition
3

2
dest
70
0
74
2
280
0
0
ATTDEF
5
1A8
330
746
100
AcDbEntity
8
0
60
1
100
AcDbText
10
-11557.539683
20
-1250.000000
30
0.000000
40
2500.000000
1
XX
7
texto
72
1
11
-10000.000000
21
0.000000
31
0.000000
100
AcDbAttributeDefinition
3

2
condutor
70
1
74
2
280
0
0
ATTDEF
5
1A9
330
746
100
AcDbEntity
8
0
60
1
100
AcDbText
10
-10565.476190
20
-1250.000000
30
0.000000
40
2500.000000
1
a
7
texto
72
1
11
-10000.000000
21
0.000000
31
0.000000
100
AcDbAttributeDefinition
3

2
rev
70
1
74
2
280
0
0
ENDBLK
5
1AA
330
1A2
100
AcDbEntity
8
0
100
AcDbBlockEnd
0
BLOCK
5
1B3
330
1B2
100
AcDbEntity
8
0
100
AcDbBlockBegin
2
i_cond_id
70
0
10
0.000000
20
0.000000
30
0.000000
3
i_cond_id
1

0
LINE
5
1B4
330
750
100
AcDbEntity
8
0
100
AcDbLine
10
0.000000
20
0.000000
30
0.000000
11
-2000.000000
21
0.000000
31
0.000000
0
ATTDEF
5
1B5
330
750
100
AcDbEntity
8
0
60
1
100
AcDbText
10
-4930.555556
20
-1250.000000
30
0.000000
40
2500.000000
1
00X000
7
texto
72
1
11
0.000000
21
0.000000
31
0.000000
100
AcDbAttributeDefinition
3

2
cabo
70
1
74
2
280
0
0
ATTDEF
5
1B6
330
750
100
AcDbEntity
8
0
60
1
100
AcDbText
10
-5049.603175
20
-1250.000000
30
0.000000
40
2500.000000
1
OO.XXX
7
texto
72
1
11
0.000000
21
0.000000
31
0.000000
100
AcDbAttributeDefinition
3

2
orig
70
1
74
2
280
0
0
ATTDEF
5
1B7
330
750
100
AcDbEntity
8
0
60
1
100
AcDbText
10
-5049.603175
20
-1250.000000
30
0.000000
40
2500.000000
1
DD.XXX
7
texto
72
1
11
0.000000
21
0.000000
31
0.000000
100
AcDbAttributeDefinition
3

2
dest
70
1
74
2
280
0
0
ATTDEF
5
1B8
330
750
100
AcDbEntity
8
0
100
AcDbText
10
0.000000
20
0.000000
30
0.000000
40
2500.000000
1
XX
7
texto
100
AcDbAttributeDefinition
3

2
condutor
70
0
280
0
0
ATTDEF
5
1B9
330
750
100
AcDbEntity
8
0
60
1
100
AcDbText
10
-565.476190
20
-1250.000000
30
0.000000
40
2500.000000
1
a
7
texto
72
1
11
0.000000
21
0.000000
31
0.000000
100
AcDbAttributeDefinition
3

2
rev
70
1
74
2
280
0
0
ENDBLK
5
1BA
330
1B3
100
AcDbEntity
8
0
100
AcDbBlockEnd
0
BLOCK
5
1C5
330
1C4
100
AcDbEntity
8
0
100
AcDbBlockBegin
2
i_cabo
70
0
10
0.000000
20
0.000000
30
0.000000
3
i_cabo
1

0
LWPOLYLINE
5
1C6
330
75A
100
AcDbEntity
8
0
100
AcDbPolyline
90
5
70
129
43
0.000000
10
-4000.000000
20
-3000.000000
10
-28000.000000
20
-3000.000000
10
-28000.000000
20
3000.000000
10
-4000.000000
20
3000.000000
10
-4000.000000
20
-3000.000000
0
LINE
5
1C7
330
75A
100
AcDbEntity
8
0
100
AcDbLine
10
-22000.000000
20
3000.000000
30
0.000000
11
-22000.000000
21
-3000.000000
31
0.000000
0
LINE
5
1C8
330
75A
100
AcDbEntity
8
0
100
AcDbLine
10
-4000.000000
20
0.000000
30
0.000000
11
0.000000
21
0.000000
31
0.000000
0
CIRCLE
5
1C9
330
75A
100
AcDbEntity
8
0
100
AcDbCircle
10
-2000.000000
20
0.000000
30
0.000000
40
700.000000
0
LINE
5
1CA
330
75A
100
AcDbEntity
8
0
100
AcDbLine
10
-2000.000000
20
-700.000000
30
0.000000
11
-2000.000000
21
-1400.000000
31
0.000000
0
LINE
5
1CB
330
75A
100
AcDbEntity
8
0
100
AcDbLine
10
-1339.621631
20
-1900.000000
30
0.000000
11
-2660.378369
21
-1900.000000
31
0.000000
0
LINE
5
1CC
330
75A
100
AcDbEntity
8
0
100
AcDbLine
10
-1000.000000
20
-1400.000000
30
0.000000
11
-3000.000000
21
-1400.000000
31
0.000000
0
LINE
5
1CD
330
75A
100
AcDbEntity
8
0
100
AcDbLine
10
-1665.794171
20
-2400.000000
30
0.000000
11
-2334.205829
21
-2400.000000
31
0.000000
0
ATTDEF
5
1CE
330
75A
100
AcDbEntity
8
0
100
AcDbText
10
-17930.555556
20
-1250.000000
30
0.000000
40
2500.000000
1
00X000
7
texto
72
1
11
-13000.000000
21
0.000000
31
0.000000
100
AcDbAttributeDefinition
3

2
cabo
70
0
74
2
280
0
0
ATTDEF
5
1CF
330
75A
100
AcDbEntity
8
0
100
AcDbText
10
-39353.174603
20
1750.000000
30
0.000000
40
2500.000000
1
DESCR
7
texto
72
2
11
-31000.000000
21
3000.000000
31
0.000000
100
AcDbAttributeDefinition
3

2
descr
70
0
74
2
280
0
0
ATTDEF
5
1D0
330
75A
100
AcDbEntity
8
0
100
AcDbText
10
-42845.238095
20
-1250.000000
30
0.000000
40
2500.000000
1
DESENHO
7
texto
72
2
11
-31000.000000
21
0.000000
31
0.000000
100
AcDbAttributeDefinition
3

2
des
70
0
74
2
280
0
0
ATTDEF
5
1D1
330
75A
100
AcDbEntity
8
0
100
AcDbText
10
-39353.174603
20
-4250.000000
30
0.000000
40
2500.000000
1
FL. X
7
texto
72
2
11
-31000.000000
21
-3000.000000
31
0.000000
100
AcDbAttributeDefinition
3

2
fl
70
0
74
2
280
0
0
ATTDEF
5
1D2
330
75A
100
AcDbEntity
8
0
100
AcDbText
10
-26557.539683
20
-1250.000000
30
0.000000
40
2500.000000
1
NN
7
texto
72
1
11
-25000.000000
21
0.000000
31
0.000000
100
AcDbAttributeDefinition
3

2
num_cond
70
0
74
2
280
0
0
ATTDEF
5
1D3
330
75A
100
AcDbEntity
8
0
60
1
100
AcDbText
10
-13565.476190
20
-1250.000000
30
0.000000
40
2500.000000
1
a
7
texto
72
1
11
-13000.000000
21
0.000000
31
0.000000
100
AcDbAttributeDefinition
3

2
rev
70
1
74
2
280
0
0
ENDBLK
5
1D4
330
1C5
100
AcDbEntity
8
0
100
AcDbBlockEnd
0
BLOCK
5
1DE
330
1DD
100
AcDbEntity
8
0
100
AcDbBlockBegin
2
i_cabo_engate
70
0
10
0.000000
20
0.000000
30
0.000000
3
i_cabo_engate
1

0
ARC
5
1DF
330
765
100
AcDbEntity
8
0
100
AcDbCircle
10
0.000000
20
-5000.000000
30
0.000000
40
2000.000000
100
AcDbArc
50
270.000000
51
0.000000
0
LINE
5
1E0
330
765
100
AcDbEntity
8
0
100
AcDbLine
10
0.000000
20
-7000.000000
30
0.000000
11
-3000.000000
21
-7000.000000
31
0.000000
0
CIRCLE
5
1E1
330
765
100
AcDbEntity
8
0
100
AcDbCircle
10
-6000.000000
20
-7000.000000
30
0.000000
40
3000.000000
0
LINE
5
1E2
330
765
100
AcDbEntity
8
0
100
AcDbLine
10
2000.000000
20
-5000.000000
30
0.000000
11
2000.000000
21
-2000.000000
31
0.000000
0
ARC
5
1E3
330
765
100
AcDbEntity
8
0
100
AcDbCircle
10
0.000000
20
-2000.000000
30
0.000000
40
2000.000000
210
0.000000
220
0.000000
230
-1.000000
100
AcDbArc
50
90.000000
51
180.000000
0
ATTDEF
5
1E4
330
765
100
AcDbEntity
8
0
60
1
100
AcDbText
10
-10930.555556
20
-8250.000000
30
0.000000
40
2500.000000
1
00X000
7
texto
72
1
11
-6000.000000
21
-7000.000000
31
0.000000
100
AcDbAttributeDefinition
3

2
cabo
70
1
74
2
280
0
0
ATTDEF
5
1E5
330
765
100
AcDbEntity
8
0
100
AcDbText
10
-19353.174603
20
-8250.000000
30
0.000000
40
2500.000000
1
FL. X
7
texto
72
2
11
-11000.000000
21
-7000.000000
31
0.000000
100
AcDbAttributeDefinition
3

2
fl
70
0
74
2
280
0
0
ATTDEF
5
1E6
330
765
100
AcDbEntity
8
0
60
1
100
AcDbText
10
-6565.476190
20
-8250.000000
30
0.000000
40
2500.000000
1
a
7
texto
72
1
11
-6000.000000
21
-7000.000000
31
0.000000
100
AcDbAttributeDefinition
3

2
rev
70
1
74
2
280
0
0
ATTDEF
5
1E7
330
765
100
AcDbEntity
8
0
100
AcDbText
10
-8430.555556
20
-8250.000000
30
0.000000
40
2500.000000
1
EXX
7
texto
72
1
11
-6000.000000
21
-7000.000000
31
0.000000
100
AcDbAttributeDefinition
3

2
engate
70
0
74
2
280
0
0
ENDBLK
5
1E8
330
1DE
100
AcDbEntity
8
0
100
AcDbBlockEnd
0
ENDSEC
0
SECTION
2
ENTITIES
0
LWPOLYLINE
5
24
330
619
100
AcDbEntity
8
0
100
AcDbPolyline
90
5
70
129
43
0.000000
10
0.000000
20
0.000000
10
32.000000
20
0.000000
10
32.000000
20
72.000000
10
0.000000
20
72.000000
10
0.000000
20
0.000000
0
INSERT
5
2D
330
619
100
AcDbEntity
8
0
100
AcDbBlockReference
66
1
2
esquematico
10
16.000000
20
6.000000
30
0.000000
41
0.001000
42
0.001000
43
0.001000
50
0.000000
0
ATTRIB
5
2E
330
3B1
100
AcDbEntity
8
0
100
AcDbText
10
13.819444
20
27.000000
30
0.000000
40
3.500000
1
XA
50
0.000000
7
texto
72
1
11
16.000000
21
27.000000
31
0.000000
100
AcDbAttribute
2
id
70
1
280
0
0
ATTRIB
5
2F
330
3B1
100
AcDbEntity
8
0
100
AcDbText
10
11.458333
20
6.800000
30
0.000000
40
3.500000
1
27CC
50
0.000000
7
texto
72
1
11
16.000000
21
6.800000
31
0.000000
100
AcDbAttribute
2
esquematico
70
0
280
0
0
ATTRIB
5
30
330
3B1
100
AcDbEntity
8
0
100
AcDbText
10
15.041667
20
1.700000
30
0.000000
40
3.500000
1
X
50
0.000000
7
texto
72
1
11
16.000000
21
5.200000
31
0.000000
100
AcDbAttribute
2
esq_inf
70
0
74
3
280
0
0
ATTRIB
5
31
330
3B1
100
AcDbEntity
8
0
100
AcDbText
10
15.208333
20
20.000000
30
0.000000
40
3.500000
1
a
50
0.000000
7
texto
72
1
11
16.000000
21
20.000000
31
0.000000
100
AcDbAttribute
2
rev
70
1
280
0
0
SEQEND
5
32
330
3B1
100
AcDbEntity
8
0
0
INSERT
5
3B
330
619
100
AcDbEntity
8
0
100
AcDbBlockReference
66
1
2
terminal
10
6.500000
20
61.000000
30
0.000000
41
0.001000
42
0.001000
43
0.001000
50
0.000000
0
ATTRIB
5
3C
330
3B7
100
AcDbEntity
8
0
100
AcDbText
10
4.319444
20
71.500000
30
0.000000
40
3.500000
1
XA
50
0.000000
7
texto
72
1
11
6.500000
21
75.000000
31
0.000000
100
AcDbAttribute
2
id
70
1
74
3
280
0
0
ATTRIB
5
3D
330
3B7
100
AcDbEntity
8
0
100
AcDbText
10
4.626984
20
59.750000
30
0.000000
40
2.500000
1
1
50
0.000000
7
texto
72
2
11
5.500000
21
61.000000
31
0.000000
100
AcDbAttribute
2
terminal
70
0
74
2
280
0
0
ATTRIB
5
3E
330
3B7
100
AcDbEntity
8
0
100
AcDbText
10
8.800000
20
59.750000
30
0.000000
40
2.500000
1
-
50
0.000000
7
texto
11
8.800000
21
61.000000
31
0.000000
100
AcDbAttribute
2
ligacao
70
0
74
2
280
0
0
ATTRIB
5
3F
330
3B7
100
AcDbEntity
8
0
100
AcDbText
10
5.708333
20
64.500000
30
0.000000
40
3.500000
1
a
50
0.000000
7
texto
72
1
11
6.500000
21
68.000000
31
0.000000
100
AcDbAttribute
2
rev
70
1
74
3
280
0
0
SEQEND
5
40
330
3B7
100
AcDbEntity
8
0
0
INSERT
5
47
330
619
100
AcDbEntity
8
0
100
AcDbBlockReference
66
1
2
fiacao
10
16.000000
20
66.000000
30
0.000000
41
0.001000
42
0.001000
43
0.001000
50
0.000000
0
ATTRIB
5
48
330
3BD
100
AcDbEntity
8
0
100
AcDbText
10
13.819444
20
66.800000
30
0.000000
40
3.500000
1
XA
50
0.000000
7
texto
72
1
11
16.000000
21
66.800000
31
0.000000
100
AcDbAttribute
2
id
70
0
280
0
0
ATTRIB
5
49
330
3BD
100
AcDbEntity
8
0
100
AcDbText
10
15.208333
20
69.500000
30
0.000000
40
3.500000
1
a
50
0.000000
7
texto
72
1
11
16.000000
21
73.000000
31
0.000000
100
AcDbAttribute
2
rev
70
1
74
3
280
0
0
SEQEND
5
4A
330
3BD
100
AcDbEntity
8
0
0
INSERT
5
52
330
619
100
AcDbEntity
8
0
100
AcDbBlockReference
66
1
2
le
10
32.000000
20
72.000000
30
0.000000
41
0.001000
42
0.001000
43
0.001000
50
0.000000
0
ATTRIB
5
53
330
3C1
100
AcDbEntity
8
0
100
AcDbText
10
29.819444
20
82.500000
30
0.000000
40
3.500000
1
XA
50
0.000000
7
texto
72
1
11
32.000000
21
86.000000
31
0.000000
100
AcDbAttribute
2
id
70
1
74
3
280
0
0
ATTRIB
5
54
330
3C1
100
AcDbEntity
8
0
100
AcDbText
10
26.111111
20
69.000000
30
0.000000
40
2.000000
1
(--)
50
0.000000
7
texto
72
2
11
31.000000
21
71.000000
31
0.000000
100
AcDbAttribute
2
le
70
0
74
3
280
0
0
ATTRIB
5
55
330
3C1
100
AcDbEntity
8
0
100
AcDbText
10
31.208333
20
75.500000
30
0.000000
40
3.500000
1
a
50
0.000000
7
texto
72
1
11
32.000000
21
79.000000
31
0.000000
100
AcDbAttribute
2
rev
70
1
74
3
280
0
0
SEQEND
5
56
330
3C1
100
AcDbEntity
8
0
0
INSERT
5
61
330
619
100
AcDbEntity
8
0
100
AcDbBlockReference
66
1
2
borne
10
47.000000
20
72.000000
30
0.000000
41
0.001000
42
0.001000
43
0.001000
50
0.000000
0
ATTRIB
5
62
330
3C6
100
AcDbEntity
8
0
100
AcDbText
10
43.000000
20
78.000000
30
0.000000
40
2.000000
1
A
50
0.000000
7
texto
11
43.000000
21
79.000000
31
0.000000
100
AcDbAttribute
2
id
70
1
74
2
280
0
0
ATTRIB
5
63
330
3C6
100
AcDbEntity
8
0
100
AcDbText
10
52.563492
20
67.750000
30
0.000000
40
2.500000
1
1
50
0.000000
7
texto
72
1
11
53.000000
21
69.000000
31
0.000000
100
AcDbAttribute
2
terminal
70
0
74
2
280
0
0
ATTRIB
5
64
330
3C6
100
AcDbEntity
8
0
100
AcDbText
10
40.750000
20
67.750000
30
0.000000
40
2.500000
1
-
50
0.000000
7
texto
72
2
11
42.000000
21
69.000000
31
0.000000
100
AcDbAttribute
2
ligacao
70
0
74
2
280
0
0
ATTRIB
5
65
330
3C6
100
AcDbEntity
8
0
100
AcDbText
10
43.000000
20
74.000000
30
0.000000
40
2.000000
1
a
50
0.000000
7
texto
11
43.000000
21
75.000000
31
0.000000
100
AcDbAttribute
2
rev
70
1
74
2
280
0
0
SEQEND
5
66
330
3C6
100
AcDbEntity
8
0
0
INSERT
5
71
330
619
100
AcDbEntity
8
0
100
AcDbBlockReference
66
1
2
sec_e
10
84.000000
20
72.000000
30
0.000000
41
0.001000
42
0.001000
43
0.001000
50
0.000000
0
ATTRIB
5
72
330
3CE
100
AcDbEntity
8
0
100
AcDbText
10
74.000000
20
78.000000
30
0.000000
40
2.000000
1
K1
50
0.000000
7
texto
11
74.000000
21
79.000000
31
0.000000
100
AcDbAttribute
2
id
70
1
74
2
280
0
0
ATTRIB
5
73
330
3CE
100
AcDbEntity
8
0
100
AcDbText
10
74.000000
20
70.000000
30
0.000000
40
2.000000
1
1E
50
0.000000
7
texto
11
74.000000
21
71.000000
31
0.000000
100
AcDbAttribute
2
terminal
70
1
74
2
280
0
0
ATTRIB
5
74
330
3CE
100
AcDbEntity
8
0
100
AcDbText
10
71.750000
20
67.750000
30
0.000000
40
2.500000
1
-
50
0.000000
7
texto
72
2
11
73.000000
21
69.000000
31
0.000000
100
AcDbAttribute
2
ligacao
70
0
74
2
280
0
0
ATTRIB
5
75
330
3CE
100
AcDbEntity
8
0
100
AcDbText
10
74.000000
20
74.000000
30
0.000000
40
2.000000
1
a
50
0.000000
7
texto
11
74.000000
21
75.000000
31
0.000000
100
AcDbAttribute
2
rev
70
1
74
2
280
0
0
SEQEND
5
76
330
3CE
100
AcDbEntity
8
0
0
INSERT
5
7E
330
619
100
AcDbEntity
8
0
100
AcDbBlockReference
66
1
2
sec_central
10
84.000000
20
72.000000
30
0.000000
41
0.001000
42
0.001000
43
0.001000
50
0.000000
0
ATTRIB
5
7F
330
3D6
100
AcDbEntity
8
0
100
AcDbText
10
90.000000
20
73.000000
30
0.000000
40
2.000000
1
K1
50
0.000000
7
texto
11
90.000000
21
74.000000
31
0.000000
100
AcDbAttribute
2
id
70
1
74
2
280
0
0
ATTRIB
5
80
330
3D6
100
AcDbEntity
8
0
100
AcDbText
10
89.563492
20
67.750000
30
0.000000
40
2.500000
1
1
50
0.000000
7
texto
72
1
11
90.000000
21
69.000000
31
0.000000
100
AcDbAttribute
2
num
70
0
74
2
280
0
0
ATTRIB
5
81
330
3D6
100
AcDbEntity
8
0
100
AcDbText
10
90.000000
20
69.000000
30
0.000000
40
2.000000
1
a
50
0.000000
7
texto
11
90.000000
21
70.000000
31
0.000000
100
AcDbAttribute
2
rev
70
1
74
2
280
0
0
SEQEND
5
82
330
3D6
100
AcDbEntity
8
0
0
INSERT
5
8D
330
619
100
AcDbEntity
8
0
100
AcDbBlockReference
66
1
2
sec_s
10
96.000000
20
72.000000
30
0.000000
41
0.001000
42
0.001000
43
0.001000
50
0.000000
0
ATTRIB
5
8E
330
3DB
100
AcDbEntity
8
0
100
AcDbText
10
106.000000
20
78.000000
30
0.000000
40
2.000000
1
K1
50
0.000000
7
texto
11
106.000000
21
79.000000
31
0.000000
100
AcDbAttribute
2
id
70
1
74
2
280
0
0
ATTRIB
5
8F
330
3DB
100
AcDbEntity
8
0
100
AcDbText
10
106.000000
20
70.000000
30
0.000000
40
2.000000
1
1S
50
0.000000
7
texto
11
106.000000
21
71.000000
31
0.000000
100
AcDbAttribute
2
terminal
70
1
74
2
280
0
0
ATTRIB
5
90
330
3DB
100
AcDbEntity
8
0
100
AcDbText
10
107.000000
20
67.750000
30
0.000000
40
2.500000
1
-
50
0.000000
7
texto
11
107.000000
21
69.000000
31
0.000000
100
AcDbAttribute
2
ligacao
70
0
74
2
280
0
0
ATTRIB
5
91
330
3DB
100
AcDbEntity
8
0
100
AcDbText
10
106.000000
20
74.000000
30
0.000000
40
2.000000
1
a
50
0.000000
7
texto
11
106.000000
21
75.000000
31
0.000000
100
AcDbAttribute
2
rev
70
1
74
2
280
0
0
SEQEND
5
92
330
3DB
100
AcDbEntity
8
0
0
INSERT
5
93
330
619
100
AcDbEntity
8
0
100
AcDbBlockReference
66
1
2
borne
10
47.000000
20
66.000000
30
0.000000
41
0.001000
42
0.001000
43
0.001000
50
0.000000
0
ATTRIB
5
94
330
3E3
100
AcDbEntity
8
0
100
AcDbText
10
43.000000
20
72.000000
30
0.000000
40
2.000000
1
A
50
0.000000
7
texto
11
43.000000
21
73.000000
31
0.000000
100
AcDbAttribute
2
id
70
1
74
2
280
0
0
ATTRIB
5
95
330
3E3
100
AcDbEntity
8
0
100
AcDbText
10
52.563492
20
61.750000
30
0.000000
40
2.500000
1
1
50
0.000000
7
texto
72
1
11
53.000000
21
63.000000
31
0.000000
100
AcDbAttribute
2
terminal
70
0
74
2
280
0
0
ATTRIB
5
96
330
3E3
100
AcDbEntity
8
0
100
AcDbText
10
40.750000
20
61.750000
30
0.000000
40
2.500000
1
-
50
0.000000
7
texto
72
2
11
42.000000
21
63.000000
31
0.000000
100
AcDbAttribute
2
ligacao
70
0
74
2
280
0
0
ATTRIB
5
97
330
3E3
100
AcDbEntity
8
0
100
AcDbText
10
43.000000
20
68.000000
30
0.000000
40
2.000000
1
a
50
0.000000
7
texto
11
43.000000
21
69.000000
31
0.000000
100
AcDbAttribute
2
rev
70
1
74
2
280
0
0
SEQEND
5
98
330
3E3
100
AcDbEntity
8
0
0
INSERT
5
99
330
619
100
AcDbEntity
8
0
100
AcDbBlockReference
66
1
2
borne
10
47.000000
20
60.000000
30
0.000000
41
0.001000
42
0.001000
43
0.001000
50
0.000000
0
ATTRIB
5
9A
330
3EB
100
AcDbEntity
8
0
100
AcDbText
10
43.000000
20
66.000000
30
0.000000
40
2.000000
1
A
50
0.000000
7
texto
11
43.000000
21
67.000000
31
0.000000
100
AcDbAttribute
2
id
70
1
74
2
280
0
0
ATTRIB
5
9B
330
3EB
100
AcDbEntity
8
0
100
AcDbText
10
52.563492
20
55.750000
30
0.000000
40
2.500000
1
1
50
0.000000
7
texto
72
1
11
53.000000
21
57.000000
31
0.000000
100
AcDbAttribute
2
terminal
70
0
74
2
280
0
0
ATTRIB
5
9C
330
3EB
100
AcDbEntity
8
0
100
AcDbText
10
40.750000
20
55.750000
30
0.000000
40
2.500000
1
-
50
0.000000
7
texto
72
2
11
42.000000
21
57.000000
31
0.000000
100
AcDbAttribute
2
ligacao
70
0
74
2
280
0
0
ATTRIB
5
9D
330
3EB
100
AcDbEntity
8
0
100
AcDbText
10
43.000000
20
62.000000
30
0.000000
40
2.000000
1
a
50
0.000000
7
texto
11
43.000000
21
63.000000
31
0.000000
100
AcDbAttribute
2
rev
70
1
74
2
280
0
0
SEQEND
5
9E
330
3EB
100
AcDbEntity
8
0
0
INSERT
5
9F
330
619
100
AcDbEntity
8
0
100
AcDbBlockReference
66
1
2
borne
10
47.000000
20
54.000000
30
0.000000
41
0.001000
42
0.001000
43
0.001000
50
0.000000
0
ATTRIB
5
A0
330
3F3
100
AcDbEntity
8
0
100
AcDbText
10
43.000000
20
60.000000
30
0.000000
40
2.000000
1
A
50
0.000000
7
texto
11
43.000000
21
61.000000
31
0.000000
100
AcDbAttribute
2
id
70
1
74
2
280
0
0
ATTRIB
5
A1
330
3F3
100
AcDbEntity
8
0
100
AcDbText
10
52.563492
20
49.750000
30
0.000000
40
2.500000
1
1
50
0.000000
7
texto
72
1
11
53.000000
21
51.000000
31
0.000000
100
AcDbAttribute
2
terminal
70
0
74
2
280
0
0
ATTRIB
5
A2
330
3F3
100
AcDbEntity
8
0
100
AcDbText
10
40.750000
20
49.750000
30
0.000000
40
2.500000
1
-
50
0.000000
7
texto
72
2
11
42.000000
21
51.000000
31
0.000000
100
AcDbAttribute
2
ligacao
70
0
74
2
280
0
0
ATTRIB
5
A3
330
3F3
100
AcDbEntity
8
0
100
AcDbText
10
43.000000
20
56.000000
30
0.000000
40
2.000000
1
a
50
0.000000
7
texto
11
43.000000
21
57.000000
31
0.000000
100
AcDbAttribute
2
rev
70
1
74
2
280
0
0
SEQEND
5
A4
330
3F3
100
AcDbEntity
8
0
0
INSERT
5
A5
330
619
100
AcDbEntity
8
0
100
AcDbBlockReference
66
1
2
borne
10
47.000000
20
48.000000
30
0.000000
41
0.001000
42
0.001000
43
0.001000
50
0.000000
0
ATTRIB
5
A6
330
3FB
100
AcDbEntity
8
0
100
AcDbText
10
43.000000
20
54.000000
30
0.000000
40
2.000000
1
A
50
0.000000
7
texto
11
43.000000
21
55.000000
31
0.000000
100
AcDbAttribute
2
id
70
1
74
2
280
0
0
ATTRIB
5
A7
330
3FB
100
AcDbEntity
8
0
100
AcDbText
10
52.563492
20
43.750000
30
0.000000
40
2.500000
1
1
50
0.000000
7
texto
72
1
11
53.000000
21
45.000000
31
0.000000
100
AcDbAttribute
2
terminal
70
0
74
2
280
0
0
ATTRIB
5
A8
330
3FB
100
AcDbEntity
8
0
100
AcDbText
10
40.750000
20
43.750000
30
0.000000
40
2.500000
1
-
50
0.000000
7
texto
72
2
11
42.000000
21
45.000000
31
0.000000
100
AcDbAttribute
2
ligacao
70
0
74
2
280
0
0
ATTRIB
5
A9
330
3FB
100
AcDbEntity
8
0
100
AcDbText
10
43.000000
20
50.000000
30
0.000000
40
2.000000
1
a
50
0.000000
7
texto
11
43.000000
21
51.000000
31
0.000000
100
AcDbAttribute
2
rev
70
1
74
2
280
0
0
SEQEND
5
AA
330
3FB
100
AcDbEntity
8
0
0
INSERT
5
AB
330
619
100
AcDbEntity
8
0
100
AcDbBlockReference
66
1
2
borne
10
47.000000
20
42.000000
30
0.000000
41
0.001000
42
0.001000
43
0.001000
50
0.000000
0
ATTRIB
5
AC
330
403
100
AcDbEntity
8
0
100
AcDbText
10
43.000000
20
48.000000
30
0.000000
40
2.000000
1
A
50
0.000000
7
texto
11
43.000000
21
49.000000
31
0.000000
100
AcDbAttribute
2
id
70
1
74
2
280
0
0
ATTRIB
5
AD
330
403
100
AcDbEntity
8
0
100
AcDbText
10
52.563492
20
37.750000
30
0.000000
40
2.500000
1
1
50
0.000000
7
texto
72
1
11
53.000000
21
39.000000
31
0.000000
100
AcDbAttribute
2
terminal
70
0
74
2
280
0
0
ATTRIB
5
AE
330
403
100
AcDbEntity
8
0
100
AcDbText
10
40.750000
20
37.750000
30
0.000000
40
2.500000
1
-
50
0.000000
7
texto
72
2
11
42.000000
21
39.000000
31
0.000000
100
AcDbAttribute
2
ligacao
70
0
74
2
280
0
0
ATTRIB
5
AF
330
403
100
AcDbEntity
8
0
100
AcDbText
10
43.000000
20
44.000000
30
0.000000
40
2.000000
1
a
50
0.000000
7
texto
11
43.000000
21
45.000000
31
0.000000
100
AcDbAttribute
2
rev
70
1
74
2
280
0
0
SEQEND
5
B0
330
403
100
AcDbEntity
8
0
0
INSERT
5
B1
330
619
100
AcDbEntity
8
0
100
AcDbBlockReference
66
1
2
borne
10
47.000000
20
36.000000
30
0.000000
41
0.001000
42
0.001000
43
0.001000
50
0.000000
0
ATTRIB
5
B2
330
40B
100
AcDbEntity
8
0
100
AcDbText
10
43.000000
20
42.000000
30
0.000000
40
2.000000
1
A
50
0.000000
7
texto
11
43.000000
21
43.000000
31
0.000000
100
AcDbAttribute
2
id
70
1
74
2
280
0
0
ATTRIB
5
B3
330
40B
100
AcDbEntity
8
0
100
AcDbText
10
52.563492
20
31.750000
30
0.000000
40
2.500000
1
1
50
0.000000
7
texto
72
1
11
53.000000
21
33.000000
31
0.000000
100
AcDbAttribute
2
terminal
70
0
74
2
280
0
0
ATTRIB
5
B4
330
40B
100
AcDbEntity
8
0
100
AcDbText
10
40.750000
20
31.750000
30
0.000000
40
2.500000
1
-
50
0.000000
7
texto
72
2
11
42.000000
21
33.000000
31
0.000000
100
AcDbAttribute
2
ligacao
70
0
74
2
280
0
0
ATTRIB
5
B5
330
40B
100
AcDbEntity
8
0
100
AcDbText
10
43.000000
20
38.000000
30
0.000000
40
2.000000
1
a
50
0.000000
7
texto
11
43.000000
21
39.000000
31
0.000000
100
AcDbAttribute
2
rev
70
1
74
2
280
0
0
SEQEND
5
B6
330
40B
100
AcDbEntity
8
0
0
INSERT
5
B7
330
619
100
AcDbEntity
8
0
100
AcDbBlockReference
66
1
2
borne
10
47.000000
20
30.000000
30
0.000000
41
0.001000
42
0.001000
43
0.001000
50
0.000000
0
ATTRIB
5
B8
330
413
100
AcDbEntity
8
0
100
AcDbText
10
43.000000
20
36.000000
30
0.000000
40
2.000000
1
A
50
0.000000
7
texto
11
43.000000
21
37.000000
31
0.000000
100
AcDbAttribute
2
id
70
1
74
2
280
0
0
ATTRIB
5
B9
330
413
100
AcDbEntity
8
0
100
AcDbText
10
52.563492
20
25.750000
30
0.000000
40
2.500000
1
1
50
0.000000
7
texto
72
1
11
53.000000
21
27.000000
31
0.000000
100
AcDbAttribute
2
terminal
70
0
74
2
280
0
0
ATTRIB
5
BA
330
413
100
AcDbEntity
8
0
100
AcDbText
10
40.750000
20
25.750000
30
0.000000
40
2.500000
1
-
50
0.000000
7
texto
72
2
11
42.000000
21
27.000000
31
0.000000
100
AcDbAttribute
2
ligacao
70
0
74
2
280
0
0
ATTRIB
5
BB
330
413
100
AcDbEntity
8
0
100
AcDbText
10
43.000000
20
32.000000
30
0.000000
40
2.000000
1
a
50
0.000000
7
texto
11
43.000000
21
33.000000
31
0.000000
100
AcDbAttribute
2
rev
70
1
74
2
280
0
0
SEQEND
5
BC
330
413
100
AcDbEntity
8
0
0
INSERT
5
BD
330
619
100
AcDbEntity
8
0
100
AcDbBlockReference
66
1
2
borne
10
47.000000
20
24.000000
30
0.000000
41
0.001000
42
0.001000
43
0.001000
50
0.000000
0
ATTRIB
5
BE
330
41B
100
AcDbEntity
8
0
100
AcDbText
10
43.000000
20
30.000000
30
0.000000
40
2.000000
1
A
50
0.000000
7
texto
11
43.000000
21
31.000000
31
0.000000
100
AcDbAttribute
2
id
70
1
74
2
280
0
0
ATTRIB
5
BF
330
41B
100
AcDbEntity
8
0
100
AcDbText
10
52.563492
20
19.750000
30
0.000000
40
2.500000
1
1
50
0.000000
7
texto
72
1
11
53.000000
21
21.000000
31
0.000000
100
AcDbAttribute
2
terminal
70
0
74
2
280
0
0
ATTRIB
5
C0
330
41B
100
AcDbEntity
8
0
100
AcDbText
10
40.750000
20
19.750000
30
0.000000
40
2.500000
1
-
50
0.000000
7
texto
72
2
11
42.000000
21
21.000000
31
0.000000
100
AcDbAttribute
2
ligacao
70
0
74
2
280
0
0
ATTRIB
5
C1
330
41B
100
AcDbEntity
8
0
100
AcDbText
10
43.000000
20
26.000000
30
0.000000
40
2.000000
1
a
50
0.000000
7
texto
11
43.000000
21
27.000000
31
0.000000
100
AcDbAttribute
2
rev
70
1
74
2
280
0
0
SEQEND
5
C2
330
41B
100
AcDbEntity
8
0
0
INSERT
5
C3
330
619
100
AcDbEntity
8
0
100
AcDbBlockReference
66
1
2
sec_e
10
84.000000
20
66.000000
30
0.000000
41
0.001000
42
0.001000
43
0.001000
50
0.000000
0
ATTRIB
5
C4
330
423
100
AcDbEntity
8
0
100
AcDbText
10
74.000000
20
72.000000
30
0.000000
40
2.000000
1
K1
50
0.000000
7
texto
11
74.000000
21
73.000000
31
0.000000
100
AcDbAttribute
2
id
70
1
74
2
280
0
0
ATTRIB
5
C5
330
423
100
AcDbEntity
8
0
100
AcDbText
10
74.000000
20
64.000000
30
0.000000
40
2.000000
1
1E
50
0.000000
7
texto
11
74.000000
21
65.000000
31
0.000000
100
AcDbAttribute
2
terminal
70
1
74
2
280
0
0
ATTRIB
5
C6
330
423
100
AcDbEntity
8
0
100
AcDbText
10
71.750000
20
61.750000
30
0.000000
40
2.500000
1
-
50
0.000000
7
texto
72
2
11
73.000000
21
63.000000
31
0.000000
100
AcDbAttribute
2
ligacao
70
0
74
2
280
0
0
ATTRIB
5
C7
330
423
100
AcDbEntity
8
0
100
AcDbText
10
74.000000
20
68.000000
30
0.000000
40
2.000000
1
a
50
0.000000
7
texto
11
74.000000
21
69.000000
31
0.000000
100
AcDbAttribute
2
rev
70
1
74
2
280
0
0
SEQEND
5
C8
330
423
100
AcDbEntity
8
0
0
INSERT
5
C9
330
619
100
AcDbEntity
8
0
100
AcDbBlockReference
66
1
2
sec_central
10
84.000000
20
66.000000
30
0.000000
41
0.001000
42
0.001000
43
0.001000
50
0.000000
0
ATTRIB
5
CA
330
427
100
AcDbEntity
8
0
100
AcDbText
10
90.000000
20
67.000000
30
0.000000
40
2.000000
1
K1
50
0.000000
7
texto
11
90.000000
21
68.000000
31
0.000000
100
AcDbAttribute
2
id
70
1
74
2
280
0
0
ATTRIB
5
CB
330
427
100
AcDbEntity
8
0
100
AcDbText
10
89.563492
20
61.750000
30
0.000000
40
2.500000
1
1
50
0.000000
7
texto
72
1
11
90.000000
21
63.000000
31
0.000000
100
AcDbAttribute
2
num
70
0
74
2
280
0
0
ATTRIB
5
CC
330
427
100
AcDbEntity
8
0
100
AcDbText
10
90.000000
20
63.000000
30
0.000000
40
2.000000
1
a
50
0.000000
7
texto
11
90.000000
21
64.000000
31
0.000000
100
AcDbAttribute
2
rev
70
1
74
2
280
0
0
SEQEND
5
CD
330
427
100
AcDbEntity
8
0
0
INSERT
5
CE
330
619
100
AcDbEntity
8
0
100
AcDbBlockReference
66
1
2
sec_s
10
96.000000
20
66.000000
30
0.000000
41
0.001000
42
0.001000
43
0.001000
50
0.000000
0
ATTRIB
5
CF
330
42A
100
AcDbEntity
8
0
100
AcDbText
10
106.000000
20
72.000000
30
0.000000
40
2.000000
1
K1
50
0.000000
7
texto
11
106.000000
21
73.000000
31
0.000000
100
AcDbAttribute
2
id
70
1
74
2
280
0
0
ATTRIB
5
D0
330
42A
100
AcDbEntity
8
0
100
AcDbText
10
106.000000
20
64.000000
30
0.000000
40
2.000000
1
1S
50
0.000000
7
texto
11
106.000000
21
65.000000
31
0.000000
100
AcDbAttribute
2
terminal
70
1
74
2
280
0
0
ATTRIB
5
D1
330
42A
100
AcDbEntity
8
0
100
AcDbText
10
107.000000
20
61.750000
30
0.000000
40
2.500000
1
-
50
0.000000
7
texto
11
107.000000
21
63.000000
31
0.000000
100
AcDbAttribute
2
ligacao
70
0
74
2
280
0
0
ATTRIB
5
D2
330
42A
100
AcDbEntity
8
0
100
AcDbText
10
106.000000
20
68.000000
30
0.000000
40
2.000000
1
a
50
0.000000
7
texto
11
106.000000
21
69.000000
31
0.000000
100
AcDbAttribute
2
rev
70
1
74
2
280
0
0
SEQEND
5
D3
330
42A
100
AcDbEntity
8
0
0
INSERT
5
D4
330
619
100
AcDbEntity
8
0
100
AcDbBlockReference
66
1
2
sec_e
10
84.000000
20
60.000000
30
0.000000
41
0.001000
42
0.001000
43
0.001000
50
0.000000
0
ATTRIB
5
D5
330
438
100
AcDbEntity
8
0
100
AcDbText
10
74.000000
20
66.000000
30
0.000000
40
2.000000
1
K1
50
0.000000
7
texto
11
74.000000
21
67.000000
31
0.000000
100
AcDbAttribute
2
id
70
1
74
2
280
0
0
ATTRIB
5
D6
330
438
100
AcDbEntity
8
0
100
AcDbText
10
74.000000
20
58.000000
30
0.000000
40
2.000000
1
1E
50
0.000000
7
texto
11
74.000000
21
59.000000
31
0.000000
100
AcDbAttribute
2
terminal
70
1
74
2
280
0
0
ATTRIB
5
D7
330
438
100
AcDbEntity
8
0
100
AcDbText
10
71.750000
20
55.750000
30
0.000000
40
2.500000
1
-
50
0.000000
7
texto
72
2
11
73.000000
21
57.000000
31
0.000000
100
AcDbAttribute
2
ligacao
70
0
74
2
280
0
0
ATTRIB
5
D8
330
438
100
AcDbEntity
8
0
100
AcDbText
10
74.000000
20
62.000000
30
0.000000
40
2.000000
1
a
50
0.000000
7
texto
11
74.000000
21
63.000000
31
0.000000
100
AcDbAttribute
2
rev
70
1
74
2
280
0
0
SEQEND
5
D9
330
438
100
AcDbEntity
8
0
0
INSERT
5
DA
330
619
100
AcDbEntity
8
0
100
AcDbBlockReference
66
1
2
sec_central
10
84.000000
20
60.000000
30
0.000000
41
0.001000
42
0.001000
43
0.001000
50
0.000000
0
ATTRIB
5
DB
330
43C
100
AcDbEntity
8
0
100
AcDbText
10
90.000000
20
61.000000
30
0.000000
40
2.000000
1
K1
50
0.000000
7
texto
11
90.000000
21
62.000000
31
0.000000
100
AcDbAttribute
2
id
70
1
74
2
280
0
0
ATTRIB
5
DC
330
43C
100
AcDbEntity
8
0
100
AcDbText
10
89.563492
20
55.750000
30
0.000000
40
2.500000
1
1
50
0.000000
7
texto
72
1
11
90.000000
21
57.000000
31
0.000000
100
AcDbAttribute
2
num
70
0
74
2
280
0
0
ATTRIB
5
DD
330
43C
100
AcDbEntity
8
0
100
AcDbText
10
90.000000
20
57.000000
30
0.000000
40
2.000000
1
a
50
0.000000
7
texto
11
90.000000
21
58.000000
31
0.000000
100
AcDbAttribute
2
rev
70
1
74
2
280
0
0
SEQEND
5
DE
330
43C
100
AcDbEntity
8
0
0
INSERT
5
DF
330
619
100
AcDbEntity
8
0
100
AcDbBlockReference
66
1
2
sec_s
10
96.000000
20
60.000000
30
0.000000
41
0.001000
42
0.001000
43
0.001000
50
0.000000
0
ATTRIB
5
E0
330
43F
100
AcDbEntity
8
0
100
AcDbText
10
106.000000
20
66.000000
30
0.000000
40
2.000000
1
K1
50
0.000000
7
texto
11
106.000000
21
67.000000
31
0.000000
100
AcDbAttribute
2
id
70
1
74
2
280
0
0
ATTRIB
5
E1
330
43F
100
AcDbEntity
8
0
100
AcDbText
10
106.000000
20
58.000000
30
0.000000
40
2.000000
1
1S
50
0.000000
7
texto
11
106.000000
21
59.000000
31
0.000000
100
AcDbAttribute
2
terminal
70
1
74
2
280
0
0
ATTRIB
5
E2
330
43F
100
AcDbEntity
8
0
100
AcDbText
10
107.000000
20
55.750000
30
0.000000
40
2.500000
1
-
50
0.000000
7
texto
11
107.000000
21
57.000000
31
0.000000
100
AcDbAttribute
2
ligacao
70
0
74
2
280
0
0
ATTRIB
5
E3
330
43F
100
AcDbEntity
8
0
100
AcDbText
10
106.000000
20
62.000000
30
0.000000
40
2.000000
1
a
50
0.000000
7
texto
11
106.000000
21
63.000000
31
0.000000
100
AcDbAttribute
2
rev
70
1
74
2
280
0
0
SEQEND
5
E4
330
43F
100
AcDbEntity
8
0
0
INSERT
5
E5
330
619
100
AcDbEntity
8
0
100
AcDbBlockReference
66
1
2
sec_e
10
84.000000
20
54.000000
30
0.000000
41
0.001000
42
0.001000
43
0.001000
50
0.000000
0
ATTRIB
5
E6
330
44D
100
AcDbEntity
8
0
100
AcDbText
10
74.000000
20
60.000000
30
0.000000
40
2.000000
1
K1
50
0.000000
7
texto
11
74.000000
21
61.000000
31
0.000000
100
AcDbAttribute
2
id
70
1
74
2
280
0
0
ATTRIB
5
E7
330
44D
100
AcDbEntity
8
0
100
AcDbText
10
74.000000
20
52.000000
30
0.000000
40
2.000000
1
1E
50
0.000000
7
texto
11
74.000000
21
53.000000
31
0.000000
100
AcDbAttribute
2
terminal
70
1
74
2
280
0
0
ATTRIB
5
E8
330
44D
100
AcDbEntity
8
0
100
AcDbText
10
71.750000
20
49.750000
30
0.000000
40
2.500000
1
-
50
0.000000
7
texto
72
2
11
73.000000
21
51.000000
31
0.000000
100
AcDbAttribute
2
ligacao
70
0
74
2
280
0
0
ATTRIB
5
E9
330
44D
100
AcDbEntity
8
0
100
AcDbText
10
74.000000
20
56.000000
30
0.000000
40
2.000000
1
a
50
0.000000
7
texto
11
74.000000
21
57.000000
31
0.000000
100
AcDbAttribute
2
rev
70
1
74
2
280
0
0
SEQEND
5
EA
330
44D
100
AcDbEntity
8
0
0
INSERT
5
EB
330
619
100
AcDbEntity
8
0
100
AcDbBlockReference
66
1
2
sec_central
10
84.000000
20
54.000000
30
0.000000
41
0.001000
42
0.001000
43
0.001000
50
0.000000
0
ATTRIB
5
EC
330
451
100
AcDbEntity
8
0
100
AcDbText
10
90.000000
20
55.000000
30
0.000000
40
2.000000
1
K1
50
0.000000
7
texto
11
90.000000
21
56.000000
31
0.000000
100
AcDbAttribute
2
id
70
1
74
2
280
0
0
ATTRIB
5
ED
330
451
100
AcDbEntity
8
0
100
AcDbText
10
89.563492
20
49.750000
30
0.000000
40
2.500000
1
1
50
0.000000
7
texto
72
1
11
90.000000
21
51.000000
31
0.000000
100
AcDbAttribute
2
num
70
0
74
2
280
0
0
ATTRIB
5
EE
330
451
100
AcDbEntity
8
0
100
AcDbText
10
90.000000
20
51.000000
30
0.000000
40
2.000000
1
a
50
0.000000
7
texto
11
90.000000
21
52.000000
31
0.000000
100
AcDbAttribute
2
rev
70
1
74
2
280
0
0
SEQEND
5
EF
330
451
100
AcDbEntity
8
0
0
INSERT
5
F0
330
619
100
AcDbEntity
8
0
100
AcDbBlockReference
66
1
2
sec_s
10
96.000000
20
54.000000
30
0.000000
41
0.001000
42
0.001000
43
0.001000
50
0.000000
0
ATTRIB
5
F1
330
454
100
AcDbEntity
8
0
100
AcDbText
10
106.000000
20
60.000000
30
0.000000
40
2.000000
1
K1
50
0.000000
7
texto
11
106.000000
21
61.000000
31
0.000000
100
AcDbAttribute
2
id
70
1
74
2
280
0
0
ATTRIB
5
F2
330
454
100
AcDbEntity
8
0
100
AcDbText
10
106.000000
20
52.000000
30
0.000000
40
2.000000
1
1S
50
0.000000
7
texto
11
106.000000
21
53.000000
31
0.000000
100
AcDbAttribute
2
terminal
70
1
74
2
280
0
0
ATTRIB
5
F3
330
454
100
AcDbEntity
8
0
100
AcDbText
10
107.000000
20
49.750000
30
0.000000
40
2.500000
1
-
50
0.000000
7
texto
11
107.000000
21
51.000000
31
0.000000
100
AcDbAttribute
2
ligacao
70
0
74
2
280
0
0
ATTRIB
5
F4
330
454
100
AcDbEntity
8
0
100
AcDbText
10
106.000000
20
56.000000
30
0.000000
40
2.000000
1
a
50
0.000000
7
texto
11
106.000000
21
57.000000
31
0.000000
100
AcDbAttribute
2
rev
70
1
74
2
280
0
0
SEQEND
5
F5
330
454
100
AcDbEntity
8
0
0
INSERT
5
F6
330
619
100
AcDbEntity
8
0
100
AcDbBlockReference
66
1
2
sec_e
10
84.000000
20
48.000000
30
0.000000
41
0.001000
42
0.001000
43
0.001000
50
0.000000
0
ATTRIB
5
F7
330
462
100
AcDbEntity
8
0
100
AcDbText
10
74.000000
20
54.000000
30
0.000000
40
2.000000
1
K1
50
0.000000
7
texto
11
74.000000
21
55.000000
31
0.000000
100
AcDbAttribute
2
id
70
1
74
2
280
0
0
ATTRIB
5
F8
330
462
100
AcDbEntity
8
0
100
AcDbText
10
74.000000
20
46.000000
30
0.000000
40
2.000000
1
1E
50
0.000000
7
texto
11
74.000000
21
47.000000
31
0.000000
100
AcDbAttribute
2
terminal
70
1
74
2
280
0
0
ATTRIB
5
F9
330
462
100
AcDbEntity
8
0
100
AcDbText
10
71.750000
20
43.750000
30
0.000000
40
2.500000
1
-
50
0.000000
7
texto
72
2
11
73.000000
21
45.000000
31
0.000000
100
AcDbAttribute
2
ligacao
70
0
74
2
280
0
0
ATTRIB
5
FA
330
462
100
AcDbEntity
8
0
100
AcDbText
10
74.000000
20
50.000000
30
0.000000
40
2.000000
1
a
50
0.000000
7
texto
11
74.000000
21
51.000000
31
0.000000
100
AcDbAttribute
2
rev
70
1
74
2
280
0
0
SEQEND
5
FB
330
462
100
AcDbEntity
8
0
0
INSERT
5
FC
330
619
100
AcDbEntity
8
0
100
AcDbBlockReference
66
1
2
sec_central
10
84.000000
20
48.000000
30
0.000000
41
0.001000
42
0.001000
43
0.001000
50
0.000000
0
ATTRIB
5
FD
330
466
100
AcDbEntity
8
0
100
AcDbText
10
90.000000
20
49.000000
30
0.000000
40
2.000000
1
K1
50
0.000000
7
texto
11
90.000000
21
50.000000
31
0.000000
100
AcDbAttribute
2
id
70
1
74
2
280
0
0
ATTRIB
5
FE
330
466
100
AcDbEntity
8
0
100
AcDbText
10
89.563492
20
43.750000
30
0.000000
40
2.500000
1
1
50
0.000000
7
texto
72
1
11
90.000000
21
45.000000
31
0.000000
100
AcDbAttribute
2
num
70
0
74
2
280
0
0
ATTRIB
5
FF
330
466
100
AcDbEntity
8
0
100
AcDbText
10
90.000000
20
45.000000
30
0.000000
40
2.000000
1
a
50
0.000000
7
texto
11
90.000000
21
46.000000
31
0.000000
100
AcDbAttribute
2
rev
70
1
74
2
280
0
0
SEQEND
5
100
330
466
100
AcDbEntity
8
0
0
INSERT
5
101
330
619
100
AcDbEntity
8
0
100
AcDbBlockReference
66
1
2
sec_s
10
96.000000
20
48.000000
30
0.000000
41
0.001000
42
0.001000
43
0.001000
50
0.000000
0
ATTRIB
5
102
330
469
100
AcDbEntity
8
0
100
AcDbText
10
106.000000
20
54.000000
30
0.000000
40
2.000000
1
K1
50
0.000000
7
texto
11
106.000000
21
55.000000
31
0.000000
100
AcDbAttribute
2
id
70
1
74
2
280
0
0
ATTRIB
5
103
330
469
100
AcDbEntity
8
0
100
AcDbText
10
106.000000
20
46.000000
30
0.000000
40
2.000000
1
1S
50
0.000000
7
texto
11
106.000000
21
47.000000
31
0.000000
100
AcDbAttribute
2
terminal
70
1
74
2
280
0
0
ATTRIB
5
104
330
469
100
AcDbEntity
8
0
100
AcDbText
10
107.000000
20
43.750000
30
0.000000
40
2.500000
1
-
50
0.000000
7
texto
11
107.000000
21
45.000000
31
0.000000
100
AcDbAttribute
2
ligacao
70
0
74
2
280
0
0
ATTRIB
5
105
330
469
100
AcDbEntity
8
0
100
AcDbText
10
106.000000
20
50.000000
30
0.000000
40
2.000000
1
a
50
0.000000
7
texto
11
106.000000
21
51.000000
31
0.000000
100
AcDbAttribute
2
rev
70
1
74
2
280
0
0
SEQEND
5
106
330
469
100
AcDbEntity
8
0
0
INSERT
5
107
330
619
100
AcDbEntity
8
0
100
AcDbBlockReference
66
1
2
sec_e
10
84.000000
20
42.000000
30
0.000000
41
0.001000
42
0.001000
43
0.001000
50
0.000000
0
ATTRIB
5
108
330
477
100
AcDbEntity
8
0
100
AcDbText
10
74.000000
20
48.000000
30
0.000000
40
2.000000
1
K1
50
0.000000
7
texto
11
74.000000
21
49.000000
31
0.000000
100
AcDbAttribute
2
id
70
1
74
2
280
0
0
ATTRIB
5
109
330
477
100
AcDbEntity
8
0
100
AcDbText
10
74.000000
20
40.000000
30
0.000000
40
2.000000
1
1E
50
0.000000
7
texto
11
74.000000
21
41.000000
31
0.000000
100
AcDbAttribute
2
terminal
70
1
74
2
280
0
0
ATTRIB
5
10A
330
477
100
AcDbEntity
8
0
100
AcDbText
10
71.750000
20
37.750000
30
0.000000
40
2.500000
1
-
50
0.000000
7
texto
72
2
11
73.000000
21
39.000000
31
0.000000
100
AcDbAttribute
2
ligacao
70
0
74
2
280
0
0
ATTRIB
5
10B
330
477
100
AcDbEntity
8
0
100
AcDbText
10
74.000000
20
44.000000
30
0.000000
40
2.000000
1
a
50
0.000000
7
texto
11
74.000000
21
45.000000
31
0.000000
100
AcDbAttribute
2
rev
70
1
74
2
280
0
0
SEQEND
5
10C
330
477
100
AcDbEntity
8
0
0
INSERT
5
10D
330
619
100
AcDbEntity
8
0
100
AcDbBlockReference
66
1
2
sec_central
10
84.000000
20
42.000000
30
0.000000
41
0.001000
42
0.001000
43
0.001000
50
0.000000
0
ATTRIB
5
10E
330
47B
100
AcDbEntity
8
0
100
AcDbText
10
90.000000
20
43.000000
30
0.000000
40
2.000000
1
K1
50
0.000000
7
texto
11
90.000000
21
44.000000
31
0.000000
100
AcDbAttribute
2
id
70
1
74
2
280
0
0
ATTRIB
5
10F
330
47B
100
AcDbEntity
8
0
100
AcDbText
10
89.563492
20
37.750000
30
0.000000
40
2.500000
1
1
50
0.000000
7
texto
72
1
11
90.000000
21
39.000000
31
0.000000
100
AcDbAttribute
2
num
70
0
74
2
280
0
0
ATTRIB
5
110
330
47B
100
AcDbEntity
8
0
100
AcDbText
10
90.000000
20
39.000000
30
0.000000
40
2.000000
1
a
50
0.000000
7
texto
11
90.000000
21
40.000000
31
0.000000
100
AcDbAttribute
2
rev
70
1
74
2
280
0
0
SEQEND
5
111
330
47B
100
AcDbEntity
8
0
0
INSERT
5
112
330
619
100
AcDbEntity
8
0
100
AcDbBlockReference
66
1
2
sec_s
10
96.000000
20
42.000000
30
0.000000
41
0.001000
42
0.001000
43
0.001000
50
0.000000
0
ATTRIB
5
113
330
47E
100
AcDbEntity
8
0
100
AcDbText
10
106.000000
20
48.000000
30
0.000000
40
2.000000
1
K1
50
0.000000
7
texto
11
106.000000
21
49.000000
31
0.000000
100
AcDbAttribute
2
id
70
1
74
2
280
0
0
ATTRIB
5
114
330
47E
100
AcDbEntity
8
0
100
AcDbText
10
106.000000
20
40.000000
30
0.000000
40
2.000000
1
1S
50
0.000000
7
texto
11
106.000000
21
41.000000
31
0.000000
100
AcDbAttribute
2
terminal
70
1
74
2
280
0
0
ATTRIB
5
115
330
47E
100
AcDbEntity
8
0
100
AcDbText
10
107.000000
20
37.750000
30
0.000000
40
2.500000
1
-
50
0.000000
7
texto
11
107.000000
21
39.000000
31
0.000000
100
AcDbAttribute
2
ligacao
70
0
74
2
280
0
0
ATTRIB
5
116
330
47E
100
AcDbEntity
8
0
100
AcDbText
10
106.000000
20
44.000000
30
0.000000
40
2.000000
1
a
50
0.000000
7
texto
11
106.000000
21
45.000000
31
0.000000
100
AcDbAttribute
2
rev
70
1
74
2
280
0
0
SEQEND
5
117
330
47E
100
AcDbEntity
8
0
0
INSERT
5
118
330
619
100
AcDbEntity
8
0
100
AcDbBlockReference
66
1
2
sec_e
10
84.000000
20
36.000000
30
0.000000
41
0.001000
42
0.001000
43
0.001000
50
0.000000
0
ATTRIB
5
119
330
48C
100
AcDbEntity
8
0
100
AcDbText
10
74.000000
20
42.000000
30
0.000000
40
2.000000
1
K1
50
0.000000
7
texto
11
74.000000
21
43.000000
31
0.000000
100
AcDbAttribute
2
id
70
1
74
2
280
0
0
ATTRIB
5
11A
330
48C
100
AcDbEntity
8
0
100
AcDbText
10
74.000000
20
34.000000
30
0.000000
40
2.000000
1
1E
50
0.000000
7
texto
11
74.000000
21
35.000000
31
0.000000
100
AcDbAttribute
2
terminal
70
1
74
2
280
0
0
ATTRIB
5
11B
330
48C
100
AcDbEntity
8
0
100
AcDbText
10
71.750000
20
31.750000
30
0.000000
40
2.500000
1
-
50
0.000000
7
texto
72
2
11
73.000000
21
33.000000
31
0.000000
100
AcDbAttribute
2
ligacao
70
0
74
2
280
0
0
ATTRIB
5
11C
330
48C
100
AcDbEntity
8
0
100
AcDbText
10
74.000000
20
38.000000
30
0.000000
40
2.000000
1
a
50
0.000000
7
texto
11
74.000000
21
39.000000
31
0.000000
100
AcDbAttribute
2
rev
70
1
74
2
280
0
0
SEQEND
5
11D
330
48C
100
AcDbEntity
8
0
0
INSERT
5
11E
330
619
100
AcDbEntity
8
0
100
AcDbBlockReference
66
1
2
sec_central
10
84.000000
20
36.000000
30
0.000000
41
0.001000
42
0.001000
43
0.001000
50
0.000000
0
ATTRIB
5
11F
330
490
100
AcDbEntity
8
0
100
AcDbText
10
90.000000
20
37.000000
30
0.000000
40
2.000000
1
K1
50
0.000000
7
texto
11
90.000000
21
38.000000
31
0.000000
100
AcDbAttribute
2
id
70
1
74
2
280
0
0
ATTRIB
5
120
330
490
100
AcDbEntity
8
0
100
AcDbText
10
89.563492
20
31.750000
30
0.000000
40
2.500000
1
1
50
0.000000
7
texto
72
1
11
90.000000
21
33.000000
31
0.000000
100
AcDbAttribute
2
num
70
0
74
2
280
0
0
ATTRIB
5
121
330
490
100
AcDbEntity
8
0
100
AcDbText
10
90.000000
20
33.000000
30
0.000000
40
2.000000
1
a
50
0.000000
7
texto
11
90.000000
21
34.000000
31
0.000000
100
AcDbAttribute
2
rev
70
1
74
2
280
0
0
SEQEND
5
122
330
490
100
AcDbEntity
8
0
0
INSERT
5
123
330
619
100
AcDbEntity
8
0
100
AcDbBlockReference
66
1
2
sec_s
10
96.000000
20
36.000000
30
0.000000
41
0.001000
42
0.001000
43
0.001000
50
0.000000
0
ATTRIB
5
124
330
493
100
AcDbEntity
8
0
100
AcDbText
10
106.000000
20
42.000000
30
0.000000
40
2.000000
1
K1
50
0.000000
7
texto
11
106.000000
21
43.000000
31
0.000000
100
AcDbAttribute
2
id
70
1
74
2
280
0
0
ATTRIB
5
125
330
493
100
AcDbEntity
8
0
100
AcDbText
10
106.000000
20
34.000000
30
0.000000
40
2.000000
1
1S
50
0.000000
7
texto
11
106.000000
21
35.000000
31
0.000000
100
AcDbAttribute
2
terminal
70
1
74
2
280
0
0
ATTRIB
5
126
330
493
100
AcDbEntity
8
0
100
AcDbText
10
107.000000
20
31.750000
30
0.000000
40
2.500000
1
-
50
0.000000
7
texto
11
107.000000
21
33.000000
31
0.000000
100
AcDbAttribute
2
ligacao
70
0
74
2
280
0
0
ATTRIB
5
127
330
493
100
AcDbEntity
8
0
100
AcDbText
10
106.000000
20
38.000000
30
0.000000
40
2.000000
1
a
50
0.000000
7
texto
11
106.000000
21
39.000000
31
0.000000
100
AcDbAttribute
2
rev
70
1
74
2
280
0
0
SEQEND
5
128
330
493
100
AcDbEntity
8
0
0
INSERT
5
129
330
619
100
AcDbEntity
8
0
100
AcDbBlockReference
66
1
2
sec_e
10
84.000000
20
30.000000
30
0.000000
41
0.001000
42
0.001000
43
0.001000
50
0.000000
0
ATTRIB
5
12A
330
4A1
100
AcDbEntity
8
0
100
AcDbText
10
74.000000
20
36.000000
30
0.000000
40
2.000000
1
K1
50
0.000000
7
texto
11
74.000000
21
37.000000
31
0.000000
100
AcDbAttribute
2
id
70
1
74
2
280
0
0
ATTRIB
5
12B
330
4A1
100
AcDbEntity
8
0
100
AcDbText
10
74.000000
20
28.000000
30
0.000000
40
2.000000
1
1E
50
0.000000
7
texto
11
74.000000
21
29.000000
31
0.000000
100
AcDbAttribute
2
terminal
70
1
74
2
280
0
0
ATTRIB
5
12C
330
4A1
100
AcDbEntity
8
0
100
AcDbText
10
71.750000
20
25.750000
30
0.000000
40
2.500000
1
-
50
0.000000
7
texto
72
2
11
73.000000
21
27.000000
31
0.000000
100
AcDbAttribute
2
ligacao
70
0
74
2
280
0
0
ATTRIB
5
12D
330
4A1
100
AcDbEntity
8
0
100
AcDbText
10
74.000000
20
32.000000
30
0.000000
40
2.000000
1
a
50
0.000000
7
texto
11
74.000000
21
33.000000
31
0.000000
100
AcDbAttribute
2
rev
70
1
74
2
280
0
0
SEQEND
5
12E
330
4A1
100
AcDbEntity
8
0
0
INSERT
5
12F
330
619
100
AcDbEntity
8
0
100
AcDbBlockReference
66
1
2
sec_central
10
84.000000
20
30.000000
30
0.000000
41
0.001000
42
0.001000
43
0.001000
50
0.000000
0
ATTRIB
5
130
330
4A5
100
AcDbEntity
8
0
100
AcDbText
10
90.000000
20
31.000000
30
0.000000
40
2.000000
1
K1
50
0.000000
7
texto
11
90.000000
21
32.000000
31
0.000000
100
AcDbAttribute
2
id
70
1
74
2
280
0
0
ATTRIB
5
131
330
4A5
100
AcDbEntity
8
0
100
AcDbText
10
89.563492
20
25.750000
30
0.000000
40
2.500000
1
1
50
0.000000
7
texto
72
1
11
90.000000
21
27.000000
31
0.000000
100
AcDbAttribute
2
num
70
0
74
2
280
0
0
ATTRIB
5
132
330
4A5
100
AcDbEntity
8
0
100
AcDbText
10
90.000000
20
27.000000
30
0.000000
40
2.000000
1
a
50
0.000000
7
texto
11
90.000000
21
28.000000
31
0.000000
100
AcDbAttribute
2
rev
70
1
74
2
280
0
0
SEQEND
5
133
330
4A5
100
AcDbEntity
8
0
0
INSERT
5
134
330
619
100
AcDbEntity
8
0
100
AcDbBlockReference
66
1
2
sec_s
10
96.000000
20
30.000000
30
0.000000
41
0.001000
42
0.001000
43
0.001000
50
0.000000
0
ATTRIB
5
135
330
4A8
100
AcDbEntity
8
0
100
AcDbText
10
106.000000
20
36.000000
30
0.000000
40
2.000000
1
K1
50
0.000000
7
texto
11
106.000000
21
37.000000
31
0.000000
100
AcDbAttribute
2
id
70
1
74
2
280
0
0
ATTRIB
5
136
330
4A8
100
AcDbEntity
8
0
100
AcDbText
10
106.000000
20
28.000000
30
0.000000
40
2.000000
1
1S
50
0.000000
7
texto
11
106.000000
21
29.000000
31
0.000000
100
AcDbAttribute
2
terminal
70
1
74
2
280
0
0
ATTRIB
5
137
330
4A8
100
AcDbEntity
8
0
100
AcDbText
10
107.000000
20
25.750000
30
0.000000
40
2.500000
1
-
50
0.000000
7
texto
11
107.000000
21
27.000000
31
0.000000
100
AcDbAttribute
2
ligacao
70
0
74
2
280
0
0
ATTRIB
5
138
330
4A8
100
AcDbEntity
8
0
100
AcDbText
10
106.000000
20
32.000000
30
0.000000
40
2.000000
1
a
50
0.000000
7
texto
11
106.000000
21
33.000000
31
0.000000
100
AcDbAttribute
2
rev
70
1
74
2
280
0
0
SEQEND
5
139
330
4A8
100
AcDbEntity
8
0
0
INSERT
5
13A
330
619
100
AcDbEntity
8
0
100
AcDbBlockReference
66
1
2
sec_e
10
84.000000
20
24.000000
30
0.000000
41
0.001000
42
0.001000
43
0.001000
50
0.000000
0
ATTRIB
5
13B
330
4B6
100
AcDbEntity
8
0
100
AcDbText
10
74.000000
20
30.000000
30
0.000000
40
2.000000
1
K1
50
0.000000
7
texto
11
74.000000
21
31.000000
31
0.000000
100
AcDbAttribute
2
id
70
1
74
2
280
0
0
ATTRIB
5
13C
330
4B6
100
AcDbEntity
8
0
100
AcDbText
10
74.000000
20
22.000000
30
0.000000
40
2.000000
1
1E
50
0.000000
7
texto
11
74.000000
21
23.000000
31
0.000000
100
AcDbAttribute
2
terminal
70
1
74
2
280
0
0
ATTRIB
5
13D
330
4B6
100
AcDbEntity
8
0
100
AcDbText
10
71.750000
20
19.750000
30
0.000000
40
2.500000
1
-
50
0.000000
7
texto
72
2
11
73.000000
21
21.000000
31
0.000000
100
AcDbAttribute
2
ligacao
70
0
74
2
280
0
0
ATTRIB
5
13E
330
4B6
100
AcDbEntity
8
0
100
AcDbText
10
74.000000
20
26.000000
30
0.000000
40
2.000000
1
a
50
0.000000
7
texto
11
74.000000
21
27.000000
31
0.000000
100
AcDbAttribute
2
rev
70
1
74
2
280
0
0
SEQEND
5
13F
330
4B6
100
AcDbEntity
8
0
0
INSERT
5
140
330
619
100
AcDbEntity
8
0
100
AcDbBlockReference
66
1
2
sec_central
10
84.000000
20
24.000000
30
0.000000
41
0.001000
42
0.001000
43
0.001000
50
0.000000
0
ATTRIB
5
141
330
4BA
100
AcDbEntity
8
0
100
AcDbText
10
90.000000
20
25.000000
30
0.000000
40
2.000000
1
K1
50
0.000000
7
texto
11
90.000000
21
26.000000
31
0.000000
100
AcDbAttribute
2
id
70
1
74
2
280
0
0
ATTRIB
5
142
330
4BA
100
AcDbEntity
8
0
100
AcDbText
10
89.563492
20
19.750000
30
0.000000
40
2.500000
1
1
50
0.000000
7
texto
72
1
11
90.000000
21
21.000000
31
0.000000
100
AcDbAttribute
2
num
70
0
74
2
280
0
0
ATTRIB
5
143
330
4BA
100
AcDbEntity
8
0
100
AcDbText
10
90.000000
20
21.000000
30
0.000000
40
2.000000
1
a
50
0.000000
7
texto
11
90.000000
21
22.000000
31
0.000000
100
AcDbAttribute
2
rev
70
1
74
2
280
0
0
SEQEND
5
144
330
4BA
100
AcDbEntity
8
0
0
INSERT
5
145
330
619
100
AcDbEntity
8
0
100
AcDbBlockReference
66
1
2
sec_s
10
96.000000
20
24.000000
30
0.000000
41
0.001000
42
0.001000
43
0.001000
50
0.000000
0
ATTRIB
5
146
330
4BD
100
AcDbEntity
8
0
100
AcDbText
10
106.000000
20
30.000000
30
0.000000
40
2.000000
1
K1
50
0.000000
7
texto
11
106.000000
21
31.000000
31
0.000000
100
AcDbAttribute
2
id
70
1
74
2
280
0
0
ATTRIB
5
147
330
4BD
100
AcDbEntity
8
0
100
AcDbText
10
106.000000
20
22.000000
30
0.000000
40
2.000000
1
1S
50
0.000000
7
texto
11
106.000000
21
23.000000
31
0.000000
100
AcDbAttribute
2
terminal
70
1
74
2
280
0
0
ATTRIB
5
148
330
4BD
100
AcDbEntity
8
0
100
AcDbText
10
107.000000
20
19.750000
30
0.000000
40
2.500000
1
-
50
0.000000
7
texto
11
107.000000
21
21.000000
31
0.000000
100
AcDbAttribute
2
ligacao
70
0
74
2
280
0
0
ATTRIB
5
149
330
4BD
100
AcDbEntity
8
0
100
AcDbText
10
106.000000
20
26.000000
30
0.000000
40
2.000000
1
a
50
0.000000
7
texto
11
106.000000
21
27.000000
31
0.000000
100
AcDbAttribute
2
rev
70
1
74
2
280
0
0
SEQEND
5
14A
330
4BD
100
AcDbEntity
8
0
0
INSERT
5
14B
330
619
100
AcDbEntity
8
0
100
AcDbBlockReference
66
1
2
fiacao
10
53.000000
20
72.000000
30
0.000000
41
0.001000
42
0.001000
43
0.001000
50
0.000000
0
ATTRIB
5
14C
330
4CB
100
AcDbEntity
8
0
100
AcDbText
10
52.041667
20
72.800000
30
0.000000
40
3.500000
1
A
50
0.000000
7
texto
72
1
11
53.000000
21
72.800000
31
0.000000
100
AcDbAttribute
2
id
70
0
280
0
0
ATTRIB
5
14D
330
4CB
100
AcDbEntity
8
0
100
AcDbText
10
52.208333
20
75.500000
30
0.000000
40
3.500000
1
a
50
0.000000
7
texto
72
1
11
53.000000
21
79.000000
31
0.000000
100
AcDbAttribute
2
rev
70
1
74
3
280
0
0
SEQEND
5
14E
330
4CB
100
AcDbEntity
8
0
0
INSERT
5
14F
330
619
100
AcDbEntity
8
0
100
AcDbBlockReference
66
1
2
fiacao
10
90.000000
20
72.000000
30
0.000000
41
0.001000
42
0.001000
43
0.001000
50
0.000000
0
ATTRIB
5
150
330
4CF
100
AcDbEntity
8
0
100
AcDbText
10
88.166667
20
72.800000
30
0.000000
40
3.500000
1
K1
50
0.000000
7
texto
72
1
11
90.000000
21
72.800000
31
0.000000
100
AcDbAttribute
2
id
70
0
280
0
0
ATTRIB
5
151
330
4CF
100
AcDbEntity
8
0
100
AcDbText
10
89.208333
20
75.500000
30
0.000000
40
3.500000
1
a
50
0.000000
7
texto
72
1
11
90.000000
21
79.000000
31
0.000000
100
AcDbAttribute
2
rev
70
1
74
3
280
0
0
SEQEND
5
152
330
4CF
100
AcDbEntity
8
0
0
ARC
5
153
330
619
100
AcDbEntity
8
0
100
AcDbCircle
10
69.000000
20
2.000000
30
0.000000
40
2.000000
100
AcDbArc
50
270.000000
51
0.000000
0
ARC
5
154
330
619
100
AcDbEntity
8
0
100
AcDbCircle
10
73.000000
20
2.000000
30
0.000000
40
2.000000
100
AcDbArc
50
90.000000
51
180.000000
0
INSERT
5
166
330
619
100
AcDbEntity
8
0
100
AcDbBlockReference
66
1
2
cabo
10
73.000000
20
4.000000
30
0.000000
41
0.001000
42
0.001000
43
0.001000
50
0.000000
0
ATTRIB
5
167
330
545
100
AcDbEntity
8
0
100
AcDbText
10
81.069444
20
2.750000
30
0.000000
40
2.500000
1
00X000
50
0.000000
7
texto
72
1
11
86.000000
21
4.000000
31
0.000000
100
AcDbAttribute
2
cabo
70
0
74
2
280
0
0
ATTRIB
5
168
330
545
100
AcDbEntity
8
0
100
AcDbText
10
104.000000
20
5.750000
30
0.000000
40
2.500000
1
DESCR
50
0.000000
7
texto
11
104.000000
21
7.000000
31
0.000000
100
AcDbAttribute
2
descr
70
0
74
2
280
0
0
ATTRIB
5
169
330
545
100
AcDbEntity
8
0
100
AcDbText
10
104.000000
20
2.750000
30
0.000000
40
2.500000
1
DESENHO
50
0.000000
7
texto
11
104.000000
21
4.000000
31
0.000000
100
AcDbAttribute
2
des
70
0
74
2
280
0
0
ATTRIB
5
16A
330
545
100
AcDbEntity
8
0
100
AcDbText
10
104.000000
20
-0.250000
30
0.000000
40
2.500000
1
FL. X
50
0.000000
7
texto
11
104.000000
21
1.000000
31
0.000000
100
AcDbAttribute
2
fl
70
0
74
2
280
0
0
ATTRIB
5
16B
330
545
100
AcDbEntity
8
0
100
AcDbText
10
96.442460
20
2.750000
30
0.000000
40
2.500000
1
NN
50
0.000000
7
texto
72
1
11
98.000000
21
4.000000
31
0.000000
100
AcDbAttribute
2
num_cond
70
0
74
2
280
0
0
ATTRIB
5
16C
330
545
100
AcDbEntity
8
0
100
AcDbText
10
85.434524
20
2.750000
30
0.000000
40
2.500000
1
a
50
0.000000
7
texto
72
1
11
86.000000
21
4.000000
31
0.000000
100
AcDbAttribute
2
rev
70
1
74
2
280
0
0
SEQEND
5
16D
330
545
100
AcDbEntity
8
0
0
INSERT
5
177
330
619
100
AcDbEntity
8
0
100
AcDbBlockReference
66
1
2
cond_id
10
67.000000
20
0.000000
30
0.000000
41
0.001000
42
0.001000
43
0.001000
50
0.000000
0
ATTRIB
5
178
330
554
100
AcDbEntity
8
0
100
AcDbText
10
58.138889
20
0.500000
30
0.000000
40
2.500000
1
00X000
50
0.000000
7
texto
72
2
11
68.000000
21
0.500000
31
0.000000
100
AcDbAttribute
2
cabo
70
1
280
0
0
ATTRIB
5
179
330
554
100
AcDbEntity
8
0
100
AcDbText
10
57.900794
20
0.500000
30
0.000000
40
2.500000
1
OO.XXX
50
0.000000
7
texto
72
2
11
68.000000
21
0.500000
31
0.000000
100
AcDbAttribute
2
orig
70
1
280
0
0
ATTRIB
5
17A
330
554
100
AcDbEntity
8
0
100
AcDbText
10
57.900794
20
0.500000
30
0.000000
40
2.500000
1
DD.XXX
50
0.000000
7
texto
72
2
11
68.000000
21
0.500000
31
0.000000
100
AcDbAttribute
2
dest
70
1
280
0
0
ATTRIB
5
17B
330
554
100
AcDbEntity
8
0
100
AcDbText
10
64.884921
20
0.500000
30
0.000000
40
2.500000
1
XX
50
0.000000
7
texto
72
2
11
68.000000
21
0.500000
31
0.000000
100
AcDbAttribute
2
condutor
70
0
280
0
0
ATTRIB
5
17C
330
554
100
AcDbEntity
8
0
100
AcDbText
10
66.869048
20
0.500000
30
0.000000
40
2.500000
1
a
50
0.000000
7
texto
72
2
11
68.000000
21
0.500000
31
0.000000
100
AcDbAttribute
2
rev
70
1
280
0
0
SEQEND
5
17D
330
554
100
AcDbEntity
8
0
0
INSERT
5
188
330
619
100
AcDbEntity
8
0
100
AcDbBlockReference
66
1
2
cond_dest
10
47.000000
20
0.000000
30
0.000000
41
0.001000
42
0.001000
43
0.001000
50
0.000000
0
ATTRIB
5
189
330
55B
100
AcDbEntity
8
0
100
AcDbText
10
52.069444
20
-1.250000
30
0.000000
40
2.500000
1
00X000
50
0.000000
7
texto
72
1
11
57.000000
21
0.000000
31
0.000000
100
AcDbAttribute
2
cabo
70
1
74
2
280
0
0
ATTRIB
5
18A
330
55B
100
AcDbEntity
8
0
100
AcDbText
10
51.950397
20
-1.250000
30
0.000000
40
2.500000
1
OO.XXX
50
0.000000
7
texto
72
1
11
57.000000
21
0.000000
31
0.000000
100
AcDbAttribute
2
orig
70
1
74
2
280
0
0
ATTRIB
5
18B
330
55B
100
AcDbEntity
8
0
100
AcDbText
10
51.950397
20
-1.250000
30
0.000000
40
2.500000
1
DD.XXX
50
0.000000
7
texto
72
1
11
57.000000
21
0.000000
31
0.000000
100
AcDbAttribute
2
dest
70
0
74
2
280
0
0
ATTRIB
5
18C
330
55B
100
AcDbEntity
8
0
100
AcDbText
10
55.442460
20
-1.250000
30
0.000000
40
2.500000
1
XX
50
0.000000
7
texto
72
1
11
57.000000
21
0.000000
31
0.000000
100
AcDbAttribute
2
condutor
70
1
74
2
280
0
0
ATTRIB
5
18D
330
55B
100
AcDbEntity
8
0
100
AcDbText
10
56.434524
20
-1.250000
30
0.000000
40
2.500000
1
a
50
0.000000
7
texto
72
1
11
57.000000
21
0.000000
31
0.000000
100
AcDbAttribute
2
rev
70
1
74
2
280
0
0
SEQEND
5
18E
330
55B
100
AcDbEntity
8
0
0
INSERT
5
19B
330
619
100
AcDbEntity
8
0
100
AcDbBlockReference
66
1
2
cabo_engate
10
73.000000
20
4.000000
30
0.000000
41
0.001000
42
0.001000
43
0.001000
50
0.000000
0
ATTRIB
5
19C
330
592
100
AcDbEntity
8
0
100
AcDbText
10
84.000000
20
-4.250000
30
0.000000
40
2.500000
1
00X000
50
0.000000
7
texto
11
84.000000
21
-3.000000
31
0.000000
100
AcDbAttribute
2
cabo
70
1
74
2
280
0
0
ATTRIB
5
19D
330
592
100
AcDbEntity
8
0
100
AcDbText
10
84.000000
20
-4.250000
30
0.000000
40
2.500000
1
FL. X
50
0.000000
7
texto
11
84.000000
21
-3.000000
31
0.000000
100
AcDbAttribute
2
fl
70
0
74
2
280
0
0
ATTRIB
5
19E
330
592
100
AcDbEntity
8
0
100
AcDbText
10
84.000000
20
-4.250000
30
0.000000
40
2.500000
1
a
50
0.000000
7
texto
11
84.000000
21
-3.000000
31
0.000000
100
AcDbAttribute
2
rev
70
1
74
2
280
0
0
ATTRIB
5
19F
330
592
100
AcDbEntity
8
0
100
AcDbText
10
76.569444
20
-4.250000
30
0.000000
40
2.500000
1
EXX
50
0.000000
7
texto
72
1
11
79.000000
21
-3.000000
31
0.000000
100
AcDbAttribute
2
engate
70
0
74
2
280
0
0
SEQEND
5
1A0
330
592
100
AcDbEntity
8
0
0
INSERT
5
1AB
330
619
100
AcDbEntity
8
0
100
AcDbBlockReference
66
1
2
i_cond_dest
10
197.000000
20
0.000000
30
0.000000
41
0.001000
42
0.001000
43
0.001000
50
0.000000
0
ATTRIB
5
1AC
330
5EE
100
AcDbEntity
8
0
100
AcDbText
10
182.069444
20
-1.250000
30
0.000000
40
2.500000
1
00X000
50
0.000000
7
texto
72
1
11
187.000000
21
0.000000
31
0.000000
100
AcDbAttribute
2
cabo
70
1
74
2
280
0
0
ATTRIB
5
1AD
330
5EE
100
AcDbEntity
8
0
100
AcDbText
10
181.950397
20
-1.250000
30
0.000000
40
2.500000
1
OO.XXX
50
0.000000
7
texto
72
1
11
187.000000
21
0.000000
31
0.000000
100
AcDbAttribute
2
orig
70
1
74
2
280
0
0
ATTRIB
5
1AE
330
5EE
100
AcDbEntity
8
0
100
AcDbText
10
181.950397
20
-1.250000
30
0.000000
40
2.500000
1
DD.XXX
50
0.000000
7
texto
72
1
11
187.000000
21
0.000000
31
0.000000
100
AcDbAttribute
2
dest
70
0
74
2
280
0
0
ATTRIB
5
1AF
330
5EE
100
AcDbEntity
8
0
100
AcDbText
10
185.442460
20
-1.250000
30
0.000000
40
2.500000
1
XX
50
0.000000
7
texto
72
1
11
187.000000
21
0.000000
31
0.000000
100
AcDbAttribute
2
condutor
70
1
74
2
280
0
0
ATTRIB
5
1B0
330
5EE
100
AcDbEntity
8
0
100
AcDbText
10
186.434524
20
-1.250000
30
0.000000
40
2.500000
1
a
50
0.000000
7
texto
72
1
11
187.000000
21
0.000000
31
0.000000
100
AcDbAttribute
2
rev
70
1
74
2
280
0
0
SEQEND
5
1B1
330
5EE
100
AcDbEntity
8
0
0
INSERT
5
1BB
330
619
100
AcDbEntity
8
0
100
AcDbBlockReference
66
1
2
i_cond_id
10
177.000000
20
0.000000
30
0.000000
41
0.001000
42
0.001000
43
0.001000
50
0.000000
0
ATTRIB
5
1BC
330
5F6
100
AcDbEntity
8
0
100
AcDbText
10
172.069444
20
-1.250000
30
0.000000
40
2.500000
1
00X000
50
0.000000
7
texto
72
1
11
177.000000
21
0.000000
31
0.000000
100
AcDbAttribute
2
cabo
70
1
74
2
280
0
0
ATTRIB
5
1BD
330
5F6
100
AcDbEntity
8
0
100
AcDbText
10
171.950397
20
-1.250000
30
0.000000
40
2.500000
1
OO.XXX
50
0.000000
7
texto
72
1
11
177.000000
21
0.000000
31
0.000000
100
AcDbAttribute
2
orig
70
1
74
2
280
0
0
ATTRIB
5
1BE
330
5F6
100
AcDbEntity
8
0
100
AcDbText
10
171.950397
20
-1.250000
30
0.000000
40
2.500000
1
DD.XXX
50
0.000000
7
texto
72
1
11
177.000000
21
0.000000
31
0.000000
100
AcDbAttribute
2
dest
70
1
74
2
280
0
0
ATTRIB
5
1BF
330
5F6
100
AcDbEntity
8
0
100
AcDbText
10
176.000000
20
0.500000
30
0.000000
40
2.500000
1
XX
50
0.000000
7
texto
100
AcDbAttribute
2
condutor
70
0
280
0
0
ATTRIB
5
1C0
330
5F6
100
AcDbEntity
8
0
100
AcDbText
10
176.434524
20
-1.250000
30
0.000000
40
2.500000
1
a
50
0.000000
7
texto
72
1
11
177.000000
21
0.000000
31
0.000000
100
AcDbAttribute
2
rev
70
1
74
2
280
0
0
SEQEND
5
1C1
330
5F6
100
AcDbEntity
8
0
0
ARC
5
1C2
330
619
100
AcDbEntity
8
0
100
AcDbCircle
10
-175.000000
20
2.000000
30
0.000000
40
2.000000
210
0.000000
220
0.000000
230
-1.000000
100
AcDbArc
50
270.000000
51
0.000000
0
ARC
5
1C3
330
619
100
AcDbEntity
8
0
100
AcDbCircle
10
-171.000000
20
2.000000
30
0.000000
40
2.000000
210
0.000000
220
0.000000
230
-1.000000
100
AcDbArc
50
90.000000
51
180.000000
0
INSERT
5
1D5
330
619
100
AcDbEntity
8
0
100
AcDbBlockReference
66
1
2
i_cabo
10
171.000000
20
4.000000
30
0.000000
41
0.001000
42
0.001000
43
0.001000
50
0.000000
0
ATTRIB
5
1D6
330
5FF
100
AcDbEntity
8
0
100
AcDbText
10
153.069444
20
2.750000
30
0.000000
40
2.500000
1
00X000
50
0.000000
7
texto
72
1
11
158.000000
21
4.000000
31
0.000000
100
AcDbAttribute
2
cabo
70
0
74
2
280
0
0
ATTRIB
5
1D7
330
5FF
100
AcDbEntity
8
0
100
AcDbText
10
131.646825
20
5.750000
30
0.000000
40
2.500000
1
DESCR
50
0.000000
7
texto
72
2
11
140.000000
21
7.000000
31
0.000000
100
AcDbAttribute
2
descr
70
0
74
2
280
0
0
ATTRIB
5
1D8
330
5FF
100
AcDbEntity
8
0
100
AcDbText
10
128.154762
20
2.750000
30
0.000000
40
2.500000
1
DESENHO
50
0.000000
7
texto
72
2
11
140.000000
21
4.000000
31
0.000000
100
AcDbAttribute
2
des
70
0
74
2
280
0
0
ATTRIB
5
1D9
330
5FF
100
AcDbEntity
8
0
100
AcDbText
10
131.646825
20
-0.250000
30
0.000000
40
2.500000
1
FL. X
50
0.000000
7
texto
72
2
11
140.000000
21
1.000000
31
0.000000
100
AcDbAttribute
2
fl
70
0
74
2
280
0
0
ATTRIB
5
1DA
330
5FF
100
AcDbEntity
8
0
100
AcDbText
10
144.442460
20
2.750000
30
0.000000
40
2.500000
1
NN
50
0.000000
7
texto
72
1
11
146.000000
21
4.000000
31
0.000000
100
AcDbAttribute
2
num_cond
70
0
74
2
280
0
0
ATTRIB
5
1DB
330
5FF
100
AcDbEntity
8
0
100
AcDbText
10
157.434524
20
2.750000
30
0.000000
40
2.500000
1
a
50
0.000000
7
texto
72
1
11
158.000000
21
4.000000
31
0.000000
100
AcDbAttribute
2
rev
70
1
74
2
280
0
0
SEQEND
5
1DC
330
5FF
100
AcDbEntity
8
0
0
INSERT
5
1E9
330
619
100
AcDbEntity
8
0
100
AcDbBlockReference
66
1
2
i_cabo_engate
10
171.000000
20
4.000000
30
0.000000
41
0.001000
42
0.001000
43
0.001000
50
0.000000
0
ATTRIB
5
1EA
330
60E
100
AcDbEntity
8
0
100
AcDbText
10
160.069444
20
-4.250000
30
0.000000
40
2.500000
1
00X000
50
0.000000
7
texto
72
1
11
165.000000
21
-3.000000
31
0.000000
100
AcDbAttribute
2
cabo
70
1
74
2
280
0
0
ATTRIB
5
1EB
330
60E
100
AcDbEntity
8
0
100
AcDbText
10
151.646825
20
-4.250000
30
0.000000
40
2.500000
1
FL. X
50
0.000000
7
texto
72
2
11
160.000000
21
-3.000000
31
0.000000
100
AcDbAttribute
2
fl
70
0
74
2
280
0
0
ATTRIB
5
1EC
330
60E
100
AcDbEntity
8
0
100
AcDbText
10
164.434524
20
-4.250000
30
0.000000
40
2.500000
1
a
50
0.000000
7
texto
72
1
11
165.000000
21
-3.000000
31
0.000000
100
AcDbAttribute
2
rev
70
1
74
2
280
0
0
ATTRIB
5
1ED
330
60E
100
AcDbEntity
8
0
100
AcDbText
10
162.569444
20
-4.250000
30
0.000000
40
2.500000
1
EXX
50
0.000000
7
texto
72
1
11
165.000000
21
-3.000000
31
0.000000
100
AcDbAttribute
2
engate
70
0
74
2
280
0
0
SEQEND
5
1EE
330
60E
100
AcDbEntity
8
0
0
ENDSEC
0
SECTION
2
OBJECTS
0
DICTIONARY
5
22
100
AcDbDictionary
3
ACAD_GROUP
350
23
0
DICTIONARY
5
23
100
AcDbDictionary
0
ENDSEC
0
EOF
