  0
SECTION
  2
HEADER
  0
ENDSEC
  0
SECTION
  2
TABLES
  0
TABLE
  2
LTYPE
  70
1
  0
LTYPE
  2
CONTINUOUS
  3
Solid Line
  72
65
  73
0
  40
0.0
  0
ENDTAB
  0
TABLE
  2
LAYER
  70
1
  0
LAYER
  2
OpenJsCad
  62
7
  6
continuous
  0
ENDTAB
  0
TABLE
  2
STYLE
  70
0
  0
ENDTAB
  0
TABLE
  2
VIEW
  70
0
  0
ENDTAB
  0
ENDSEC
  0
SECTION
  2
BLOCKS
  0
ENDSEC
  0
SECTION
  2
ENTITIES
  0
LWPOLYLINE
  8
OpenJsCad
  90
571
  70
1
 10
39.59845328598851
 20
-9.422254622245909
 30
0.0
 10
39.85331858694728
 20
-8.471084369981492
 30
0.0
 10
40.00736334434527
 20
-7.498484049632132
 30
0.0
 10
39.240138939112185
 20
-6.922818324905341
 30
0.0
 10
38.33161295705225
 20
-6.335477569732794
 30
0.0
 10
37.538632600320696
 20
-5.8980589093794595
 30
0.0
 10
36.87693594471671
 20
-5.591166092373533
 30
0.0
 10
36.36009086942849
 20
-5.393991056856294
 30
0.0
 10
35.804885954332796
 20
-5.225500361658252
 30
0.0
 10
35.446219897457524
 20
-5.04535168701019
 30
0.0
 10
35.286671313537056
 20
-4.853606383835872
 30
0.0
 10
35.52469439304584
 20
-2.5889680568727083
 30
0.0
 10
35.72062254779749
 20
-2.4345848644712365
 30
0.0
 10
36.10890590633938
 20
-2.3329437369131303
 30
0.0
 10
36.68700944728138
 20
-2.283568560306692
 30
0.0
 10
37.233555212647275
 20
-2.198160405884875
 30
0.0
 10
37.944598813223344
 20
-2.0355484037231784
 30
0.0
 10
38.81119509985932
 20
-1.7725582773361934
 30
0.0
 10
39.82198261890108
 20
-1.3869454999361046
 30
0.0
 10
40.69212896428594
 20
-0.9833743757948937
 30
0.0
 10
40.743665431525216
 20
7.823900491013153e-15
 30
0.0
 10
40.69212896428595
 20
0.9833743757948923
 30
0.0
 10
39.821982618909004
 20
1.3869454999324284
 30
0.0
 10
38.81119509985865
 20
1.7725582773356903
 30
0.0
 10
37.944598813223344
 20
2.035548403723172
 30
0.0
 10
37.2335552126472
 20
2.198160405884878
 30
0.0
 10
36.6870094472815
 20
2.2835685603066618
 30
0.0
 10
36.108905906339345
 20
2.3329437369127217
 30
0.0
 10
35.72062254779748
 20
2.4345848644712222
 30
0.0
 10
35.52469439304587
 20
2.5889680568726736
 30
0.0
 10
35.28667131353704
 20
4.8536063838358325
 30
0.0
 10
35.44621989745754
 20
5.045351687010177
 30
0.0
 10
35.80488595433292
 20
5.2255003616578595
 30
0.0
 10
36.36009086942839
 20
5.393991056856241
 30
0.0
 10
36.8769359447168
 20
5.591166092373553
 30
0.0
 10
37.5386326003207
 20
5.898058909379455
 30
0.0
 10
38.33161295705301
 20
6.335477569732443
 30
0.0
 10
39.2401389391052
 20
6.922818324900098
 30
0.0
 10
40.00736334434527
 20
7.498484049632129
 30
0.0
 10
39.85331858694728
 20
8.471084369981504
 30
0.0
 10
39.59845328598852
 20
9.422254622245887
 30
0.0
 10
38.66341457118612
 20
9.636093151120248
 30
0.0
 10
37.59454178002449
 20
9.803124822006302
 30
0.0
 10
36.69220397960174
 20
9.880192483938158
 30
0.0
 10
35.96288945136436
 20
9.891416746462216
 30
0.0
 10
35.41052966848522
 20
9.861325273606518
 30
0.0
 10
34.834793400484344
 20
9.789426999474527
 30
0.0
 10
34.43386258623445
 20
9.808118374940916
 30
0.0
 10
34.21011786118192
 20
9.91839217024881
 30
0.0
 10
33.506451373391485
 20
12.084054935383314
 30
0.0
 10
33.62264734776445
 20
12.304782159485763
 30
0.0
 10
33.936020675217186
 20
12.55556501969167
 30
0.0
 10
34.444061845507676
 20
12.835807381593765
 30
0.0
 10
34.908617620830654
 20
13.13613180300367
 30
0.0
 10
35.492048012439675
 20
13.573892746115497
 30
0.0
 10
36.176755392537196
 20
14.166622646009452
 30
0.0
 10
36.943312892592786
 20
14.930021769570214
 30
0.0
 10
37.574083969627914
 20
15.65262274037165
 30
0.0
 10
37.22119048267972
 20
16.571941704222095
 30
0.0
 10
36.77413518463276
 20
17.44933712871076
 30
0.0
 10
35.81506977905532
 20
17.46409729249903
 30
0.0
 10
34.7348265857769
 20
17.40524777134327
 30
0.0
 10
33.83618376334234
 20
17.29302474218141
 30
0.0
 10
33.12047285196708
 20
17.15237071093553
 30
0.0
 10
32.58643982460263
 20
17.00809475256105
 30
0.0
 10
32.038233267143795
 20
16.818065327276774
 30
0.0
 10
31.642177597648082
 20
16.752990047852002
 30
0.0
 10
31.400395020425755
 20
16.814334952059
 30
0.0
 10
30.261838726436572
 20
18.786372300525553
 30
0.0
 10
30.329603769611765
 20
19.026434606696093
 30
0.0
 10
30.5839884495001
 20
19.336891238079552
 30
0.0
 10
31.022662037991918
 20
19.71663733071819
 30
0.0
 10
31.414625196781923
 20
20.106985519688614
 30
0.0
 10
31.894290616673118
 20
20.656482335082313
 30
0.0
 10
32.44080002203504
 20
21.378618333658245
 30
0.0
 10
33.031886798990605
 20
22.28471162071709
 30
0.0
 10
33.49863682497892
 20
23.122666707739743
 30
0.0
 10
32.96231774723097
 20
23.948525664989173
 30
0.0
 10
32.34261091382981
 20
24.713799871441594
 30
0.0
 10
31.40143457780747
 20
24.5288365801591
 30
0.0
 10
30.357032793540462
 20
24.24667787342737
 30
0.0
 10
29.50135995260118
 20
23.950068838052
 30
0.0
 10
28.830532659277125
 20
23.663683769134558
 30
0.0
 10
28.338166193297965
 20
23.411528876935115
 30
0.0
 10
27.841448603529052
 20
23.111673498245832
 30
0.0
 10
27.467577612030443
 20
22.965675665906595
 30
0.0
 10
27.218324241464458
 20
22.97541061233335
 30
0.0
 10
25.694638514723113
 20
24.667635049118864
 30
0.0
 10
25.71101096914102
 20
24.9165405626311
 30
0.0
 10
25.89528917028072
 20
25.273102520664445
 30
0.0
 10
26.245423036167335
 20
25.735755617567396
 30
0.0
 10
26.547662907537333
 20
26.1990674851419
 30
0.0
 10
26.9025996751714
 20
26.836284525206505
 30
0.0
 10
27.28702602234033
 20
27.65626581413367
 30
0.0
 10
27.67680874769387
 20
28.665452640128134
 30
0.0
 10
27.959138506784548
 20
29.582139185114496
 30
0.0
 10
27.26283355547891
 20
30.27844413642014
 30
0.0
 10
26.497559349026478
 20
30.898150969821295
 30
0.0
 10
25.615406004708554
 20
30.521548006849432
 30
0.0
 10
24.652490999021225
 20
30.02841180397359
 30
0.0
 10
23.877185148700104
 20
29.560380000518688
 30
0.0
 10
23.28055984513201
 20
29.1407802956694
 30
0.0
 10
22.851378717737873
 20
28.79176684840754
 30
0.0
 10
22.42785903784722
 20
28.395190635227706
 30
0.0
 10
22.092512680706264
 20
28.174651055822558
 30
0.0
 10
21.84668208514072
 20
28.132350580596757
 30
0.0
 10
20.004459303361124
 20
29.470803777619953
 30
0.0
 10
19.96872361419993
 20
29.717674133152222
 30
0.0
 10
20.074841494936262
 20
30.104757949295298
 30
0.0
 10
20.321133108149745
 20
30.630097890072026
 30
0.0
 10
20.520440359413055
 20
31.146124484420604
 30
0.0
 10
20.73513603486881
 20
31.843212306798684
 30
0.0
 10
20.940678047791188
 20
32.72520176904419
 30
0.0
 10
21.11212134605972
 20
33.793375827062654
 30
0.0
 10
21.197691673012017
 20
34.74873022924673
 30
0.0
 10
20.371832715762597
 20
35.28504930699469
 30
0.0
 10
19.494437291273933
 20
35.732104605041634
 30
0.0
 10
18.70986127284851
 20
35.18032132700378
 30
0.0
 10
17.870517052068234
 20
34.49776004637956
 30
0.0
 10
17.20946277835454
 20
33.87876071052186
 30
0.0
 10
16.713114853234178
 20
33.34428489030541
 30
0.0
 10
16.36587633913172
 20
32.9136664503788
 30
0.0
 10
16.034064411403453
 20
32.437701686208186
 30
0.0
 10
15.75189893359757
 20
32.15225899762345
 30
0.0
 10
15.520235089684762
 20
32.059771834492665
 30
0.0
 10
13.439989228396364
 20
32.985956964432596
 30
0.0
 10
13.35370721675128
 20
33.22000274283275
 30
0.0
 10
13.377026916485983
 20
33.62069099688587
 30
0.0
 10
13.508712151690617
 20
34.18575790526371
 30
0.0
 10
13.59637609958473
 20
34.73194638804301
 30
0.0
 10
13.661447451620603
 20
35.45843890989815
 30
0.0
 10
13.679121958031715
 20
36.363889373706876
 30
0.0
 10
13.624732934404683
 20
37.4443663317461
 30
0.0
 10
13.509803995318798
 20
38.39663501945342
 30
0.0
 10
12.59048503146836
 20
38.749528506401646
 30
0.0
 10
11.639314779203973
 20
39.00439380736038
 30
0.0
 10
10.98660582348968
 20
38.30154579125673
 30
0.0
 10
10.307515757684987
 20
37.45939063613981
 30
0.0
 10
9.789604304430352
 20
36.71647700914467
 30
0.0
 10
9.41522654382708
 20
36.09048423160406
 30
0.0
 10
9.165106632317835
 20
35.597080891174016
 30
0.0
 10
8.939504230203958
 20
35.062529520139215
 30
0.0
 10
8.722851617093445
 20
34.724658937572016
 30
0.0
 10
8.515479346458822
 20
34.586027219367715
 30
0.0
 10
6.288127131927069
 20
35.05946554771667
 30
0.0
 10
6.155069735734009
 20
35.27045782539237
 30
0.0
 10
6.09457207168834
 20
35.667238517937854
 30
0.0
 10
6.105895652209819
 20
36.24733625852884
 30
0.0
 10
6.078084961553466
 20
36.79981557213827
 30
0.0
 10
5.990688059838502
 20
37.5239615841675
 30
0.0
 10
5.8197225989964885
 20
38.41330051943762
 30
0.0
 10
5.541878314793888
 20
39.45885834972763
 30
0.0
 10
5.23147305579811
 20
40.366422611813235
 30
0.0
 10
4.258872735448735
 20
40.520467369211254
 30
0.0
 10
3.2754983596538487
 20
40.5720038364505
 30
0.0
 10
2.7831829800604653
 20
39.74880891322374
 30
0.0
 10
2.2940265637426918
 20
38.78386610500153
 30
0.0
 10
1.9418931466692273
 20
37.94950707726372
 30
0.0
 10
1.7058476551852149
 20
37.25935623062409
 30
0.0
 10
1.5637777866106357
 20
36.72473208327932
 30
0.0
 10
1.4542448176439615
 20
36.15495656535662
 30
0.0
 10
1.3125738280363293
 20
35.779424654548095
 30
0.0
 10
1.1385562939891791
 20
35.60070725258459
 30
0.0
 10
-1.1385562939891494
 20
35.60070725258457
 30
0.0
 10
-1.3125738280363222
 20
35.77942465454811
 30
0.0
 10
-1.4542448176435658
 20
36.154956565356706
 30
0.0
 10
-1.5637777866106006
 20
36.724732083279214
 30
0.0
 10
-1.7058476551852322
 20
37.259356230624164
 30
0.0
 10
-1.9418931466692282
 20
37.949507077263725
 30
0.0
 10
-2.294026563742268
 20
38.78386610500224
 30
0.0
 10
-2.783182980055987
 20
39.748808913216244
 30
0.0
 10
-3.275498359653854
 20
40.57200383645049
 30
0.0
 10
-4.258872735448748
 20
40.520467369211254
 30
0.0
 10
-5.231473055798106
 20
40.36642261181325
 30
0.0
 10
-5.541878314791059
 20
39.4588583497359
 30
0.0
 10
-5.819722598995916
 20
38.41330051943701
 30
0.0
 10
-5.990688059838494
 20
37.52396158416751
 30
0.0
 10
-6.078084961553458
 20
36.7998155721382
 30
0.0
 10
-6.105895652209797
 20
36.24733625852897
 30
0.0
 10
-6.094572071687926
 20
35.66723851793786
 30
0.0
 10
-6.155069735733991
 20
35.27045782539237
 30
0.0
 10
-6.288127131927033
 20
35.059465547716705
 30
0.0
 10
-8.515479346458777
 20
34.58602721936771
 30
0.0
 10
-8.722851617093431
 20
34.72465893757204
 30
0.0
 10
-8.93950423020358
 20
35.062529520139385
 30
0.0
 10
-9.16510663231777
 20
35.597080891173924
 30
0.0
 10
-9.415226543827103
 20
36.09048423160414
 30
0.0
 10
-9.789604304430345
 20
36.716477009144675
 30
0.0
 10
-10.307515757684712
 20
37.459390636140604
 30
0.0
 10
-10.986605823483734
 20
38.301545791250334
 30
0.0
 10
-11.639314779203968
 20
39.00439380736039
 30
0.0
 10
-12.590485031468365
 20
38.749528506401646
 30
0.0
 10
-13.509803995318785
 20
38.39663501945343
 30
0.0
 10
-13.624732934403626
 20
37.44436633175477
 30
0.0
 10
-13.67912195803102
 20
36.36388937370639
 30
0.0
 10
-13.661447451620587
 20
35.458438909898156
 30
0.0
 10
-13.596376099584697
 20
34.731946388042935
 30
0.0
 10
-13.508712151690615
 20
34.18575790526384
 30
0.0
 10
-13.377026916485574
 20
33.62069099688596
 30
0.0
 10
-13.353707216751255
 20
33.220002742832754
 30
0.0
 10
-13.43998922839633
 20
32.98595696443263
 30
0.0
 10
-15.520235089684713
 20
32.059771834492665
 30
0.0
 10
-15.751898933597552
 20
32.15225899762346
 30
0.0
 10
-16.034064411403115
 20
32.437701686208435
 30
0.0
 10
-16.365876339131635
 20
32.91366645037873
 30
0.0
 10
-16.713114853234217
 20
33.34428489030549
 30
0.0
 10
-17.20946277835453
 20
33.878760710521874
 30
0.0
 10
-17.870517052068127
 20
34.49776004638039
 30
0.0
 10
-18.70986127284136
 20
35.18032132699876
 30
0.0
 10
-19.49443729127392
 20
35.732104605041634
 30
0.0
 10
-20.37183271576261
 20
35.28504930699469
 30
0.0
 10
-21.197691673012017
 20
34.748730229246746
 30
0.0
 10
-21.112121346060494
 20
33.79337582707135
 30
0.0
 10
-20.940678047790417
 20
32.72520176904387
 30
0.0
 10
-20.735136034868802
 20
31.84321230679869
 30
0.0
 10
-20.52044035941302
 20
31.14612448442054
 30
0.0
 10
-20.321133108149777
 20
30.630097890072143
 30
0.0
 10
-20.074841494935892
 20
30.10475794929547
 30
0.0
 10
-19.968723614199916
 20
29.71767413315223
 30
0.0
 10
-20.004459303361106
 20
29.47080377761999
 30
0.0
 10
-21.846682085140674
 20
28.13235058059677
 30
0.0
 10
-22.092512680706257
 20
28.17465105582258
 30
0.0
 10
-22.427859037846936
 20
28.395190635228012
 30
0.0
 10
-22.85137871773777
 20
28.79176684840748
 30
0.0
 10
-23.280559845132068
 20
29.14078029566946
 30
0.0
 10
-23.8771851487001
 20
29.560380000518702
 30
0.0
 10
-24.652490999021296
 20
30.028411803974436
 30
0.0
 10
-25.61540600470052
 20
30.521548006846007
 30
0.0
 10
-26.497559349026474
 20
30.898150969821298
 30
0.0
 10
-27.262833555478924
 20
30.27844413642014
 30
0.0
 10
-27.959138506784548
 20
29.582139185114507
 30
0.0
 10
-27.676808747696438
 20
28.66545264013649
 30
0.0
 10
-27.287026022339504
 20
27.65626581413352
 30
0.0
 10
-26.90259967517139
 20
26.836284525206516
 30
0.0
 10
-26.54766290753728
 20
26.199067485141846
 30
0.0
 10
-26.245423036167384
 20
25.735755617567506
 30
0.0
 10
-25.895289170280382
 20
25.273102520664697
 30
0.0
 10
-25.711010969141
 20
24.916540562631113
 30
0.0
 10
-25.694638514723103
 20
24.667635049118914
 30
0.0
 10
-27.218324241464412
 20
22.975410612333366
 30
0.0
 10
-27.46757761203044
 20
22.965675665906616
 30
0.0
 10
-27.84144860352884
 20
23.11167349824619
 30
0.0
 10
-28.338166193297855
 20
23.411528876935083
 30
0.0
 10
-28.830532659277186
 20
23.663683769134607
 30
0.0
 10
-29.501359952601177
 20
23.950068838052008
 30
0.0
 10
-30.357032793540707
 20
24.246677873428172
 30
0.0
 10
-31.4014345777989
 20
24.52883658015742
 30
0.0
 10
-32.3426109138298
 20
24.713799871441594
 30
0.0
 10
-32.96231774723096
 20
23.948525664989162
 30
0.0
 10
-33.49863682497891
 20
23.12266670773975
 30
0.0
 10
-33.03188679899484
 20
22.28471162072472
 30
0.0
 10
-32.440800022034196
 20
21.378618333658263
 30
0.0
 10
-31.894290616673104
 20
20.65648233508232
 30
0.0
 10
-31.41462519678185
 20
20.106985519688568
 30
0.0
 10
-31.02266203799198
 20
19.71663733071828
 30
0.0
 10
-30.583988449499827
 20
19.33689123807986
 30
0.0
 10
-30.329603769611744
 20
19.026434606696107
 30
0.0
 10
-30.26183872643656
 20
18.786372300525596
 30
0.0
 10
-31.400395020425712
 20
16.814334952059024
 30
0.0
 10
-31.64217759764808
 20
16.75299004785202
 30
0.0
 10
-32.03823326714365
 20
16.818065327277164
 30
0.0
 10
-32.58643982460251
 20
17.008094752561036
 30
0.0
 10
-33.12047285196714
 20
17.152370710935564
 30
0.0
 10
-33.83618376334233
 20
17.29302474218142
 30
0.0
 10
-34.7348265857773
 20
17.405247771344005
 30
0.0
 10
-35.81506977904658
 20
17.46409729249917
 30
0.0
 10
-36.774135184632755
 20
17.449337128710763
 30
0.0
 10
-37.221190482679724
 20
16.57194170422208
 30
0.0
 10
-37.574083969627914
 20
15.652622740371653
 30
0.0
 10
-36.94331289259853
 20
14.930021769576795
 30
0.0
 10
-36.17675539253638
 20
14.16662264600964
 30
0.0
 10
-35.492048012439675
 20
13.573892746115503
 30
0.0
 10
-34.90861762083059
 20
13.136131803003638
 30
0.0
 10
-34.44406184550776
 20
12.835807381593838
 30
0.0
 10
-33.93602067521698
 20
12.555565019692027
 30
0.0
 10
-33.622647347764435
 20
12.304782159485773
 30
0.0
 10
-33.50645137339149
 20
12.084054935383355
 30
0.0
 10
-34.2101178611819
 20
9.918392170248838
 30
0.0
 10
-34.433862586234454
 20
9.808118374940932
 30
0.0
 10
-34.8347934004843
 20
9.789426999474934
 30
0.0
 10
-35.41052966848511
 20
9.861325273606523
 30
0.0
 10
-35.96288945136444
 20
9.89141674646223
 30
0.0
 10
-36.69220397960175
 20
9.880192483938163
 30
0.0
 10
-37.59454178002504
 20
9.803124822006932
 30
0.0
 10
-38.663414571177604
 20
9.636093151122198
 30
0.0
 10
-39.59845328598852
 20
9.422254622245887
 30
0.0
 10
-39.85331858694728
 20
8.471084369981497
 30
0.0
 10
-40.00736334434527
 20
7.498484049632137
 30
0.0
 10
-39.240138939112185
 20
6.922818324905346
 30
0.0
 10
-38.33161295705225
 20
6.335477569732799
 30
0.0
 10
-37.538632600320696
 20
5.898058909379464
 30
0.0
 10
-36.87693594471671
 20
5.591166092373538
 30
0.0
 10
-36.36009086942849
 20
5.393991056856298
 30
0.0
 10
-35.804885954332796
 20
5.2255003616582565
 30
0.0
 10
-35.446219897457524
 20
5.045351687010195
 30
0.0
 10
-35.286671313537056
 20
4.853606383835876
 30
0.0
 10
-35.52469439304584
 20
2.5889680568727127
 30
0.0
 10
-35.72062254779749
 20
2.434584864471241
 30
0.0
 10
-36.10890590633938
 20
2.3329437369131347
 30
0.0
 10
-36.68700944728138
 20
2.2835685603066964
 30
0.0
 10
-37.233555212647275
 20
2.1981604058848796
 30
0.0
 10
-37.944598813223344
 20
2.035548403723183
 30
0.0
 10
-38.81119509985932
 20
1.772558277336198
 30
0.0
 10
-39.82198261890108
 20
1.3869454999361095
 30
0.0
 10
-40.69212896428594
 20
0.9833743757948987
 30
0.0
 10
-40.74366543152521
 20
-1.4929327848614153e-14
 30
0.0
 10
-40.69212896428594
 20
-0.9833743757948985
 30
0.0
 10
-39.821982618909004
 20
-1.3869454999324364
 30
0.0
 10
-38.81119509985865
 20
-1.7725582773356974
 30
0.0
 10
-37.944598813223344
 20
-2.0355484037231792
 30
0.0
 10
-37.2335552126472
 20
-2.198160405884885
 30
0.0
 10
-36.6870094472815
 20
-2.283568560306668
 30
0.0
 10
-36.108905906339345
 20
-2.332943736912728
 30
0.0
 10
-35.72062254779748
 20
-2.4345848644712285
 30
0.0
 10
-35.52469439304586
 20
-2.5889680568726807
 30
0.0
 10
-35.286671313537035
 20
-4.853606383835839
 30
0.0
 10
-35.44621989745753
 20
-5.045351687010183
 30
0.0
 10
-35.804885954332924
 20
-5.225500361657867
 30
0.0
 10
-36.36009086942838
 20
-5.393991056856248
 30
0.0
 10
-36.87693594471679
 20
-5.59116609237356
 30
0.0
 10
-37.538632600320696
 20
-5.898058909379462
 30
0.0
 10
-38.33161295705301
 20
-6.335477569732448
 30
0.0
 10
-39.2401389391052
 20
-6.922818324900105
 30
0.0
 10
-40.007363344345265
 20
-7.498484049632137
 30
0.0
 10
-39.85331858694728
 20
-8.471084369981504
 30
0.0
 10
-39.59845328598852
 20
-9.422254622245887
 30
0.0
 10
-38.66341457118612
 20
-9.636093151120248
 30
0.0
 10
-37.59454178002449
 20
-9.803124822006302
 30
0.0
 10
-36.69220397960174
 20
-9.880192483938158
 30
0.0
 10
-35.96288945136436
 20
-9.891416746462216
 30
0.0
 10
-35.41052966848522
 20
-9.861325273606518
 30
0.0
 10
-34.834793400484344
 20
-9.789426999474527
 30
0.0
 10
-34.43386258623445
 20
-9.808118374940916
 30
0.0
 10
-34.21011786118192
 20
-9.91839217024881
 30
0.0
 10
-33.506451373391485
 20
-12.084054935383314
 30
0.0
 10
-33.62264734776445
 20
-12.304782159485763
 30
0.0
 10
-33.936020675217186
 20
-12.55556501969167
 30
0.0
 10
-34.444061845507676
 20
-12.835807381593765
 30
0.0
 10
-34.908617620830654
 20
-13.13613180300367
 30
0.0
 10
-35.492048012439675
 20
-13.573892746115497
 30
0.0
 10
-36.176755392537196
 20
-14.166622646009452
 30
0.0
 10
-36.943312892592786
 20
-14.930021769570214
 30
0.0
 10
-37.574083969627914
 20
-15.65262274037165
 30
0.0
 10
-37.22119048267972
 20
-16.571941704222095
 30
0.0
 10
-36.77413518463276
 20
-17.449337128710752
 30
0.0
 10
-35.81506977905532
 20
-17.464097292499023
 30
0.0
 10
-34.7348265857769
 20
-17.405247771343262
 30
0.0
 10
-33.83618376334234
 20
-17.2930247421814
 30
0.0
 10
-33.12047285196708
 20
-17.152370710935525
 30
0.0
 10
-32.58643982460263
 20
-17.008094752561046
 30
0.0
 10
-32.038233267143795
 20
-16.81806532727677
 30
0.0
 10
-31.642177597648082
 20
-16.752990047851995
 30
0.0
 10
-31.400395020425755
 20
-16.814334952058996
 30
0.0
 10
-30.261838726436572
 20
-18.78637230052555
 30
0.0
 10
-30.329603769611765
 20
-19.02643460669609
 30
0.0
 10
-30.5839884495001
 20
-19.336891238079545
 30
0.0
 10
-31.022662037991918
 20
-19.716637330718186
 30
0.0
 10
-31.414625196781923
 20
-20.10698551968861
 30
0.0
 10
-31.894290616673118
 20
-20.656482335082313
 30
0.0
 10
-32.44080002203504
 20
-21.378618333658242
 30
0.0
 10
-33.031886798990605
 20
-22.284711620717083
 30
0.0
 10
-33.49863682497892
 20
-23.12266670773974
 30
0.0
 10
-32.962317747230976
 20
-23.94852566498916
 30
0.0
 10
-32.342610913829816
 20
-24.713799871441584
 30
0.0
 10
-31.401434577807475
 20
-24.528836580159094
 30
0.0
 10
-30.357032793540473
 20
-24.246677873427362
 30
0.0
 10
-29.50135995260119
 20
-23.950068838051994
 30
0.0
 10
-28.830532659277132
 20
-23.663683769134547
 30
0.0
 10
-28.338166193297976
 20
-23.411528876935108
 30
0.0
 10
-27.84144860352906
 20
-23.11167349824582
 30
0.0
 10
-27.467577612030453
 20
-22.965675665906588
 30
0.0
 10
-27.21832424146446
 20
-22.975410612333338
 30
0.0
 10
-25.694638514723124
 20
-24.667635049118857
 30
0.0
 10
-25.71101096914103
 20
-24.91654056263109
 30
0.0
 10
-25.895289170280723
 20
-25.273102520664438
 30
0.0
 10
-26.24542303616734
 20
-25.73575561756739
 30
0.0
 10
-26.54766290753734
 20
-26.199067485141892
 30
0.0
 10
-26.90259967517141
 20
-26.836284525206494
 30
0.0
 10
-27.28702602234034
 20
-27.65626581413366
 30
0.0
 10
-27.67680874769388
 20
-28.665452640128127
 30
0.0
 10
-27.959138506784555
 20
-29.582139185114485
 30
0.0
 10
-27.262833555478924
 20
-30.278444136420134
 30
0.0
 10
-26.497559349026492
 20
-30.89815096982128
 30
0.0
 10
-25.615406004708568
 20
-30.52154800684942
 30
0.0
 10
-24.652490999021236
 20
-30.028411803973583
 30
0.0
 10
-23.877185148700114
 20
-29.56038000051868
 30
0.0
 10
-23.28055984513202
 20
-29.14078029566939
 30
0.0
 10
-22.851378717737887
 20
-28.79176684840753
 30
0.0
 10
-22.42785903784723
 20
-28.3951906352277
 30
0.0
 10
-22.092512680706275
 20
-28.174651055822547
 30
0.0
 10
-21.84668208514073
 20
-28.13235058059675
 30
0.0
 10
-20.004459303361134
 20
-29.470803777619942
 30
0.0
 10
-19.96872361419994
 20
-29.717674133152215
 30
0.0
 10
-20.074841494936276
 20
-30.104757949295283
 30
0.0
 10
-20.32113310814976
 20
-30.630097890072015
 30
0.0
 10
-20.52044035941307
 20
-31.146124484420596
 30
0.0
 10
-20.735136034868823
 20
-31.843212306798677
 30
0.0
 10
-20.940678047791202
 20
-32.72520176904418
 30
0.0
 10
-21.11212134605973
 20
-33.79337582706265
 30
0.0
 10
-21.19769167301203
 20
-34.748730229246725
 30
0.0
 10
-20.371832715762604
 20
-35.28504930699469
 30
0.0
 10
-19.494437291273936
 20
-35.73210460504163
 30
0.0
 10
-18.709861272848514
 20
-35.18032132700378
 30
0.0
 10
-17.870517052068237
 20
-34.49776004637956
 30
0.0
 10
-17.209462778354546
 20
-33.87876071052186
 30
0.0
 10
-16.713114853234185
 20
-33.34428489030541
 30
0.0
 10
-16.365876339131724
 20
-32.9136664503788
 30
0.0
 10
-16.03406441140346
 20
-32.437701686208186
 30
0.0
 10
-15.751898933597573
 20
-32.15225899762345
 30
0.0
 10
-15.520235089684766
 20
-32.059771834492665
 30
0.0
 10
-13.43998922839637
 20
-32.985956964432596
 30
0.0
 10
-13.353707216751285
 20
-33.22000274283275
 30
0.0
 10
-13.377026916485987
 20
-33.62069099688587
 30
0.0
 10
-13.508712151690622
 20
-34.18575790526371
 30
0.0
 10
-13.596376099584733
 20
-34.73194638804301
 30
0.0
 10
-13.661447451620607
 20
-35.45843890989815
 30
0.0
 10
-13.679121958031718
 20
-36.363889373706876
 30
0.0
 10
-13.624732934404687
 20
-37.4443663317461
 30
0.0
 10
-13.509803995318803
 20
-38.39663501945342
 30
0.0
 10
-12.590485031468356
 20
-38.74952850640165
 30
0.0
 10
-11.63931477920397
 20
-39.00439380736039
 30
0.0
 10
-10.986605823489679
 20
-38.301545791256736
 30
0.0
 10
-10.307515757684984
 20
-37.459390636139815
 30
0.0
 10
-9.78960430443035
 20
-36.71647700914467
 30
0.0
 10
-9.415226543827076
 20
-36.09048423160406
 30
0.0
 10
-9.165106632317832
 20
-35.59708089117402
 30
0.0
 10
-8.939504230203957
 20
-35.06252952013922
 30
0.0
 10
-8.722851617093442
 20
-34.72465893757202
 30
0.0
 10
-8.515479346458818
 20
-34.586027219367715
 30
0.0
 10
-6.288127131927066
 20
-35.05946554771668
 30
0.0
 10
-6.155069735734006
 20
-35.27045782539237
 30
0.0
 10
-6.0945720716883365
 20
-35.667238517937854
 30
0.0
 10
-6.105895652209815
 20
-36.24733625852885
 30
0.0
 10
-6.078084961553462
 20
-36.79981557213828
 30
0.0
 10
-5.990688059838498
 20
-37.52396158416751
 30
0.0
 10
-5.819722598996485
 20
-38.41330051943763
 30
0.0
 10
-5.541878314793885
 20
-39.458858349727635
 30
0.0
 10
-5.231473055798107
 20
-40.36642261181324
 30
0.0
 10
-4.258872735448722
 20
-40.520467369211254
 30
0.0
 10
-3.2754983596538363
 20
-40.5720038364505
 30
0.0
 10
-2.783182980060453
 20
-39.74880891322374
 30
0.0
 10
-2.2940265637426793
 20
-38.78386610500153
 30
0.0
 10
-1.9418931466692153
 20
-37.949507077263725
 30
0.0
 10
-1.7058476551852029
 20
-37.25935623062409
 30
0.0
 10
-1.5637777866106242
 20
-36.72473208327933
 30
0.0
 10
-1.45424481764395
 20
-36.15495656535663
 30
0.0
 10
-1.3125738280363182
 20
-35.779424654548095
 30
0.0
 10
-1.138556293989168
 20
-35.60070725258459
 30
0.0
 10
1.1385562939891605
 20
-35.60070725258457
 30
0.0
 10
1.3125738280363337
 20
-35.77942465454811
 30
0.0
 10
1.4542448176435774
 20
-36.154956565356706
 30
0.0
 10
1.5637777866106122
 20
-36.724732083279214
 30
0.0
 10
1.7058476551852442
 20
-37.259356230624164
 30
0.0
 10
1.9418931466692406
 20
-37.949507077263725
 30
0.0
 10
2.2940265637422805
 20
-38.78386610500224
 30
0.0
 10
2.7831829800560004
 20
-39.748808913216244
 30
0.0
 10
3.2754983596538674
 20
-40.57200383645049
 30
0.0
 10
4.258872735448745
 20
-40.520467369211254
 30
0.0
 10
5.231473055798102
 20
-40.36642261181325
 30
0.0
 10
5.541878314791053
 20
-39.4588583497359
 30
0.0
 10
5.819722598995912
 20
-38.41330051943701
 30
0.0
 10
5.990688059838488
 20
-37.5239615841675
 30
0.0
 10
6.078084961553454
 20
-36.7998155721382
 30
0.0
 10
6.105895652209793
 20
-36.24733625852897
 30
0.0
 10
6.094572071687923
 20
-35.66723851793786
 30
0.0
 10
6.155069735733986
 20
-35.27045782539237
 30
0.0
 10
6.2881271319270295
 20
-35.059465547716705
 30
0.0
 10
8.515479346458774
 20
-34.58602721936771
 30
0.0
 10
8.722851617093427
 20
-34.72465893757204
 30
0.0
 10
8.939504230203575
 20
-35.062529520139385
 30
0.0
 10
9.165106632317766
 20
-35.597080891173924
 30
0.0
 10
9.4152265438271
 20
-36.09048423160414
 30
0.0
 10
9.78960430443034
 20
-36.716477009144675
 30
0.0
 10
10.307515757684707
 20
-37.459390636140604
 30
0.0
 10
10.98660582348373
 20
-38.301545791250334
 30
0.0
 10
11.639314779203962
 20
-39.00439380736039
 30
0.0
 10
12.590485031468377
 20
-38.74952850640164
 30
0.0
 10
13.5098039953188
 20
-38.396635019453434
 30
0.0
 10
13.624732934403637
 20
-37.44436633175478
 30
0.0
 10
13.67912195803103
 20
-36.36388937370639
 30
0.0
 10
13.6614474516206
 20
-35.45843890989815
 30
0.0
 10
13.596376099584708
 20
-34.731946388042935
 30
0.0
 10
13.508712151690625
 20
-34.185757905263834
 30
0.0
 10
13.377026916485585
 20
-33.62069099688596
 30
0.0
 10
13.353707216751268
 20
-33.22000274283275
 30
0.0
 10
13.439989228396342
 20
-32.98595696443263
 30
0.0
 10
15.520235089684723
 20
-32.059771834492665
 30
0.0
 10
15.751898933597563
 20
-32.15225899762346
 30
0.0
 10
16.034064411403126
 20
-32.43770168620843
 30
0.0
 10
16.365876339131646
 20
-32.91366645037872
 30
0.0
 10
16.713114853234227
 20
-33.34428489030548
 30
0.0
 10
17.209462778354542
 20
-33.87876071052187
 30
0.0
 10
17.870517052068138
 20
-34.49776004638039
 30
0.0
 10
18.70986127284137
 20
-35.18032132699876
 30
0.0
 10
19.494437291273933
 20
-35.73210460504163
 30
0.0
 10
20.37183271576259
 20
-35.2850493069947
 30
0.0
 10
21.197691673011995
 20
-34.74873022924675
 30
0.0
 10
21.112121346060476
 20
-33.793375827071365
 30
0.0
 10
20.9406780477904
 20
-32.725201769043885
 30
0.0
 10
20.735136034868788
 20
-31.8432123067987
 30
0.0
 10
20.520440359412998
 20
-31.14612448442055
 30
0.0
 10
20.32113310814976
 20
-30.630097890072154
 30
0.0
 10
20.074841494935875
 20
-30.104757949295482
 30
0.0
 10
19.9687236141999
 20
-29.71767413315224
 30
0.0
 10
20.004459303361088
 20
-29.470803777620002
 30
0.0
 10
21.84668208514066
 20
-28.13235058059678
 30
0.0
 10
22.092512680706236
 20
-28.174651055822586
 30
0.0
 10
22.42785903784692
 20
-28.395190635228026
 30
0.0
 10
22.851378717737752
 20
-28.79176684840749
 30
0.0
 10
23.28055984513205
 20
-29.140780295669476
 30
0.0
 10
23.877185148700086
 20
-29.560380000518713
 30
0.0
 10
24.652490999021282
 20
-30.028411803974446
 30
0.0
 10
25.615406004700503
 20
-30.52154800684602
 30
0.0
 10
26.497559349026456
 20
-30.89815096982131
 30
0.0
 10
27.262833555478917
 20
-30.27844413642015
 30
0.0
 10
27.95913850678454
 20
-29.582139185114507
 30
0.0
 10
27.676808747696427
 20
-28.665452640136493
 30
0.0
 10
27.287026022339496
 20
-27.65626581413352
 30
0.0
 10
26.902599675171384
 20
-26.836284525206516
 30
0.0
 10
26.54766290753727
 20
-26.19906748514185
 30
0.0
 10
26.245423036167374
 20
-25.735755617567506
 30
0.0
 10
25.895289170280375
 20
-25.2731025206647
 30
0.0
 10
25.711010969140993
 20
-24.916540562631116
 30
0.0
 10
25.694638514723092
 20
-24.667635049118914
 30
0.0
 10
27.218324241464405
 20
-22.97541061233337
 30
0.0
 10
27.467577612030432
 20
-22.96567566590662
 30
0.0
 10
27.841448603528832
 20
-23.111673498246194
 30
0.0
 10
28.338166193297848
 20
-23.411528876935087
 30
0.0
 10
28.83053265927718
 20
-23.66368376913461
 30
0.0
 10
29.50135995260117
 20
-23.95006883805201
 30
0.0
 10
30.357032793540697
 20
-24.246677873428172
 30
0.0
 10
31.401434577798884
 20
-24.528836580157424
 30
0.0
 10
32.34261091382979
 20
-24.713799871441598
 30
0.0
 10
32.96231774723098
 20
-23.948525664989155
 30
0.0
 10
33.49863682497892
 20
-23.122666707739743
 30
0.0
 10
33.031886798994854
 20
-22.284711620724714
 30
0.0
 10
32.44080002203421
 20
-21.378618333658256
 30
0.0
 10
31.894290616673114
 20
-20.656482335082313
 30
0.0
 10
31.414625196781856
 20
-20.106985519688557
 30
0.0
 10
31.022662037991992
 20
-19.716637330718275
 30
0.0
 10
30.583988449499834
 20
-19.336891238079854
 30
0.0
 10
30.32960376961175
 20
-19.026434606696096
 30
0.0
 10
30.26183872643657
 20
-18.78637230052559
 30
0.0
 10
31.40039502042572
 20
-16.814334952059017
 30
0.0
 10
31.642177597648086
 20
-16.752990047852013
 30
0.0
 10
32.03823326714367
 20
-16.818065327277157
 30
0.0
 10
32.586439824602515
 20
-17.00809475256103
 30
0.0
 10
33.12047285196716
 20
-17.152370710935553
 30
0.0
 10
33.83618376334235
 20
-17.29302474218141
 30
0.0
 10
34.734826585777306
 20
-17.405247771343998
 30
0.0
 10
35.81506977904659
 20
-17.464097292499158
 30
0.0
 10
36.77413518463276
 20
-17.449337128710752
 30
0.0
 10
37.22119048267971
 20
-16.571941704222102
 30
0.0
 10
37.57408396962791
 20
-15.652622740371674
 30
0.0
 10
36.94331289259853
 20
-14.930021769576816
 30
0.0
 10
36.17675539253638
 20
-14.166622646009662
 30
0.0
 10
35.492048012439675
 20
-13.573892746115524
 30
0.0
 10
34.908617620830576
 20
-13.136131803003655
 30
0.0
 10
34.44406184550776
 20
-12.835807381593858
 30
0.0
 10
33.93602067521698
 20
-12.555565019692047
 30
0.0
 10
33.622647347764435
 20
-12.304782159485793
 30
0.0
 10
33.506451373391485
 20
-12.084054935383373
 30
0.0
 10
34.210117861181885
 20
-9.918392170248858
 30
0.0
 10
34.43386258623445
 20
-9.808118374940952
 30
0.0
 10
34.834793400484294
 20
-9.789426999474953
 30
0.0
 10
35.410529668485104
 20
-9.861325273606544
 30
0.0
 10
35.96288945136443
 20
-9.89141674646225
 30
0.0
 10
36.69220397960174
 20
-9.880192483938185
 30
0.0
 10
37.59454178002504
 20
-9.803124822006954
 30
0.0
 10
38.663414571177604
 20
-9.63609315112222
 30
0.0
 10
39.59845328598851
 20
-9.422254622245909
 30
0.0
  0
LWPOLYLINE
  8
OpenJsCad
  90
31
  70
1
 10
0.41582338163551874
 20
-1.9562952014676114
 30
0.0
 10
1.2246467991473532e-16
 20
-2
 30
0.0
 10
-0.41582338163551785
 20
-1.9562952014676114
 30
0.0
 10
-0.8134732861516002
 20
-1.827090915285202
 30
0.0
 10
-1.1755705045849467
 20
-1.6180339887498945
 30
0.0
 10
-1.486289650954788
 20
-1.338261212717717
 30
0.0
 10
-1.7320508075688772
 20
-1.0000000000000002
 30
0.0
 10
-1.9021130325903073
 20
-0.6180339887498946
 30
0.0
 10
-1.9890437907365468
 20
-0.20905692653530608
 30
0.0
 10
-1.9890437907365466
 20
0.20905692653530836
 30
0.0
 10
-1.902113032590307
 20
0.618033988749895
 30
0.0
 10
-1.7320508075688767
 20
1.0000000000000009
 30
0.0
 10
-1.486289650954788
 20
1.338261212717717
 30
0.0
 10
-1.175570504584946
 20
1.618033988749895
 30
0.0
 10
-0.8134732861516005
 20
1.8270909152852017
 30
0.0
 10
-0.41582338163551824
 20
1.9562952014676114
 30
0.0
 10
1.0106430996148606e-15
 20
2
 30
0.0
 10
0.4158233816355185
 20
1.9562952014676114
 30
0.0
 10
0.8134732861516
 20
1.827090915285202
 30
0.0
 10
1.1755705045849465
 20
1.618033988749895
 30
0.0
 10
1.486289650954789
 20
1.3382612127177158
 30
0.0
 10
1.7320508075688774
 20
0.9999999999999997
 30
0.0
 10
1.9021130325903073
 20
0.6180339887498948
 30
0.0
 10
1.9890437907365468
 20
0.20905692653530678
 30
0.0
 10
1.9890437907365466
 20
-0.2090569265353068
 30
0.0
 10
1.902113032590307
 20
-0.6180339887498948
 30
0.0
 10
1.7320508075688772
 20
-1.0000000000000002
 30
0.0
 10
1.4862896509547885
 20
-1.3382612127177165
 30
0.0
 10
1.1755705045849463
 20
-1.618033988749895
 30
0.0
 10
0.8134732861516004
 20
-1.8270909152852017
 30
0.0
 10
0.41582338163551874
 20
-1.9562952014676114
 30
0.0
  0
LWPOLYLINE
  8
OpenJsCad
  90
121
  70
1
 10
36.98714438962538
 20
5.5595368336880835
 30
0.0
 10
36.61990314628813
 20
4.872476792022168
 30
0.0
 10
36.39375710523899
 20
4.126973203982729
 30
0.0
 10
36.575507736259965
 20
3.756273393922999
 30
0.0
 10
37.68803796637104
 20
2.481777061429565
 30
0.0
 10
38.540975774677364
 20
1.9090215332924974
 30
0.0
 10
38.88447755893862
 20
1.7915370038068383
 30
0.0
 10
40.067405062298135
 20
1.711272225809989
 30
0.0
 10
40.793665431525206
 20
1.1385562939891423
 30
0.0
 10
40.7936654315252
 20
-1.1385562939891571
 30
0.0
 10
40.067405062298135
 20
-1.7112722258099964
 30
0.0
 10
38.88447755893861
 20
-1.791537003806853
 30
0.0
 10
38.540975774677364
 20
-1.9090215332925098
 30
0.0
 10
37.68803796637101
 20
-2.481777061429595
 30
0.0
 10
36.57550773625997
 20
-3.756273393922992
 30
0.0
 10
36.39375710523899
 20
-4.1269732039827245
 30
0.0
 10
36.61990314628813
 20
-4.8724767920221606
 30
0.0
 10
36.98714438962538
 20
-5.559536833688087
 30
0.0
 10
37.37778584278305
 20
-5.69314407948602
 30
0.0
 10
39.0656685120731
 20
-5.807671408802942
 30
0.0
 10
40.073785938164704
 20
-5.609552618526951
 30
0.0
 10
40.399752486649334
 20
-5.44973428500996
 30
0.0
 10
41.292964314738924
 20
-4.670033994544381
 30
0.0
 10
42.211479265810524
 20
-4.5614616816409645
 30
0.0
 10
43.821641018295225
 20
-6.171623434125674
 30
0.0
 10
43.71306870539181
 20
-7.090138385197262
 30
0.0
 10
42.933368414926235
 20
-7.9833502132868635
 30
0.0
 10
42.77355008140924
 20
-8.309316761771491
 30
0.0
 10
42.57543129113324
 20
-9.317434187863121
 30
0.0
 10
42.68995862045016
 20
-11.005316857153137
 30
0.0
 10
42.823565866248096
 20
-11.395958310310803
 30
0.0
 10
43.51062590791402
 20
-11.763199553648057
 30
0.0
 10
44.25612949595346
 20
-11.989345594697197
 30
0.0
 10
44.626829306013185
 20
-11.807594963676221
 30
0.0
 10
45.90132563850662
 20
-10.695064733565145
 30
0.0
 10
46.47408116664369
 20
-9.842126925258821
 30
0.0
 10
46.59156569612935
 20
-9.498625140997566
 30
0.0
 10
46.671830474126196
 20
-8.315697637638054
 30
0.0
 10
47.24454640594705
 20
-7.589437268410981
 30
0.0
 10
49.52165899392534
 20
-7.589437268410987
 30
0.0
 10
50.09437492574619
 20
-8.31569763763805
 30
0.0
 10
50.17463970374304
 20
-9.498625140997571
 30
0.0
 10
50.2921242332287
 20
-9.842126925258821
 30
0.0
 10
50.864879761365785
 20
-10.695064733565177
 30
0.0
 10
52.13937609385918
 20
-11.80759496367622
 30
0.0
 10
52.51007590391891
 20
-11.989345594697198
 30
0.0
 10
53.25557949195835
 20
-11.76319955364806
 30
0.0
 10
53.94263953362427
 20
-11.395958310310808
 30
0.0
 10
54.076246779422206
 20
-11.005316857153142
 30
0.0
 10
54.19077410873913
 20
-9.317434187863082
 30
0.0
 10
53.992655318463136
 20
-8.309316761771484
 30
0.0
 10
53.83283698494615
 20
-7.983350213286852
 30
0.0
 10
53.05313669448057
 20
-7.090138385197262
 30
0.0
 10
52.94456438157715
 20
-6.17162343412566
 30
0.0
 10
54.554726134061866
 20
-4.56146168164096
 30
0.0
 10
55.47324108513345
 20
-4.670033994544374
 30
0.0
 10
56.36645291322305
 20
-5.449734285009954
 30
0.0
 10
56.69241946170768
 20
-5.609552618526944
 30
0.0
 10
57.70053688779931
 20
-5.807671408802944
 30
0.0
 10
59.38841955708932
 20
-5.693144079486027
 30
0.0
 10
59.77906101024699
 20
-5.559536833688094
 30
0.0
 10
60.146302253584246
 20
-4.872476792022169
 30
0.0
 10
60.37244829463339
 20
-4.126973203982731
 30
0.0
 10
60.19069766361241
 20
-3.7562733939230006
 30
0.0
 10
59.078167433501335
 20
-2.481777061429566
 30
0.0
 10
58.22522962519501
 20
-1.9090215332924982
 30
0.0
 10
57.881727840933756
 20
-1.7915370038068392
 30
0.0
 10
56.69880033757424
 20
-1.71127222580999
 30
0.0
 10
55.97253996834717
 20
-1.1385562939891432
 30
0.0
 10
55.97253996834718
 20
1.1385562939891563
 30
0.0
 10
56.69880033757424
 20
1.7112722258099953
 30
0.0
 10
57.88172784093376
 20
1.7915370038068519
 30
0.0
 10
58.22522962519501
 20
1.9090215332925085
 30
0.0
 10
59.07816743350136
 20
2.481777061429594
 30
0.0
 10
60.19069766361241
 20
3.7562733939229904
 30
0.0
 10
60.37244829463339
 20
4.126973203982723
 30
0.0
 10
60.14630225358425
 20
4.8724767920221606
 30
0.0
 10
59.779061010247
 20
5.559536833688087
 30
0.0
 10
59.388419557089335
 20
5.693144079486021
 30
0.0
 10
57.700536887799274
 20
5.807671408802942
 30
0.0
 10
56.69241946170767
 20
5.609552618526951
 30
0.0
 10
56.36645291322304
 20
5.449734285009959
 30
0.0
 10
55.47324108513345
 20
4.670033994544381
 30
0.0
 10
54.55472613406185
 20
4.561461681640965
 30
0.0
 10
52.94456438157715
 20
6.171623434125674
 30
0.0
 10
53.053136694480564
 20
7.090138385197262
 30
0.0
 10
53.83283698494614
 20
7.9833502132868635
 30
0.0
 10
53.992655318463136
 20
8.309316761771491
 30
0.0
 10
54.190774108739134
 20
9.317434187863121
 30
0.0
 10
54.07624677942222
 20
11.005316857153137
 30
0.0
 10
53.94263953362429
 20
11.395958310310805
 30
0.0
 10
53.25557949195836
 20
11.763199553648057
 30
0.0
 10
52.51007590391892
 20
11.989345594697195
 30
0.0
 10
52.13937609385919
 20
11.80759496367622
 30
0.0
 10
50.864879761365756
 20
10.695064733565147
 30
0.0
 10
50.292124233228684
 20
9.842126925258821
 30
0.0
 10
50.174639703743026
 20
9.498625140997564
 30
0.0
 10
50.09437492574618
 20
8.315697637638053
 30
0.0
 10
49.52165899392533
 20
7.589437268410981
 30
0.0
 10
47.244546405947034
 20
7.589437268410988
 30
0.0
 10
46.671830474126196
 20
8.31569763763805
 30
0.0
 10
46.59156569612934
 20
9.498625140997571
 30
0.0
 10
46.47408116664368
 20
9.842126925258821
 30
0.0
 10
45.90132563850659
 20
10.695064733565177
 30
0.0
 10
44.6268293060132
 20
11.80759496367622
 30
0.0
 10
44.256129495953466
 20
11.989345594697198
 30
0.0
 10
43.51062590791402
 20
11.763199553648056
 30
0.0
 10
42.82356586624809
 20
11.395958310310805
 30
0.0
 10
42.689958620450156
 20
11.005316857153138
 30
0.0
 10
42.57543129113324
 20
9.317434187863077
 30
0.0
 10
42.77355008140923
 20
8.309316761771479
 30
0.0
 10
42.93336841492622
 20
7.983350213286847
 30
0.0
 10
43.713068705391805
 20
7.090138385197258
 30
0.0
 10
43.82164101829522
 20
6.171623434125657
 30
0.0
 10
42.21147926581051
 20
4.561461681640955
 30
0.0
 10
41.292964314738924
 20
4.67003399454437
 30
0.0
 10
40.39975248664932
 20
5.4497342850099475
 30
0.0
 10
40.07378593816469
 20
5.609552618526937
 30
0.0
 10
39.06566851207306
 20
5.807671408802936
 30
0.0
 10
37.37778584278305
 20
5.693144079486018
 30
0.0
 10
36.98714438962538
 20
5.5595368336880835
 30
0.0
  0
LWPOLYLINE
  8
OpenJsCad
  90
31
  70
1
 10
47.25029022608652
 20
1.6482523772440314
 30
0.0
 10
47.617735835206005
 20
1.8477590650225737
 30
0.0
 10
48.018631648951896
 20
1.966509815127909
 30
0.0
 10
48.43545659655194
 20
1.9993146499511147
 30
0.0
 10
48.849993427648
 20
1.9447398407953531
 30
0.0
 10
49.24412489355278
 20
1.8051705686997215
 30
0.0
 10
49.60062555795363
 20
1.5867066805824703
 30
0.0
 10
49.90391463113625
 20
1.2988960966603669
 30
0.0
 10
50.14073692526012
 20
0.9543175205192159
 30
0.0
 10
50.300742169672574
 20
0.5680306894078436
 30
0.0
 10
50.37693736740245
 20
0.15691819145568942
 30
0.0
 10
50.36599242268381
 20
-0.2610523844401045
 30
0.0
 10
50.268385682120545
 20
-0.6676137184675427
 30
0.0
 10
50.08838302864437
 20
-1.044997129431898
 30
0.0
 10
49.83385144196076
 20
-1.376709151387508
 30
0.0
 10
49.51591517378586
 20
-1.6482523772440316
 30
0.0
 10
49.148469564666364
 20
-1.8477590650225741
 30
0.0
 10
48.74757375092048
 20
-1.9665098151279092
 30
0.0
 10
48.33074880332044
 20
-1.9993146499511145
 30
0.0
 10
47.916211972224374
 20
-1.9447398407953533
 30
0.0
 10
47.5220805063196
 20
-1.8051705686997208
 30
0.0
 10
47.16557984191875
 20
-1.5867066805824699
 30
0.0
 10
46.86229076873612
 20
-1.2988960966603673
 30
0.0
 10
46.625468474612255
 20
-0.9543175205192165
 30
0.0
 10
46.4654632301998
 20
-0.5680306894078451
 30
0.0
 10
46.38926803246993
 20
-0.15691819145568964
 30
0.0
 10
46.400212977188566
 20
0.2610523844401037
 30
0.0
 10
46.49781971775183
 20
0.6676137184675422
 30
0.0
 10
46.677822371228004
 20
1.044997129431898
 30
0.0
 10
46.932353957911616
 20
1.376709151387508
 30
0.0
 10
47.25029022608652
 20
1.6482523772440314
 30
0.0
  0
ENDSEC
  0
EOF
