999
DXF generated by OpenJsCad
  0
SECTION
  2
HEADER
  0
ENDSEC
  0
SECTION
  2
TABLES
  0
TABLE
  2
LTYPE
  70
1
  0
LTYPE
  2
CONTINUOUS
  3
Solid Line
  72
65
  73
0
  40
0.0
  0
ENDTAB
  0
TABLE
  2
LAYER
  70
1
  0
LAYER
  2
OpenJsCad
  62
7
  6
continuous
  0
ENDTAB
  0
TABLE
  2
STYLE
  70
0
  0
ENDTAB
  0
TABLE
  2
VIEW
  70
0
  0
ENDTAB
  0
ENDSEC
  0
SECTION
  2
BLOCKS
  0
ENDSEC
  0
SECTION
  2
ENTITIES
  0
LWPOLYLINE
  8
OpenJsCad
  90
31
  70
1
 10
50.97958178940651
 20
0
 30
0.0
 10
49.86555561372079
 20
10.59925104701776
 30
0.0
 10
46.57216537623177
 20
20.735263962431397
 30
0.0
 10
41.24334803375746
 20
29.965046343851075
 30
0.0
 10
34.111998474666585
 20
37.885212411799046
 30
0.0
 10
25.489790894703262
 20
44.149612903932585
 30
0.0
 10
15.753557139054205
 20
48.484463458816805
 30
0.0
 10
5.328817342474314
 20
50.70031030628247
 30
0.0
 10
-5.3288173424743075
 20
50.700310306282475
 30
0.0
 10
-15.7535571390542
 20
48.48446345881681
 30
0.0
 10
-25.489790894703244
 20
44.14961290393259
 30
0.0
 10
-34.11199847466657
 20
37.88521241179906
 30
0.0
 10
-41.24334803375746
 20
29.96504634385108
 30
0.0
 10
-46.57216537623178
 20
20.73526396243139
 30
0.0
 10
-49.86555561372079
 20
10.59925104701776
 30
0.0
 10
-50.97958178940651
 20
2.8882680361370917e-14
 30
0.0
 10
-49.86555561372079
 20
-10.599251047017747
 30
0.0
 10
-46.57216537623177
 20
-20.7352639624314
 30
0.0
 10
-41.24334803375746
 20
-29.965046343851068
 30
0.0
 10
-34.1119984746666
 20
-37.88521241179903
 30
0.0
 10
-25.489790894703276
 20
-44.14961290393257
 30
0.0
 10
-15.75355713905421
 20
-48.484463458816805
 30
0.0
 10
-5.328817342474353
 20
-50.70031030628247
 30
0.0
 10
5.32881734247429
 20
-50.700310306282475
 30
0.0
 10
15.753557139054193
 20
-48.48446345881681
 30
0.0
 10
25.489790894703262
 20
-44.149612903932585
 30
0.0
 10
34.1119984746666
 20
-37.88521241179903
 30
0.0
 10
41.24334803375745
 20
-29.965046343851085
 30
0.0
 10
46.57216537623178
 20
-20.735263962431397
 30
0.0
 10
49.86555561372079
 20
-10.599251047017743
 30
0.0
 10
50.97958178940651
 20
0
 30
0.0
  0
LWPOLYLINE
  8
OpenJsCad
  90
811
  70
1
 10
-40.47057686697352
 20
4.0095250063776895
 30
0.0
 10
-40.4446740921509
 20
4.250906541025061
 30
0.0
 10
-40.41982478619528
 20
4.492398799712049
 30
0.0
 10
-40.379576422882785
 20
4.857535576620315
 30
0.0
 10
-40.16868823159331
 20
5.307465323997368
 30
0.0
 10
-39.85179303444418
 20
5.489553643354221
 30
0.0
 10
-38.569246087034124
 20
5.841011295938841
 30
0.0
 10
-38.203962748923956
 20
5.9274445116582175
 30
0.0
 10
-37.5473013817157
 20
6.037468732547925
 30
0.0
 10
-37.43573006121516
 20
6.052047675902104
 30
0.0
 10
-37.06214745089965
 20
6.097135216444749
 30
0.0
 10
-36.463756818366875
 20
6.145410870940089
 30
0.0
 10
-35.42790018972545
 20
6.197553797478423
 30
0.0
 10
-35.25391299567983
 20
6.279902746229811
 30
0.0
 10
-35.14668849486194
 20
6.358748863024401
 30
0.0
 10
-34.69443379236919
 20
8.486439953525029
 30
0.0
 10
-34.760318643174784
 20
8.602081598893653
 30
0.0
 10
-34.88576951900717
 20
8.748078074211406
 30
0.0
 10
-35.81086319797118
 20
9.217033855740134
 30
0.0
 10
-36.33788476456565
 20
9.504523257743461
 30
0.0
 10
-36.660830706388786
 20
9.697662512433691
 30
0.0
 10
-36.756826388955766
 20
9.756361184276056
 30
0.0
 10
-37.31196551591654
 20
10.123961551636361
 30
0.0
 10
-37.61051289418767
 20
10.351496341960704
 30
0.0
 10
-38.639227126411946
 20
11.19422772400979
 30
0.0
 10
-38.85466330255789
 20
11.489466569743307
 30
0.0
 10
-38.864316336712626
 20
11.986273801707288
 30
0.0
 10
-38.75257053929113
 20
12.336213329853118
 30
0.0
 10
-38.677047759245326
 20
12.5669346091196
 30
0.0
 10
-38.60253240642192
 20
12.797983221333183
 30
0.0
 10
-38.4872473617476
 20
13.146772778336732
 30
0.0
 10
-38.187421928888334
 20
13.543024360807866
 30
0.0
 10
-37.839593361757196
 20
13.655247397257122
 30
0.0
 10
-36.51200098751988
 20
13.732368352503126
 30
0.0
 10
-36.13672949073635
 20
13.740966118628698
 30
0.0
 10
-35.47154242811093
 20
13.712058471163603
 30
0.0
 10
-35.35937807588952
 20
13.70312184773469
 30
0.0
 10
-34.9845849151445
 20
13.669551925168658
 30
0.0
 10
-34.38923348067952
 20
13.592360232607733
 30
0.0
 10
-33.365171680648935
 20
13.427997007990822
 30
0.0
 10
-33.177865215062845
 20
13.472372462940282
 30
0.0
 10
-33.056590797390754
 20
13.527202375647947
 30
0.0
 10
-32.17184709306302
 20
15.514369271048281
 30
0.0
 10
-32.21224895178569
 20
15.641182099740778
 30
0.0
 10
-32.304604050954346
 20
15.81007090549731
 30
0.0
 10
-33.111980824030596
 20
16.46111666900811
 30
0.0
 10
-33.567713297267254
 20
16.85189768282214
 30
0.0
 10
-33.84344618642234
 20
17.107960618212086
 30
0.0
 10
-33.925139992894536
 20
17.18533520791466
 30
0.0
 10
-34.391719584081564
 20
17.660322539802518
 30
0.0
 10
-34.636435842866646
 20
17.944956639247305
 30
0.0
 10
-35.46745649441052
 20
18.983154034051744
 30
0.0
 10
-35.6168012656074
 20
19.316732902295215
 30
0.0
 10
-35.522951326197536
 20
19.80469068292062
 30
0.0
 10
-35.34089092357685
 20
20.123749935094704
 30
0.0
 10
-35.21904884619434
 20
20.333727331952897
 30
0.0
 10
-35.09812412498587
 20
20.544234364645096
 30
0.0
 10
-34.91284090860102
 20
20.861432924424886
 30
0.0
 10
-34.537182044309965
 20
21.186688246410064
 30
0.0
 10
-34.1736218846471
 20
21.224141314753012
 30
0.0
 10
-32.8590062408317
 20
21.023555016848746
 30
0.0
 10
-32.49014775053667
 20
20.95394156974417
 30
0.0
 10
-31.84550685905248
 20
20.787365456832777
 30
0.0
 10
-31.737651595526554
 20
20.755303839947292
 30
0.0
 10
-31.3780281439337
 20
20.64454362097508
 30
0.0
 10
-30.811735622035776
 20
20.44525822872963
 30
0.0
 10
-29.84422506527108
 20
20.071572314575494
 30
0.0
 10
-29.651785519486765
 20
20.07603485540468
 30
0.0
 10
-29.521761458951982
 20
20.104452233736982
 30
0.0
 10
-28.243196298139708
 20
21.864246205223314
 30
0.0
 10
-28.25634940968363
 20
21.99668788811036
 30
0.0
 10
-28.311572371185946
 20
22.181087773075703
 30
0.0
 10
-28.96594599916742
 20
22.98576969463897
 30
0.0
 10
-29.330471683118787
 20
23.462763314784688
 30
0.0
 10
-29.546940669236548
 20
23.770558751871512
 30
0.0
 10
-29.610762188260743
 20
23.863227618579824
 30
0.0
 10
-29.968390476641876
 20
24.42484268934964
 30
0.0
 10
-30.148580341153103
 20
24.754136221943185
 30
0.0
 10
-30.74558782186461
 20
25.9424254215262
 30
0.0
 10
-30.82231410497539
 20
26.299765315048383
 30
0.0
 10
-30.629062884695117
 20
26.757547547840666
 30
0.0
 10
-30.3846447900925
 20
27.03178210370684
 30
0.0
 10
-30.22180849881808
 20
27.211838598330665
 30
0.0
 10
-30.05975939980255
 20
27.392603884048008
 30
0.0
 10
-29.81257577735068
 20
27.664348347454098
 30
0.0
 10
-29.377501576608587
 20
27.904392190634372
 30
0.0
 10
-29.014099147946467
 20
27.86543841206467
 30
0.0
 10
-27.76991524641345
 20
27.395911444748393
 30
0.0
 10
-27.423590648612247
 20
27.251129226094516
 30
0.0
 10
-26.827669828557344
 20
26.954164823191928
 30
0.0
 10
-26.72883744628996
 20
26.900379459356476
 30
0.0
 10
-26.400100974348657
 20
26.717269697033664
 30
0.0
 10
-25.887617065597734
 20
26.404600333022238
 30
0.0
 10
-25.018942606060286
 20
25.837923596923364
 30
0.0
 10
-24.829780511655915
 20
25.80227818918439
 30
0.0
 10
-24.69668948362848
 20
25.8030410573465
 30
0.0
 10
-23.080182299095494
 20
27.258550663936514
 30
0.0
 10
-23.06551180937057
 20
27.390832863950234
 30
0.0
 10
-23.08118912479973
 20
27.582684668302583
 30
0.0
 10
-23.55396034011058
 20
28.505834286653744
 30
0.0
 10
-23.81134771319968
 20
29.04819360306144
 30
0.0
 10
-23.959092062853333
 20
29.394269404278077
 30
0.0
 10
-24.00225198779855
 20
29.498182473842412
 30
0.0
 10
-24.235298901080604
 20
30.121880009973435
 30
0.0
 10
-24.343087209591932
 20
30.481441268215725
 30
0.0
 10
-24.679989427804237
 20
31.767888332511326
 30
0.0
 10
-24.680743916083436
 20
32.13337178325825
 30
0.0
 10
-24.396537420581232
 20
32.54097118796152
 30
0.0
 10
-24.100443877578957
 20
32.75839568150503
 30
0.0
 10
-23.90373009971657
 20
32.900661941072485
 30
0.0
 10
-23.707638946118806
 20
33.04378516942106
 30
0.0
 10
-23.409358028019696
 20
33.258198999428
 30
0.0
 10
-22.933883321116635
 20
33.40254029599822
 30
0.0
 10
-22.586521053386107
 20
33.28888213756033
 30
0.0
 10
-21.467145700889226
 20
32.570935082344135
 30
0.0
 10
-21.15849104235555
 20
32.3573117698383
 30
0.0
 10
-20.637334893111685
 20
31.94293784634466
 30
0.0
 10
-20.551844841458315
 20
31.869779414049656
 30
0.0
 10
-20.26836271044501
 20
31.622322883647882
 30
0.0
 10
-19.832085420824143
 20
31.209934699431845
 30
0.0
 10
-19.100212300758255
 20
30.475033633972433
 30
0.0
 10
-18.92259494895974
 20
30.400838153029135
 30
0.0
 10
-18.792253670006048
 20
30.373913170021723
 30
0.0
 10
-16.90845358257853
 20
31.461525657597438
 30
0.0
 10
-16.866600662382563
 20
31.587867007836817
 30
0.0
 10
-16.842047157826208
 20
31.778785887118882
 30
0.0
 10
-17.11255358974936
 20
32.78005713417264
 30
0.0
 10
-17.251553588690555
 20
33.364078442186546
 30
0.0
 10
-17.32411616484419
 20
33.733309434363896
 30
0.0
 10
-17.34472819988602
 20
33.84392520701406
 30
0.0
 10
-17.44300846967541
 20
34.50244663334454
 30
0.0
 10
-17.473684355879204
 20
34.87656106488404
 30
0.0
 10
-17.535757068020228
 20
36.2049420841246
 30
0.0
 10
-17.460506786709608
 20
36.56259571151445
 30
0.0
 10
-17.097766203612995
 20
36.902198238264226
 30
0.0
 10
-16.762937920854725
 20
37.05331017579875
 30
0.0
 10
-16.540943992434322
 20
37.151568482097524
 30
0.0
 10
-16.319380908616296
 20
37.25079448121704
 30
0.0
 10
-15.983039002301519
 20
37.39850676458182
 30
0.0
 10
-15.487944315509939
 20
37.4408371072555
 30
0.0
 10
-15.171803606639925
 20
37.257441975865504
 30
0.0
 10
-14.226158877442172
 20
36.322452564154524
 30
0.0
 10
-13.968663847843326
 20
36.04932452163162
 30
0.0
 10
-13.54504939391712
 20
35.5356512063903
 30
0.0
 10
-13.476637998361797
 20
35.44631708018015
 30
0.0
 10
-13.250799737699955
 20
35.14532881950615
 30
0.0
 10
-12.909796478256279
 20
34.65124515759379
 30
0.0
 10
-12.346711064925705
 20
33.78023846578099
 30
0.0
 10
-12.188401186309253
 20
33.670735610179996
 30
0.0
 10
-12.066506195766435
 20
33.61729952696089
 30
0.0
 10
-9.9977443087407
 20
34.289481010871505
 30
0.0
 10
-9.93053813151884
 20
34.40435978807802
 30
0.0
 10
-9.866826912946868
 20
34.586001671134746
 30
0.0
 10
-9.923246132373412
 20
35.62163418876235
 30
0.0
 10
-9.93778379021697
 20
36.2217929547771
 30
0.0
 10
-9.931993260098801
 20
36.59804197179013
 30
0.0
 10
-9.929156560398399
 20
36.71052600746795
 30
0.0
 10
-9.88837486730427
 20
37.37509077773085
 30
0.0
 10
-9.84059764777419
 20
37.74740778670906
 30
0.0
 10
-9.62512797846545
 20
39.05966613607443
 30
0.0
 10
-9.477161725949198
 20
39.393858760377746
 30
0.0
 10
-9.051740559361932
 20
39.65062214916134
 30
0.0
 10
-8.692811139488558
 20
39.7288172139011
 30
0.0
 10
-8.455239260427238
 20
39.77877320745024
 30
0.0
 10
-8.217887616329431
 20
39.82976532504001
 30
0.0
 10
-7.858184477052479
 20
39.90432032617739
 30
0.0
 10
-7.365107823913057
 20
39.842789675856174
 30
0.0
 10
-7.094005539892608
 20
39.5976728187833
 30
0.0
 10
-6.363420646366788
 20
38.48650457444629
 30
0.0
 10
-6.168339014094478
 20
38.16580880797832
 30
0.0
 10
-5.860780239850184
 20
37.575286089743415
 30
0.0
 10
-5.812437406652974
 20
37.47368059960619
 30
0.0
 10
-5.654113232025726
 20
37.13231523995332
 30
0.0
 10
-5.423287481512115
 20
36.57812992724668
 30
0.0
 10
-5.053599309462994
 20
35.60908478106652
 30
0.0
 10
-4.921515805379224
 20
35.469060351050615
 30
0.0
 10
-4.813394499251059
 20
35.39144858087126
 30
0.0
 10
-2.6500856341110492
 20
35.61882150478527
 30
0.0
 10
-2.5604634322989153
 20
35.717216955145446
 30
0.0
 10
-2.4603789856832687
 20
35.881643220072796
 30
0.0
 10
-2.3002452019948088
 20
36.906374897737734
 30
0.0
 10
-2.1896851533335475
 20
37.49644130379721
 30
0.0
 10
-2.1057945908957847
 20
37.86326445815937
 30
0.0
 10
-2.079633133842053
 20
37.97270066474742
 30
0.0
 10
-1.901571833544895
 20
38.61426410954668
 30
0.0
 10
-1.7774296020349443
 20
38.96851165609604
 30
0.0
 10
-1.2938346097634175
 20
40.207295348804756
 30
0.0
 10
-1.0796192212973463
 20
40.50342114870536
 30
0.0
 10
-0.6101104175965415
 20
40.66612360734548
 30
0.0
 10
-0.2427667985909765
 20
40.6679842997398
 30
0.0
 10
-3.552713678800501e-15
 20
40.66745466390578
 30
0.0
 10
0.24276679859095474
 20
40.667984299739786
 30
0.0
 10
0.610110417596518
 20
40.666123607345504
 30
0.0
 10
1.079619221297297
 20
40.50342114870523
 30
0.0
 10
1.293834609763398
 20
40.20729534880475
 30
0.0
 10
1.7774296020349323
 20
38.968511656096034
 30
0.0
 10
1.9015718335448755
 20
38.61426410954668
 30
0.0
 10
2.079633133842041
 20
37.97270066474743
 30
0.0
 10
2.10579459089577
 20
37.863264458159364
 30
0.0
 10
2.189685153333533
 20
37.49644130379721
 30
0.0
 10
2.300245201994794
 20
36.90637489773773
 30
0.0
 10
2.4603789856832474
 20
35.881643220072796
 30
0.0
 10
2.560463432298902
 20
35.71721695514544
 30
0.0
 10
2.650085634111022
 20
35.61882150478527
 30
0.0
 10
4.813394499251032
 20
35.39144858087126
 30
0.0
 10
4.921515805379213
 20
35.469060351050636
 30
0.0
 10
5.053599309462973
 20
35.60908478106652
 30
0.0
 10
5.423287481512103
 20
36.5781299272467
 30
0.0
 10
5.654113232025713
 20
37.132315239953336
 30
0.0
 10
5.812437406652959
 20
37.4736805996062
 30
0.0
 10
5.860780239850173
 20
37.57528608974342
 30
0.0
 10
6.1683390140944585
 20
38.16580880797834
 30
0.0
 10
6.363420646366778
 20
38.4865045744463
 30
0.0
 10
7.094005539892592
 20
39.59767281878332
 30
0.0
 10
7.3651078239130365
 20
39.84278967585631
 30
0.0
 10
7.858184477052454
 20
39.90432032617739
 30
0.0
 10
8.217887616329413
 20
39.82976532504002
 30
0.0
 10
8.45523926042723
 20
39.77877320745025
 30
0.0
 10
8.692811139488569
 20
39.72881721390109
 30
0.0
 10
9.051740559361948
 20
39.65062214916136
 30
0.0
 10
9.47716172594916
 20
39.393858760377626
 30
0.0
 10
9.625127978465462
 20
39.05966613607442
 30
0.0
 10
9.84059764777421
 20
37.74740778670905
 30
0.0
 10
9.888374867304282
 20
37.37509077773084
 30
0.0
 10
9.929156560398418
 20
36.71052600746795
 30
0.0
 10
9.931993260098817
 20
36.59804197179013
 30
0.0
 10
9.937783790216987
 20
36.22179295477709
 30
0.0
 10
9.923246132373427
 20
35.62163418876233
 30
0.0
 10
9.866826912946877
 20
34.586001671134746
 30
0.0
 10
9.930538131518855
 20
34.404359788078004
 30
0.0
 10
9.997744308740701
 20
34.289481010871505
 30
0.0
 10
12.066506195766436
 20
33.617299526960885
 30
0.0
 10
12.188401186309276
 20
33.67073561018001
 30
0.0
 10
12.346711064925714
 20
33.78023846578098
 30
0.0
 10
12.9097964782563
 20
34.65124515759379
 30
0.0
 10
13.250799737699975
 20
35.14532881950615
 30
0.0
 10
13.476637998361813
 20
35.446317080180144
 30
0.0
 10
13.54504939391714
 20
35.5356512063903
 30
0.0
 10
13.968663847843338
 20
36.04932452163161
 30
0.0
 10
14.226158877442197
 20
36.322452564154524
 30
0.0
 10
15.171803606639944
 20
37.25744197586551
 30
0.0
 10
15.487944315509976
 20
37.440837107255625
 30
0.0
 10
15.983039002301526
 20
37.398506764581796
 30
0.0
 10
16.31938090861631
 20
37.25079448121704
 30
0.0
 10
16.54094399243435
 20
37.15156848209752
 30
0.0
 10
16.762937920854736
 20
37.05331017579874
 30
0.0
 10
17.097766203613013
 20
36.902198238264226
 30
0.0
 10
17.460506786709548
 20
36.56259571151434
 30
0.0
 10
17.53575706802024
 20
36.20494208412458
 30
0.0
 10
17.47368435587922
 20
34.87656106488402
 30
0.0
 10
17.443008469675426
 20
34.50244663334453
 30
0.0
 10
17.344728199886042
 20
33.84392520701405
 30
0.0
 10
17.32411616484421
 20
33.73330943436389
 30
0.0
 10
17.25155358869057
 20
33.36407844218653
 30
0.0
 10
17.112553589749375
 20
32.780057134172615
 30
0.0
 10
16.842047157826215
 20
31.778785887118875
 30
0.0
 10
16.866600662382574
 20
31.587867007836792
 30
0.0
 10
16.908453582578534
 20
31.461525657597438
 30
0.0
 10
18.79225367000605
 20
30.37391317002172
 30
0.0
 10
18.922594948959762
 20
30.400838153029135
 30
0.0
 10
19.100212300758262
 20
30.475033633972426
 30
0.0
 10
19.832085420824168
 20
31.209934699431845
 30
0.0
 10
20.268362710445032
 20
31.62232288364788
 30
0.0
 10
20.551844841458333
 20
31.869779414049646
 30
0.0
 10
20.637334893111706
 20
31.942937846344645
 30
0.0
 10
21.158491042355568
 20
32.35731176983829
 30
0.0
 10
21.46714570088925
 20
32.57093508234412
 30
0.0
 10
22.586521053386132
 20
33.28888213756033
 30
0.0
 10
22.9338833211167
 20
33.40254029599833
 30
0.0
 10
23.4093580280197
 20
33.258198999427975
 30
0.0
 10
23.70763894611882
 20
33.04378516942106
 30
0.0
 10
23.903730099716583
 20
32.90066194107248
 30
0.0
 10
24.100443877578982
 20
32.758395681505
 30
0.0
 10
24.396537420581268
 20
32.54097118796151
 30
0.0
 10
24.680743916083372
 20
32.13337178325814
 30
0.0
 10
24.67998942780426
 20
31.76788833251129
 30
0.0
 10
24.343087209591957
 20
30.481441268215693
 30
0.0
 10
24.23529890108063
 20
30.121880009973413
 30
0.0
 10
24.002251987798584
 20
29.498182473842387
 30
0.0
 10
23.959092062853365
 20
29.39426940427806
 30
0.0
 10
23.8113477131997
 20
29.048193603061407
 30
0.0
 10
23.5539603401106
 20
28.50583428665371
 30
0.0
 10
23.081189124799753
 20
27.58268466830257
 30
0.0
 10
23.06551180937059
 20
27.3908328639502
 30
0.0
 10
23.08018229909551
 20
27.2585506639365
 30
0.0
 10
24.696689483628493
 20
25.803041057346487
 30
0.0
 10
24.829780511655954
 20
25.802278189184378
 30
0.0
 10
25.018942606060307
 20
25.837923596923346
 30
0.0
 10
25.887617065597773
 20
26.404600333022223
 30
0.0
 10
26.400100974348693
 20
26.717269697033647
 30
0.0
 10
26.728837446289983
 20
26.90037945935645
 30
0.0
 10
26.827669828557372
 20
26.954164823191903
 30
0.0
 10
27.423590648612272
 20
27.251129226094495
 30
0.0
 10
27.76991524641349
 20
27.39591144474837
 30
0.0
 10
29.014099147946503
 20
27.86543841206465
 30
0.0
 10
29.37750157660869
 20
27.904392190634454
 30
0.0
 10
29.812575777350695
 20
27.664348347454066
 30
0.0
 10
30.05975939980258
 20
27.39260388404799
 30
0.0
 10
30.2218084988181
 20
27.21183859833064
 30
0.0
 10
30.3846447900925
 20
27.03178210370682
 30
0.0
 10
30.629062884695134
 20
26.757547547840666
 30
0.0
 10
30.82231410497529
 20
26.299765315048305
 30
0.0
 10
30.74558782186461
 20
25.942425421526174
 30
0.0
 10
30.14858034115311
 20
24.754136221943163
 30
0.0
 10
29.968390476641886
 20
24.42484268934962
 30
0.0
 10
29.61076218826076
 20
23.863227618579806
 30
0.0
 10
29.54694066923656
 20
23.770558751871494
 30
0.0
 10
29.330471683118795
 20
23.462763314784663
 30
0.0
 10
28.96594599916742
 20
22.985769694638947
 30
0.0
 10
28.311572371185953
 20
22.181087773075692
 30
0.0
 10
28.25634940968363
 20
21.99668788811033
 30
0.0
 10
28.243196298139715
 20
21.86424620522331
 30
0.0
 10
29.52176145895199
 20
20.10445223373698
 30
0.0
 10
29.65178551948679
 20
20.076034855404668
 30
0.0
 10
29.844225065271083
 20
20.071572314575484
 30
0.0
 10
30.8117356220358
 20
20.445258228729625
 30
0.0
 10
31.37802814393372
 20
20.644543620975064
 30
0.0
 10
31.737651595526565
 20
20.755303839947274
 30
0.0
 10
31.845506859052495
 20
20.78736545683276
 30
0.0
 10
32.49014775053668
 20
20.953941569744153
 30
0.0
 10
32.85900624083171
 20
21.02355501684873
 30
0.0
 10
34.17362188464712
 20
21.224141314753005
 30
0.0
 10
34.537182044310065
 20
21.186688246410135
 30
0.0
 10
34.912840908601005
 20
20.861432924424864
 30
0.0
 10
35.09812412498589
 20
20.544234364645085
 30
0.0
 10
35.21904884619435
 20
20.333727331952886
 30
0.0
 10
35.340890923576836
 20
20.123749935094704
 30
0.0
 10
35.52295132619754
 20
19.80469068292063
 30
0.0
 10
35.61680126560727
 20
19.31673290229518
 30
0.0
 10
35.46745649441051
 20
18.98315403405174
 30
0.0
 10
34.63643584286663
 20
17.944956639247295
 30
0.0
 10
34.39171958408156
 20
17.660322539802518
 30
0.0
 10
33.925139992894536
 20
17.185335207914658
 30
0.0
 10
33.843446186422334
 20
17.107960618212083
 30
0.0
 10
33.56771329726725
 20
16.851897682822134
 30
0.0
 10
33.11198082403058
 20
16.4611166690081
 30
0.0
 10
32.30460405095434
 20
15.810070905497314
 30
0.0
 10
32.212248951785675
 20
15.64118209974077
 30
0.0
 10
32.17184709306302
 20
15.514369271048292
 30
0.0
 10
33.056590797390754
 20
13.527202375647958
 30
0.0
 10
33.17786521506286
 20
13.472372462940283
 30
0.0
 10
33.36517168064893
 20
13.427997007990825
 30
0.0
 10
34.389233480679536
 20
13.592360232607735
 30
0.0
 10
34.98458491514451
 20
13.669551925168658
 30
0.0
 10
35.359378075889516
 20
13.703121847734687
 30
0.0
 10
35.47154242811093
 20
13.712058471163598
 30
0.0
 10
36.13672949073634
 20
13.7409661186287
 30
0.0
 10
36.51200098751989
 20
13.732368352503125
 30
0.0
 10
37.83959336175722
 20
13.655247397257131
 30
0.0
 10
38.18742192888844
 20
13.543024360807937
 30
0.0
 10
38.487247361747585
 20
13.146772778336732
 30
0.0
 10
38.60253240642192
 20
12.797983221333187
 30
0.0
 10
38.67704775924532
 20
12.566934609119606
 30
0.0
 10
38.75257053929113
 20
12.336213329853102
 30
0.0
 10
38.86431633671264
 20
11.986273801707277
 30
0.0
 10
38.85466330255775
 20
11.489466569743279
 30
0.0
 10
38.63922712641193
 20
11.194227724009771
 30
0.0
 10
37.61051289418767
 20
10.35149634196068
 30
0.0
 10
37.31196551591654
 20
10.123961551636347
 30
0.0
 10
36.75682638895577
 20
9.756361184276036
 30
0.0
 10
36.660830706388786
 20
9.697662512433673
 30
0.0
 10
36.33788476456565
 20
9.504523257743442
 30
0.0
 10
35.81086319797117
 20
9.21703385574011
 30
0.0
 10
34.88576951900717
 20
8.748078074211396
 30
0.0
 10
34.76031864317478
 20
8.602081598893632
 30
0.0
 10
34.69443379236919
 20
8.486439953525025
 30
0.0
 10
35.14668849486194
 20
6.358748863024397
 30
0.0
 10
35.253912995679855
 20
6.279902746229794
 30
0.0
 10
35.42790018972545
 20
6.197553797478412
 30
0.0
 10
36.463756818366896
 20
6.145410870940074
 30
0.0
 10
37.06214745089966
 20
6.097135216444731
 30
0.0
 10
37.43573006121516
 20
6.052047675902085
 30
0.0
 10
37.547301381715705
 20
6.037468732547904
 30
0.0
 10
38.203962748923956
 20
5.927444511658203
 30
0.0
 10
38.56924608703414
 20
5.841011295938821
 30
0.0
 10
39.85179303444419
 20
5.489553643354208
 30
0.0
 10
40.16868823159343
 20
5.307465323997393
 30
0.0
 10
40.37957642288277
 20
4.857535576620301
 30
0.0
 10
40.41982478619528
 20
4.492398799712037
 30
0.0
 10
40.4446740921509
 20
4.250906541025031
 30
0.0
 10
40.470576866973516
 20
4.009525006377684
 30
0.0
 10
40.50712423163269
 20
3.6439992388362428
 30
0.0
 10
40.39439010782616
 20
3.1600554155161165
 30
0.0
 10
40.122278121406325
 20
2.9160599465642565
 30
0.0
 10
38.94083005676843
 20
2.3056259825398944
 30
0.0
 10
38.601499512030955
 20
2.145134863506238
 30
0.0
 10
37.982063092997706
 20
1.9009873606693943
 30
0.0
 10
37.875961006302504
 20
1.8635300203142326
 30
0.0
 10
37.51991629913556
 20
1.7417555585386486
 30
0.0
 10
36.944639010573496
 20
1.5701224347407776
 30
0.0
 10
35.94225945858445
 20
1.3037522531464454
 30
0.0
 10
35.78919561134229
 20
1.1870288548076624
 30
0.0
 10
35.700707252584564
 20
1.0876124875757174
 30
0.0
 10
35.700707252584564
 20
-1.0876124875757174
 30
0.0
 10
35.78919561134231
 20
-1.187028854807678
 30
0.0
 10
35.94225945858445
 20
-1.3037522531464514
 30
0.0
 10
36.94463901057351
 20
-1.5701224347407923
 30
0.0
 10
37.519916299135566
 20
-1.7417555585386635
 30
0.0
 10
37.875961006302504
 20
-1.8635300203142469
 30
0.0
 10
37.982063092997706
 20
-1.9009873606694112
 30
0.0
 10
38.601499512030955
 20
-2.145134863506249
 30
0.0
 10
38.940830056768434
 20
-2.305625982539913
 30
0.0
 10
40.12227812140634
 20
-2.916059946564269
 30
0.0
 10
40.39439010782629
 20
-3.160055415516112
 30
0.0
 10
40.50712423163267
 20
-3.643999238836249
 30
0.0
 10
40.47057686697352
 20
-4.009525006377695
 30
0.0
 10
40.4446740921509
 20
-4.250906541025037
 30
0.0
 10
40.41982478619528
 20
-4.492398799712026
 30
0.0
 10
40.379576422882785
 20
-4.8575355766202915
 30
0.0
 10
40.168688231593315
 20
-5.307465323997345
 30
0.0
 10
39.851793034444185
 20
-5.489553643354199
 30
0.0
 10
38.56924608703413
 20
-5.84101129593882
 30
0.0
 10
38.203962748923956
 20
-5.927444511658194
 30
0.0
 10
37.5473013817157
 20
-6.037468732547904
 30
0.0
 10
37.43573006121516
 20
-6.052047675902083
 30
0.0
 10
37.06214745089966
 20
-6.097135216444727
 30
0.0
 10
36.463756818366875
 20
-6.1454108709400685
 30
0.0
 10
35.427900189725456
 20
-6.1975537974784025
 30
0.0
 10
35.25391299567984
 20
-6.279902746229792
 30
0.0
 10
35.14668849486194
 20
-6.358748863024381
 30
0.0
 10
34.69443379236919
 20
-8.486439953525009
 30
0.0
 10
34.76031864317479
 20
-8.602081598893633
 30
0.0
 10
34.88576951900718
 20
-8.748078074211385
 30
0.0
 10
35.81086319797119
 20
-9.217033855740112
 30
0.0
 10
36.337884764565665
 20
-9.504523257743442
 30
0.0
 10
36.660830706388786
 20
-9.69766251243367
 30
0.0
 10
36.75682638895577
 20
-9.756361184276036
 30
0.0
 10
37.31196551591654
 20
-10.123961551636338
 30
0.0
 10
37.61051289418768
 20
-10.351496341960683
 30
0.0
 10
38.63922712641195
 20
-11.194227724009767
 30
0.0
 10
38.85466330255789
 20
-11.489466569743284
 30
0.0
 10
38.864316336712626
 20
-11.986273801707265
 30
0.0
 10
38.752570539291135
 20
-12.336213329853095
 30
0.0
 10
38.67704775924532
 20
-12.566934609119611
 30
0.0
 10
38.602532406421915
 20
-12.797983221333194
 30
0.0
 10
38.48724736174759
 20
-13.146772778336743
 30
0.0
 10
38.18742192888833
 20
-13.543024360807877
 30
0.0
 10
37.839593361757196
 20
-13.655247397257133
 30
0.0
 10
36.51200098751988
 20
-13.732368352503137
 30
0.0
 10
36.13672949073634
 20
-13.74096611862871
 30
0.0
 10
35.47154242811092
 20
-13.712058471163616
 30
0.0
 10
35.359378075889516
 20
-13.703121847734701
 30
0.0
 10
34.984584915144495
 20
-13.669551925168669
 30
0.0
 10
34.389233480679515
 20
-13.592360232607742
 30
0.0
 10
33.36517168064893
 20
-13.42799700799083
 30
0.0
 10
33.17786521506284
 20
-13.47237246294029
 30
0.0
 10
33.056590797390754
 20
-13.527202375647958
 30
0.0
 10
32.171847093063015
 20
-15.51436927104829
 30
0.0
 10
32.21224895178568
 20
-15.641182099740787
 30
0.0
 10
32.30460405095433
 20
-15.81007090549732
 30
0.0
 10
33.11198082403059
 20
-16.46111666900812
 30
0.0
 10
33.56771329726725
 20
-16.851897682822152
 30
0.0
 10
33.843446186422334
 20
-17.107960618212097
 30
0.0
 10
33.92513999289452
 20
-17.185335207914672
 30
0.0
 10
34.39171958408156
 20
-17.66032253980253
 30
0.0
 10
34.63643584286664
 20
-17.944956639247316
 30
0.0
 10
35.46745649441051
 20
-18.983154034051754
 30
0.0
 10
35.616801265607386
 20
-19.316732902295225
 30
0.0
 10
35.52295132619753
 20
-19.80469068292063
 30
0.0
 10
35.340890923576836
 20
-20.123749935094715
 30
0.0
 10
35.21904884619435
 20
-20.333727331952893
 30
0.0
 10
35.09812412498588
 20
-20.54423436464509
 30
0.0
 10
34.91284090860103
 20
-20.861432924424875
 30
0.0
 10
34.53718204430997
 20
-21.18668824641006
 30
0.0
 10
34.17362188464711
 20
-21.22414131475301
 30
0.0
 10
32.859006240831704
 20
-21.02355501684874
 30
0.0
 10
32.49014775053668
 20
-20.953941569744167
 30
0.0
 10
31.84550685905249
 20
-20.787365456832774
 30
0.0
 10
31.73765159552656
 20
-20.75530383994729
 30
0.0
 10
31.37802814393371
 20
-20.644543620975075
 30
0.0
 10
30.811735622035787
 20
-20.445258228729628
 30
0.0
 10
29.844225065271083
 20
-20.07157231457549
 30
0.0
 10
29.651785519486772
 20
-20.07603485540467
 30
0.0
 10
29.521761458951993
 20
-20.10445223373698
 30
0.0
 10
28.24319629813972
 20
-21.86424620522331
 30
0.0
 10
28.25634940968364
 20
-21.996687888110355
 30
0.0
 10
28.311572371185953
 20
-22.1810877730757
 30
0.0
 10
28.965945999167428
 20
-22.985769694638968
 30
0.0
 10
29.330471683118795
 20
-23.462763314784684
 30
0.0
 10
29.546940669236555
 20
-23.77055875187151
 30
0.0
 10
29.610762188260754
 20
-23.86322761857982
 30
0.0
 10
29.968390476641886
 20
-24.424842689349635
 30
0.0
 10
30.14858034115311
 20
-24.75413622194318
 30
0.0
 10
30.745587821864618
 20
-25.942425421526195
 30
0.0
 10
30.8223141049754
 20
-26.29976531504838
 30
0.0
 10
30.629062884695124
 20
-26.757547547840662
 30
0.0
 10
30.38464479009251
 20
-27.031782103706835
 30
0.0
 10
30.2218084988181
 20
-27.21183859833065
 30
0.0
 10
30.059759399802566
 20
-27.392603884047997
 30
0.0
 10
29.812575777350702
 20
-27.664348347454087
 30
0.0
 10
29.377501576608605
 20
-27.904392190634358
 30
0.0
 10
29.014099147946485
 20
-27.865438412064652
 30
0.0
 10
27.76991524641347
 20
-27.39591144474838
 30
0.0
 10
27.423590648612265
 20
-27.251129226094505
 30
0.0
 10
26.827669828557358
 20
-26.954164823191917
 30
0.0
 10
26.728837446289972
 20
-26.90037945935646
 30
0.0
 10
26.400100974348675
 20
-26.717269697033654
 30
0.0
 10
25.88761706559775
 20
-26.404600333022227
 30
0.0
 10
25.0189426060603
 20
-25.837923596923353
 30
0.0
 10
24.829780511655933
 20
-25.802278189184378
 30
0.0
 10
24.696689483628493
 20
-25.80304105734649
 30
0.0
 10
23.080182299095508
 20
-27.258550663936504
 30
0.0
 10
23.065511809370587
 20
-27.390832863950223
 30
0.0
 10
23.081189124799746
 20
-27.582684668302576
 30
0.0
 10
23.5539603401106
 20
-28.505834286653734
 30
0.0
 10
23.811347713199694
 20
-29.048193603061424
 30
0.0
 10
23.95909206285335
 20
-29.39426940427807
 30
0.0
 10
24.002251987798566
 20
-29.4981824738424
 30
0.0
 10
24.235298901080622
 20
-30.121880009973424
 30
0.0
 10
24.343087209591946
 20
-30.48144126821571
 30
0.0
 10
24.679989427804255
 20
-31.767888332511312
 30
0.0
 10
24.680743916083458
 20
-32.133371783258234
 30
0.0
 10
24.396537420581254
 20
-32.5409711879615
 30
0.0
 10
24.10044387757898
 20
-32.758395681505014
 30
0.0
 10
23.903730099716558
 20
-32.90066194107249
 30
0.0
 10
23.70763894611879
 20
-33.043785169421064
 30
0.0
 10
23.409358028019682
 20
-33.258198999428
 30
0.0
 10
22.93388332111662
 20
-33.40254029599823
 30
0.0
 10
22.586521053386093
 20
-33.288882137560336
 30
0.0
 10
21.467145700889215
 20
-32.570935082344135
 30
0.0
 10
21.158491042355543
 20
-32.3573117698383
 30
0.0
 10
20.637334893111678
 20
-31.942937846344666
 30
0.0
 10
20.551844841458305
 20
-31.869779414049663
 30
0.0
 10
20.268362710445
 20
-31.622322883647893
 30
0.0
 10
19.832085420824132
 20
-31.209934699431848
 30
0.0
 10
19.100212300758244
 20
-30.475033633972437
 30
0.0
 10
18.92259494895973
 20
-30.400838153029138
 30
0.0
 10
18.792253670006037
 20
-30.373913170021726
 30
0.0
 10
16.90845358257852
 20
-31.46152565759744
 30
0.0
 10
16.866600662382552
 20
-31.58786700783682
 30
0.0
 10
16.842047157826194
 20
-31.778785887118886
 30
0.0
 10
17.11255358974935
 20
-32.780057134172644
 30
0.0
 10
17.251553588690545
 20
-33.36407844218655
 30
0.0
 10
17.32411616484418
 20
-33.7333094343639
 30
0.0
 10
17.34472819988601
 20
-33.84392520701407
 30
0.0
 10
17.443008469675398
 20
-34.50244663334454
 30
0.0
 10
17.473684355879193
 20
-34.876561064884044
 30
0.0
 10
17.535757068020214
 20
-36.2049420841246
 30
0.0
 10
17.460506786709594
 20
-36.562595711514454
 30
0.0
 10
17.09776620361298
 20
-36.902198238264226
 30
0.0
 10
16.762937920854707
 20
-37.05331017579876
 30
0.0
 10
16.540943992434325
 20
-37.151568482097524
 30
0.0
 10
16.3193809086163
 20
-37.25079448121704
 30
0.0
 10
15.983039002301524
 20
-37.39850676458182
 30
0.0
 10
15.487944315509942
 20
-37.4408371072555
 30
0.0
 10
15.17180360663993
 20
-37.257441975865504
 30
0.0
 10
14.226158877442176
 20
-36.322452564154524
 30
0.0
 10
13.96866384784333
 20
-36.04932452163162
 30
0.0
 10
13.545049393917123
 20
-35.5356512063903
 30
0.0
 10
13.476637998361802
 20
-35.44631708018015
 30
0.0
 10
13.250799737699959
 20
-35.14532881950615
 30
0.0
 10
12.909796478256283
 20
-34.65124515759379
 30
0.0
 10
12.34671106492571
 20
-33.78023846578099
 30
0.0
 10
12.188401186309257
 20
-33.670735610179996
 30
0.0
 10
12.066506195766438
 20
-33.61729952696089
 30
0.0
 10
9.997744308740703
 20
-34.28948101087151
 30
0.0
 10
9.930538131518844
 20
-34.40435978807802
 30
0.0
 10
9.866826912946873
 20
-34.586001671134746
 30
0.0
 10
9.923246132373416
 20
-35.62163418876235
 30
0.0
 10
9.937783790216974
 20
-36.2217929547771
 30
0.0
 10
9.931993260098807
 20
-36.59804197179013
 30
0.0
 10
9.929156560398402
 20
-36.71052600746795
 30
0.0
 10
9.888374867304274
 20
-37.37509077773085
 30
0.0
 10
9.840597647774196
 20
-37.74740778670906
 30
0.0
 10
9.625127978465454
 20
-39.05966613607443
 30
0.0
 10
9.477161725949202
 20
-39.393858760377746
 30
0.0
 10
9.051740559361935
 20
-39.65062214916134
 30
0.0
 10
8.692811139488562
 20
-39.7288172139011
 30
0.0
 10
8.455239260427224
 20
-39.77877320745024
 30
0.0
 10
8.217887616329419
 20
-39.829765325040015
 30
0.0
 10
7.8581844770524665
 20
-39.9043203261774
 30
0.0
 10
7.3651078239130445
 20
-39.84278967585618
 30
0.0
 10
7.094005539892596
 20
-39.5976728187833
 30
0.0
 10
6.363420646366776
 20
-38.48650457444629
 30
0.0
 10
6.168339014094466
 20
-38.16580880797833
 30
0.0
 10
5.860780239850172
 20
-37.575286089743415
 30
0.0
 10
5.812437406652961
 20
-37.4736805996062
 30
0.0
 10
5.654113232025714
 20
-37.13231523995332
 30
0.0
 10
5.423287481512103
 20
-36.57812992724668
 30
0.0
 10
5.0535993094629825
 20
-35.60908478106652
 30
0.0
 10
4.9215158053792125
 20
-35.469060351050615
 30
0.0
 10
4.813394499251048
 20
-35.39144858087126
 30
0.0
 10
2.6500856341110377
 20
-35.61882150478527
 30
0.0
 10
2.5604634322989037
 20
-35.717216955145446
 30
0.0
 10
2.460378985683257
 20
-35.881643220072796
 30
0.0
 10
2.300245201994797
 20
-36.906374897737734
 30
0.0
 10
2.1896851533335355
 20
-37.49644130379721
 30
0.0
 10
2.1057945908957727
 20
-37.86326445815937
 30
0.0
 10
2.079633133842041
 20
-37.97270066474742
 30
0.0
 10
1.9015718335448826
 20
-38.614264109546674
 30
0.0
 10
1.7774296020349318
 20
-38.96851165609604
 30
0.0
 10
1.293834609763405
 20
-40.207295348804756
 30
0.0
 10
1.079619221297333
 20
-40.50342114870536
 30
0.0
 10
0.6101104175965282
 20
-40.66612360734548
 30
0.0
 10
0.24276679859096317
 20
-40.66798429973979
 30
0.0
 10
-1.7763568394002505e-15
 20
-40.66745466390577
 30
0.0
 10
-0.24276679859095873
 20
-40.667984299739786
 30
0.0
 10
-0.610110417596522
 20
-40.6661236073455
 30
0.0
 10
-1.079619221297302
 20
-40.50342114870523
 30
0.0
 10
-1.2938346097634015
 20
-40.20729534880474
 30
0.0
 10
-1.7774296020349363
 20
-38.968511656096034
 30
0.0
 10
-1.901571833544879
 20
-38.614264109546674
 30
0.0
 10
-2.079633133842045
 20
-37.97270066474742
 30
0.0
 10
-2.105794590895774
 20
-37.863264458159364
 30
0.0
 10
-2.189685153333537
 20
-37.496441303797205
 30
0.0
 10
-2.300245201994798
 20
-36.90637489773772
 30
0.0
 10
-2.460378985683251
 20
-35.881643220072796
 30
0.0
 10
-2.5604634322989055
 20
-35.71721695514543
 30
0.0
 10
-2.6500856341110257
 20
-35.61882150478527
 30
0.0
 10
-4.813394499251036
 20
-35.39144858087126
 30
0.0
 10
-4.921515805379217
 20
-35.46906035105063
 30
0.0
 10
-5.053599309462976
 20
-35.60908478106652
 30
0.0
 10
-5.423287481512107
 20
-36.57812992724669
 30
0.0
 10
-5.654113232025717
 20
-37.13231523995333
 30
0.0
 10
-5.812437406652963
 20
-37.47368059960619
 30
0.0
 10
-5.860780239850176
 20
-37.575286089743415
 30
0.0
 10
-6.168339014094462
 20
-38.16580880797833
 30
0.0
 10
-6.363420646366782
 20
-38.4865045744463
 30
0.0
 10
-7.094005539892596
 20
-39.597672818783316
 30
0.0
 10
-7.365107823913039
 20
-39.84278967585631
 30
0.0
 10
-7.858184477052458
 20
-39.904320326177384
 30
0.0
 10
-8.217887616329415
 20
-39.82976532504002
 30
0.0
 10
-8.455239260427224
 20
-39.77877320745025
 30
0.0
 10
-8.692811139488565
 20
-39.72881721390109
 30
0.0
 10
-9.051740559361942
 20
-39.65062214916136
 30
0.0
 10
-9.477161725949156
 20
-39.393858760377626
 30
0.0
 10
-9.625127978465457
 20
-39.05966613607442
 30
0.0
 10
-9.840597647774207
 20
-37.74740778670905
 30
0.0
 10
-9.888374867304279
 20
-37.37509077773084
 30
0.0
 10
-9.929156560398415
 20
-36.71052600746795
 30
0.0
 10
-9.931993260098814
 20
-36.59804197179013
 30
0.0
 10
-9.937783790216981
 20
-36.22179295477709
 30
0.0
 10
-9.923246132373421
 20
-35.62163418876233
 30
0.0
 10
-9.866826912946873
 20
-34.58600167113474
 30
0.0
 10
-9.930538131518851
 20
-34.404359788078004
 30
0.0
 10
-9.997744308740698
 20
-34.289481010871505
 30
0.0
 10
-12.066506195766433
 20
-33.617299526960885
 30
0.0
 10
-12.188401186309271
 20
-33.67073561018001
 30
0.0
 10
-12.34671106492571
 20
-33.78023846578098
 30
0.0
 10
-12.909796478256297
 20
-34.65124515759379
 30
0.0
 10
-13.250799737699971
 20
-35.14532881950615
 30
0.0
 10
-13.47663799836181
 20
-35.446317080180144
 30
0.0
 10
-13.545049393917136
 20
-35.5356512063903
 30
0.0
 10
-13.968663847843334
 20
-36.04932452163161
 30
0.0
 10
-14.226158877442192
 20
-36.322452564154524
 30
0.0
 10
-15.17180360663994
 20
-37.25744197586551
 30
0.0
 10
-15.487944315509973
 20
-37.440837107255625
 30
0.0
 10
-15.98303900230152
 20
-37.398506764581796
 30
0.0
 10
-16.319380908616303
 20
-37.25079448121704
 30
0.0
 10
-16.540943992434336
 20
-37.15156848209752
 30
0.0
 10
-16.762937920854718
 20
-37.05331017579874
 30
0.0
 10
-17.097766203613
 20
-36.90219823826424
 30
0.0
 10
-17.460506786709534
 20
-36.56259571151435
 30
0.0
 10
-17.535757068020224
 20
-36.20494208412459
 30
0.0
 10
-17.473684355879207
 20
-34.87656106488403
 30
0.0
 10
-17.443008469675412
 20
-34.50244663334454
 30
0.0
 10
-17.344728199886028
 20
-33.84392520701406
 30
0.0
 10
-17.324116164844195
 20
-33.733309434363896
 30
0.0
 10
-17.251553588690555
 20
-33.36407844218654
 30
0.0
 10
-17.11255358974936
 20
-32.78005713417263
 30
0.0
 10
-16.842047157826205
 20
-31.778785887118882
 30
0.0
 10
-16.86660066238256
 20
-31.5878670078368
 30
0.0
 10
-16.908453582578524
 20
-31.46152565759744
 30
0.0
 10
-18.79225367000604
 20
-30.373913170021726
 30
0.0
 10
-18.922594948959752
 20
-30.400838153029145
 30
0.0
 10
-19.10021230075825
 20
-30.475033633972433
 30
0.0
 10
-19.832085420824157
 20
-31.20993469943185
 30
0.0
 10
-20.268362710445018
 20
-31.62232288364789
 30
0.0
 10
-20.55184484145832
 20
-31.869779414049653
 30
0.0
 10
-20.637334893111692
 20
-31.942937846344655
 30
0.0
 10
-21.158491042355553
 20
-32.3573117698383
 30
0.0
 10
-21.467145700889237
 20
-32.57093508234413
 30
0.0
 10
-22.586521053386118
 20
-33.28888213756034
 30
0.0
 10
-22.93388332111669
 20
-33.402540295998335
 30
0.0
 10
-23.409358028019685
 20
-33.25819899942798
 30
0.0
 10
-23.707638946118806
 20
-33.043785169421064
 30
0.0
 10
-23.90373009971657
 20
-32.900661941072485
 30
0.0
 10
-24.100443877578975
 20
-32.758395681505014
 30
0.0
 10
-24.39653742058126
 20
-32.54097118796152
 30
0.0
 10
-24.68074391608336
 20
-32.13337178325815
 30
0.0
 10
-24.679989427804248
 20
-31.7678883325113
 30
0.0
 10
-24.34308720959195
 20
-30.481441268215704
 30
0.0
 10
-24.235298901080622
 20
-30.121880009973424
 30
0.0
 10
-24.00225198779857
 20
-29.498182473842398
 30
0.0
 10
-23.959092062853358
 20
-29.394269404278067
 30
0.0
 10
-23.811347713199694
 20
-29.048193603061417
 30
0.0
 10
-23.553960340110592
 20
-28.50583428665372
 30
0.0
 10
-23.081189124799742
 20
-27.582684668302576
 30
0.0
 10
-23.065511809370584
 20
-27.39083286395021
 30
0.0
 10
-23.0801822990955
 20
-27.25855066393651
 30
0.0
 10
-24.696689483628486
 20
-25.803041057346498
 30
0.0
 10
-24.829780511655944
 20
-25.802278189184385
 30
0.0
 10
-25.018942606060296
 20
-25.837923596923353
 30
0.0
 10
-25.887617065597766
 20
-26.404600333022234
 30
0.0
 10
-26.400100974348682
 20
-26.717269697033654
 30
0.0
 10
-26.72883744628998
 20
-26.900379459356458
 30
0.0
 10
-26.82766982855736
 20
-26.954164823191913
 30
0.0
 10
-27.423590648612265
 20
-27.251129226094505
 30
0.0
 10
-27.76991524641348
 20
-27.39591144474838
 30
0.0
 10
-29.014099147946492
 20
-27.865438412064663
 30
0.0
 10
-29.37750157660868
 20
-27.90439219063446
 30
0.0
 10
-29.812575777350688
 20
-27.664348347454077
 30
0.0
 10
-30.05975939980257
 20
-27.392603884048
 30
0.0
 10
-30.2218084988181
 20
-27.211838598330647
 30
0.0
 10
-30.3846447900925
 20
-27.031782103706824
 30
0.0
 10
-30.629062884695134
 20
-26.757547547840666
 30
0.0
 10
-30.82231410497529
 20
-26.299765315048308
 30
0.0
 10
-30.74558782186461
 20
-25.94242542152618
 30
0.0
 10
-30.14858034115311
 20
-24.754136221943167
 30
0.0
 10
-29.968390476641886
 20
-24.424842689349624
 30
0.0
 10
-29.610762188260757
 20
-23.86322761857981
 30
0.0
 10
-29.54694066923656
 20
-23.7705587518715
 30
0.0
 10
-29.330471683118795
 20
-23.462763314784667
 30
0.0
 10
-28.96594599916742
 20
-22.98576969463895
 30
0.0
 10
-28.311572371185953
 20
-22.181087773075696
 30
0.0
 10
-28.25634940968363
 20
-21.996687888110337
 30
0.0
 10
-28.243196298139715
 20
-21.864246205223314
 30
0.0
 10
-29.52176145895199
 20
-20.104452233736982
 30
0.0
 10
-29.65178551948679
 20
-20.07603485540467
 30
0.0
 10
-29.844225065271083
 20
-20.071572314575487
 30
0.0
 10
-30.8117356220358
 20
-20.445258228729628
 30
0.0
 10
-31.37802814393372
 20
-20.644543620975067
 30
0.0
 10
-31.737651595526565
 20
-20.75530383994728
 30
0.0
 10
-31.845506859052495
 20
-20.787365456832763
 30
0.0
 10
-32.49014775053668
 20
-20.953941569744156
 30
0.0
 10
-32.85900624083171
 20
-21.023555016848732
 30
0.0
 10
-34.17362188464712
 20
-21.22414131475301
 30
0.0
 10
-34.537182044310065
 20
-21.18668824641014
 30
0.0
 10
-34.912840908601005
 20
-20.861432924424868
 30
0.0
 10
-35.09812412498589
 20
-20.54423436464509
 30
0.0
 10
-35.21904884619435
 20
-20.333727331952886
 30
0.0
 10
-35.340890923576836
 20
-20.123749935094704
 30
0.0
 10
-35.52295132619754
 20
-19.80469068292063
 30
0.0
 10
-35.61680126560727
 20
-19.31673290229518
 30
0.0
 10
-35.46745649441051
 20
-18.98315403405174
 30
0.0
 10
-34.63643584286663
 20
-17.944956639247295
 30
0.0
 10
-34.39171958408156
 20
-17.660322539802518
 30
0.0
 10
-33.925139992894536
 20
-17.185335207914658
 30
0.0
 10
-33.843446186422334
 20
-17.107960618212083
 30
0.0
 10
-33.56771329726725
 20
-16.851897682822134
 30
0.0
 10
-33.11198082403058
 20
-16.4611166690081
 30
0.0
 10
-32.30460405095434
 20
-15.810070905497314
 30
0.0
 10
-32.212248951785675
 20
-15.64118209974077
 30
0.0
 10
-32.17184709306302
 20
-15.514369271048292
 30
0.0
 10
-33.056590797390754
 20
-13.527202375647958
 30
0.0
 10
-33.17786521506286
 20
-13.472372462940283
 30
0.0
 10
-33.36517168064893
 20
-13.427997007990825
 30
0.0
 10
-34.389233480679536
 20
-13.592360232607735
 30
0.0
 10
-34.98458491514451
 20
-13.669551925168658
 30
0.0
 10
-35.359378075889516
 20
-13.703121847734687
 30
0.0
 10
-35.47154242811093
 20
-13.712058471163598
 30
0.0
 10
-36.13672949073634
 20
-13.7409661186287
 30
0.0
 10
-36.51200098751989
 20
-13.732368352503125
 30
0.0
 10
-37.83959336175722
 20
-13.655247397257131
 30
0.0
 10
-38.18742192888844
 20
-13.543024360807937
 30
0.0
 10
-38.487247361747585
 20
-13.146772778336732
 30
0.0
 10
-38.60253240642192
 20
-12.797983221333187
 30
0.0
 10
-38.67704775924532
 20
-12.566934609119599
 30
0.0
 10
-38.75257053929113
 20
-12.336213329853095
 30
0.0
 10
-38.86431633671264
 20
-11.986273801707274
 30
0.0
 10
-38.85466330255776
 20
-11.489466569743273
 30
0.0
 10
-38.63922712641194
 20
-11.194227724009764
 30
0.0
 10
-37.61051289418768
 20
-10.351496341960674
 30
0.0
 10
-37.31196551591654
 20
-10.12396155163634
 30
0.0
 10
-36.75682638895577
 20
-9.75636118427603
 30
0.0
 10
-36.660830706388786
 20
-9.697662512433666
 30
0.0
 10
-36.33788476456566
 20
-9.504523257743434
 30
0.0
 10
-35.81086319797117
 20
-9.217033855740105
 30
0.0
 10
-34.88576951900718
 20
-8.74807807421139
 30
0.0
 10
-34.760318643174784
 20
-8.602081598893625
 30
0.0
 10
-34.69443379236919
 20
-8.486439953525018
 30
0.0
 10
-35.14668849486194
 20
-6.358748863024391
 30
0.0
 10
-35.25391299567986
 20
-6.279902746229788
 30
0.0
 10
-35.427900189725456
 20
-6.197553797478407
 30
0.0
 10
-36.46375681836689
 20
-6.145410870940068
 30
0.0
 10
-37.062147450899666
 20
-6.097135216444725
 30
0.0
 10
-37.43573006121516
 20
-6.052047675902079
 30
0.0
 10
-37.5473013817157
 20
-6.0374687325478975
 30
0.0
 10
-38.203962748923956
 20
-5.927444511658196
 30
0.0
 10
-38.569246087034145
 20
-5.841011295938813
 30
0.0
 10
-39.8517930344442
 20
-5.489553643354201
 30
0.0
 10
-40.16868823159343
 20
-5.307465323997388
 30
0.0
 10
-40.37957642288277
 20
-4.857535576620293
 30
0.0
 10
-40.419824786195285
 20
-4.49239879971203
 30
0.0
 10
-40.4446740921509
 20
-4.250906541025036
 30
0.0
 10
-40.470576866973516
 20
-4.0095250063776895
 30
0.0
 10
-40.50712423163269
 20
-3.6439992388362477
 30
0.0
 10
-40.39439010782616
 20
-3.1600554155161213
 30
0.0
 10
-40.122278121406325
 20
-2.9160599465642614
 30
0.0
 10
-38.94083005676843
 20
-2.3056259825398993
 30
0.0
 10
-38.601499512030955
 20
-2.145134863506243
 30
0.0
 10
-37.982063092997706
 20
-1.900987360669399
 30
0.0
 10
-37.875961006302504
 20
-1.8635300203142373
 30
0.0
 10
-37.51991629913556
 20
-1.7417555585386533
 30
0.0
 10
-36.944639010573496
 20
-1.570122434740782
 30
0.0
 10
-35.94225945858445
 20
-1.3037522531464498
 30
0.0
 10
-35.78919561134229
 20
-1.1870288548076668
 30
0.0
 10
-35.700707252584564
 20
-1.0876124875757218
 30
0.0
 10
-35.700707252584564
 20
1.087612487575713
 30
0.0
 10
-35.78919561134231
 20
1.1870288548076735
 30
0.0
 10
-35.94225945858445
 20
1.303752253146447
 30
0.0
 10
-36.94463901057351
 20
1.5701224347407878
 30
0.0
 10
-37.519916299135566
 20
1.7417555585386588
 30
0.0
 10
-37.875961006302504
 20
1.8635300203142422
 30
0.0
 10
-37.982063092997706
 20
1.9009873606694065
 30
0.0
 10
-38.601499512030955
 20
2.145134863506244
 30
0.0
 10
-38.940830056768434
 20
2.305625982539908
 30
0.0
 10
-40.12227812140634
 20
2.916059946564264
 30
0.0
 10
-40.39439010782629
 20
3.160055415516107
 30
0.0
 10
-40.50712423163267
 20
3.643999238836244
 30
0.0
 10
-40.47057686697352
 20
4.0095250063776895
 30
0.0
  0
LWPOLYLINE
  8
OpenJsCad
  90
121
  70
1
 10
-39.40722829448439
 20
5.5595368336880835
 30
0.0
 10
-39.77446953782164
 20
4.872476792022168
 30
0.0
 10
-40.00061557887078
 20
4.126973203982729
 30
0.0
 10
-39.818864947849804
 20
3.756273393922999
 30
0.0
 10
-38.70633471773873
 20
2.481777061429565
 30
0.0
 10
-37.853396909432405
 20
1.9090215332924974
 30
0.0
 10
-37.50989512517115
 20
1.7915370038068383
 30
0.0
 10
-36.32696762181163
 20
1.711272225809989
 30
0.0
 10
-35.60070725258456
 20
1.1385562939891423
 30
0.0
 10
-35.60070725258457
 20
-1.1385562939891571
 30
0.0
 10
-36.32696762181163
 20
-1.7112722258099964
 30
0.0
 10
-37.509895125171155
 20
-1.791537003806853
 30
0.0
 10
-37.853396909432405
 20
-1.9090215332925098
 30
0.0
 10
-38.706334717738756
 20
-2.481777061429595
 30
0.0
 10
-39.8188649478498
 20
-3.756273393922992
 30
0.0
 10
-40.00061557887078
 20
-4.1269732039827245
 30
0.0
 10
-39.77446953782164
 20
-4.8724767920221606
 30
0.0
 10
-39.40722829448439
 20
-5.559536833688087
 30
0.0
 10
-39.01658684132672
 20
-5.69314407948602
 30
0.0
 10
-37.328704172036666
 20
-5.807671408802942
 30
0.0
 10
-36.320586745945064
 20
-5.609552618526951
 30
0.0
 10
-35.994620197460435
 20
-5.44973428500996
 30
0.0
 10
-35.101408369370844
 20
-4.670033994544381
 30
0.0
 10
-34.182893418299244
 20
-4.5614616816409645
 30
0.0
 10
-32.572731665814544
 20
-6.171623434125674
 30
0.0
 10
-32.681303978717956
 20
-7.090138385197262
 30
0.0
 10
-33.46100426918353
 20
-7.9833502132868635
 30
0.0
 10
-33.62082260270053
 20
-8.309316761771491
 30
0.0
 10
-33.81894139297653
 20
-9.317434187863121
 30
0.0
 10
-33.704414063659605
 20
-11.005316857153137
 30
0.0
 10
-33.57080681786167
 20
-11.395958310310803
 30
0.0
 10
-32.88374677619575
 20
-11.763199553648057
 30
0.0
 10
-32.13824318815631
 20
-11.989345594697197
 30
0.0
 10
-31.76754337809658
 20
-11.807594963676221
 30
0.0
 10
-30.493047045603145
 20
-10.695064733565145
 30
0.0
 10
-29.92029151746608
 20
-9.842126925258821
 30
0.0
 10
-29.802806987980418
 20
-9.498625140997566
 30
0.0
 10
-29.72254220998357
 20
-8.315697637638054
 30
0.0
 10
-29.149826278162724
 20
-7.589437268410981
 30
0.0
 10
-26.872713690184423
 20
-7.589437268410987
 30
0.0
 10
-26.299997758363585
 20
-8.31569763763805
 30
0.0
 10
-26.21973298036673
 20
-9.498625140997571
 30
0.0
 10
-26.10224845088107
 20
-9.842126925258821
 30
0.0
 10
-25.529492922743987
 20
-10.695064733565177
 30
0.0
 10
-24.254996590250588
 20
-11.80759496367622
 30
0.0
 10
-23.88429678019086
 20
-11.989345594697198
 30
0.0
 10
-23.138793192151418
 20
-11.76319955364806
 30
0.0
 10
-22.451733150485495
 20
-11.395958310310808
 30
0.0
 10
-22.318125904687562
 20
-11.005316857153142
 30
0.0
 10
-22.203598575370638
 20
-9.317434187863082
 30
0.0
 10
-22.40171736564663
 20
-8.309316761771484
 30
0.0
 10
-22.56153569916362
 20
-7.983350213286852
 30
0.0
 10
-23.341235989629197
 20
-7.090138385197262
 30
0.0
 10
-23.449808302532617
 20
-6.17162343412566
 30
0.0
 10
-21.839646550047906
 20
-4.56146168164096
 30
0.0
 10
-20.921131598976316
 20
-4.670033994544374
 30
0.0
 10
-20.02791977088672
 20
-5.449734285009954
 30
0.0
 10
-19.70195322240209
 20
-5.609552618526944
 30
0.0
 10
-18.69383579631046
 20
-5.807671408802944
 30
0.0
 10
-17.005953127020444
 20
-5.693144079486027
 30
0.0
 10
-16.615311673862777
 20
-5.559536833688094
 30
0.0
 10
-16.248070430525523
 20
-4.872476792022169
 30
0.0
 10
-16.021924389476386
 20
-4.126973203982731
 30
0.0
 10
-16.20367502049736
 20
-3.7562733939230006
 30
0.0
 10
-17.316205250608434
 20
-2.481777061429566
 30
0.0
 10
-18.16914305891476
 20
-1.9090215332924982
 30
0.0
 10
-18.512644843176012
 20
-1.7915370038068392
 30
0.0
 10
-19.695572346535528
 20
-1.71127222580999
 30
0.0
 10
-20.421832715762598
 20
-1.1385562939891432
 30
0.0
 10
-20.421832715762594
 20
1.1385562939891563
 30
0.0
 10
-19.69557234653553
 20
1.7112722258099953
 30
0.0
 10
-18.51264484317601
 20
1.7915370038068519
 30
0.0
 10
-18.16914305891476
 20
1.9090215332925085
 30
0.0
 10
-17.316205250608405
 20
2.481777061429594
 30
0.0
 10
-16.20367502049736
 20
3.7562733939229904
 30
0.0
 10
-16.021924389476382
 20
4.126973203982723
 30
0.0
 10
-16.248070430525516
 20
4.8724767920221606
 30
0.0
 10
-16.61531167386277
 20
5.559536833688087
 30
0.0
 10
-17.005953127020433
 20
5.693144079486021
 30
0.0
 10
-18.693835796310495
 20
5.807671408802942
 30
0.0
 10
-19.701953222402096
 20
5.609552618526951
 30
0.0
 10
-20.02791977088673
 20
5.449734285009959
 30
0.0
 10
-20.921131598976316
 20
4.670033994544381
 30
0.0
 10
-21.83964655004792
 20
4.561461681640965
 30
0.0
 10
-23.44980830253262
 20
6.171623434125674
 30
0.0
 10
-23.341235989629205
 20
7.090138385197262
 30
0.0
 10
-22.561535699163628
 20
7.9833502132868635
 30
0.0
 10
-22.401717365646633
 20
8.309316761771491
 30
0.0
 10
-22.203598575370634
 20
9.317434187863121
 30
0.0
 10
-22.31812590468755
 20
11.005316857153137
 30
0.0
 10
-22.451733150485484
 20
11.395958310310805
 30
0.0
 10
-23.13879319215141
 20
11.763199553648057
 30
0.0
 10
-23.88429678019085
 20
11.989345594697195
 30
0.0
 10
-24.254996590250578
 20
11.80759496367622
 30
0.0
 10
-25.529492922744012
 20
10.695064733565147
 30
0.0
 10
-26.10224845088108
 20
9.842126925258821
 30
0.0
 10
-26.21973298036674
 20
9.498625140997564
 30
0.0
 10
-26.29999775836359
 20
8.315697637638053
 30
0.0
 10
-26.872713690184437
 20
7.589437268410981
 30
0.0
 10
-29.149826278162735
 20
7.589437268410988
 30
0.0
 10
-29.722542209983576
 20
8.31569763763805
 30
0.0
 10
-29.802806987980432
 20
9.498625140997571
 30
0.0
 10
-29.92029151746609
 20
9.842126925258821
 30
0.0
 10
-30.493047045603173
 20
10.695064733565177
 30
0.0
 10
-31.76754337809657
 20
11.80759496367622
 30
0.0
 10
-32.1382431881563
 20
11.989345594697198
 30
0.0
 10
-32.88374677619575
 20
11.763199553648056
 30
0.0
 10
-33.57080681786168
 20
11.395958310310805
 30
0.0
 10
-33.70441406365961
 20
11.005316857153138
 30
0.0
 10
-33.81894139297653
 20
9.317434187863077
 30
0.0
 10
-33.620822602700535
 20
8.309316761771479
 30
0.0
 10
-33.46100426918355
 20
7.983350213286847
 30
0.0
 10
-32.68130397871796
 20
7.090138385197258
 30
0.0
 10
-32.57273166581455
 20
6.171623434125657
 30
0.0
 10
-34.18289341829926
 20
4.561461681640955
 30
0.0
 10
-35.101408369370844
 20
4.67003399454437
 30
0.0
 10
-35.99462019746045
 20
5.4497342850099475
 30
0.0
 10
-36.32058674594508
 20
5.609552618526937
 30
0.0
 10
-37.32870417203671
 20
5.807671408802936
 30
0.0
 10
-39.01658684132672
 20
5.693144079486018
 30
0.0
 10
-39.40722829448439
 20
5.5595368336880835
 30
0.0
  0
LWPOLYLINE
  8
OpenJsCad
  90
31
  70
1
 10
-29.144082458023245
 20
1.6482523772440314
 30
0.0
 10
-28.77663684890376
 20
1.8477590650225737
 30
0.0
 10
-28.375741035157876
 20
1.966509815127909
 30
0.0
 10
-27.958916087557835
 20
1.9993146499511147
 30
0.0
 10
-27.54437925646177
 20
1.9447398407953531
 30
0.0
 10
-27.15024779055699
 20
1.8051705686997215
 30
0.0
 10
-26.793747126156138
 20
1.5867066805824703
 30
0.0
 10
-26.49045805297352
 20
1.2988960966603669
 30
0.0
 10
-26.253635758849647
 20
0.9543175205192159
 30
0.0
 10
-26.093630514437194
 20
0.5680306894078436
 30
0.0
 10
-26.017435316707324
 20
0.15691819145568942
 30
0.0
 10
-26.02838026142596
 20
-0.2610523844401045
 30
0.0
 10
-26.125987001989223
 20
-0.6676137184675427
 30
0.0
 10
-26.305989655465396
 20
-1.044997129431898
 30
0.0
 10
-26.560521242149004
 20
-1.376709151387508
 30
0.0
 10
-26.878457510323916
 20
-1.6482523772440316
 30
0.0
 10
-27.2459031194434
 20
-1.8477590650225741
 30
0.0
 10
-27.646798933189284
 20
-1.9665098151279092
 30
0.0
 10
-28.063623880789326
 20
-1.9993146499511145
 30
0.0
 10
-28.47816071188539
 20
-1.9447398407953533
 30
0.0
 10
-28.87229217779017
 20
-1.8051705686997208
 30
0.0
 10
-29.228792842191023
 20
-1.5867066805824699
 30
0.0
 10
-29.53208191537364
 20
-1.2988960966603673
 30
0.0
 10
-29.76890420949751
 20
-0.9543175205192165
 30
0.0
 10
-29.928909453909966
 20
-0.5680306894078451
 30
0.0
 10
-30.005104651639837
 20
-0.15691819145568964
 30
0.0
 10
-29.994159706921202
 20
0.2610523844401037
 30
0.0
 10
-29.896552966357937
 20
0.6676137184675422
 30
0.0
 10
-29.716550312881765
 20
1.044997129431898
 30
0.0
 10
-29.462018726198156
 20
1.376709151387508
 30
0.0
 10
-29.144082458023245
 20
1.6482523772440314
 30
0.0
  0
ENDSEC
  0
EOF
